<svg xmlns="http://www.w3.org/2000/svg" viewBox="0 0 145.73 145.73"><defs><style>.cls-1{fill:#56bdbf;stroke:#eaeaea;stroke-miterlimit:10;stroke-width:4px;}.cls-2{fill:#9ea6b0;}.cls-3{fill:#333;}.cls-4{fill:#a1b0d6;}.cls-5{fill:#e5effb;}.cls-6{fill:#706f6f;}.cls-7{fill:#c4cfdb;}.cls-8{fill:none;stroke:#fff;stroke-linecap:round;stroke-linejoin:round;stroke-width:0.86px;}.cls-9{isolation:isolate;}.cls-10{fill:#dce7f5;}.cls-11{fill:#261c35;}.cls-12{fill:#009fe3;}.cls-13{fill:#36a9e1;}.cls-14{fill:#6f559c;}.cls-15{fill:#a9b2bd;}</style></defs><title>G09_05_01</title><g id="Mobile"><circle class="cls-1" cx="72.87" cy="72.87" r="70.87"/><path class="cls-2" d="M127.94,101.79c-.72-4.52-10.08-9.3-15.1-7.89a7.64,7.64,0,0,0-2,1c-1.68,1-1.53,2.84.43,4l8.44,4.87a7.33,7.33,0,0,0,6.62.28l.46-.27A1.85,1.85,0,0,0,127.94,101.79Z" transform="translate(-5.09 -5.09)"/><path class="cls-3" d="M128,101.09a2,2,0,0,1-1.14,1.6l-.46.26a7.38,7.38,0,0,1-6.63-.27l-8.43-4.87a2.78,2.78,0,0,1-1.62-2.1h0v.72a2.74,2.74,0,0,0,1.62,2.12l8.43,4.87a7.38,7.38,0,0,0,6.63.28l.46-.27a2,2,0,0,0,1.14-1.62v-.72Z" transform="translate(-5.09 -5.09)"/><path class="cls-4" d="M128,101c0,.08.2,1.08-1.6,2h0a7.38,7.38,0,0,1-6.63-.27l-8.44-4.87a2.93,2.93,0,0,1-1.61-1.94,2.78,2.78,0,0,0,1.62,2.1l8.43,4.87a7.38,7.38,0,0,0,6.63.27l.46-.26a2,2,0,0,0,1.14-1.62Z" transform="translate(-5.09 -5.09)"/><path class="cls-5" d="M128,100.7c-.72-4.51-10.09-9.3-15.1-7.89a8.61,8.61,0,0,0-2,1c-1.67,1-1.52,2.85.44,4l8.43,4.87a7.38,7.38,0,0,0,6.63.27l.46-.26A1.87,1.87,0,0,0,128,100.7Z" transform="translate(-5.09 -5.09)"/><path class="cls-2" d="M115.12,93.82a.63.63,0,0,0-.4,0c-.26,0-.41.23-.07.4s1.62.51,2.46.88,1.17.12,1.06-.11-.62-.46-.62-.46Z" transform="translate(-5.09 -5.09)"/><path class="cls-6" d="M114.85,93.93a2.1,2.1,0,0,1,2.46.28,2.23,2.23,0,0,1,.4.65A12.41,12.41,0,0,1,114.85,93.93Z" transform="translate(-5.09 -5.09)"/><path class="cls-2" d="M73.85,85.38s-3.17,8.67,0,10.5l1.54.89h0l6,3.48a.94.94,0,0,1,0,1.78L73,106.91a3.34,3.34,0,0,1-3.06,0l-4.3-2.54,0,0-1.37-.86L64,103.4l0,0-1.46-.92s-2.69-2-2.69-9Z" transform="translate(-5.09 -5.09)"/><path class="cls-5" d="M59.8,92.6c0,7,2.68,9,2.68,9l1.47.92,0,0,.19.1,1.37.86,0,0,.49.29L69.88,106A3.35,3.35,0,0,0,73,106l8.45-4.88a.94.94,0,0,0,0-1.78l-3.8-2.2-2.22-1.28h0L73.85,95c-3.1-1.79-.15-10.08,0-10.49h0Z" transform="translate(-5.09 -5.09)"/><path class="cls-7" d="M59.8,92.6c0,7,2.68,9,2.68,9l1.47.92,0,0,.19.1,1.37.86,0,0,.49.29,11.52-6.59-2.22-1.28h0L73.85,95c-3.1-1.79-.15-10.08,0-10.49h0Z" transform="translate(-5.09 -5.09)"/><path class="cls-8" d="M79.28,80.54l-.2,10.32A2.4,2.4,0,0,0,80.34,93l9.5,5.52a.78.78,0,0,1,0,1.36l-9.22,5.54a.89.89,0,0,0,0,1.53l3.82,2.65" transform="translate(-5.09 -5.09)"/><g class="cls-9"><path class="cls-10" d="M97.07,17.37l2.23,1.3a1.92,1.92,0,0,0-2,.19l-2.24-1.3A2,2,0,0,1,97.07,17.37Z" transform="translate(-5.09 -5.09)"/><path class="cls-7" d="M34.8,109.05l-2.23-1.3a1.93,1.93,0,0,1-.81-1.78l2.23,1.3A1.94,1.94,0,0,0,34.8,109.05Z" transform="translate(-5.09 -5.09)"/><polygon class="cls-7" points="28.9 102.18 26.67 100.89 26.53 52.31 28.77 53.61 28.9 102.18"/><polygon class="cls-7" points="31.53 48.82 29.3 47.52 90 12.47 92.24 13.77 31.53 48.82"/><path class="cls-10" d="M33.85,58.7l-2.23-1.3a6.08,6.08,0,0,1,2.76-4.79l2.24,1.3A6.09,6.09,0,0,0,33.85,58.7Z" transform="translate(-5.09 -5.09)"/><path class="cls-10" d="M97.33,18.86c1.53-.89,2.77-.18,2.78,1.58L100.25,69a6.1,6.1,0,0,1-2.77,4.78L36.77,108.85c-1.53.89-2.77.18-2.78-1.58L33.85,58.7a6.09,6.09,0,0,1,2.77-4.79Z" transform="translate(-5.09 -5.09)"/></g><path class="cls-11" d="M97.33,18.8c1.53-.88,2.78-.17,2.78,1.59L100.25,69a6.13,6.13,0,0,1-2.77,4.79L36.77,108.8c-1.53.88-2.77.17-2.78-1.59l-.13-48.57a6.09,6.09,0,0,1,2.76-4.79Z" transform="translate(-5.09 -5.09)"/><path class="cls-5" d="M100.23,65.14V69a6.08,6.08,0,0,1-2.76,4.79L36.77,108.85c-1.53.88-2.78.17-2.78-1.59v-3.87Z" transform="translate(-5.09 -5.09)"/><polygon class="cls-12" points="92.82 16.58 92.94 58.37 31.88 93.63 31.76 51.83 92.82 16.58"/><polygon class="cls-13" points="92.83 16.59 92.94 58.38 81.5 64.99 45.01 44.19 92.83 16.59"/><polygon class="cls-14" points="89.26 66.47 89.26 68.91 87.48 69.94 87.47 67.5 89.26 66.47"/><path class="cls-2" d="M120.65,108a.59.59,0,0,1,0,1.12L81.7,131.75a2.14,2.14,0,0,1-1.94,0l-15.89-9.17a.6.6,0,0,1,0-1.13l39-22.64a2.16,2.16,0,0,1,2,0Z" transform="translate(-5.09 -5.09)"/><path class="cls-5" d="M120.65,107.33a.6.6,0,0,1,0,1.13L81.7,131.09a2.08,2.08,0,0,1-1.94,0l-15.89-9.17a.59.59,0,0,1,0-1.12l39-22.64a2.16,2.16,0,0,1,2,0Z" transform="translate(-5.09 -5.09)"/><path class="cls-15" d="M77.85,115.9a.14.14,0,0,1,0,.27l-2,1.18a.55.55,0,0,1-.47,0l-1-.61c-.13-.08-.13-.2,0-.27l2-1.18a.53.53,0,0,1,.46,0Z" transform="translate(-5.09 -5.09)"/><path class="cls-5" d="M75.59,117.54a.58.58,0,0,1-.3-.07l-1.06-.61a.31.31,0,0,1-.16-.26.3.3,0,0,1,.16-.25l2-1.18a.64.64,0,0,1,.6,0l1.06.61a.3.3,0,0,1,.16.25.33.33,0,0,1-.16.26l-2,1.18A.63.63,0,0,1,75.59,117.54Zm-1.24-.94s0,0,0,0l1,.61a.38.38,0,0,0,.33,0l2-1.18s0,0,0,0h0l-1.06-.61a.36.36,0,0,0-.32,0l-2,1.18Z" transform="translate(-5.09 -5.09)"/><path class="cls-15" d="M75.05,117.52c.13.08.13.2,0,.27L73,119a.47.47,0,0,1-.46,0l-1.06-.61c-.12-.07-.13-.19,0-.26l2-1.18a.49.49,0,0,1,.47,0Z" transform="translate(-5.09 -5.09)"/><path class="cls-5" d="M72.79,119.17a.58.58,0,0,1-.3-.08l-1.06-.61a.28.28,0,0,1,0-.5l2-1.18a.64.64,0,0,1,.6,0l1.06.61a.28.28,0,0,1,0,.5l-2,1.18A.61.61,0,0,1,72.79,119.17Zm-1.24-.94,0,0,1.06.6a.36.36,0,0,0,.32,0l2-1.18h0l0,0-1-.6a.42.42,0,0,0-.33,0l-2,1.19Z" transform="translate(-5.09 -5.09)"/><path class="cls-15" d="M72.25,119.15c.13.07.13.19,0,.27l-2,1.18a.53.53,0,0,1-.46,0L68.71,120a.14.14,0,0,1,0-.27l2-1.18a.55.55,0,0,1,.47,0Z" transform="translate(-5.09 -5.09)"/><path class="cls-5" d="M70,120.79a.6.6,0,0,1-.3-.07l-1-.61a.29.29,0,0,1-.17-.25.3.3,0,0,1,.17-.26l2-1.18a.64.64,0,0,1,.6,0l1,.61a.3.3,0,0,1,.16.25.29.29,0,0,1-.16.26l-2,1.18A.58.58,0,0,1,70,120.79Zm-1.24-.93h0l1.06.61a.36.36,0,0,0,.32,0l2-1.18s0,0,0,0h0l-1.05-.61a.38.38,0,0,0-.33,0l-2,1.18Z" transform="translate(-5.09 -5.09)"/><path class="cls-15" d="M69.45,120.78c.13.07.13.19,0,.26l-2,1.18a.47.47,0,0,1-.46,0l-1-.6c-.13-.08-.13-.2,0-.27l2-1.18a.47.47,0,0,1,.46,0Z" transform="translate(-5.09 -5.09)"/><path class="cls-5" d="M67.19,122.42a.64.64,0,0,1-.3-.08l-1-.6a.31.31,0,0,1-.17-.26.29.29,0,0,1,.17-.25l2-1.18a.64.64,0,0,1,.6,0l1,.61a.27.27,0,0,1,0,.5l-2,1.18A.58.58,0,0,1,67.19,122.42ZM66,121.48l0,0,1,.61a.47.47,0,0,0,.33,0l2-1.18,0,0,0,0-1-.6a.36.36,0,0,0-.32,0l-2,1.18Z" transform="translate(-5.09 -5.09)"/><path class="cls-15" d="M72.1,122.3c.12.08.13.2,0,.27l-2,1.18a.55.55,0,0,1-.47,0l-2-1.16c-.13-.07-.13-.19,0-.26l2-1.18a.47.47,0,0,1,.46,0Z" transform="translate(-5.09 -5.09)"/><path class="cls-5" d="M69.84,123.94a.58.58,0,0,1-.3-.07l-2-1.16a.28.28,0,0,1,0-.5l2-1.18a.64.64,0,0,1,.6,0l2,1.15a.3.3,0,0,1,.17.26.3.3,0,0,1-.16.25l-2,1.18A.63.63,0,0,1,69.84,123.94Zm-2.19-1.48h0l2,1.16a.38.38,0,0,0,.33,0l2-1.18h0l0,0-2-1.16a.36.36,0,0,0-.32,0l-2,1.18Z" transform="translate(-5.09 -5.09)"/><path class="cls-15" d="M82.07,122.62a.14.14,0,0,1,0,.27l-2,1.18a.53.53,0,0,1-.46,0l-2-1.16c-.13-.07-.13-.19,0-.27l2-1.18a.53.53,0,0,1,.46,0Z" transform="translate(-5.09 -5.09)"/><path class="cls-5" d="M79.81,124.26a.63.63,0,0,1-.3-.07l-2-1.16a.3.3,0,0,1-.16-.25.28.28,0,0,1,.16-.25l2-1.18a.64.64,0,0,1,.6,0l2,1.15a.29.29,0,0,1,.17.25.3.3,0,0,1-.17.26l-2,1.18A.58.58,0,0,1,79.81,124.26Zm-2.18-1.48h0l2,1.16a.38.38,0,0,0,.33,0l2-1.18h0l0,0-2-1.16a.36.36,0,0,0-.32,0l-2,1.18S77.63,122.77,77.63,122.78Z" transform="translate(-5.09 -5.09)"/><path class="cls-15" d="M78.78,121.45c.12.08.12.2,0,.27l-2,1.18a.55.55,0,0,1-.47,0l-2-1.16c-.13-.07-.13-.19,0-.26l2-1.18a.47.47,0,0,1,.46,0Z" transform="translate(-5.09 -5.09)"/><path class="cls-5" d="M76.51,123.09a.63.63,0,0,1-.3-.07l-2-1.16a.28.28,0,0,1,0-.5l2-1.18a.64.64,0,0,1,.6,0l2,1.15a.3.3,0,0,1,.17.26.3.3,0,0,1-.16.25l-2,1.18A.58.58,0,0,1,76.51,123.09Zm-2.18-1.48,0,0,2,1.15a.38.38,0,0,0,.33,0l2-1.18h0l0,0-2-1.16a.44.44,0,0,0-.32,0l-2,1.18Z" transform="translate(-5.09 -5.09)"/><path class="cls-15" d="M74.78,120.74a.14.14,0,0,1,0,.27l-2,1.18a.55.55,0,0,1-.47,0l-2-1.16c-.13-.07-.13-.19,0-.27l2-1.18a.53.53,0,0,1,.46,0Z" transform="translate(-5.09 -5.09)"/><path class="cls-5" d="M72.52,122.38a.63.63,0,0,1-.3-.07l-2-1.16a.3.3,0,0,1-.16-.25.3.3,0,0,1,.16-.26l2-1.18a.67.67,0,0,1,.6,0l2,1.16a.29.29,0,0,1,.17.25.3.3,0,0,1-.17.26l-2,1.18A.58.58,0,0,1,72.52,122.38Zm-2.18-1.48h0l2,1.16a.38.38,0,0,0,.33,0l2-1.18,0,0h0l-2-1.16a.36.36,0,0,0-.32,0l-2,1.18S70.34,120.89,70.34,120.9Z" transform="translate(-5.09 -5.09)"/><path class="cls-15" d="M91.47,120.24c.13.08.13.2,0,.27l-2,1.18a.49.49,0,0,1-.47,0l-2-1.15c-.13-.08-.13-.2,0-.27l2-1.18a.47.47,0,0,1,.46,0Z" transform="translate(-5.09 -5.09)"/><path class="cls-5" d="M89.21,121.88a.63.63,0,0,1-.3-.07l-2-1.16a.28.28,0,0,1,0-.5l2-1.18a.64.64,0,0,1,.6,0l2,1.15a.3.3,0,0,1,.17.26.3.3,0,0,1-.16.25l-2,1.18A.58.58,0,0,1,89.21,121.88ZM87,120.4l0,0,2,1.15a.38.38,0,0,0,.33,0l2-1.18h0l0,0-2-1.15a.36.36,0,0,0-.32,0l-2,1.18Z" transform="translate(-5.09 -5.09)"/><path class="cls-15" d="M94.17,118.68c.13.07.13.19,0,.27l-2,1.18a.53.53,0,0,1-.46,0l-2-1.16a.14.14,0,0,1,0-.27l2-1.18a.55.55,0,0,1,.47,0Z" transform="translate(-5.09 -5.09)"/><path class="cls-5" d="M91.91,120.32a.7.7,0,0,1-.3-.07l-2-1.16a.29.29,0,0,1-.17-.25.31.31,0,0,1,.16-.26l2-1.18a.64.64,0,0,1,.6,0l2,1.16a.28.28,0,0,1,0,.5l-2,1.18A.61.61,0,0,1,91.91,120.32Zm-2.19-1.48h0l2,1.16a.36.36,0,0,0,.32,0l2-1.18,0,0h0l-2-1.16a.38.38,0,0,0-.33,0l-2,1.18S89.72,118.83,89.72,118.84Z" transform="translate(-5.09 -5.09)"/><g class="cls-9"><path class="cls-15" d="M82.85,116.05c.13.08.13.2,0,.27l-2,1.18a.47.47,0,0,1-.46,0l-2-1.16a.14.14,0,0,1,0-.26l2-1.18a.49.49,0,0,1,.47,0Z" transform="translate(-5.09 -5.09)"/><path class="cls-5" d="M80.59,117.69a.58.58,0,0,1-.3-.07l-2-1.16a.29.29,0,0,1-.17-.25.3.3,0,0,1,.16-.25l2-1.18a.64.64,0,0,1,.6,0l2,1.15a.31.31,0,0,1,.16.26.3.3,0,0,1-.16.25l-2,1.18A.6.6,0,0,1,80.59,117.69Zm-2.19-1.48s0,0,0,0l2,1.15a.36.36,0,0,0,.32,0l2-1.18h0l0,0-2-1.15a.42.42,0,0,0-.33,0l-2,1.18Z" transform="translate(-5.09 -5.09)"/><path class="cls-15" d="M86.84,116.77c.13.07.13.19,0,.26l-2,1.18a.47.47,0,0,1-.46,0l-2-1.15c-.12-.08-.12-.2,0-.27l2-1.18a.49.49,0,0,1,.47,0Z" transform="translate(-5.09 -5.09)"/><path class="cls-5" d="M84.58,118.41a.58.58,0,0,1-.3-.08l-2-1.15a.3.3,0,0,1-.17-.26.3.3,0,0,1,.16-.25l2-1.18a.64.64,0,0,1,.6,0l2,1.16a.28.28,0,0,1,0,.5l-2,1.18A.61.61,0,0,1,84.58,118.41Zm-2.19-1.49,0,0,2,1.15a.4.4,0,0,0,.32,0l2-1.19h0l0,0-2-1.15a.38.38,0,0,0-.33,0l-2,1.18Z" transform="translate(-5.09 -5.09)"/><path class="cls-15" d="M80.16,117.61c.13.08.13.2,0,.27l-2,1.18a.47.47,0,0,1-.46,0l-2-1.15c-.13-.08-.13-.2,0-.27l2-1.18a.47.47,0,0,1,.46,0Z" transform="translate(-5.09 -5.09)"/><path class="cls-5" d="M77.9,119.26a.61.61,0,0,1-.3-.08l-2-1.15a.3.3,0,0,1-.17-.26.29.29,0,0,1,.17-.25l2-1.18a.64.64,0,0,1,.6,0l2,1.16a.31.31,0,0,1,.17.25.29.29,0,0,1-.17.25l-2,1.18A.58.58,0,0,1,77.9,119.26Zm-2.19-1.49,0,0,2,1.15a.36.36,0,0,0,.32,0l2-1.18h0l0,0-2-1.15a.38.38,0,0,0-.33,0l-2,1.18Z" transform="translate(-5.09 -5.09)"/><path class="cls-15" d="M90.16,117.92c.13.08.13.2,0,.27l-2,1.18a.53.53,0,0,1-.46,0l-2-1.16c-.13-.07-.13-.19,0-.26l2-1.19a.55.55,0,0,1,.47,0Z" transform="translate(-5.09 -5.09)"/><path class="cls-5" d="M87.9,119.56a.6.6,0,0,1-.3-.07l-2-1.16a.27.27,0,0,1,0-.5l2-1.18a.64.64,0,0,1,.6,0l2,1.15a.31.31,0,0,1,.16.26.28.28,0,0,1-.16.25l-2,1.18A.6.6,0,0,1,87.9,119.56Zm-2.19-1.48h0l2,1.16a.36.36,0,0,0,.32,0l2-1.18h0s0,0,0,0l-2-1.16a.38.38,0,0,0-.33,0l-2,1.18Z" transform="translate(-5.09 -5.09)"/><path class="cls-15" d="M84.15,118.33c.13.07.13.19,0,.27l-2,1.18a.53.53,0,0,1-.46,0l-2-1.16a.14.14,0,0,1,0-.27l2-1.18a.53.53,0,0,1,.46,0Z" transform="translate(-5.09 -5.09)"/><path class="cls-5" d="M81.89,120a.73.73,0,0,1-.3-.07l-2-1.16a.29.29,0,0,1-.17-.25.3.3,0,0,1,.17-.26l2-1.18a.64.64,0,0,1,.6,0l2,1.16a.27.27,0,0,1,0,.5l-2,1.18A.58.58,0,0,1,81.89,120Zm-2.19-1.48h0l2,1.16a.36.36,0,0,0,.32,0l2-1.18,0,0h0l-2-1.16a.38.38,0,0,0-.33,0l-2,1.18Z" transform="translate(-5.09 -5.09)"/><path class="cls-15" d="M77.47,119.18c.13.07.13.19,0,.27l-2,1.18a.53.53,0,0,1-.46,0l-2-1.16a.14.14,0,0,1,0-.27L75,118a.53.53,0,0,1,.46,0Z" transform="translate(-5.09 -5.09)"/><path class="cls-5" d="M75.21,120.82a.64.64,0,0,1-.3-.08l-2-1.15a.28.28,0,0,1,0-.51l2-1.18a.64.64,0,0,1,.6,0l2,1.16a.27.27,0,0,1,0,.5l-2,1.18A.58.58,0,0,1,75.21,120.82ZM73,119.33l0,0,2,1.16a.36.36,0,0,0,.32,0l2-1.18,0,0h0l-2-1.16a.36.36,0,0,0-.32,0l-2,1.18Z" transform="translate(-5.09 -5.09)"/><path class="cls-15" d="M87.47,119.49c.12.07.12.19,0,.27l-2,1.18a.55.55,0,0,1-.47,0l-2-1.16c-.13-.07-.13-.19,0-.27l2-1.18a.53.53,0,0,1,.46,0Z" transform="translate(-5.09 -5.09)"/><path class="cls-5" d="M85.21,121.13a.65.65,0,0,1-.31-.08l-2-1.15a.3.3,0,0,1-.16-.25.31.31,0,0,1,.16-.26l2-1.18a.64.64,0,0,1,.6,0l2,1.16a.29.29,0,0,1,.17.25.3.3,0,0,1-.16.25l-2,1.18A.64.64,0,0,1,85.21,121.13ZM83,119.65h0l2,1.16a.38.38,0,0,0,.33,0l2-1.18,0,0h0l-2-1.16a.36.36,0,0,0-.32,0l-2,1.18S83,119.64,83,119.65Z" transform="translate(-5.09 -5.09)"/><path class="cls-15" d="M81.46,119.89c.13.07.13.19,0,.27l-2,1.18a.53.53,0,0,1-.46,0l-2-1.16c-.13-.07-.13-.19,0-.27l2-1.18a.53.53,0,0,1,.46,0Z" transform="translate(-5.09 -5.09)"/><path class="cls-5" d="M79.2,121.53a.63.63,0,0,1-.3-.07l-2-1.16a.27.27,0,0,1,0-.5l2-1.19a.7.7,0,0,1,.6,0l2,1.16a.29.29,0,0,1,.17.25.3.3,0,0,1-.17.26l-2,1.18A.58.58,0,0,1,79.2,121.53ZM77,120.05h0l2,1.16a.38.38,0,0,0,.33,0l2-1.18,0,0h0l-2-1.16a.36.36,0,0,0-.32,0L77,120Z" transform="translate(-5.09 -5.09)"/><path class="cls-15" d="M84.77,121.05c.13.08.13.2,0,.27l-2,1.18a.47.47,0,0,1-.46,0l-2-1.15c-.12-.08-.12-.2,0-.27l2-1.18a.49.49,0,0,1,.47,0Z" transform="translate(-5.09 -5.09)"/><path class="cls-5" d="M82.51,122.7a.58.58,0,0,1-.3-.08l-2-1.15a.31.31,0,0,1-.17-.26.3.3,0,0,1,.16-.25l2-1.18a.66.66,0,0,1,.61,0l2,1.16a.28.28,0,0,1,0,.5l-2,1.18A.61.61,0,0,1,82.51,122.7Zm-2.19-1.49,0,0,2,1.15a.36.36,0,0,0,.32,0l2-1.18h0l0,0-2-1.15a.38.38,0,0,0-.33,0l-2,1.18Z" transform="translate(-5.09 -5.09)"/></g><path class="cls-15" d="M94.91,112.08c.12.07.12.19,0,.27l-2,1.18a.55.55,0,0,1-.47,0l-2-1.16c-.13-.07-.13-.19,0-.27l2-1.18a.53.53,0,0,1,.46,0Z" transform="translate(-5.09 -5.09)"/><path class="cls-5" d="M92.64,113.72a.63.63,0,0,1-.3-.07l-2-1.16a.3.3,0,0,1-.16-.25.31.31,0,0,1,.16-.26l2-1.18a.64.64,0,0,1,.6,0L95,112a.29.29,0,0,1,.17.25.33.33,0,0,1-.16.26l-2,1.18A.58.58,0,0,1,92.64,113.72Zm-2.18-1.48h0l2,1.16a.38.38,0,0,0,.33,0l2-1.18,0,0h0l-2-1.16a.36.36,0,0,0-.32,0l-2,1.18Z" transform="translate(-5.09 -5.09)"/><path class="cls-15" d="M105,112.42a.14.14,0,0,1,0,.26l-2,1.18a.49.49,0,0,1-.47,0l-2-1.15c-.13-.08-.13-.2,0-.27l2-1.18a.47.47,0,0,1,.46,0Z" transform="translate(-5.09 -5.09)"/><path class="cls-5" d="M102.68,114.06a.64.64,0,0,1-.3-.08l-2-1.15a.31.31,0,0,1-.16-.26.3.3,0,0,1,.16-.25l2-1.18a.64.64,0,0,1,.6,0l2,1.16a.29.29,0,0,1,.17.25.3.3,0,0,1-.16.25L103,114A.65.65,0,0,1,102.68,114.06Zm-2.18-1.49s0,0,0,0l2,1.15a.38.38,0,0,0,.33,0l2-1.18h0s0,0,0,0l-2-1.15a.36.36,0,0,0-.32,0l-2,1.18Z" transform="translate(-5.09 -5.09)"/><path class="cls-15" d="M100.94,111.66c.13.07.13.19,0,.26l-2,1.18a.47.47,0,0,1-.46,0l-2-1.15c-.13-.08-.13-.2,0-.27l2-1.18a.53.53,0,0,1,.46,0Z" transform="translate(-5.09 -5.09)"/><path class="cls-5" d="M98.68,113.3a.61.61,0,0,1-.3-.08l-2-1.15a.3.3,0,0,1-.17-.26.29.29,0,0,1,.17-.25l2-1.18a.64.64,0,0,1,.6,0l2,1.16a.27.27,0,0,1,0,.5l-2,1.18A.58.58,0,0,1,98.68,113.3Zm-2.19-1.49,0,0,2,1.15a.4.4,0,0,0,.32,0l2-1.18a0,0,0,0,1,0,0l0,0-2-1.15a.36.36,0,0,0-.32,0l-2,1.18Z" transform="translate(-5.09 -5.09)"/><path class="cls-15" d="M96.29,108.24a.14.14,0,0,1,0,.27l-2,1.18a.53.53,0,0,1-.46,0l-2-1.16c-.13-.07-.13-.19,0-.27l2-1.18a.53.53,0,0,1,.46,0Z" transform="translate(-5.09 -5.09)"/><path class="cls-5" d="M94,109.88a.6.6,0,0,1-.3-.07l-2-1.16a.27.27,0,0,1,0-.5l2-1.18a.64.64,0,0,1,.6,0l2,1.15a.28.28,0,0,1,0,.51l-2,1.18A.58.58,0,0,1,94,109.88Zm-2.19-1.48h0l2,1.16a.36.36,0,0,0,.32,0l2-1.18h0l0,0-2-1.16a.38.38,0,0,0-.33,0l-2,1.18Z" transform="translate(-5.09 -5.09)"/><path class="cls-15" d="M99,106.68c.13.07.13.19,0,.27l-2,1.18a.53.53,0,0,1-.46,0l-2-1.16c-.12-.07-.12-.19,0-.27l2-1.18a.55.55,0,0,1,.47,0Z" transform="translate(-5.09 -5.09)"/><path class="cls-5" d="M96.72,108.32a.58.58,0,0,1-.3-.07l-2-1.16a.29.29,0,0,1-.17-.25.31.31,0,0,1,.16-.26l2-1.18a.64.64,0,0,1,.6,0l2,1.16a.3.3,0,0,1,.16.25.33.33,0,0,1-.16.26l-2,1.18A.6.6,0,0,1,96.72,108.32Zm-2.19-1.48h0l2,1.16a.36.36,0,0,0,.32,0l2-1.18,0,0h0l-2-1.16a.38.38,0,0,0-.33,0l-2,1.18Z" transform="translate(-5.09 -5.09)"/><path class="cls-15" d="M100.28,109c.13.08.13.2,0,.27l-2,1.18a.47.47,0,0,1-.46,0l-2-1.15c-.13-.08-.13-.2,0-.27l2-1.18a.47.47,0,0,1,.46,0Z" transform="translate(-5.09 -5.09)"/><path class="cls-5" d="M98,110.6a.61.61,0,0,1-.3-.08l-2-1.16a.27.27,0,0,1,0-.5l2-1.18a.64.64,0,0,1,.6,0l2,1.15a.31.31,0,0,1,.17.26.29.29,0,0,1-.17.25l-2,1.18A.58.58,0,0,1,98,110.6Zm-2.19-1.49,0,0,2,1.15a.36.36,0,0,0,.32,0l2-1.18h0l0,0-2-1.15a.36.36,0,0,0-.32,0l-2,1.18Z" transform="translate(-5.09 -5.09)"/><path class="cls-15" d="M97.59,110.52c.13.07.13.19,0,.26l-2,1.18a.47.47,0,0,1-.46,0l-2-1.15c-.13-.08-.13-.2,0-.27l2-1.18a.53.53,0,0,1,.46,0Z" transform="translate(-5.09 -5.09)"/><path class="cls-5" d="M95.33,112.16a.64.64,0,0,1-.3-.08l-2-1.15a.3.3,0,0,1-.17-.26.29.29,0,0,1,.17-.25l2-1.18a.64.64,0,0,1,.6,0l2,1.16a.27.27,0,0,1,0,.5l-2,1.18A.58.58,0,0,1,95.33,112.16Zm-2.19-1.49,0,0,2,1.16a.47.47,0,0,0,.33,0l2-1.18,0,0,0,0-2-1.15a.36.36,0,0,0-.32,0l-2,1.18Z" transform="translate(-5.09 -5.09)"/><g class="cls-9"><path class="cls-15" d="M98.25,113.22c.13.08.13.2,0,.27l-2,1.18a.55.55,0,0,1-.47,0l-2-1.16c-.13-.07-.13-.19,0-.26l2-1.18a.47.47,0,0,1,.46,0Z" transform="translate(-5.09 -5.09)"/><path class="cls-5" d="M96,114.86a.58.58,0,0,1-.3-.07l-2-1.16a.28.28,0,0,1,0-.5l2-1.18a.64.64,0,0,1,.6,0l2,1.15a.31.31,0,0,1,.16.26.3.3,0,0,1-.16.25l-2,1.18A.63.63,0,0,1,96,114.86Zm-2.19-1.48,0,0,2,1.15a.38.38,0,0,0,.33,0l2-1.18h0s0,0,0,0l-2-1.16a.47.47,0,0,0-.33,0l-2,1.18Z" transform="translate(-5.09 -5.09)"/><path class="cls-15" d="M102.25,114c.13.07.13.19,0,.27l-2,1.18a.53.53,0,0,1-.46,0l-2-1.16a.14.14,0,0,1,0-.27l2-1.18a.53.53,0,0,1,.46,0Z" transform="translate(-5.09 -5.09)"/><path class="cls-5" d="M100,115.62a.6.6,0,0,1-.3-.07l-2-1.16a.27.27,0,0,1,0-.5l2-1.18a.64.64,0,0,1,.6,0l2,1.15a.31.31,0,0,1,.17.26.29.29,0,0,1-.17.25l-2,1.18A.58.58,0,0,1,100,115.62Zm-2.19-1.48h0l2,1.16a.36.36,0,0,0,.32,0l2-1.18h0s0,0,0,0l-2-1.16a.38.38,0,0,0-.33,0l-2,1.18Z" transform="translate(-5.09 -5.09)"/><path class="cls-15" d="M95.55,114.79c.13.07.13.19,0,.27l-2,1.18a.53.53,0,0,1-.46,0l-2-1.16a.14.14,0,0,1,0-.27l2-1.18a.53.53,0,0,1,.46,0Z" transform="translate(-5.09 -5.09)"/><path class="cls-5" d="M93.29,116.43a.6.6,0,0,1-.3-.07l-2-1.16a.29.29,0,0,1-.17-.25.3.3,0,0,1,.17-.26l2-1.18a.64.64,0,0,1,.6,0l2,1.16a.29.29,0,0,1,.17.25.31.31,0,0,1-.17.26l-2,1.18A.58.58,0,0,1,93.29,116.43ZM91.1,115h0l2,1.16a.36.36,0,0,0,.32,0l2-1.18s0,0,0,0h0l-2-1.16a.38.38,0,0,0-.33,0l-2,1.18Z" transform="translate(-5.09 -5.09)"/><path class="cls-15" d="M99.56,115.55c.13.07.13.19,0,.26l-2,1.18a.49.49,0,0,1-.47,0l-2-1.15c-.13-.08-.13-.2,0-.27l2-1.18a.53.53,0,0,1,.46,0Z" transform="translate(-5.09 -5.09)"/><path class="cls-5" d="M97.3,117.19a.58.58,0,0,1-.3-.08L95,116a.31.31,0,0,1-.16-.26.3.3,0,0,1,.16-.25l2-1.18a.64.64,0,0,1,.6,0l2,1.16a.28.28,0,0,1,0,.5l-2,1.18A.64.64,0,0,1,97.3,117.19Zm-2.19-1.49,0,0,2,1.16a.38.38,0,0,0,.33,0l2-1.18,0,0h0l-2-1.16a.38.38,0,0,0-.33,0l-2,1.18Z" transform="translate(-5.09 -5.09)"/></g><g class="cls-9"><path class="cls-15" d="M83.44,112.65c.13.07.13.19,0,.26l-2,1.18a.47.47,0,0,1-.46,0l-1-.6c-.13-.08-.13-.2,0-.27l2-1.18a.47.47,0,0,1,.46,0Z" transform="translate(-5.09 -5.09)"/><path class="cls-5" d="M81.18,114.29a.61.61,0,0,1-.3-.08l-1-.6a.3.3,0,0,1-.17-.26.29.29,0,0,1,.17-.25l2-1.18a.64.64,0,0,1,.6,0l1.05.61a.27.27,0,0,1,0,.5l-2,1.18A.58.58,0,0,1,81.18,114.29Zm-1.24-.94,0,0,1,.61a.36.36,0,0,0,.32,0l2-1.18,0,0h0l-1.05-.61a.38.38,0,0,0-.33,0l-2,1.18Z" transform="translate(-5.09 -5.09)"/><path class="cls-15" d="M88.23,112.93c.13.07.13.19,0,.27l-2,1.18a.55.55,0,0,1-.47,0l-2-1.16c-.13-.07-.13-.19,0-.27l2-1.18a.53.53,0,0,1,.46,0Z" transform="translate(-5.09 -5.09)"/><path class="cls-5" d="M86,114.57a.7.7,0,0,1-.3-.07l-2-1.16a.3.3,0,0,1-.16-.25.31.31,0,0,1,.16-.26l2-1.18a.64.64,0,0,1,.6,0l2,1.16a.28.28,0,0,1,0,.5l-2,1.19A.78.78,0,0,1,86,114.57Zm-2.19-1.48h0l2,1.16a.38.38,0,0,0,.33,0l2-1.18,0,0h0l-2-1.16a.38.38,0,0,0-.33,0l-2,1.18S83.78,113.08,83.78,113.09Z" transform="translate(-5.09 -5.09)"/><path class="cls-15" d="M92.22,113.64c.13.07.13.19,0,.27l-2,1.18a.55.55,0,0,1-.47,0l-2-1.16c-.13-.07-.13-.19,0-.27l2-1.18a.53.53,0,0,1,.46,0Z" transform="translate(-5.09 -5.09)"/><path class="cls-5" d="M90,115.28a.58.58,0,0,1-.3-.07l-2-1.16a.28.28,0,0,1,0-.5l2-1.18a.64.64,0,0,1,.6,0l2,1.15a.3.3,0,0,1,.16.25.31.31,0,0,1-.16.26l-2,1.18A.63.63,0,0,1,90,115.28Zm-2.19-1.48h0l2,1.16a.38.38,0,0,0,.33,0l2-1.18h0s0,0,0,0l-2-1.16a.38.38,0,0,0-.33,0l-2,1.18Z" transform="translate(-5.09 -5.09)"/><path class="cls-15" d="M85.54,114.49c.13.07.13.19,0,.27l-2,1.18a.53.53,0,0,1-.46,0l-2-1.16c-.13-.07-.13-.19,0-.27l2-1.18a.55.55,0,0,1,.47,0Z" transform="translate(-5.09 -5.09)"/><path class="cls-5" d="M83.28,116.13a.58.58,0,0,1-.3-.07l-2-1.16a.28.28,0,0,1,0-.5l2-1.18a.67.67,0,0,1,.6,0l2,1.16a.3.3,0,0,1,.16.25.31.31,0,0,1-.16.26l-2,1.18A.6.6,0,0,1,83.28,116.13Zm-2.19-1.48h0l2,1.16a.38.38,0,0,0,.33,0l2-1.18,0,0h0l-2-1.16a.38.38,0,0,0-.33,0l-2,1.18S81.09,114.64,81.09,114.65Z" transform="translate(-5.09 -5.09)"/><path class="cls-15" d="M89.53,115.2c.13.08.13.2,0,.27l-2,1.18a.47.47,0,0,1-.46,0l-2-1.15c-.13-.08-.13-.2,0-.27l2-1.18a.49.49,0,0,1,.47,0Z" transform="translate(-5.09 -5.09)"/><path class="cls-5" d="M87.27,116.84a.58.58,0,0,1-.3-.07l-2-1.16a.28.28,0,0,1,0-.5l2-1.18a.64.64,0,0,1,.6,0l2,1.15a.31.31,0,0,1,.16.26.3.3,0,0,1-.16.25l-2,1.18A.6.6,0,0,1,87.27,116.84Zm-2.19-1.48,0,0,2,1.15a.38.38,0,0,0,.33,0l2-1.18h0s0,0,0,0l-2-1.15a.38.38,0,0,0-.33,0l-2,1.18Z" transform="translate(-5.09 -5.09)"/><path class="cls-15" d="M92.86,116.35c.12.08.13.2,0,.27l-2,1.18a.49.49,0,0,1-.47,0l-2-1.15c-.13-.08-.13-.2,0-.27l2-1.18a.47.47,0,0,1,.46,0Z" transform="translate(-5.09 -5.09)"/><path class="cls-5" d="M90.6,118a.58.58,0,0,1-.3-.08l-2-1.15a.31.31,0,0,1-.16-.26.3.3,0,0,1,.16-.25l2-1.18a.64.64,0,0,1,.6,0l2,1.16a.29.29,0,0,1,.17.25.3.3,0,0,1-.16.25l-2,1.18A.64.64,0,0,1,90.6,118Zm-2.19-1.49,0,0,2,1.15a.38.38,0,0,0,.33,0l2-1.18h0s0,0,0,0l-2-1.15a.36.36,0,0,0-.32,0l-2,1.18Z" transform="translate(-5.09 -5.09)"/></g><path class="cls-15" d="M86.24,111c.13.07.13.19,0,.27l-2,1.18a.53.53,0,0,1-.46,0l-1.06-.61c-.12-.07-.12-.19,0-.27l2-1.18a.55.55,0,0,1,.47,0Z" transform="translate(-5.09 -5.09)"/><path class="cls-5" d="M84,112.66a.58.58,0,0,1-.3-.07L82.63,112a.29.29,0,0,1-.17-.25.31.31,0,0,1,.16-.26l2-1.18a.66.66,0,0,1,.61,0l1,.61a.28.28,0,0,1,0,.51l-2,1.18A.6.6,0,0,1,84,112.66Zm-1.24-.93h0l1.06.61a.36.36,0,0,0,.32,0l2-1.18h0l0,0-1-.61a.38.38,0,0,0-.33,0l-2,1.18Z" transform="translate(-5.09 -5.09)"/><path class="cls-15" d="M103.64,110.09c.13.07.13.19,0,.27l-2,1.18a.53.53,0,0,1-.46,0l-2-1.16c-.13-.07-.13-.19,0-.27l2-1.18a.55.55,0,0,1,.47,0Z" transform="translate(-5.09 -5.09)"/><path class="cls-5" d="M101.38,111.73a.58.58,0,0,1-.3-.07l-2-1.16a.3.3,0,0,1-.16-.25.31.31,0,0,1,.16-.26l2-1.18a.64.64,0,0,1,.6,0l2,1.16a.3.3,0,0,1,.16.25.31.31,0,0,1-.16.26l-2,1.18A.6.6,0,0,1,101.38,111.73Zm-2.19-1.48h0l2,1.16a.38.38,0,0,0,.33,0l2-1.18s0,0,0,0h0l-2-1.16a.38.38,0,0,0-.33,0l-2,1.18S99.19,110.24,99.19,110.25Z" transform="translate(-5.09 -5.09)"/><path class="cls-15" d="M119.35,107.49c.13.07.13.19,0,.27l-2,1.18a.53.53,0,0,1-.46,0l-1-.57a.14.14,0,0,1,0-.27l2-1.18a.55.55,0,0,1,.47,0Z" transform="translate(-5.09 -5.09)"/><path class="cls-5" d="M117.09,109.13a.58.58,0,0,1-.3-.07l-1-.57a.29.29,0,0,1-.17-.25.33.33,0,0,1,.16-.26l2-1.18a.72.72,0,0,1,.61,0l1,.57a.3.3,0,0,1,.16.25.31.31,0,0,1-.16.26l-2,1.18A.63.63,0,0,1,117.09,109.13Zm-1.17-.89h0l1,.57a.38.38,0,0,0,.33,0l2-1.18,0,0h0l-1-.57a.38.38,0,0,0-.33,0l-2,1.18Z" transform="translate(-5.09 -5.09)"/><g class="cls-9"><path class="cls-15" d="M111,102.7c.12.08.12.2,0,.27l-2,1.18a.49.49,0,0,1-.47,0l-2-1.15c-.13-.08-.13-.2,0-.27l2-1.18a.47.47,0,0,1,.46,0Z" transform="translate(-5.09 -5.09)"/><path class="cls-5" d="M108.78,104.35a.65.65,0,0,1-.31-.08l-2-1.15a.33.33,0,0,1-.16-.26.3.3,0,0,1,.16-.25l2-1.18a.64.64,0,0,1,.6,0l2,1.16a.29.29,0,0,1,.17.25.3.3,0,0,1-.16.25l-2,1.18A.64.64,0,0,1,108.78,104.35Zm-2.19-1.49s0,0,0,0l2,1.15a.38.38,0,0,0,.33,0l2-1.18h0l0,0-2-1.15a.36.36,0,0,0-.32,0l-2,1.18Z" transform="translate(-5.09 -5.09)"/><path class="cls-15" d="M100.23,102.89c.13.08.13.2,0,.27l-2,1.18a.53.53,0,0,1-.46,0l-1.06-.61c-.13-.07-.13-.19,0-.27l2-1.18a.55.55,0,0,1,.47,0Z" transform="translate(-5.09 -5.09)"/><path class="cls-5" d="M98,104.53a.58.58,0,0,1-.3-.07l-1.06-.61a.28.28,0,0,1,0-.5l2-1.19a.7.7,0,0,1,.6,0l1.06.61a.31.31,0,0,1,.16.26.3.3,0,0,1-.16.25l-2,1.18A.63.63,0,0,1,98,104.53Zm-1.24-.93h0l1,.61a.38.38,0,0,0,.33,0l2-1.18h0s0,0,0,0l-1-.61a.38.38,0,0,0-.33,0l-2,1.18Z" transform="translate(-5.09 -5.09)"/><path class="cls-15" d="M104.36,103.55c.13.08.13.2,0,.27l-2,1.18a.49.49,0,0,1-.47,0l-2-1.15c-.13-.08-.13-.2,0-.27l2-1.18a.47.47,0,0,1,.46,0Z" transform="translate(-5.09 -5.09)"/><path class="cls-5" d="M102.1,105.2a.58.58,0,0,1-.3-.08l-2-1.16a.28.28,0,0,1,0-.5l2-1.18a.64.64,0,0,1,.6,0l2,1.15a.33.33,0,0,1,.16.26.3.3,0,0,1-.16.25l-2,1.18A.64.64,0,0,1,102.1,105.2Zm-2.19-1.49s0,0,0,0l2,1.15a.38.38,0,0,0,.33,0l2-1.18h0l0,0-2-1.15a.38.38,0,0,0-.33,0l-2,1.18Z" transform="translate(-5.09 -5.09)"/><path class="cls-15" d="M108.35,104.27c.13.07.13.19,0,.26l-2,1.19a.55.55,0,0,1-.47,0l-2-1.16c-.13-.08-.13-.2,0-.27l2-1.18a.53.53,0,0,1,.46,0Z" transform="translate(-5.09 -5.09)"/><path class="cls-5" d="M106.09,105.91a.58.58,0,0,1-.3-.08l-2-1.15a.31.31,0,0,1-.16-.26.3.3,0,0,1,.16-.25l2-1.18a.64.64,0,0,1,.6,0l2,1.16a.28.28,0,0,1,0,.5l-2,1.18A.64.64,0,0,1,106.09,105.91Zm-2.19-1.49s0,0,0,0l2,1.16a.38.38,0,0,0,.33,0l2-1.18,0,0h0l-2-1.16a.38.38,0,0,0-.33,0l-2,1.18Z" transform="translate(-5.09 -5.09)"/><path class="cls-15" d="M97.43,104.52c.13.07.13.19,0,.27l-2,1.18a.53.53,0,0,1-.46,0l-1-.61c-.13-.08-.13-.2,0-.27l2-1.18a.55.55,0,0,1,.47,0Z" transform="translate(-5.09 -5.09)"/><path class="cls-5" d="M95.17,106.16a.61.61,0,0,1-.3-.08l-1.05-.6a.3.3,0,0,1-.17-.26.3.3,0,0,1,.16-.25l2-1.18a.64.64,0,0,1,.6,0l1,.61a.28.28,0,0,1,0,.5l-2,1.18A.61.61,0,0,1,95.17,106.16Zm-1.24-.94,0,0,1.06.61a.36.36,0,0,0,.32,0l2-1.18,0,0h0l-1-.61a.38.38,0,0,0-.33,0l-2,1.18Z" transform="translate(-5.09 -5.09)"/><path class="cls-15" d="M101.67,105.12c.13.07.13.19,0,.26l-2,1.18a.47.47,0,0,1-.46,0l-2-1.15c-.12-.08-.13-.2,0-.27l2-1.18a.55.55,0,0,1,.47,0Z" transform="translate(-5.09 -5.09)"/><path class="cls-5" d="M99.41,106.76a.58.58,0,0,1-.3-.08l-2-1.15a.31.31,0,0,1-.16-.26.3.3,0,0,1,.16-.25l2-1.18a.64.64,0,0,1,.6,0l2,1.16a.28.28,0,0,1,0,.5l-2,1.18A.61.61,0,0,1,99.41,106.76Zm-2.19-1.49s0,0,0,0l2,1.16a.47.47,0,0,0,.33,0l2-1.18,0,0,0,0-2-1.15a.38.38,0,0,0-.33,0l-2,1.18Z" transform="translate(-5.09 -5.09)"/><path class="cls-15" d="M113.65,104.25c.13.07.13.19,0,.27l-4,2.34a.53.53,0,0,1-.46,0l-2-1.16c-.13-.07-.13-.19,0-.27l4-2.34a.53.53,0,0,1,.46,0Z" transform="translate(-5.09 -5.09)"/><path class="cls-5" d="M109.39,107.05a.58.58,0,0,1-.3-.07l-2-1.16a.28.28,0,0,1,0-.5l4-2.35a.64.64,0,0,1,.6,0l2,1.16a.3.3,0,0,1,.16.25.33.33,0,0,1-.16.26l-4,2.34A.63.63,0,0,1,109.39,107.05Zm-2.19-1.48h0l2,1.16a.38.38,0,0,0,.33,0l4-2.34s0,0,0,0h0l-2-1.16a.38.38,0,0,0-.33,0l-4,2.34Z" transform="translate(-5.09 -5.09)"/><path class="cls-15" d="M105.66,105.83c.13.07.13.19,0,.27l-2,1.18a.53.53,0,0,1-.46,0l-2-1.16a.14.14,0,0,1,0-.27l2-1.18a.55.55,0,0,1,.47,0Z" transform="translate(-5.09 -5.09)"/><path class="cls-5" d="M103.4,107.47a.58.58,0,0,1-.3-.07l-2-1.16a.29.29,0,0,1-.17-.25.31.31,0,0,1,.16-.26l2-1.18a.64.64,0,0,1,.6,0l2,1.16a.3.3,0,0,1,.16.25.31.31,0,0,1-.16.26l-2,1.18A.6.6,0,0,1,103.4,107.47ZM101.21,106h0l2,1.16a.36.36,0,0,0,.32,0l2-1.18s0,0,0,0h0l-2-1.16a.38.38,0,0,0-.33,0l-2,1.18Z" transform="translate(-5.09 -5.09)"/><path class="cls-15" d="M94.63,106.14c.13.08.13.2,0,.27l-2,1.18a.47.47,0,0,1-.46,0l-1-.61c-.13-.07-.13-.19,0-.26l2-1.18a.47.47,0,0,1,.46,0Z" transform="translate(-5.09 -5.09)"/><path class="cls-5" d="M92.37,107.78a.6.6,0,0,1-.3-.07l-1-.61a.27.27,0,0,1,0-.5l2-1.18a.64.64,0,0,1,.6,0l1,.6a.3.3,0,0,1,.17.26.29.29,0,0,1-.17.25l-2,1.18A.58.58,0,0,1,92.37,107.78Zm-1.24-.93h0l1,.61a.36.36,0,0,0,.32,0l2-1.18h0l0,0-1-.61a.36.36,0,0,0-.32,0l-2,1.18A0,0,0,0,1,91.13,106.85Z" transform="translate(-5.09 -5.09)"/><path class="cls-15" d="M109,107c.13.07.13.19,0,.26l-2,1.18a.47.47,0,0,1-.46,0l-2-1.15c-.12-.08-.13-.2,0-.27l2-1.18a.55.55,0,0,1,.47,0Z" transform="translate(-5.09 -5.09)"/><path class="cls-5" d="M106.77,108.6a.58.58,0,0,1-.3-.08l-2-1.15a.31.31,0,0,1-.16-.26.3.3,0,0,1,.16-.25l2-1.18a.64.64,0,0,1,.6,0l2,1.16a.28.28,0,0,1,0,.5l-2,1.18A.61.61,0,0,1,106.77,108.6Zm-2.19-1.49s0,0,0,0l2,1.16a.38.38,0,0,0,.33,0l2-1.18,0,0h0l-2-1.16a.38.38,0,0,0-.33,0l-2,1.18Z" transform="translate(-5.09 -5.09)"/><path class="cls-15" d="M116.3,105.74c.13.08.13.2,0,.27l-5.4,3.14a.53.53,0,0,1-.46,0l-2-1.16c-.13-.07-.13-.19,0-.26l5.4-3.14a.49.49,0,0,1,.47,0Z" transform="translate(-5.09 -5.09)"/><path class="cls-5" d="M110.67,109.34a.6.6,0,0,1-.3-.07l-2-1.16a.27.27,0,0,1,0-.5l5.4-3.14a.64.64,0,0,1,.6,0l2,1.16a.3.3,0,0,1,.16.25.28.28,0,0,1-.16.25l-5.4,3.14A.58.58,0,0,1,110.67,109.34Zm-2.19-1.48,0,0,2,1.15a.36.36,0,0,0,.32,0l5.4-3.14h0l0,0-2-1.15a.38.38,0,0,0-.33,0l-5.4,3.13Z" transform="translate(-5.09 -5.09)"/><path class="cls-15" d="M106.33,108.52c.13.08.13.2,0,.27l-2,1.18a.47.47,0,0,1-.46,0l-2-1.16c-.13-.07-.13-.19,0-.26l2-1.18a.47.47,0,0,1,.46,0Z" transform="translate(-5.09 -5.09)"/><path class="cls-5" d="M104.07,110.16a.63.63,0,0,1-.3-.07l-2-1.16a.27.27,0,0,1,0-.5l2-1.18a.64.64,0,0,1,.6,0l2,1.15a.3.3,0,0,1,.17.26.29.29,0,0,1-.17.25l-2,1.18A.58.58,0,0,1,104.07,110.16Zm-2.19-1.48,0,0,2,1.15a.38.38,0,0,0,.33,0l2-1.18h0l0,0-2-1.15a.36.36,0,0,0-.32,0l-2,1.18Z" transform="translate(-5.09 -5.09)"/><path class="cls-15" d="M110.33,109.28c.13.08.13.2,0,.27l-2,1.18a.47.47,0,0,1-.46,0l-2-1.15c-.13-.08-.13-.2,0-.27l2-1.18a.47.47,0,0,1,.46,0Z" transform="translate(-5.09 -5.09)"/><path class="cls-5" d="M108.07,110.93a.64.64,0,0,1-.3-.08l-2-1.16a.27.27,0,0,1,0-.5l2-1.18a.64.64,0,0,1,.6,0l2,1.15a.31.31,0,0,1,.17.26.29.29,0,0,1-.17.25l-2,1.18A.58.58,0,0,1,108.07,110.93Zm-2.19-1.49,0,0,2,1.15a.38.38,0,0,0,.33,0l2-1.18h0l0,0-2-1.15a.36.36,0,0,0-.32,0l-2,1.18Z" transform="translate(-5.09 -5.09)"/></g><g class="cls-9"><path class="cls-15" d="M91.83,107.77a.14.14,0,0,1,0,.27l-2,1.18a.55.55,0,0,1-.47,0l-1-.61c-.13-.07-.13-.19,0-.27l2-1.18a.53.53,0,0,1,.46,0Z" transform="translate(-5.09 -5.09)"/><path class="cls-5" d="M89.57,109.41a.63.63,0,0,1-.3-.07l-1-.61a.3.3,0,0,1-.16-.25.31.31,0,0,1,.16-.26l2-1.18a.64.64,0,0,1,.6,0l1.05.61a.29.29,0,0,1,.17.25.31.31,0,0,1-.16.26l-2,1.18A.58.58,0,0,1,89.57,109.41Zm-1.23-.93h0l1,.61a.38.38,0,0,0,.33,0l2-1.18,0,0h0l-1.06-.61a.36.36,0,0,0-.32,0l-2,1.18S88.34,108.47,88.34,108.48Z" transform="translate(-5.09 -5.09)"/><path class="cls-15" d="M89,109.39c.13.08.13.2,0,.27l-2,1.18a.49.49,0,0,1-.47,0l-1.05-.6c-.13-.08-.13-.2,0-.27l2-1.18a.47.47,0,0,1,.46,0Z" transform="translate(-5.09 -5.09)"/><path class="cls-5" d="M86.78,111a.58.58,0,0,1-.3-.08l-1.06-.61a.28.28,0,0,1,0-.5l2-1.18a.64.64,0,0,1,.6,0l1.06.61a.28.28,0,0,1,0,.5l-2,1.18A.64.64,0,0,1,86.78,111Zm-1.24-.94,0,0,1,.6a.38.38,0,0,0,.33,0l2-1.18h0l0,0-1-.6a.38.38,0,0,0-.33,0l-2,1.18Z" transform="translate(-5.09 -5.09)"/><path class="cls-15" d="M93.6,109.8c.13.08.13.2,0,.27l-2,1.18a.47.47,0,0,1-.46,0l-2-1.15c-.13-.08-.13-.2,0-.27l2-1.18a.47.47,0,0,1,.46,0Z" transform="translate(-5.09 -5.09)"/><path class="cls-5" d="M91.34,111.44a.63.63,0,0,1-.3-.07l-2-1.16a.27.27,0,0,1,0-.5l2-1.18a.64.64,0,0,1,.6,0l2,1.15a.3.3,0,0,1,.17.26.29.29,0,0,1-.17.25l-2,1.18A.58.58,0,0,1,91.34,111.44ZM89.15,110l0,0,2,1.15a.38.38,0,0,0,.33,0l2-1.18h0l0,0-2-1.15a.36.36,0,0,0-.32,0l-2,1.18Z" transform="translate(-5.09 -5.09)"/></g><path class="cls-15" d="M90.91,111.37c.13.07.13.19,0,.26l-2,1.18a.49.49,0,0,1-.47,0l-2-1.15c-.13-.08-.13-.2,0-.27l2-1.18a.53.53,0,0,1,.46,0Z" transform="translate(-5.09 -5.09)"/><path class="cls-5" d="M88.65,113a.64.64,0,0,1-.3-.08l-2-1.15a.31.31,0,0,1-.16-.26.3.3,0,0,1,.16-.25l2-1.18a.64.64,0,0,1,.6,0l2,1.16a.29.29,0,0,1,.17.25.3.3,0,0,1-.16.25l-2,1.18A.58.58,0,0,1,88.65,113Zm-2.18-1.49s0,0,0,0l2,1.15a.42.42,0,0,0,.33,0l2-1.18,0,0,0,0-2-1.15a.36.36,0,0,0-.32,0l-2,1.18Z" transform="translate(-5.09 -5.09)"/><path class="cls-15" d="M103,101.27a.14.14,0,0,1,0,.26l-2,1.18a.49.49,0,0,1-.47,0l-1-.6c-.13-.08-.13-.2,0-.27l2-1.18a.47.47,0,0,1,.46,0Z" transform="translate(-5.09 -5.09)"/><path class="cls-5" d="M100.77,102.91a.58.58,0,0,1-.3-.08l-1.06-.6a.33.33,0,0,1-.16-.26.3.3,0,0,1,.16-.25l2-1.18a.64.64,0,0,1,.6,0l1,.61a.29.29,0,0,1,.17.25.3.3,0,0,1-.16.25l-2,1.18A.64.64,0,0,1,100.77,102.91ZM99.53,102s0,0,0,0l1,.61a.47.47,0,0,0,.33,0l2-1.18,0,0s0,0,0,0l-1.06-.6a.36.36,0,0,0-.32,0l-2,1.18Z" transform="translate(-5.09 -5.09)"/><path class="cls-15" d="M105.82,99.64a.14.14,0,0,1,0,.27l-2,1.18a.53.53,0,0,1-.46,0l-1-.61c-.13-.07-.13-.19,0-.27l2-1.18a.53.53,0,0,1,.46,0Z" transform="translate(-5.09 -5.09)"/><path class="cls-5" d="M103.56,101.28a.63.63,0,0,1-.3-.07l-1.05-.61a.29.29,0,0,1-.17-.25.3.3,0,0,1,.17-.26l2-1.18a.64.64,0,0,1,.6,0l1,.61a.29.29,0,0,1,.17.25.3.3,0,0,1-.17.26l-2,1.18A.58.58,0,0,1,103.56,101.28Zm-1.24-.93h0l1.05.61a.38.38,0,0,0,.33,0l2-1.18,0,0h0l-1-.61a.36.36,0,0,0-.32,0l-2,1.18Z" transform="translate(-5.09 -5.09)"/><path class="cls-15" d="M108.42,101.19c.13.08.13.2,0,.27l-3.35,2a.55.55,0,0,1-.47,0l-2-1.16c-.13-.07-.13-.19,0-.26L106,100a.49.49,0,0,1,.47,0Z" transform="translate(-5.09 -5.09)"/><path class="cls-5" d="M104.84,103.6a.64.64,0,0,1-.31-.07l-2-1.16a.28.28,0,0,1,0-.5l3.35-2a.64.64,0,0,1,.6,0l2,1.15a.33.33,0,0,1,.16.26.3.3,0,0,1-.16.25l-3.35,2A.63.63,0,0,1,104.84,103.6Zm-2.19-1.48,0,0,2,1.15a.38.38,0,0,0,.33,0l3.35-2h0s0,0,0,0l-2-1.15a.38.38,0,0,0-.33,0l-3.35,1.94Z" transform="translate(-5.09 -5.09)"/><path class="cls-15" d="M103,107.39c.13.08.13.2,0,.27l-2,1.18a.53.53,0,0,1-.46,0l-2-1.16c-.13-.07-.13-.19,0-.26l2-1.19a.52.52,0,0,1,.47,0Z" transform="translate(-5.09 -5.09)"/><path class="cls-5" d="M100.71,109a.6.6,0,0,1-.3-.07l-2-1.16a.29.29,0,0,1-.17-.25.3.3,0,0,1,.16-.25l2-1.18a.64.64,0,0,1,.6,0l2,1.15a.31.31,0,0,1,.16.26.3.3,0,0,1-.16.25L101,109A.6.6,0,0,1,100.71,109Zm-2.19-1.48h0l2,1.16a.36.36,0,0,0,.32,0l2-1.18h0s0,0,0,0l-2-1.16a.38.38,0,0,0-.33,0l-2,1.18Z" transform="translate(-5.09 -5.09)"/><path class="cls-15" d="M86.09,123.37c.13.08.13.2,0,.27l-2,1.18a.49.49,0,0,1-.47,0l-2-1.15c-.13-.08-.13-.2,0-.27l2-1.18a.47.47,0,0,1,.46,0Z" transform="translate(-5.09 -5.09)"/><path class="cls-5" d="M83.83,125a.58.58,0,0,1-.3-.08l-2-1.15a.31.31,0,0,1-.16-.26.3.3,0,0,1,.16-.25l2-1.18a.64.64,0,0,1,.6,0l2,1.16a.28.28,0,0,1,0,.5l-2,1.18A.64.64,0,0,1,83.83,125Zm-2.19-1.49s0,0,0,0l2,1.15a.38.38,0,0,0,.33,0l2-1.18h0s0,0,0,0l-2-1.15a.38.38,0,0,0-.33,0l-2,1.18Z" transform="translate(-5.09 -5.09)"/><path class="cls-15" d="M83,128.6c.13.07.13.19,0,.26L81,130a.47.47,0,0,1-.46,0l-2.38-1.37c-.13-.07-.13-.19,0-.26l2-1.18a.47.47,0,0,1,.46,0Z" transform="translate(-5.09 -5.09)"/><path class="cls-5" d="M80.77,130.24a.58.58,0,0,1-.3-.08l-2.38-1.37a.28.28,0,0,1,0-.5l2-1.18a.64.64,0,0,1,.6,0l2.38,1.37a.28.28,0,0,1,0,.5l-2,1.18A.61.61,0,0,1,80.77,130.24Zm-2.56-1.7h0l2.38,1.38a.44.44,0,0,0,.32,0l2-1.18,0,0,0,0-2.37-1.37a.38.38,0,0,0-.33,0l-2,1.18Z" transform="translate(-5.09 -5.09)"/><path class="cls-15" d="M91.74,123.53c.13.08.13.2,0,.27l-2.62,1.52a.47.47,0,0,1-.46,0L86.29,124a.14.14,0,0,1,0-.27l2.62-1.52a.55.55,0,0,1,.47,0Z" transform="translate(-5.09 -5.09)"/><path class="cls-5" d="M88.89,125.52a.61.61,0,0,1-.3-.08l-2.37-1.37a.29.29,0,0,1-.17-.25.3.3,0,0,1,.16-.25L88.84,122a.64.64,0,0,1,.6,0l2.37,1.37a.3.3,0,0,1,.17.26.29.29,0,0,1-.17.25l-2.62,1.52A.58.58,0,0,1,88.89,125.52Zm-2.56-1.7h0l2.38,1.37a.36.36,0,0,0,.32,0l2.62-1.52h0l0,0-2.37-1.37a.38.38,0,0,0-.33,0l-2.62,1.52Z" transform="translate(-5.09 -5.09)"/><path class="cls-15" d="M88.44,125.45a.14.14,0,0,1,0,.27l-2,1.18a.55.55,0,0,1-.47,0l-2.37-1.37c-.13-.08-.13-.2,0-.27l2-1.18a.47.47,0,0,1,.46,0Z" transform="translate(-5.09 -5.09)"/><path class="cls-5" d="M86.18,127.09a.63.63,0,0,1-.3-.07l-2.37-1.37a.31.31,0,0,1-.17-.26.29.29,0,0,1,.17-.25l2-1.18a.64.64,0,0,1,.6,0l2.37,1.37a.29.29,0,0,1,.17.25.3.3,0,0,1-.17.26l-2,1.18A.58.58,0,0,1,86.18,127.09Zm-2.56-1.7,0,0L86,126.78a.38.38,0,0,0,.33,0l2-1.18,0,0h0L86,124.2a.36.36,0,0,0-.32,0l-2,1.18Z" transform="translate(-5.09 -5.09)"/><path class="cls-15" d="M83.41,124.93c.13.07.13.19,0,.27L78,128.34a.53.53,0,0,1-.46,0l-2-1.16a.14.14,0,0,1,0-.27l5.4-3.14a.55.55,0,0,1,.47,0Z" transform="translate(-5.09 -5.09)"/><path class="cls-5" d="M77.78,128.53a.6.6,0,0,1-.3-.07l-2-1.16a.29.29,0,0,1-.17-.25.31.31,0,0,1,.16-.26l5.4-3.13a.66.66,0,0,1,.61,0l2,1.15a.3.3,0,0,1,.16.25.31.31,0,0,1-.16.26l-5.4,3.14A.6.6,0,0,1,77.78,128.53Zm-2.19-1.48h0l2,1.16a.36.36,0,0,0,.32,0l5.4-3.14,0,0h0l-2-1.16a.38.38,0,0,0-.33,0L75.61,127Z" transform="translate(-5.09 -5.09)"/><path class="cls-15" d="M85.74,127c.12.08.13.2,0,.27l-2,1.18a.55.55,0,0,1-.47,0l-2.37-1.37c-.13-.07-.13-.19,0-.27l2-1.18a.53.53,0,0,1,.46,0Z" transform="translate(-5.09 -5.09)"/><path class="cls-5" d="M83.48,128.66a.58.58,0,0,1-.3-.07l-2.38-1.37a.3.3,0,0,1-.16-.25.31.31,0,0,1,.16-.26l2-1.18a.64.64,0,0,1,.6,0l2.38,1.37a.31.31,0,0,1,.16.26.3.3,0,0,1-.16.25l-2,1.18A.63.63,0,0,1,83.48,128.66ZM80.92,127h0l2.37,1.37a.38.38,0,0,0,.33,0l2-1.18h0l0,0-2.38-1.37a.36.36,0,0,0-.32,0l-2,1.18S80.92,127,80.92,127Z" transform="translate(-5.09 -5.09)"/><path class="cls-15" d="M116.66,109.05c.13.08.13.2,0,.27l-2,1.18a.53.53,0,0,1-.46,0l-2.38-1.37c-.12-.08-.13-.2,0-.27l2-1.18a.55.55,0,0,1,.47,0Z" transform="translate(-5.09 -5.09)"/><path class="cls-5" d="M114.4,110.69a.6.6,0,0,1-.3-.07l-2.37-1.37a.3.3,0,0,1-.17-.26.3.3,0,0,1,.16-.25l2-1.18a.66.66,0,0,1,.61,0l2.37,1.37a.31.31,0,0,1,.16.26.28.28,0,0,1-.16.25l-2,1.18A.6.6,0,0,1,114.4,110.69Zm-2.56-1.7,0,0,2.38,1.37a.36.36,0,0,0,.32,0l2-1.18h0l0,0-2.37-1.37a.38.38,0,0,0-.33,0l-2,1.18Z" transform="translate(-5.09 -5.09)"/><path class="cls-15" d="M114,110.61a.14.14,0,0,1,0,.27l-2,1.18a.53.53,0,0,1-.46,0l-1-.57c-.13-.07-.13-.19,0-.27l2-1.18a.53.53,0,0,1,.46,0Z" transform="translate(-5.09 -5.09)"/><path class="cls-5" d="M111.72,112.25a.64.64,0,0,1-.3-.08l-1-.56a.28.28,0,0,1,0-.51l2-1.18a.64.64,0,0,1,.6,0l1,.57a.27.27,0,0,1,0,.5l-2,1.18A.58.58,0,0,1,111.72,112.25Zm-1.16-.9s0,0,0,0l1,.57a.38.38,0,0,0,.33,0l2-1.18,0,0h0l-1-.57a.36.36,0,0,0-.32,0l-2,1.18Z" transform="translate(-5.09 -5.09)"/><path class="cls-15" d="M107.64,110.85c.13.07.13.19,0,.27l-2,1.18a.53.53,0,0,1-.46,0l-2-1.16c-.12-.07-.12-.19,0-.27l2-1.18a.55.55,0,0,1,.47,0Z" transform="translate(-5.09 -5.09)"/><path class="cls-5" d="M105.38,112.49a.58.58,0,0,1-.3-.07l-2-1.16a.29.29,0,0,1-.17-.25.33.33,0,0,1,.16-.26l2-1.18a.72.72,0,0,1,.61,0l2,1.16a.3.3,0,0,1,.16.25.31.31,0,0,1-.16.26l-2,1.18A.6.6,0,0,1,105.38,112.49ZM103.19,111h0l2,1.16a.36.36,0,0,0,.32,0l2-1.18,0,0h0l-2-1.16a.38.38,0,0,0-.33,0l-2,1.18Z" transform="translate(-5.09 -5.09)"/><path class="cls-15" d="M108.51,113.79c.13.07.13.19,0,.27l-2.62,1.52a.53.53,0,0,1-.46,0l-2.37-1.37c-.13-.08-.13-.2,0-.27l2.62-1.52a.49.49,0,0,1,.47,0Z" transform="translate(-5.09 -5.09)"/><path class="cls-5" d="M105.66,115.77a.6.6,0,0,1-.3-.07L103,114.33a.3.3,0,0,1-.17-.26.3.3,0,0,1,.16-.25l2.63-1.52a.64.64,0,0,1,.6,0l2.37,1.37a.27.27,0,0,1,0,.5L106,115.7A.58.58,0,0,1,105.66,115.77Zm-2.56-1.7,0,0,2.38,1.37a.36.36,0,0,0,.32,0l2.62-1.52,0,0h0l-2.37-1.37a.42.42,0,0,0-.33,0l-2.62,1.53Z" transform="translate(-5.09 -5.09)"/><path class="cls-15" d="M111.31,112.16c.13.08.13.2,0,.27l-2,1.18a.49.49,0,0,1-.47,0l-2.37-1.37c-.13-.07-.13-.19,0-.27l2-1.18a.53.53,0,0,1,.46,0Z" transform="translate(-5.09 -5.09)"/><path class="cls-5" d="M109.05,113.8a.58.58,0,0,1-.3-.07l-2.38-1.37a.3.3,0,0,1-.16-.25.31.31,0,0,1,.16-.26l2-1.18a.64.64,0,0,1,.6,0l2.38,1.37a.31.31,0,0,1,.16.26.3.3,0,0,1-.16.25l-2,1.18A.63.63,0,0,1,109.05,113.8Zm-2.56-1.69h0l2.37,1.37a.38.38,0,0,0,.33,0l2-1.18h0l0,0-2.38-1.37a.36.36,0,0,0-.32,0l-2,1.18S106.49,112.1,106.49,112.11Z" transform="translate(-5.09 -5.09)"/><path class="cls-15" d="M96.86,117.11c.13.08.13.2,0,.27l-2,1.18a.53.53,0,0,1-.46,0l-2-1.16c-.13-.07-.13-.19,0-.26l2-1.18a.47.47,0,0,1,.46,0Z" transform="translate(-5.09 -5.09)"/><path class="cls-5" d="M94.6,118.75a.63.63,0,0,1-.3-.07l-2-1.16a.27.27,0,0,1,0-.5l2-1.18a.64.64,0,0,1,.6,0l2,1.15a.3.3,0,0,1,.17.26.29.29,0,0,1-.17.25l-2,1.18A.58.58,0,0,1,94.6,118.75Zm-2.19-1.48,0,0,2,1.15a.36.36,0,0,0,.32,0l2-1.18h0l0,0-2-1.16a.44.44,0,0,0-.32,0l-2,1.18Z" transform="translate(-5.09 -5.09)"/><path class="cls-15" d="M105.19,115.72c.13.07.13.19,0,.27l-12.73,7.4a.55.55,0,0,1-.47,0L89.62,122c-.13-.08-.13-.2,0-.27l12.73-7.4a.47.47,0,0,1,.46,0Z" transform="translate(-5.09 -5.09)"/><path class="cls-5" d="M92.23,123.58a.78.78,0,0,1-.31-.07l-2.37-1.38a.33.33,0,0,1-.17-.25.29.29,0,0,1,.17-.25l12.73-7.4a.64.64,0,0,1,.6,0l2.38,1.37a.3.3,0,0,1,.16.25.33.33,0,0,1-.16.26l-12.73,7.4A.78.78,0,0,1,92.23,123.58Zm-2.56-1.7s0,0,0,0l2.37,1.37a.38.38,0,0,0,.33,0l12.73-7.4s0,0,0,0h0l-2.37-1.37a.38.38,0,0,0-.33,0l-12.73,7.4Z" transform="translate(-5.09 -5.09)"/><path class="cls-15" d="M88.78,121.81c.13.07.13.19,0,.27l-2,1.18a.53.53,0,0,1-.46,0l-2-1.16a.14.14,0,0,1,0-.27l2-1.18a.55.55,0,0,1,.47,0Z" transform="translate(-5.09 -5.09)"/><path class="cls-5" d="M86.52,123.45a.6.6,0,0,1-.3-.07l-2-1.16a.29.29,0,0,1-.17-.25.3.3,0,0,1,.17-.26l2-1.18a.64.64,0,0,1,.6,0l2,1.16a.3.3,0,0,1,.16.25.27.27,0,0,1-.16.26l-2,1.18A.58.58,0,0,1,86.52,123.45ZM84.33,122h0l2,1.16a.36.36,0,0,0,.32,0l2-1.18s0,0,0,0h0l-2-1.16a.38.38,0,0,0-.33,0l-2,1.18Z" transform="translate(-5.09 -5.09)"/><path class="cls-15" d="M79.38,124.19c.13.07.13.19,0,.27l-4,2.34a.55.55,0,0,1-.47,0l-2-1.16c-.13-.07-.13-.19,0-.27l4-2.34a.53.53,0,0,1,.46,0Z" transform="translate(-5.09 -5.09)"/><path class="cls-5" d="M75.12,127a.58.58,0,0,1-.3-.07l-2-1.16a.28.28,0,0,1,0-.5l4-2.35a.64.64,0,0,1,.6,0l2,1.16a.3.3,0,0,1,.16.25.33.33,0,0,1-.16.26l-4,2.34A.63.63,0,0,1,75.12,127Zm-2.19-1.48h0l2,1.16a.38.38,0,0,0,.33,0l4-2.34s0,0,0,0h0l-2-1.16a.38.38,0,0,0-.33,0l-4,2.34S72.93,125.5,72.93,125.51Z" transform="translate(-5.09 -5.09)"/><path class="cls-15" d="M76,123c.12.08.13.2,0,.27l-3.36,2a.47.47,0,0,1-.46,0l-2-1.16c-.13-.07-.13-.19,0-.26l3.35-2a.47.47,0,0,1,.46,0Z" transform="translate(-5.09 -5.09)"/><path class="cls-5" d="M72.45,125.45a.63.63,0,0,1-.3-.07l-2-1.16a.27.27,0,0,1,0-.5l3.35-2a.64.64,0,0,1,.6,0l2,1.15a.33.33,0,0,1,.16.26.3.3,0,0,1-.16.25l-3.36,1.95A.58.58,0,0,1,72.45,125.45ZM70.26,124l0,0,2,1.15a.36.36,0,0,0,.32,0l3.36-2h0s0,0,0,0L74,122a.38.38,0,0,0-.33,0L70.29,124Z" transform="translate(-5.09 -5.09)"/><path class="cls-15" d="M80.64,114.27c.13.08.13.2,0,.27l-2,1.18a.53.53,0,0,1-.46,0l-1.05-.61c-.13-.07-.13-.19,0-.27l2-1.18a.53.53,0,0,1,.46,0Z" transform="translate(-5.09 -5.09)"/><path class="cls-5" d="M78.38,115.91a.63.63,0,0,1-.3-.07l-1-.61a.31.31,0,0,1-.17-.25.29.29,0,0,1,.17-.25l2-1.18a.64.64,0,0,1,.6,0l1,.6a.3.3,0,0,1,.17.26.29.29,0,0,1-.17.25l-2,1.18A.58.58,0,0,1,78.38,115.91ZM77.15,115h0l1,.61a.38.38,0,0,0,.33,0l2-1.18h0l0,0-1.06-.61a.36.36,0,0,0-.32,0l-2,1.18S77.15,115,77.15,115Z" transform="translate(-5.09 -5.09)"/></g></svg>