<svg id="Livello_1" data-name="Livello 1" xmlns="http://www.w3.org/2000/svg" viewBox="0 0 145.73 145.73"><defs><style>.cls-1{fill:#56bdbf;stroke:#eaeaea;stroke-miterlimit:10;stroke-width:4px;opacity:0.8;}.cls-2{fill:#303b45;}.cls-3{fill:#353430;}.cls-4{fill:#5b5b5a;}.cls-5{fill:#8d8d8e;}.cls-6{fill:#f6bbc6;}.cls-7{fill:#ef7967;}.cls-8{fill:#dfe5ee;}.cls-9{fill:#242550;}.cls-10{fill:#eaeaea;}.cls-11{fill:#ebebeb;}.cls-12{fill:#a9a9a9;}</style></defs><title>G09_02_03</title><circle class="cls-1" cx="72.87" cy="72.87" r="70.87"/><path class="cls-2" d="M77.79,121.69a14.8,14.8,0,0,0-1.14,4.5,2.93,2.93,0,0,0,.88,2.27,36.9,36.9,0,0,0,4,.88c.93,0,4,2.48,6.2,2.63s5.06.83,5.37-.93-10.95-8.73-10.95-8.73Z" transform="translate(-5.56 -4.97)"/><path class="cls-3" d="M90.61,28.72,93,31.36s6.14,22.27,6,24.16-2.64,2.26-4.15,1.69S89.1,42.87,89.1,42.87Z" transform="translate(-5.56 -4.97)"/><path class="cls-2" d="M78.26,116.33l-.45,6.06s-.13,1.43,1.82,1.53a2.58,2.58,0,0,0,2.55-1.61l1.37-9Z" transform="translate(-5.56 -4.97)"/><path class="cls-2" d="M65.09,121.76,64,127.19s.35,1.93,2.11,1.66,2.27-2.62,2.27-2.62l1.06-5.79Z" transform="translate(-5.56 -4.97)"/><path class="cls-2" d="M64.13,126.31s.17,1.58,1.57,1.49a4.48,4.48,0,0,0,2.63-1.57l-.35,5.6s-.79,8.42-3.24,9.29-2.92-2.57-3-3.76A24.75,24.75,0,0,1,64.13,126.31Z" transform="translate(-5.56 -4.97)"/><path class="cls-4" d="M68.8,63.61s.46,8.81.92,10.43-.92,23.17-.92,23.17-4.39,23.48-4.16,24.88,4.17.69,5.1-.7,6.24-20.47,7.17-26.5S80.61,75,80.61,75s.23,16.91.23,18.3S78,118.88,78,118.88s.12.74,2.45,1.09a2.84,2.84,0,0,0,2.66-1.06c1.39-2.26,1.72-6.18,1.72-6.18L91,81l.87-23.19-3.65-1.37Z" transform="translate(-5.56 -4.97)"/><path class="cls-4" d="M77.62,29.44s7.7-2.48,10.85-1.7a5.7,5.7,0,0,1,4.47,4c.26,1.05-1,26.55-1,26.55S78.22,69.55,72.43,66.65c-4.17-2.08-4.51-4.45-4.38-5.6a14.71,14.71,0,0,0,.13-2.1l2.9-26.84Z" transform="translate(-5.56 -4.97)"/><path class="cls-3" d="M90.55,48.59l-16,3.19L71.27,34.91,70.9,34l-3.46,2.38L68.18,59a14.71,14.71,0,0,1-.13,2.1c-.11,1,.12,2.77,2.63,4.56,5.3-2.73,16-8.6,20.24-13C93.37,50.14,90.55,48.59,90.55,48.59Z" transform="translate(-5.56 -4.97)"/><path class="cls-5" d="M79.88,29.43S78.21,30,78,30.68s.92,1.35,3.32,2.71a13.51,13.51,0,0,0,2.35,1,7.23,7.23,0,0,0,1.43-3.29C85.22,26.87,79.88,29.43,79.88,29.43Z" transform="translate(-5.56 -4.97)"/><path class="cls-6" d="M93,23.71A7.67,7.67,0,1,1,88.26,14,7.67,7.67,0,0,1,93,23.71Z" transform="translate(-5.56 -4.97)"/><path class="cls-6" d="M87.43,23.27l-2.61,7.89h0a4.91,4.91,0,0,1-5.49.57h0a1.21,1.21,0,0,1-.6-1.37l1.94-7.65Z" transform="translate(-5.56 -4.97)"/><path class="cls-7" d="M92.24,21.55a1.87,1.87,0,0,0,1.14-.31.08.08,0,0,0,0,0,7.66,7.66,0,0,0-14.91-2.49,6.71,6.71,0,0,0-.25,1,2.71,2.71,0,0,0,1,.3c.78.07,3.36-1,3.13-2,.11.52.23,1,.34,1.56a1.82,1.82,0,0,0,1.13-1.36A11.35,11.35,0,0,0,92.24,21.55Z" transform="translate(-5.56 -4.97)"/><path class="cls-3" d="M92.82,56.36s-1.53-3.41-.16-5h0c1.38-1.59,2.9-2.73,5.16-.76,0,0,4.43,6.32,3.06,7.9h0C99.5,60.09,95.08,58.32,92.82,56.36Z" transform="translate(-5.56 -4.97)"/><path class="cls-6" d="M81.54,20a2.34,2.34,0,1,1-1.45-3A2.34,2.34,0,0,1,81.54,20Z" transform="translate(-5.56 -4.97)"/><path class="cls-6" d="M102,56.69a2.83,2.83,0,1,1-2.83-2.84A2.83,2.83,0,0,1,102,56.69Z" transform="translate(-5.56 -4.97)"/><polygon class="cls-8" points="111.43 36.27 93.73 47.48 87.57 53.64 106.72 42.42 111.43 36.27"/><polygon class="cls-9" points="111.45 36.3 111.74 36.66 107.25 42.99 87.57 54.04 87.57 53.64 106.72 42.42 111.45 36.3"/><polygon class="cls-4" points="76.57 26.04 75.44 28.79 72.36 29.07 70.72 26.04 73.08 23.47 73.7 23.3 73.53 24 76.57 26.04"/><polygon class="cls-3" points="78.03 29.54 75.51 28.54 76.57 26.04 78.03 29.54"/><circle class="cls-10" cx="74.9" cy="26.68" r="0.82"/><polygon class="cls-3" points="79.46 25.61 78.03 29.54 80.09 27.4 79.46 25.61"/><path class="cls-11" d="M91.78,60.85l-.13,3.76S77,70.89,71.24,69.2c-3.33-1-3.35-3.31-3.25-4.16.06-.52,0-3.24,0-3.55,0,0,1.33,3.94,5,4.44C77.19,66.51,91.78,60.85,91.78,60.85Z" transform="translate(-5.56 -4.97)"/><path class="cls-11" d="M90.67,61.57l1-.19S83.2,40.26,76.27,33.05c-.82-.85-2.75-1.94-3-1.81a9.48,9.48,0,0,0-2.14.87s3.15.78,6.47,4.71C82,42.1,90.67,61.57,90.67,61.57Z" transform="translate(-5.56 -4.97)"/><path class="cls-4" d="M73.06,42s-.14-9.14-2-9.93c0,0-4.17.89-5.48,3.78s-1,5.47-2.22,9.93c-.82,3-2.76,9.6-2.36,12.09s3,3.82,9.2,1.32,21.56-8.55,21.56-8.55l-.13-2.76-20.14,3Z" transform="translate(-5.56 -4.97)"/><path class="cls-6" d="M96.46,48.91a2.83,2.83,0,1,1-2.83-2.83A2.83,2.83,0,0,1,96.46,48.91Z" transform="translate(-5.56 -4.97)"/><path class="cls-6" d="M98.18,51.45l-2-3.12a.79.79,0,0,0-1.33.87l2,3.12a.79.79,0,1,0,1.33-.87Z" transform="translate(-5.56 -4.97)"/><path class="cls-12" d="M68.36,67.13A3.61,3.61,0,0,1,68,65c.06-.52,0-3.24,0-3.55a7.64,7.64,0,0,0,3.16,3.85Z" transform="translate(-5.56 -4.97)"/><polygon class="cls-12" points="82.29 50.28 81.05 47.71 82.22 47.29 83.25 49.55 82.29 50.28"/><path class="cls-6" d="M220.28,88.46" transform="translate(-5.56 -4.97)"/><path class="cls-6" d="M219.61,89.64" transform="translate(-5.56 -4.97)"/><path class="cls-4" d="M220.28,88.46" transform="translate(-5.56 -4.97)"/></svg>