<svg xmlns="http://www.w3.org/2000/svg" viewBox="0 0 588.85 321.52"><defs><style>.cls-1{isolation:isolate;}.cls-2{fill:#01b2b2;}.cls-3{fill:#7fc9cb;}.cls-17,.cls-4{fill:#56bdbf;}.cls-5{fill:#d9d9d9;mix-blend-mode:multiply;}.cls-6{fill:#4254a1;}.cls-7{fill:#261c35;}.cls-8{fill:#4c4691;}.cls-9{fill:#f7c0c0;}.cls-10{fill:#e1e3f3;}.cls-11{fill:#2b2e70;}.cls-12{fill:#575489;}.cls-13,.cls-14{fill:#1e1f42;}.cls-14,.cls-36{opacity:0.5;}.cls-15{fill:#333;}.cls-16{fill:#fff;}.cls-17,.cls-39{stroke:#eaeaea;}.cls-17,.cls-18,.cls-22,.cls-24,.cls-39{stroke-miterlimit:10;}.cls-17,.cls-24{stroke-width:4px;}.cls-18,.cls-22,.cls-26,.cls-27,.cls-28,.cls-29,.cls-39,.cls-40,.cls-41{fill:none;}.cls-18{stroke:#5b5b5a;stroke-width:3px;}.cls-19,.cls-24{fill:#eaeaea;}.cls-20{fill:#57bebf;}.cls-21{fill:#f5ad1f;}.cls-22{stroke:#c4cfdb;stroke-width:8px;}.cls-23{fill:#5b5b5a;}.cls-24{stroke:#56bdbf;}.cls-25{font-size:20px;font-family:Roboto-Bold, Roboto;font-weight:700;}.cls-25,.cls-37{fill:#9ea6b0;}.cls-26,.cls-27,.cls-28,.cls-40,.cls-41{stroke:#7fc9cb;stroke-linecap:round;stroke-linejoin:round;stroke-width:5px;}.cls-27{stroke-dasharray:11.47 11.47;}.cls-28{stroke-dasharray:12.4 12.4;}.cls-29{opacity:0.8;}.cls-30,.cls-31{fill:#fcd6b7;}.cls-30,.cls-32,.cls-33,.cls-35,.cls-36{fill-rule:evenodd;}.cls-32{fill:#deb99b;}.cls-33{fill:#87cdd3;}.cls-34,.cls-35{fill:#4e4d4c;}.cls-36{fill:#36a9e1;}.cls-38{fill:#3c3c3b;}.cls-39{stroke-width:3.92px;}.cls-40{stroke-dasharray:12.15 12.15;}.cls-41{stroke-dasharray:11.93 11.93;}</style></defs><title>G09_08</title><g class="cls-1"><g id="Tiles"><polygon class="cls-2" points="380.09 210.96 380.09 215.72 290.43 268.65 290.28 268.56 290.28 263.81 380.09 210.96"/><polygon class="cls-3" points="290.28 263.81 290.28 268.56 194.06 212.76 194.06 208 290.28 263.81"/><polygon class="cls-4" points="290.06 263.82 193.84 208.02 193.84 207.75 284.26 155.78 380.09 210.96 290.21 263.91 290.06 263.82"/><ellipse class="cls-5" cx="288.08" cy="208.76" rx="60.94" ry="31.69"/><path class="cls-6" d="M284.62,158.21s-4.2,17.49-5.95,26.84,1,33.63,1,33.63a3.45,3.45,0,0,0,2.93,1.47c2,0,4.26-29,4.26-29s3.72-21.29,5.18-21c.33.07,2,1.07,3.21.84,4.15-.8,10.07-4.43,9.84-8.73-.29-5.56-4.68-5.85-4.68-5.85s-7.6-.59-8.48-.29S284.62,158.21,284.62,158.21Z" transform="translate(-5.46 -5.19)"/><path class="cls-6" d="M294.36,164.52s-1.41,19.12.63,22.93,13.47,15.36,13.47,15.36,3.36.44,2.48-1.9-8.79-16.41-8.79-16.41l2.94-22.19-6.43-7.9Z" transform="translate(-5.46 -5.19)"/><path class="cls-7" d="M280.86,130.69s.79-3.71,3.42-3.71,19.85,3.82,21,5,9.44,16.88,9.44,22.15S313,177.51,313,177.51s-3.22.59-4.1-.87-1.75-19.6-1.75-19.6-4.68-17-4.68-16.08S280.86,130.69,280.86,130.69Z" transform="translate(-5.46 -5.19)"/><path class="cls-7" d="M284.91,130.14l17.17,4.76,2.43,4.3s1.46,20.47.58,23.11-10.53.83-14,.24-6.43-4.34-6.43-4.34L282.82,129Z" transform="translate(-5.46 -5.19)"/><path class="cls-7" d="M284.29,140.65s-11.06,11.67-11,5.52,3.35-19.38,3.35-19.38a3.77,3.77,0,0,1,3.52-.07c1.7,1,.91,8,.91,8l.26-5.23S289.63,123.06,284.29,140.65Z" transform="translate(-5.46 -5.19)"/><path class="cls-8" d="M308.22,202.46s.89,3.6.61,4.28-1.31,4,.46,4.33,2.88-1.33,3.06-3.06S311,201,311,201Z" transform="translate(-5.46 -5.19)"/><path class="cls-9" d="M281.2,216.34c-.89-.14-.85-.73-1.86-.91.33,3.81.33,3.25.33,3.25.23,2.4,1,2.19,3,1.57.63-.19.69,0,1.31-4.08C283,216.15,281.92,216.45,281.2,216.34Z" transform="translate(-5.46 -5.19)"/><path class="cls-10" d="M278.47,216.87s2,2,6.12,1.53c.48-.11,1-1.15,1-2.07a5.68,5.68,0,0,0-.13-1.3.82.82,0,0,0-1.22-.52,5.61,5.61,0,0,1-3.32.94,2.63,2.63,0,0,1-2.14-2.37h-.4a3.39,3.39,0,0,0-.26,2.81,5.05,5.05,0,0,0,.18.55Z" transform="translate(-5.46 -5.19)"/><path class="cls-9" d="M310.94,200.91a8.14,8.14,0,0,0-.86-1.86,8.24,8.24,0,0,1-2.21,1.9c-.47.36-1.3-.74-1.77-.58,1.4,1.47,2.36,2.44,2.36,2.44S311.82,203.25,310.94,200.91Z" transform="translate(-5.46 -5.19)"/><path class="cls-10" d="M305.33,200.75l1.24,1.86s3.63,1.69,4.54-2.89L310,197.37l-.41.08s.21,2.27-1.48,2.64a5.81,5.81,0,0,1-2.44.17Z" transform="translate(-5.46 -5.19)"/><path class="cls-8" d="M283,223.35c.09-1.26.19-2.51.29-3.76a1.27,1.27,0,0,0-.06-.58,1.37,1.37,0,0,1-.95.32,10,10,0,0,1-2.68-.21c-.06,1.36-1,2.43-2,3.43a13,13,0,0,0-2.55,3.15.85.85,0,0,0-.08.71.88.88,0,0,0,.8.34,8,8,0,0,0,3.84-1A22.75,22.75,0,0,0,283,223.35Z" transform="translate(-5.46 -5.19)"/><path class="cls-9" d="M297.05,121.7c0,1.47-.62,2.66-1.4,2.66s-1.39-1.19-1.39-2.66.62-2.65,1.39-2.65S297.05,120.24,297.05,121.7Z" transform="translate(-5.46 -5.19)"/><circle class="cls-9" cx="305.01" cy="172.47" r="2.5"/><circle class="cls-9" cx="273.45" cy="121.67" r="2.5"/><path class="cls-11" d="M282.86,129.87l.06,0,.3-.16-.22-.74c0-1.89.12-7,.13-7.27a.75.75,0,0,0-.3-.57L280,119.22l-.11-.36-.3.16c-.11,0-.11.21-.11.21s-.14,7.62-.14,8a.67.67,0,0,0,.06.3h0a.86.86,0,0,0,.23.27l2.71,1.83.3.2a.27.27,0,0,0,.18.06Z" transform="translate(-5.46 -5.19)"/><path class="cls-11" d="M279.7,126l3.32,1.78c0,.46,0,.87,0,1.19l.22.74-.3.16-.06,0h0a.27.27,0,0,1-.18-.06l-.3-.2-2.71-1.83a.86.86,0,0,1-.23-.27h0a.67.67,0,0,1-.06-.3c0-.08,0-.49,0-1.09Z" transform="translate(-5.46 -5.19)"/><path class="cls-11" d="M279.52,119.23s0-.18.11-.21l.3-.16.11.36,0,0-.28.19-.3.15Z" transform="translate(-5.46 -5.19)"/><path class="cls-12" d="M282.68,129.45l-2.7-1.83a.73.73,0,0,1-.3-.57c0-.36.14-8,.14-8s0-.36.31-.16l3,2a.72.72,0,0,1,.29.57c0,.36-.14,8-.14,8s0,.36-.31.16Z" transform="translate(-5.46 -5.19)"/><polygon class="cls-13" points="277.85 123.22 277.96 116.69 274.36 114.25 274.24 120.78 277.85 123.22"/><path class="cls-13" d="M281.43,127.49c-.12.06-.12.29,0,.51s.31.35.43.29.13-.3,0-.52S281.55,127.42,281.43,127.49Z" transform="translate(-5.46 -5.19)"/><path class="cls-13" d="M282.11,120.57s0,.07,0,.12.07.08.1.06,0-.06,0-.12S282.14,120.55,282.11,120.57Z" transform="translate(-5.46 -5.19)"/><path class="cls-13" d="M282,120.51s0,0,0,.06a.05.05,0,0,0,0,0s0,0,0-.06Z" transform="translate(-5.46 -5.19)"/><path class="cls-14" d="M281.24,120s0,0,0,0a.08.08,0,0,0,0,.07l.6.41s0,0,0,0a.07.07,0,0,0,0-.07Z" transform="translate(-5.46 -5.19)"/><path class="cls-9" d="M296.24,121.43a6.86,6.86,0,1,1-6.86-6.86A6.86,6.86,0,0,1,296.24,121.43Z" transform="translate(-5.46 -5.19)"/><path class="cls-9" d="M287.11,123.54l2.34,7h0a4.41,4.41,0,0,0,4.92.51l.74-.4L293.16,123Z" transform="translate(-5.46 -5.19)"/><path class="cls-8" d="M289.38,114.57a6.85,6.85,0,0,0-6.38,4.35,9.92,9.92,0,0,0,4.38,1c.54,0,5.45-.67,5.23-1.53a12.32,12.32,0,0,0,1.22,3,2.35,2.35,0,0,1,1.84-2.22l.18,0A6.87,6.87,0,0,0,289.38,114.57Z" transform="translate(-5.46 -5.19)"/><path class="cls-15" d="M288.73,120.39c-.87,0-1.52.88-2,.88s-1.17-.88-2-.88c-1.31,0-2.37.8-2.37,1.79s1.06,1.79,2.37,1.79c.86,0,1.51-.88,2-.88s1.16.88,2,.88a1.86,1.86,0,1,0,0-3.58Z" transform="translate(-5.46 -5.19)"/><ellipse class="cls-16" cx="278.93" cy="116.99" rx="1.09" ry="0.78"/><ellipse class="cls-16" cx="283.55" cy="116.99" rx="1.09" ry="0.78"/><path class="cls-7" d="M293,132.19s.57-6.91.15-9.16a18.79,18.79,0,0,0-2.26-5.64c-.69-1-2.82-2.82-4.2-2.27a7.94,7.94,0,0,0-3.7,3.8,22.59,22.59,0,0,1,1.39-4.35c.81-1.25,3.51-3.15,5-3.28,2.08-.18,6.86.79,7.67,3.28.89,2.7,3,8.18,2.81,11-.09,1.4-2.06,5.2-2.06,5.2Z" transform="translate(-5.46 -5.19)"/></g><g id="Criminal"><circle class="cls-17" cx="72.87" cy="72.87" r="70.87"/><circle class="cls-17" cx="406.05" cy="248.65" r="70.87"/><rect class="cls-16" x="354.09" y="224.78" width="68.25" height="41" rx="10.04" ry="10.04"/><polygon class="cls-16" points="366.17 276.03 373.17 262.03 388.21 262.03 366.17 276.03"/><line class="cls-18" x1="403.34" y1="234.86" x2="413.17" y2="234.86"/><line class="cls-18" x1="377.17" y1="234.86" x2="400" y2="234.86"/><line class="cls-18" x1="363.17" y1="234.86" x2="373.17" y2="234.86"/><line class="cls-18" x1="407.5" y1="241.86" x2="413.17" y2="241.86"/><line class="cls-18" x1="383.17" y1="241.86" x2="403.34" y2="241.86"/><line class="cls-18" x1="363.17" y1="241.86" x2="379.34" y2="241.86"/><line class="cls-18" x1="404" y1="247.86" x2="413.17" y2="247.86"/><line class="cls-18" x1="383.17" y1="247.86" x2="400" y2="247.86"/><line class="cls-18" x1="363.17" y1="247.86" x2="378.84" y2="247.86"/><line class="cls-18" x1="363.17" y1="253.86" x2="383.17" y2="253.86"/><path class="cls-19" d="M438,291h-29.4a12.06,12.06,0,0,1-12-12.05V258a12.05,12.05,0,0,1,12-12h48.17a12.06,12.06,0,0,1,12,12v20.91a12.07,12.07,0,0,1-12,12.05h-3.94l2.44,9.19Z" transform="translate(-5.46 -5.19)"/><path class="cls-20" d="M456.76,248a10,10,0,0,1,10,10v20.91a10,10,0,0,1-10,10.05h-7.17l5.12,10.25L438.58,289h-30a10,10,0,0,1-10-10.05V258a10,10,0,0,1,10-10h48.17m0-4H408.59a14.05,14.05,0,0,0-14,14v20.91a14.06,14.06,0,0,0,14,14.05h28.82l15.16,9.62,5.72-5.16L456.06,293h.7a14.06,14.06,0,0,0,14-14.05V258a14.05,14.05,0,0,0-14-14Z" transform="translate(-5.46 -5.19)"/><line class="cls-18" x1="412" y1="251.86" x2="402.17" y2="251.86"/><line class="cls-18" x1="442.17" y1="251.86" x2="416.34" y2="251.86"/><line class="cls-18" x1="452.17" y1="251.86" x2="445.17" y2="251.86"/><line class="cls-18" x1="407.84" y1="258.86" x2="402.17" y2="258.86"/><line class="cls-18" x1="429.17" y1="258.86" x2="412" y2="258.86"/><line class="cls-18" x1="452.17" y1="258.86" x2="433" y2="258.86"/><line class="cls-18" x1="411.34" y1="264.86" x2="402.17" y2="264.86"/><line class="cls-18" x1="435.17" y1="264.86" x2="415.34" y2="264.86"/><line class="cls-18" x1="452.17" y1="264.86" x2="439.5" y2="264.86"/><line class="cls-18" x1="422.17" y1="270.86" x2="402.17" y2="270.86"/><rect class="cls-21" x="381.24" y="231.4" width="51.02" height="43.18"/><path class="cls-22" d="M396.3,236.55V220.63a15.91,15.91,0,0,1,31.82,0v15.92" transform="translate(-5.46 -5.19)"/><circle class="cls-23" cx="406.75" cy="249.09" r="4.89"/><polygon class="cls-23" points="411.64 263.53 409.41 250.09 404.1 250.09 401.86 263.53 411.64 263.53"/><rect class="cls-24" x="23.53" y="46.22" width="98.67" height="53.3"/><polygon class="cls-24" points="72.87 66.22 122.2 99.24 23.53 99.24 72.87 66.22"/><polygon class="cls-24" points="72.87 79.24 23.53 46.22 122.2 46.22 72.87 79.24"/><text class="cls-25" transform="translate(63.92 65.64)">@</text><line class="cls-26" x1="269.25" y1="97.38" x2="269.25" y2="91.38"/><polyline class="cls-26" points="269.25 79.92 269.25 73.92 263.25 73.92"/><line class="cls-27" x1="251.78" y1="73.92" x2="165.73" y2="73.92"/><line class="cls-26" x1="159.99" y1="73.92" x2="153.99" y2="73.92"/><circle class="cls-4" cx="246.57" cy="73.92" r="5.67"/><path class="cls-4" d="M279.69,93.84H269.27A2.11,2.11,0,0,0,267.44,97l5.21,9a2.11,2.11,0,0,0,3.66,0l5.21-9A2.11,2.11,0,0,0,279.69,93.84Z" transform="translate(-5.46 -5.19)"/><circle class="cls-4" cx="200.32" cy="73.92" r="5.67"/><line class="cls-26" x1="321.01" y1="128.92" x2="327.01" y2="128.92"/><line class="cls-28" x1="339.41" y1="128.92" x2="432.39" y2="128.92"/><line class="cls-26" x1="438.59" y1="128.92" x2="444.59" y2="128.92"/><path class="cls-4" d="M329.64,128.9v10.42a2.11,2.11,0,0,1-3.17,1.82l-9-5.21a2.1,2.1,0,0,1,0-3.65l9-5.21A2.11,2.11,0,0,1,329.64,128.9Z" transform="translate(-5.46 -5.19)"/><circle class="cls-4" cx="370.47" cy="128.92" r="5.67"/><circle class="cls-4" cx="420.01" cy="128.92" r="5.67"/><circle class="cls-17" cx="515.98" cy="129.35" r="70.87"/><circle class="cls-29" cx="515.98" cy="129.35" r="70.87"/><path class="cls-30" d="M515,125.34h0a4.26,4.26,0,0,1-.68,5.94l-32.93,26.89a4.22,4.22,0,0,1-5.94-.68h0a4.26,4.26,0,0,1,.67-5.94L509,124.66A4.23,4.23,0,0,1,515,125.34Z" transform="translate(-5.46 -5.19)"/><path class="cls-31" d="M484.44,163.26,503,141.82l-33.2-10.27-11.11,35.88a69.76,69.76,0,0,0,5.46,8.76L479,180.8Z" transform="translate(-5.46 -5.19)"/><path class="cls-30" d="M513.13,138.81h0a4.26,4.26,0,0,1-.68,5.94l-32.93,26.89a4.22,4.22,0,0,1-5.94-.67h0a4.26,4.26,0,0,1,.67-5.94l32.93-26.89A4.23,4.23,0,0,1,513.13,138.81Z" transform="translate(-5.46 -5.19)"/><path class="cls-30" d="M519.56,109.07h0a4.26,4.26,0,0,1-.67,5.94l-31.73,25.87a4.22,4.22,0,0,1-5.94-.67h0a4.25,4.25,0,0,1,.68-5.94l31.72-25.88A4.22,4.22,0,0,1,519.56,109.07Z" transform="translate(-5.46 -5.19)"/><path class="cls-30" d="M516.21,136.35h0a4.25,4.25,0,0,1-.67,5.94l-6.17,4.93a4.23,4.23,0,0,1-5.94-.68h0a4.24,4.24,0,0,1,.67-5.94l6.17-4.93A4.24,4.24,0,0,1,516.21,136.35Z" transform="translate(-5.46 -5.19)"/><path class="cls-32" d="M528.82,173.16,540.65,190c1.53,2.16,9.45,8.85,11.73,7.51s-.93-8.75-2.51-10.87l-9.08-11.38C535.59,168.7,531.11,171.43,528.82,173.16Z" transform="translate(-5.46 -5.19)"/><path class="cls-30" d="M518.5,122.52h0a4.26,4.26,0,0,1-.67,6l-5.25,4.2a4.25,4.25,0,0,1-6-.68h0a4.25,4.25,0,0,1,.68-5.94l5.25-4.2A4.24,4.24,0,0,1,518.5,122.52Z" transform="translate(-5.46 -5.19)"/><rect class="cls-16" x="466.44" y="80.51" width="99.24" height="70.4" rx="5.98" ry="5.98"/><path class="cls-33" d="M480.08,151.58V90.21c0-.12.07-.22.15-.22h81.48c.08,0,.14.1.14.22v61.37c0,.12-.06.22-.14.22H480.23C480.15,151.8,480.08,151.7,480.08,151.58Z" transform="translate(-5.46 -5.19)"/><rect class="cls-34" x="468.76" y="107.32" width="1.51" height="16.77" rx="0.75" ry="0.75"/><path class="cls-35" d="M563.74,120.89a2.55,2.55,0,1,1,2.55,2.55A2.55,2.55,0,0,1,563.74,120.89Z" transform="translate(-5.46 -5.19)"/><path class="cls-36" d="M534,90.09c15.27,0,27.84.08,27.84.12v61.37c0,.12-.06.22-.14.22s-37.14-.05-61.32-.12Z" transform="translate(-5.46 -5.19)"/><rect class="cls-16" x="488.23" y="104.43" width="55.68" height="5.08" rx="0.5" ry="0.5"/><path class="cls-37" d="M548.86,110.11v4.09H494.18v-4.09h54.68m0-1H494.18a1,1,0,0,0-1,1v4.09a1,1,0,0,0,1,1h54.68a1,1,0,0,0,1-1v-4.09a1,1,0,0,0-1-1Z" transform="translate(-5.46 -5.19)"/><rect class="cls-16" x="488.23" y="120.43" width="55.68" height="5.08" rx="0.5" ry="0.5"/><path class="cls-37" d="M548.86,126.11v4.09H494.18v-4.09h54.68m0-1H494.18a1,1,0,0,0-1,1v4.09a1,1,0,0,0,1,1h54.68a1,1,0,0,0,1-1v-4.09a1,1,0,0,0-1-1Z" transform="translate(-5.46 -5.19)"/><path class="cls-38" d="M496.06,106.61h1.32v.54h-2V103.6h.69Z" transform="translate(-5.46 -5.19)"/><path class="cls-38" d="M497.67,105.81a1.58,1.58,0,0,1,.28-1,1,1,0,0,1,1.6,0,1.58,1.58,0,0,1,.29,1v0a1.55,1.55,0,0,1-.29,1,1,1,0,0,1-1.6,0,1.55,1.55,0,0,1-.28-1Zm.68,0a1.59,1.59,0,0,0,.09.59.33.33,0,0,0,.62,0,1.59,1.59,0,0,0,.09-.59v0a1.59,1.59,0,0,0-.09-.59.33.33,0,0,0-.62,0,1.59,1.59,0,0,0-.09.59Z" transform="translate(-5.46 -5.19)"/><path class="cls-38" d="M500.12,105.84a2,2,0,0,1,.23-1,.75.75,0,0,1,.66-.38.57.57,0,0,1,.32.09.87.87,0,0,1,.24.26l.05-.3h.6v2.63a1,1,0,0,1-.3.79,1.21,1.21,0,0,1-.84.29,1.24,1.24,0,0,1-.37-.06,1.66,1.66,0,0,1-.37-.14l.12-.53a.89.89,0,0,0,.29.12,1.12,1.12,0,0,0,.32,0,.43.43,0,0,0,.34-.12.58.58,0,0,0,.12-.4v-.19a.8.8,0,0,1-.23.19.6.6,0,0,1-.3.07.75.75,0,0,1-.65-.36,1.72,1.72,0,0,1-.23-.94Zm.69.06a1.42,1.42,0,0,0,.09.56.29.29,0,0,0,.29.2.35.35,0,0,0,.2,0,.47.47,0,0,0,.14-.14v-1.25a.46.46,0,0,0-.15-.16.31.31,0,0,0-.19-.06.3.3,0,0,0-.29.23,1.75,1.75,0,0,0-.09.61Z" transform="translate(-5.46 -5.19)"/><path class="cls-38" d="M503.39,103.87h-.69v-.53h.69Zm0,3.28h-.69v-2.64h.69Z" transform="translate(-5.46 -5.19)"/><path class="cls-38" d="M504.52,104.51l0,.37a.94.94,0,0,1,.28-.31.66.66,0,0,1,.36-.11.63.63,0,0,1,.53.26,1.41,1.41,0,0,1,.19.83v1.6h-.69v-1.6a.93.93,0,0,0-.07-.43.24.24,0,0,0-.22-.12.36.36,0,0,0-.2.06.38.38,0,0,0-.16.15v1.94h-.69v-2.64Z" transform="translate(-5.46 -5.19)"/><path class="cls-38" d="M496.06,121.85v1.29h-.69v-3.56h1.19a1.12,1.12,0,0,1,.84.32,1.13,1.13,0,0,1-.84,1.95Zm0-.54h.5a.41.41,0,0,0,.35-.16.71.71,0,0,0,.12-.43.75.75,0,0,0-.12-.43.41.41,0,0,0-.35-.17h-.5Z" transform="translate(-5.46 -5.19)"/><path class="cls-38" d="M499.4,123.14l-.06-.19a1.55,1.55,0,0,1,0-.21.85.85,0,0,1-.23.32.49.49,0,0,1-.35.13.73.73,0,0,1-.56-.21.88.88,0,0,1-.19-.58.74.74,0,0,1,.26-.6,1.17,1.17,0,0,1,.76-.21h.3v-.22a.62.62,0,0,0-.07-.31.26.26,0,0,0-.22-.1.2.2,0,0,0-.19.08.37.37,0,0,0-.07.25h-.67a.7.7,0,0,1,.26-.58,1,1,0,0,1,.71-.24,1,1,0,0,1,.68.24.9.9,0,0,1,.26.68v1.09c0,.12,0,.24,0,.35a2,2,0,0,0,.09.33Zm-.5-.46a.41.41,0,0,0,.24-.08.51.51,0,0,0,.15-.21V122H499a.26.26,0,0,0-.25.11.42.42,0,0,0-.08.28.36.36,0,0,0,.06.22A.23.23,0,0,0,498.9,122.68Z" transform="translate(-5.46 -5.19)"/><path class="cls-38" d="M501.6,122.45a.27.27,0,0,0-.09-.2,1.82,1.82,0,0,0-.35-.2,2,2,0,0,1-.61-.34.66.66,0,0,1-.2-.49.67.67,0,0,1,.26-.54.94.94,0,0,1,.68-.23,1.08,1.08,0,0,1,.71.23.75.75,0,0,1,.25.6h-.67a.4.4,0,0,0-.07-.26.27.27,0,0,0-.22-.11.32.32,0,0,0-.21.08.29.29,0,0,0-.08.19.26.26,0,0,0,.08.19,1.54,1.54,0,0,0,.35.2,1.83,1.83,0,0,1,.63.34A.72.72,0,0,1,502,123a1.13,1.13,0,0,1-.71.21,1,1,0,0,1-.73-.26.78.78,0,0,1-.26-.6v0h.62a.42.42,0,0,0,.11.31.33.33,0,0,0,.27.1.31.31,0,0,0,.22-.08A.24.24,0,0,0,501.6,122.45Z" transform="translate(-5.46 -5.19)"/><path class="cls-38" d="M503.79,122.45a.27.27,0,0,0-.09-.2,1.82,1.82,0,0,0-.35-.2,1.82,1.82,0,0,1-.6-.34.64.64,0,0,1-.21-.49.7.7,0,0,1,.26-.54,1,1,0,0,1,.68-.23,1,1,0,0,1,.71.23.76.76,0,0,1,.26.6h-.67a.4.4,0,0,0-.08-.26.25.25,0,0,0-.22-.11.28.28,0,0,0-.2.08.25.25,0,0,0-.08.19.22.22,0,0,0,.08.19,1.34,1.34,0,0,0,.35.2,1.69,1.69,0,0,1,.62.34.66.66,0,0,1,.21.5.67.67,0,0,1-.28.56,1.11,1.11,0,0,1-.71.21,1,1,0,0,1-.73-.26.77.77,0,0,1-.25-.6v0h.63a.42.42,0,0,0,.1.31.36.36,0,0,0,.27.1.29.29,0,0,0,.22-.08A.24.24,0,0,0,503.79,122.45Z" transform="translate(-5.46 -5.19)"/><path class="cls-38" d="M506.77,122h0l.23-1.47h.67l-.56,2.64h-.57l-.39-1.4h0l-.38,1.4h-.58l-.56-2.64h.66l.24,1.48h0l.38-1.48h.45Z" transform="translate(-5.46 -5.19)"/><path class="cls-38" d="M507.9,121.79a1.57,1.57,0,0,1,.29-1,.93.93,0,0,1,.8-.37,1,1,0,0,1,.8.37,1.57,1.57,0,0,1,.29,1v.06a1.55,1.55,0,0,1-.29,1,1,1,0,0,1-1.6,0,1.55,1.55,0,0,1-.29-1Zm.69.06a1.59,1.59,0,0,0,.09.59.31.31,0,0,0,.31.21.31.31,0,0,0,.3-.21,1.39,1.39,0,0,0,.1-.59v-.06a1.37,1.37,0,0,0-.1-.58.31.31,0,0,0-.3-.22.31.31,0,0,0-.31.22,1.57,1.57,0,0,0-.09.58Z" transform="translate(-5.46 -5.19)"/><path class="cls-38" d="M511.68,121.09h-.24a.31.31,0,0,0-.19.06.37.37,0,0,0-.12.17v1.82h-.68V120.5h.64l0,.37a.78.78,0,0,1,.19-.31.4.4,0,0,1,.27-.11h.09l.08,0Z" transform="translate(-5.46 -5.19)"/><path class="cls-38" d="M511.86,121.83a1.85,1.85,0,0,1,.24-1,.72.72,0,0,1,.65-.38.57.57,0,0,1,.29.07,1,1,0,0,1,.23.22v-1.41H514v3.81h-.59l0-.3a.78.78,0,0,1-.25.26.57.57,0,0,1-.32.09.73.73,0,0,1-.65-.36,1.67,1.67,0,0,1-.24-1Zm.69,0a1.48,1.48,0,0,0,.09.57.29.29,0,0,0,.29.2.38.38,0,0,0,.19-.05.46.46,0,0,0,.15-.16v-1.21a.65.65,0,0,0-.15-.18.31.31,0,0,0-.19-.06.31.31,0,0,0-.29.23,1.75,1.75,0,0,0-.09.61Z" transform="translate(-5.46 -5.19)"/><path class="cls-31" d="M576.92,178.61c-.2-.6-.41-1.19-.65-1.73L568.1,158.4c-1.78-4-7.82-3.66-8.66.13-2.63-3-8.24-2-8.47,2.19-2.17-3.72-8.19-3.11-9,.83l-9.55-21.79c-2.29-5.38-11.69-2.74-8.73,3.73l23.4,51.15c.79,1.71,2.26,2.89,4.18,4.16A71.11,71.11,0,0,0,576.92,178.61Z" transform="translate(-5.46 -5.19)"/><path class="cls-30" d="M464.83,157.17l2.85.89.79-3.63,6.3-29.11c1.31-6-2.46-8.1-6.19-9.25l-7.44,34.36A5.82,5.82,0,0,0,464.83,157.17Z" transform="translate(-5.46 -5.19)"/><path class="cls-21" d="M458.92,167.92a71.22,71.22,0,0,0,20.24,23.49L484,175.69Z" transform="translate(-5.46 -5.19)"/><circle class="cls-39" cx="515.98" cy="129.35" r="70.87"/><line class="cls-26" x1="297.25" y1="99.38" x2="297.25" y2="93.38"/><line class="cls-40" x1="297.25" y1="81.23" x2="297.25" y2="63"/><polyline class="cls-26" points="297.25 56.92 297.25 50.92 291.25 50.92"/><line class="cls-41" x1="279.32" y1="50.92" x2="165.96" y2="50.92"/><line class="cls-26" x1="159.99" y1="50.92" x2="153.99" y2="50.92"/><circle class="cls-4" cx="297.25" cy="75.15" r="5.67"/><path class="cls-4" d="M167.94,61.32V50.9a2.11,2.11,0,0,0-3.16-1.83l-9,5.21a2.11,2.11,0,0,0,0,3.65l9,5.21A2.1,2.1,0,0,0,167.94,61.32Z" transform="translate(-5.46 -5.19)"/><circle class="cls-4" cx="225.62" cy="50.92" r="5.67"/></g></g></svg>