<svg xmlns="http://www.w3.org/2000/svg" viewBox="0 0 145.73 145.73"><defs><style>.cls-1{fill:#56bdbf;stroke:#eaeaea;stroke-miterlimit:10;stroke-width:4px;}.cls-2{fill:#e6332a;}.cls-3{fill:#be1622;}</style></defs><title>G09_05_03</title><g id="Mobile"><circle class="cls-1" cx="72.87" cy="72.87" r="70.87"/><path class="cls-2" d="M92.49,43.14,71.36,21.58l-28,28,16.41,14.9.58.58S73.57,80.32,76.57,83.71c1.28,1.44,8.11,8.3,10.35,10.23h0l17.23,16.71h0a3.65,3.65,0,0,0,5.12-5.13h0L92.81,88.05l.41-.4L117,110.47v0h0c1.25,1.26,3.6,1,5.24-.69s1.94-4,.69-5.24h0L100.05,80.82l.38-.38L128,107.3c1.26,1.26,3.61,1,5.25-.69s2-4,.69-5.25L107.06,73.8l.25-.25L132.7,97.76c1.26,1.26,3.61.95,5.25-.69s2-4,.69-5.25h0S108.5,61.63,106.48,59.75l20.32,3.52c2.43.18,5.29-2.34,5.67-5.47a5.14,5.14,0,0,0-4.18-5.86h0Z" transform="translate(-5.09 -5.09)"/><path class="cls-3" d="M67,50.73,53.87,28.88,17.53,51.15l9.14,13.5.49.8s10.7,20.38,13.15,24.94c1,1.93,6.78,11.37,8.74,14.11h0L63.7,127.64h0a4,4,0,0,0,6.73-4.12h0L56.78,99.77l.53-.33,20.3,31.68h0c1.06,1.74,3.66,2.07,5.81.76s3-3.79,2-5.52h0L66.27,94l.5-.3,23.45,37.17c1.06,1.73,3.67,2.06,5.82.75s3-3.8,2-5.53L75.48,88.31l.33-.2,21.67,33.65c1.06,1.73,3.66,2.06,5.82.74s3-3.79,2-5.52h0S79.88,75.46,78.15,72.84l21.06,9.64c2.57.9,6.25-1,7.4-4.34a6.07,6.07,0,0,0-3.13-7.58h0Z" transform="translate(-5.09 -5.09)"/></g></svg>