<svg xmlns="http://www.w3.org/2000/svg" xmlns:xlink="http://www.w3.org/1999/xlink" viewBox="0 0 145.73 145.73"><defs><style>.cls-1,.cls-13{fill:#56bdbf;}.cls-1,.cls-14{stroke:#eaeaea;stroke-miterlimit:10;}.cls-1{stroke-width:4px;}.cls-1,.cls-2{opacity:0.8;}.cls-14,.cls-2{fill:none;}.cls-3,.cls-4{fill:#fcd6b7;}.cls-3,.cls-5,.cls-7,.cls-9{fill-rule:evenodd;}.cls-5{fill:#deb99b;}.cls-6{fill:#fff;}.cls-7{fill:#36a9e1;}.cls-8,.cls-9{fill:#4e4d4c;}.cls-10{opacity:0.2;fill:url(#Sfumatura_senza_nome_3);}.cls-11{fill:#9ea6b0;}.cls-12{fill:#3c3c3b;}.cls-14{stroke-width:3.92px;}</style><linearGradient id="Sfumatura_senza_nome_3" x1="-698.68" y1="36.35" x2="-698.68" y2="106.42" gradientTransform="matrix(-1, 0, 0, 1, -633.58, -4.97)" gradientUnits="userSpaceOnUse"><stop offset="0" stop-color="#fff"/><stop offset="1" stop-opacity="0"/></linearGradient></defs><title>G09_02_01</title><g id="Livello_3" data-name="Livello 3"><circle class="cls-1" cx="72.87" cy="72.87" r="70.87"/><circle class="cls-2" cx="72.87" cy="72.87" r="70.87"/><path class="cls-3" d="M72,68.64h0a4.27,4.27,0,0,1-.68,5.94L38.36,101.47a4.22,4.22,0,0,1-5.94-.68h0a4.26,4.26,0,0,1,.67-5.94L66,68A4.23,4.23,0,0,1,72,68.64Z" transform="translate(-5.56 -4.97)"/><path class="cls-4" d="M41.42,106.56,60,85.12,26.76,74.85,15.65,110.73a70.87,70.87,0,0,0,5.45,8.76L36,124.1Z" transform="translate(-5.56 -4.97)"/><path class="cls-3" d="M70.11,82.11h0a4.28,4.28,0,0,1-.68,6L36.5,114.94a4.22,4.22,0,0,1-5.94-.67h0a4.26,4.26,0,0,1,.67-5.94L64.16,81.44A4.23,4.23,0,0,1,70.11,82.11Z" transform="translate(-5.56 -4.97)"/><path class="cls-3" d="M76.54,52.37h0a4.26,4.26,0,0,1-.67,5.94L44.14,84.18a4.22,4.22,0,0,1-5.94-.67h0a4.26,4.26,0,0,1,.67-5.94L70.6,51.69A4.22,4.22,0,0,1,76.54,52.37Z" transform="translate(-5.56 -4.97)"/><path class="cls-3" d="M73.19,79.65h0a4.24,4.24,0,0,1-.68,5.94l-6.16,4.93a4.24,4.24,0,0,1-5.94-.67h0a4.25,4.25,0,0,1,.67-5.95L67.25,79A4.24,4.24,0,0,1,73.19,79.65Z" transform="translate(-5.56 -4.97)"/><path class="cls-5" d="M85.79,116.46l11.84,16.81c1.53,2.16,9.45,8.85,11.73,7.51s-.93-8.75-2.51-10.87l-9.08-11.38C92.57,112,88.09,114.73,85.79,116.46Z" transform="translate(-5.56 -4.97)"/><path class="cls-3" d="M75.48,65.82h0a4.26,4.26,0,0,1-.67,6L69.56,76a4.25,4.25,0,0,1-6-.68h0a4.25,4.25,0,0,1,.68-5.94l5.25-4.2A4.24,4.24,0,0,1,75.48,65.82Z" transform="translate(-5.56 -4.97)"/><rect class="cls-6" x="23.33" y="24.02" width="99.24" height="70.4" rx="5.98" ry="5.98"/><path class="cls-7" d="M37.06,94.88V33.51c0-.12.07-.21.15-.21h81.48c.08,0,.14.09.14.21V94.88c0,.12-.06.22-.14.22H37.21C37.13,95.1,37.06,95,37.06,94.88Z" transform="translate(-5.56 -4.97)"/><rect class="cls-8" x="25.64" y="50.84" width="1.51" height="16.77" rx="0.75" ry="0.75"/><path class="cls-9" d="M120.72,64.2a2.55,2.55,0,1,1,2.55,2.54A2.55,2.55,0,0,1,120.72,64.2Z" transform="translate(-5.56 -4.97)"/><polygon class="cls-10" points="46.64 90.12 98.69 28.32 31.65 28.32 31.51 90.12 46.64 90.12"/><rect class="cls-6" x="45.11" y="47.94" width="55.68" height="5.08" rx="0.5" ry="0.5"/><path class="cls-11" d="M105.84,53.41V57.5H51.16V53.41h54.68m0-1H51.16a1,1,0,0,0-1,1V57.5a1,1,0,0,0,1,1h54.68a1,1,0,0,0,1-1V53.41a1,1,0,0,0-1-1Z" transform="translate(-5.56 -4.97)"/><rect class="cls-6" x="45.11" y="63.94" width="55.68" height="5.08" rx="0.5" ry="0.5"/><path class="cls-11" d="M105.84,69.41V73.5H51.16V69.41h54.68m0-1H51.16a1,1,0,0,0-1,1V73.5a1,1,0,0,0,1,1h54.68a1,1,0,0,0,1-1V69.41a1,1,0,0,0-1-1Z" transform="translate(-5.56 -4.97)"/><path class="cls-12" d="M53,49.91h1.32v.54h-2V46.9H53Z" transform="translate(-5.56 -4.97)"/><path class="cls-12" d="M54.64,49.11a1.55,1.55,0,0,1,.29-1,1,1,0,0,1,1.6,0,1.55,1.55,0,0,1,.29,1v0a1.55,1.55,0,0,1-.29,1,1,1,0,0,1-1.6,0,1.55,1.55,0,0,1-.29-1Zm.69,0a1.59,1.59,0,0,0,.09.59.33.33,0,0,0,.31.22.34.34,0,0,0,.31-.22,1.59,1.59,0,0,0,.09-.59v0a1.59,1.59,0,0,0-.09-.59.33.33,0,0,0-.31-.22.32.32,0,0,0-.31.22,1.63,1.63,0,0,0-.09.59Z" transform="translate(-5.56 -4.97)"/><path class="cls-12" d="M57.1,49.14a2,2,0,0,1,.23-1,.75.75,0,0,1,.66-.38.57.57,0,0,1,.32.09.87.87,0,0,1,.24.26l.05-.3h.6v2.63a1,1,0,0,1-.31.79,1.16,1.16,0,0,1-.83.29,1.24,1.24,0,0,1-.37-.06,1.66,1.66,0,0,1-.37-.14l.12-.52a1.15,1.15,0,0,0,.29.11,1.12,1.12,0,0,0,.32,0,.43.43,0,0,0,.34-.12.58.58,0,0,0,.11-.4v-.19a.69.69,0,0,1-.22.2.77.77,0,0,1-1-.3,1.72,1.72,0,0,1-.23-.94Zm.69.06a1.66,1.66,0,0,0,.08.56.3.3,0,0,0,.29.2.36.36,0,0,0,.21-.05.35.35,0,0,0,.13-.14V48.52a.36.36,0,0,0-.14-.16.31.31,0,0,0-.19-.06.3.3,0,0,0-.29.23,1.75,1.75,0,0,0-.09.61Z" transform="translate(-5.56 -4.97)"/><path class="cls-12" d="M60.37,47.17h-.69v-.53h.69Zm0,3.28h-.69V47.81h.69Z" transform="translate(-5.56 -4.97)"/><path class="cls-12" d="M61.5,47.81l0,.37a.94.94,0,0,1,.28-.31.66.66,0,0,1,.36-.11.63.63,0,0,1,.53.26,1.41,1.41,0,0,1,.19.83v1.6h-.69v-1.6a.86.86,0,0,0-.07-.42.23.23,0,0,0-.22-.13.36.36,0,0,0-.2.06.38.38,0,0,0-.16.15v1.94h-.69V47.81Z" transform="translate(-5.56 -4.97)"/><path class="cls-12" d="M53,65.15v1.29h-.69V62.89h1.19a1.13,1.13,0,0,1,.84.31,1.21,1.21,0,0,1,0,1.64,1.13,1.13,0,0,1-.84.31Zm0-.54h.5a.41.41,0,0,0,.35-.16A.7.7,0,0,0,54,64a.76.76,0,0,0-.12-.44.41.41,0,0,0-.35-.17H53Z" transform="translate(-5.56 -4.97)"/><path class="cls-12" d="M56.38,66.44a1.06,1.06,0,0,1-.06-.19,1.55,1.55,0,0,1,0-.21,1,1,0,0,1-.23.32.49.49,0,0,1-.35.13.73.73,0,0,1-.56-.21A.81.81,0,0,1,55,65.7a.71.71,0,0,1,.26-.6,1.15,1.15,0,0,1,.76-.21h.3v-.22a.54.54,0,0,0-.08-.31.23.23,0,0,0-.21-.1.26.26,0,0,0-.2.08.44.44,0,0,0-.06.25h-.67a.7.7,0,0,1,.26-.58,1,1,0,0,1,.71-.24,1,1,0,0,1,.68.24.9.9,0,0,1,.26.68v1.09c0,.12,0,.24,0,.35a2,2,0,0,0,.09.33Zm-.5-.46a.41.41,0,0,0,.24-.08.51.51,0,0,0,.15-.21v-.41H56a.32.32,0,0,0-.26.11.49.49,0,0,0-.07.28.41.41,0,0,0,.06.23A.23.23,0,0,0,55.88,66Z" transform="translate(-5.56 -4.97)"/><path class="cls-12" d="M58.58,65.75a.28.28,0,0,0-.1-.2,1.66,1.66,0,0,0-.34-.2,2,2,0,0,1-.61-.34.62.62,0,0,1-.2-.48.68.68,0,0,1,.26-.55,1,1,0,0,1,.68-.23A1.08,1.08,0,0,1,59,64a.75.75,0,0,1,.25.6h-.67a.4.4,0,0,0-.07-.26.26.26,0,0,0-.22-.1.31.31,0,0,0-.21.07.29.29,0,0,0-.08.19.24.24,0,0,0,.08.19,1.54,1.54,0,0,0,.35.2,1.83,1.83,0,0,1,.63.34A.72.72,0,0,1,59,66.28a1.13,1.13,0,0,1-.71.21,1,1,0,0,1-.73-.26.78.78,0,0,1-.26-.6v0h.62a.42.42,0,0,0,.11.31.33.33,0,0,0,.26.1A.37.37,0,0,0,58.5,66,.28.28,0,0,0,58.58,65.75Z" transform="translate(-5.56 -4.97)"/><path class="cls-12" d="M60.77,65.75a.27.27,0,0,0-.09-.2,1.82,1.82,0,0,0-.35-.2,1.82,1.82,0,0,1-.6-.34.63.63,0,0,1-.21-.48.71.71,0,0,1,.26-.55,1,1,0,0,1,.68-.23,1,1,0,0,1,.71.23.72.72,0,0,1,.25.6h-.66a.4.4,0,0,0-.08-.26.25.25,0,0,0-.22-.1.27.27,0,0,0-.2.07.25.25,0,0,0-.08.19.21.21,0,0,0,.08.19,1.34,1.34,0,0,0,.35.2,1.77,1.77,0,0,1,.62.34.65.65,0,0,1,.2.5.69.69,0,0,1-.27.56,1.11,1.11,0,0,1-.71.21,1,1,0,0,1-.73-.26.77.77,0,0,1-.25-.6v0h.63a.42.42,0,0,0,.1.31.36.36,0,0,0,.27.1.34.34,0,0,0,.22-.07A.28.28,0,0,0,60.77,65.75Z" transform="translate(-5.56 -4.97)"/><path class="cls-12" d="M63.75,65.27h0L64,63.8h.67l-.56,2.64h-.57l-.39-1.39h0l-.39,1.39h-.57l-.56-2.64h.66l.24,1.48h0l.38-1.48h.45Z" transform="translate(-5.56 -4.97)"/><path class="cls-12" d="M64.88,65.09a1.57,1.57,0,0,1,.29-1,.93.93,0,0,1,.8-.37,1,1,0,0,1,.8.37,1.57,1.57,0,0,1,.28,1v.06a1.55,1.55,0,0,1-.28,1,1,1,0,0,1-.8.37.93.93,0,0,1-.8-.37,1.55,1.55,0,0,1-.29-1Zm.69.06a1.59,1.59,0,0,0,.09.59A.31.31,0,0,0,66,66a.31.31,0,0,0,.3-.21,1.57,1.57,0,0,0,.1-.59v-.06a1.55,1.55,0,0,0-.1-.58.31.31,0,0,0-.3-.22.31.31,0,0,0-.31.22,1.57,1.57,0,0,0-.09.58Z" transform="translate(-5.56 -4.97)"/><path class="cls-12" d="M68.66,64.39h-.24a.31.31,0,0,0-.19.06.43.43,0,0,0-.12.17v1.82h-.68V63.8h.64l0,.37a.78.78,0,0,1,.19-.31.4.4,0,0,1,.27-.11h.09l.08,0Z" transform="translate(-5.56 -4.97)"/><path class="cls-12" d="M68.84,65.13a1.85,1.85,0,0,1,.24-1,.72.72,0,0,1,.65-.38.49.49,0,0,1,.29.08.9.9,0,0,1,.23.21V62.63h.69v3.81h-.59l0-.3a.78.78,0,0,1-.25.26.57.57,0,0,1-.32.09.73.73,0,0,1-.65-.36,1.67,1.67,0,0,1-.24-.95Zm.69.05a1.48,1.48,0,0,0,.09.57.29.29,0,0,0,.29.2.38.38,0,0,0,.19,0,.46.46,0,0,0,.15-.16V64.53a.65.65,0,0,0-.15-.18.33.33,0,0,0-.19-.06.3.3,0,0,0-.29.23,1.75,1.75,0,0,0-.09.61Z" transform="translate(-5.56 -4.97)"/><path class="cls-4" d="M133.9,121.91c-.2-.6-.41-1.19-.65-1.73l-8.17-18.48c-1.78-4-7.82-3.66-8.66.13-2.63-3-8.24-2-8.47,2.2-2.18-3.73-8.19-3.12-9,.82L89.45,83.06c-2.29-5.38-11.7-2.74-8.73,3.73L104.12,138c.78,1.7,2.25,2.88,4.18,4.15A71.11,71.11,0,0,0,133.9,121.91Z" transform="translate(-5.56 -4.97)"/><path class="cls-3" d="M21.81,100.47l2.85.89.78-3.63,6.31-29.11c1.31-6.05-2.46-8.1-6.19-9.25L18.12,93.73A5.82,5.82,0,0,0,21.81,100.47Z" transform="translate(-5.56 -4.97)"/><path class="cls-13" d="M15.9,111.22a71.22,71.22,0,0,0,20.24,23.49L41,119Z" transform="translate(-5.56 -4.97)"/><circle class="cls-14" cx="72.87" cy="72.87" r="70.87"/></g></svg>