<svg xmlns="http://www.w3.org/2000/svg" viewBox="0 0 590.21 517.41"><defs><style>.cls-1,.cls-10,.cls-11,.cls-12,.cls-2,.cls-20,.cls-23,.cls-29,.cls-35,.cls-49,.cls-6,.cls-7,.cls-8,.cls-9{fill:none;}.cls-1,.cls-10,.cls-11,.cls-12,.cls-2,.cls-29,.cls-6,.cls-7,.cls-8,.cls-9{stroke:#7fc9cb;stroke-width:5px;}.cls-1,.cls-10,.cls-11,.cls-12,.cls-2,.cls-29,.cls-35,.cls-6,.cls-7,.cls-8,.cls-9{stroke-linecap:round;stroke-linejoin:round;}.cls-2{stroke-dasharray:11.7 11.7;}.cls-3{fill:#01b2b2;}.cls-4{fill:#7fc9cb;}.cls-42,.cls-5{fill:#56bdbf;}.cls-6{stroke-dasharray:11.47 11.47;}.cls-7{stroke-dasharray:7.54 7.54;}.cls-8{stroke-dasharray:11.24 11.24;}.cls-9{stroke-dasharray:11.7 11.7;}.cls-10{stroke-dasharray:10.92 10.92;}.cls-11{stroke-dasharray:13.09 13.09;}.cls-12{stroke-dasharray:7.99 7.99;}.cls-13{fill:#fef8c8;}.cls-14{fill:#f39200;}.cls-15{fill:#e71d73;}.cls-16{fill:#87cdd3;}.cls-17{fill:#eaeaea;stroke-width:2.13px;}.cls-17,.cls-20,.cls-35{stroke:#fff;}.cls-17,.cls-20,.cls-42,.cls-49{stroke-miterlimit:10;}.cls-18{font-size:8.5px;font-family:Roboto-Bold, Roboto;font-weight:700;}.cls-18,.cls-30{fill:#9ea6b0;}.cls-19{fill:#c4cfdb;}.cls-20{stroke-width:1.42px;}.cls-21{fill:#a9b2bd;}.cls-22{fill:#fff;}.cls-24{fill:#ebe1d0;}.cls-25{fill:#9fc968;}.cls-26{fill:#989898;}.cls-27{fill:#f9f7d0;}.cls-28{fill:#40bcd2;}.cls-29{stroke-dasharray:11.92 11.92;}.cls-31{fill:#333;}.cls-32{fill:#a1b0d6;}.cls-33{fill:#e5effb;}.cls-34{fill:#706f6f;}.cls-35{stroke-width:0.97px;}.cls-36{isolation:isolate;}.cls-37{fill:#dce7f5;}.cls-38{fill:#261c35;}.cls-39{fill:#009fe3;}.cls-40{fill:#36a9e1;}.cls-41{fill:#6f559c;}.cls-42{stroke:#eaeaea;stroke-width:4px;}.cls-43{fill:#5b5b5a;}.cls-44{fill:#a7b0ba;}.cls-45{fill:#1e1e1c;opacity:0.1;}.cls-46{fill:#3c3c3b;}.cls-47{fill:#b5b9c3;}.cls-48{fill:#ccced3;}.cls-49{stroke:#d8d8d8;}.cls-50{fill:#95c11f;}</style></defs><title>G09_16</title><g id="Tiles"><line class="cls-1" x1="304.38" y1="221.76" x2="304.38" y2="227.76"/><line class="cls-2" x1="304.38" y1="239.45" x2="304.38" y2="397.37"/><line class="cls-1" x1="304.38" y1="403.21" x2="304.38" y2="409.21"/><polygon class="cls-3" points="371.63 469.12 371.63 473.1 296.57 517.41 296.45 517.33 296.45 513.35 296.57 513.43 371.63 469.12"/><polygon class="cls-4" points="296.45 513.35 296.45 517.33 215.91 470.62 215.91 466.64 296.45 513.35"/><polygon class="cls-5" points="296.26 513.37 215.72 466.66 215.72 466.43 291.41 422.93 371.44 469.13 296.39 513.44 296.26 513.37"/><line class="cls-1" x1="304.38" y1="291.76" x2="298.38" y2="291.76"/><line class="cls-6" x1="286.91" y1="291.76" x2="63.34" y2="291.76"/><polyline class="cls-1" points="57.61 291.76 51.61 291.76 51.61 285.76"/><line class="cls-7" x1="51.61" y1="278.21" x2="51.61" y2="266.9"/><line class="cls-1" x1="51.61" y1="263.13" x2="51.61" y2="257.13"/><line class="cls-1" x1="538.61" y1="203.13" x2="538.61" y2="209.13"/><line class="cls-8" x1="538.61" y1="220.37" x2="538.61" y2="327.14"/><polyline class="cls-1" points="538.61 332.76 538.61 338.76 532.61 338.76"/><line class="cls-9" x1="520.91" y1="338.76" x2="316.22" y2="338.76"/><line class="cls-1" x1="310.38" y1="338.76" x2="304.38" y2="338.76"/><line class="cls-1" x1="324.96" y1="221.76" x2="318.96" y2="221.76"/><line class="cls-10" x1="308.05" y1="221.76" x2="204.34" y2="221.76"/><polyline class="cls-1" points="198.88 221.76 192.88 221.76 192.88 215.76"/><line class="cls-11" x1="192.88" y1="202.67" x2="192.88" y2="130.67"/><line class="cls-1" x1="192.88" y1="124.13" x2="192.88" y2="118.13"/><line class="cls-1" x1="360.94" y1="221.76" x2="354.94" y2="221.76"/><line class="cls-12" x1="346.95" y1="221.76" x2="334.96" y2="221.76"/><line class="cls-1" x1="330.96" y1="221.76" x2="324.96" y2="221.76"/><rect class="cls-13" x="425.67" y="323.57" width="26.88" height="26.88" transform="translate(-60.73 92.46) rotate(-11.41)"/><rect class="cls-14" x="427.37" y="325.71" width="22.68" height="18.62" transform="translate(-60.34 92.34) rotate(-11.41)"/><rect class="cls-13" x="442.67" y="331.57" width="26.88" height="26.88" transform="translate(53.36 -64.79) rotate(8.51)"/><rect class="cls-15" x="445.07" y="333.69" width="22.68" height="18.62" transform="translate(53.07 -64.86) rotate(8.51)"/><rect class="cls-13" x="462.67" y="319.57" width="26.88" height="26.88" transform="translate(-20.25 25.49) rotate(-3.14)"/><rect class="cls-16" x="464.66" y="321.68" width="22.68" height="18.62" transform="translate(-20.14 25.48) rotate(-3.14)"/><rect class="cls-17" x="521.43" y="219.79" width="51.68" height="27.91" transform="translate(-33.01 89.23) rotate(-9.18)"/><polygon class="cls-17" points="543.98 229.23 572.25 242.18 521.24 250.43 543.98 229.23"/><polygon class="cls-17" points="545.07 235.96 516.8 223.01 567.82 214.76 545.07 235.96"/><text class="cls-18" transform="translate(540.19 229.24) rotate(-9.18)">@</text><rect class="cls-17" x="510.43" y="237.79" width="51.68" height="27.91" transform="translate(82.27 -133.15) rotate(15.23)"/><polygon class="cls-17" points="534.45 247.31 554.84 270.78 504.98 257.2 534.45 247.31"/><polygon class="cls-17" points="532.66 253.89 512.28 230.41 562.13 243.99 532.66 253.89"/><text class="cls-18" transform="translate(530.94 245.8) rotate(15.23)">@</text><path class="cls-19" d="M204.5,168.11H186.17l-8.84,7.39,2.84-7.39H175a2,2,0,0,1-2-2V149.67a2,2,0,0,1,2-2h29.5a2,2,0,0,1,2,2v16.44A2,2,0,0,1,204.5,168.11Z" transform="translate(-2.73 -1.08)"/><line class="cls-20" x1="174.9" y1="151.46" x2="199.52" y2="151.46"/><line class="cls-20" x1="174.9" y1="156.27" x2="199.52" y2="156.27"/><line class="cls-20" x1="174.9" y1="161.08" x2="199.52" y2="161.08"/><path class="cls-21" d="M207.82,180.9H190a3.42,3.42,0,0,1-3.42-3.42V161a3.43,3.43,0,0,1,3.42-3.42h29.5a3.43,3.43,0,0,1,3.42,3.42v16.44a3.42,3.42,0,0,1-3.42,3.42h-3.11l4.05,10.57Z" transform="translate(-2.73 -1.08)"/><path class="cls-22" d="M219.5,159a2,2,0,0,1,2,2v16.44a2,2,0,0,1-2,2h-5.17l2.84,7.4-8.84-7.4H190a2,2,0,0,1-2-2V161a2,2,0,0,1,2-2h29.5m0-2.83H190a4.83,4.83,0,0,0-4.83,4.83v16.44a4.84,4.84,0,0,0,4.83,4.84h17.3l8,6.73,8.37,7-3.91-10.2-1.35-3.54h1a4.84,4.84,0,0,0,4.83-4.84V161a4.83,4.83,0,0,0-4.83-4.83Z" transform="translate(-2.73 -1.08)"/><line class="cls-20" x1="189.71" y1="162.25" x2="214.33" y2="162.25"/><line class="cls-20" x1="189.71" y1="167.06" x2="214.33" y2="167.06"/><line class="cls-20" x1="189.71" y1="171.87" x2="214.33" y2="171.87"/><path class="cls-19" d="M268.5,224.11H250.17l-8.84,7.39,2.84-7.39H239a2,2,0,0,1-2-2V205.67a2,2,0,0,1,2-2h29.5a2,2,0,0,1,2,2v16.44A2,2,0,0,1,268.5,224.11Z" transform="translate(-2.73 -1.08)"/><line class="cls-20" x1="238.9" y1="207.46" x2="263.52" y2="207.46"/><line class="cls-20" x1="238.9" y1="212.27" x2="263.52" y2="212.27"/><line class="cls-20" x1="238.9" y1="217.08" x2="263.52" y2="217.08"/><path class="cls-21" d="M271.82,235.9H254a3.42,3.42,0,0,1-3.42-3.42V216a3.43,3.43,0,0,1,3.42-3.42h29.5a3.43,3.43,0,0,1,3.42,3.42v16.44a3.42,3.42,0,0,1-3.42,3.42h-3.11l4.05,10.57Z" transform="translate(-2.73 -1.08)"/><path class="cls-22" d="M283.5,214a2,2,0,0,1,2,2v16.44a2,2,0,0,1-2,2h-5.17l2.84,7.4-8.84-7.4H254a2,2,0,0,1-2-2V216a2,2,0,0,1,2-2h29.5m0-2.83H254a4.83,4.83,0,0,0-4.83,4.83v16.44a4.84,4.84,0,0,0,4.83,4.84h17.3l8.05,6.73,8.37,7-3.91-10.2-1.35-3.54h1a4.84,4.84,0,0,0,4.83-4.84V216a4.83,4.83,0,0,0-4.83-4.83Z" transform="translate(-2.73 -1.08)"/><line class="cls-20" x1="253.71" y1="217.25" x2="278.33" y2="217.25"/><line class="cls-20" x1="253.71" y1="222.06" x2="278.33" y2="222.06"/><line class="cls-20" x1="253.71" y1="226.87" x2="278.33" y2="226.87"/><rect class="cls-22" x="516.69" y="313.39" width="57.11" height="36.91" transform="translate(-74.12 165.93) rotate(-16.36)"/><polygon class="cls-23" points="550.25 310.56 550.87 310.38 550.25 310.4 550.25 310.56"/><path class="cls-23" d="M536.93,322.45l-.08,5.46,5.3-.24.05-5.25Zm4.72,4.57-4.29.2,0-3.8a.48.48,0,0,1,.48-.47l3.31,0a.49.49,0,0,1,.49.49Z" transform="translate(-2.73 -1.08)"/><path class="cls-24" d="M541.2,322.93l-3.31,0a.48.48,0,0,0-.48.47l0,3.8,4.29-.2,0-3.6A.49.49,0,0,0,541.2,322.93Z" transform="translate(-2.73 -1.08)"/><path class="cls-23" d="M526.2,327l.31,1.4,9.67-.45.07-5.31Zm9.49.31-8.64.4,0-.1a.46.46,0,0,1,.27-.54l7.76-3.36a.48.48,0,0,1,.67.45Z" transform="translate(-2.73 -1.08)"/><path class="cls-24" d="M535.06,323.7l-7.76,3.36a.46.46,0,0,0-.27.54l0,.1,8.64-.4,0-3.15A.48.48,0,0,0,535.06,323.7Z" transform="translate(-2.73 -1.08)"/><path class="cls-25" d="M526.44,325a.48.48,0,0,0,.66.34l8.38-3.63a.46.46,0,0,0,.29-.43l.07-4.58-10.55,3.09Z" transform="translate(-2.73 -1.08)"/><path class="cls-23" d="M542.82,327.64l2.54-.12,0-5.12-2.52,0Zm1.89-4.73v4l-1.37.06,0-4Z" transform="translate(-2.73 -1.08)"/><polygon class="cls-24" points="541.97 325.8 541.98 321.83 540.63 321.83 540.6 325.86 541.97 325.8"/><path class="cls-23" d="M563.15,308.66l.06,1.13a.22.22,0,0,1-.21.23l-1.58,0a.21.21,0,0,1-.22-.21v-.62l-.5.15v1.21l3-.09-.1-2" transform="translate(-2.73 -1.08)"/><path class="cls-24" d="M561.42,310.06l1.58,0a.22.22,0,0,0,.21-.23l-.06-1.13-2,.57v.62A.21.21,0,0,0,561.42,310.06Z" transform="translate(-2.73 -1.08)"/><path class="cls-24" d="M559.52,309.9v-.18l-1.49.44,1.28,0A.21.21,0,0,0,559.52,309.9Z" transform="translate(-2.73 -1.08)"/><path class="cls-23" d="M553,311.64l.18,10.72-7.11,0,0,5.09,10.14-.29c0-5.27,0-10.74,0-15.81l-2.56.07Zm2.52,14.82a.09.09,0,0,1-.09.09l-8.71.25,0-3.9,6.73,0a.22.22,0,0,0,.22-.22l-.11-6.59,1.93-.08C555.49,319.43,555.5,323,555.5,326.46Zm0-14.33v3.51l-1.94.07-.06-3.53a.21.21,0,0,1,.21-.22l1.57,0A.21.21,0,0,1,555.49,312.13Z" transform="translate(-2.73 -1.08)"/><path class="cls-24" d="M553.7,312a.21.21,0,0,0-.21.22l.06,3.53,1.94-.07v-3.51a.21.21,0,0,0-.22-.21Z" transform="translate(-2.73 -1.08)"/><path class="cls-24" d="M553.67,322.64a.22.22,0,0,1-.22.22l-6.73,0,0,3.9,8.71-.25a.09.09,0,0,0,.09-.09c0-3.48,0-7,0-10.49l-1.93.08Z" transform="translate(-2.73 -1.08)"/><path class="cls-23" d="M538.87,320.8a.47.47,0,0,1-.47.47h-.46a.49.49,0,0,1-.49-.49l.07-4.61-.51.15-.08,5.45h2.42l.17-6.18-.51.15Z" transform="translate(-2.73 -1.08)"/><path class="cls-24" d="M537.94,321.28h.46a.47.47,0,0,0,.47-.47l.14-5.06-1.49.44-.07,4.61A.49.49,0,0,0,537.94,321.28Z" transform="translate(-2.73 -1.08)"/><path class="cls-23" d="M563.77,327V311.17l-6.93.2c0,5.06,0,10.53,0,15.81Zm-6.27-14.92a.22.22,0,0,1,.21-.22l5.33-.15a.21.21,0,0,1,.22.22v3.41l-5.76.24Zm0,3.83,5.76-.23v6l-5.77,0Zm5.77,6.13v4.21a.09.09,0,0,1-.09.09l-5.58.17a.09.09,0,0,1-.09-.09c0-1.44,0-2.89,0-4.34Z" transform="translate(-2.73 -1.08)"/><path class="cls-24" d="M563.26,311.91a.21.21,0,0,0-.22-.22l-5.33.15a.22.22,0,0,0-.21.22v3.5l5.76-.24Z" transform="translate(-2.73 -1.08)"/><path class="cls-24" d="M563.26,315.66l-5.76.23v5.84l5.77,0Z" transform="translate(-2.73 -1.08)"/><path class="cls-24" d="M557.6,326.49l5.58-.17a.09.09,0,0,0,.09-.09V322l-5.77,0c0,1.45,0,2.9,0,4.34A.09.09,0,0,0,557.6,326.49Z" transform="translate(-2.73 -1.08)"/><path class="cls-24" d="M541,321.26h.2a.49.49,0,0,0,.48-.48l0-5.84-1.06.31-.15,5.51A.48.48,0,0,0,541,321.26Z" transform="translate(-2.73 -1.08)"/><path class="cls-23" d="M567.91,342.94,565,343a.09.09,0,0,1-.09-.1l0-5.76A.09.09,0,0,1,565,337l5.55-.11a.1.1,0,0,1,.1.09l0,5.11.5-.14,0-5.57-6.73.13,0,7.11h1.12Z" transform="translate(-2.73 -1.08)"/><path class="cls-24" d="M570.65,337a.1.1,0,0,0-.1-.09L565,337a.09.09,0,0,0-.09.09l0,5.76a.09.09,0,0,0,.09.1l2.93-.05,2.76-.81Z" transform="translate(-2.73 -1.08)"/><path class="cls-23" d="M552.93,347.34l-4.65.09a1.09,1.09,0,1,1,0-2.18l7.27-.11v1.44l.67-.19v-1.93l-9.72.15.08,3.35,4.56-.08Z" transform="translate(-2.73 -1.08)"/><path class="cls-24" d="M555.51,345.14l-7.27.11a1.09,1.09,0,1,0,0,2.18l4.65-.09,2.58-.76Z" transform="translate(-2.73 -1.08)"/><path class="cls-23" d="M546.44,343.94l9.74-.15c0-2.12,0-4.51,0-7.07l-9.91.2Zm9.06-6.71v5.9l-7.34.12a1.1,1.1,0,0,1-1.11-1.06l-.12-4.79Z" transform="translate(-2.73 -1.08)"/><path class="cls-24" d="M548.17,343.25l7.34-.12v-5.9l-8.56.17.12,4.79A1.1,1.1,0,0,0,548.17,343.25Z" transform="translate(-2.73 -1.08)"/><path class="cls-23" d="M563.72,343.67l0-7.1-6.9.13c0,2.55,0,4.94,0,7.08Zm-6.21-6.39a.09.09,0,0,1,.09-.09l5.54-.11a.09.09,0,0,1,.1.09l0,5.75a.11.11,0,0,1-.09.1l-5.52.08a.1.1,0,0,1-.1-.09Z" transform="translate(-2.73 -1.08)"/><path class="cls-24" d="M557.61,343.1l5.52-.08a.11.11,0,0,0,.09-.1l0-5.75a.09.09,0,0,0-.1-.09l-5.54.11a.09.09,0,0,0-.09.09V343A.1.1,0,0,0,557.61,343.1Z" transform="translate(-2.73 -1.08)"/><path class="cls-23" d="M571.14,335.75l0-8.32-6.67.2,0,8.25Zm-6.2-7.38a.09.09,0,0,1,.09-.09l5.49-.16a.09.09,0,0,1,.09.09l0,7a.09.09,0,0,1-.09.09l-5.54.11a.09.09,0,0,1-.09-.09Z" transform="translate(-2.73 -1.08)"/><path class="cls-24" d="M565,335.37l5.54-.11a.09.09,0,0,0,.09-.09l0-7a.09.09,0,0,0-.09-.09l-5.49.16a.09.09,0,0,0-.09.09l0,6.91A.09.09,0,0,0,565,335.37Z" transform="translate(-2.73 -1.08)"/><path class="cls-23" d="M570.78,322.41l1,3.55a.09.09,0,0,1-.08.12l-1.09,0a.09.09,0,0,1-.09-.1l0-3.58A.09.09,0,0,1,570.78,322.41Z" transform="translate(-2.73 -1.08)"/><path class="cls-24" d="M570.65,326.11l1.09,0a.09.09,0,0,0,.08-.12l-1-3.55a.09.09,0,0,0-.18,0l0,3.58A.09.09,0,0,0,570.65,326.11Z" transform="translate(-2.73 -1.08)"/><path class="cls-23" d="M552,321a.22.22,0,0,1-.22.22l-5,0v-4.91l5.14-.2Z" transform="translate(-2.73 -1.08)"/><path class="cls-24" d="M551.88,315.78l-.06-3.54a.2.2,0,0,0-.18-.2l-4.88,1.43V316Z" transform="translate(-2.73 -1.08)"/><path class="cls-24" d="M546.73,321.23l5,0A.22.22,0,0,0,552,321l-.09-4.86-5.14.2Z" transform="translate(-2.73 -1.08)"/><path class="cls-24" d="M543.38,320.57a.67.67,0,0,0,1.34,0l0-6.52-1.31.38Z" transform="translate(-2.73 -1.08)"/><path class="cls-23" d="M556.17,327.87l-10.13.29.2,8.09,9.93-.2Zm-9.45.94,8.69-.25a.09.09,0,0,1,.09.09v1.9a.09.09,0,0,1-.09.09h-8.64Zm8.69,6.75-8.51.17-.09-3.4,8.6,0a.09.09,0,0,1,.09.09v3.07A.09.09,0,0,1,555.41,335.56Z" transform="translate(-2.73 -1.08)"/><path class="cls-24" d="M555.5,330.55v-1.9a.09.09,0,0,0-.09-.09l-8.69.25,0,1.84h8.64A.09.09,0,0,0,555.5,330.55Z" transform="translate(-2.73 -1.08)"/><path class="cls-24" d="M555.41,332.31l-8.6,0,.09,3.4,8.51-.17a.09.09,0,0,0,.09-.09V332.4A.09.09,0,0,0,555.41,332.31Z" transform="translate(-2.73 -1.08)"/><path class="cls-23" d="M556.84,336l6.9-.14,0-8.25-6.93.2Zm.76-7.55,5.57-.16a.1.1,0,0,1,.1.09l0,6.9a.09.09,0,0,1-.09.09l-5.55.11a.09.09,0,0,1-.09-.09v-6.84A.11.11,0,0,1,557.6,328.49Z" transform="translate(-2.73 -1.08)"/><path class="cls-25" d="M557.6,335.52l5.55-.11a.09.09,0,0,0,.09-.09l0-6.9a.1.1,0,0,0-.1-.09l-5.57.16a.11.11,0,0,0-.09.1v6.84A.09.09,0,0,0,557.6,335.52Z" transform="translate(-2.73 -1.08)"/><polygon class="cls-23" points="553.43 309.63 553.43 309.63 553.4 309.63 553.43 309.63"/><path class="cls-23" d="M527,337.1l-9.14.55,2,6.72,8.06-.13Zm-6.67,6.59-1.64-5.59,3.6-.21,1.13,5.75Zm3.43-.05-1.13-5.77,3.76-.23.74,5.94Z" transform="translate(-2.73 -1.08)"/><path class="cls-24" d="M518.7,338.1l1.64,5.59,3.09-.05-1.13-5.75Z" transform="translate(-2.73 -1.08)"/><path class="cls-24" d="M522.64,337.87l1.13,5.77,3.37-.06-.74-5.94Z" transform="translate(-2.73 -1.08)"/><path class="cls-23" d="M526.31,331.53l-9.71.78-.07-7.45-2.38.1,3.53,12,9.24-.55ZM515,325.59l1,0,0,3.59Zm3.19,10.87-1.09-3.69,8.58-.69.48,3.9Z" transform="translate(-2.73 -1.08)"/><path class="cls-23" d="M526.23,330.86l-.2-1.55-1.06-4.8-7.77.32.06,6.75Zm-2.2-5.64a.48.48,0,0,1,.49.38l.85,3.82.13,1-3.82.31-.7-5.38Zm-3.38.14.69,5.39-3.58.29,0-5.56Z" transform="translate(-2.73 -1.08)"/><polygon class="cls-26" points="523.58 330.44 523.5 329.78 514.53 330.5 514.47 323.75 513.8 323.78 513.86 329.82 514.26 331.19 523.58 330.44"/><polygon class="cls-24" points="518.62 329.67 517.92 324.28 514.98 324.4 515.03 329.96 518.62 329.67"/><path class="cls-24" d="M525.5,330.42l-.13-1-.85-3.82a.48.48,0,0,0-.49-.38l-3,.13.7,5.38Z" transform="translate(-2.73 -1.08)"/><polygon class="cls-24" points="514.4 331.68 515.49 335.37 523.46 334.89 522.98 331 514.4 331.68"/><polygon class="cls-24" points="512.3 324.51 513.34 328.06 513.31 324.47 512.3 324.51"/><path class="cls-23" d="M520.93,345.69l6.4-.11.21,9.21.66-.19-.22-9.7L520,345l3.23,11,.64-.19Z" transform="translate(-2.73 -1.08)"/><path class="cls-24" d="M520.93,345.69l3,10.17,3.63-1.07-.21-9.21Z" transform="translate(-2.73 -1.08)"/><path class="cls-23" d="M528.65,344.89l.21,9.51.67-.19-.2-8.66,7.44-.12h0l2.48,0c.14,1.32.38,3.49.63,5.78l.33-.1,0-.14c-.19-1.72-.38-3.45-.52-4.74,0-.29-.06-.56-.09-.8l4.48-.07a1.08,1.08,0,0,1,1.1,1.06l.08,3.22.67-.2-.12-4.78Z" transform="translate(-2.73 -1.08)"/><path class="cls-24" d="M534.87,345.46l1.9,0h0l-7.44.12.2,8.66,5.25-1.54Z" transform="translate(-2.73 -1.08)"/><path class="cls-24" d="M536.77,345.43l-.16,6.7,3.27-1c-.25-2.29-.49-4.46-.63-5.78Z" transform="translate(-2.73 -1.08)"/><path class="cls-24" d="M534.78,352.67l1.83-.54.16-6.7-1.9,0Z" transform="translate(-2.73 -1.08)"/><path class="cls-24" d="M544.06,345.32l-4.48.07c0,.24.06.51.09.8.14,1.29.33,3,.52,4.74l0,.14,5-1.47-.08-3.22A1.08,1.08,0,0,0,544.06,345.32Z" transform="translate(-2.73 -1.08)"/><polygon class="cls-26" points="512.27 321.71 512.23 323.17 512.89 323.14 512.94 321.51 512.27 321.71"/><polygon class="cls-24" points="511.72 322.52 511.74 322.52 511.76 321.86 511.54 321.92 511.72 322.52"/><path class="cls-24" d="M523.42,323.24a.48.48,0,0,0,.45-.59l-.51-2.31-7.18,2.11,0,1.09Z" transform="translate(-2.73 -1.08)"/><path class="cls-23" d="M568.89,326.07a.09.09,0,0,1-.09.09l-3.76.11a.1.1,0,0,1-.1-.09V322l4,0Zm.1-9.75a.13.13,0,0,1,0,.06l-.06,5.27-4,0v-6.08l3.8-.15Zm-3.84-4.69,2.28-.07a.21.21,0,0,1,.21.16l1,3.39-3.7.15v-3.42A.22.22,0,0,1,565.15,311.63Z" transform="translate(-2.73 -1.08)"/><path class="cls-24" d="M568.64,315.11l-1-3.39a.21.21,0,0,0-.21-.16l-2.28.07a.22.22,0,0,0-.22.21v3.42Z" transform="translate(-2.73 -1.08)"/><path class="cls-24" d="M564.94,321.67l4,0,.06-5.27a.13.13,0,0,0,0-.06l-.25-.88-3.8.15Z" transform="translate(-2.73 -1.08)"/><path class="cls-24" d="M564.94,326.18a.1.1,0,0,0,.1.09l3.76-.11a.09.09,0,0,0,.09-.09l.05-4.09-4,0Z" transform="translate(-2.73 -1.08)"/><path class="cls-23" d="M556.85,346.19l.67-.2v-.88l3.19-.05,2.4-.71-6.25.1Z" transform="translate(-2.73 -1.08)"/><path class="cls-24" d="M557.52,346l3.18-.93-3.19.05Z" transform="translate(-2.73 -1.08)"/><path class="cls-23" d="M527.63,336.69l.94,7.53,5.18-.08,0-4.31a3.34,3.34,0,0,1-2.72-2.37,3,3,0,0,1-.11-.54l-3.27.2-.08-.66,3.34-.21a3.33,3.33,0,0,1,2.38-2.93,3.5,3.5,0,0,1,.63-.12l-.16-4.42.67,0,.09,2.48,10.89,0-.08-3-18.71.86,0,.15h0l.89,7.18h0Zm.78.83,2.12-.13c0,.05,0,.1,0,.15a3.83,3.83,0,0,0,2.7,2.63l0,3.31-4.07.07Zm16.31-8.63,0,1.77-9.73,0,0-1.34Zm-17.29.8,5.88-.28.12,3.3-.26.07a3.82,3.82,0,0,0-2.68,2.94l-2.29.14Z" transform="translate(-2.73 -1.08)"/><path class="cls-23" d="M534.63,333.2a3.36,3.36,0,0,1,2.85,2.38,3.43,3.43,0,0,1,.13.9l8-.15-.12-4.46-10.87,0Zm.46-.85,9.72,0,.08,3.44-6.84.14a3.12,3.12,0,0,0-.11-.53,3.86,3.86,0,0,0-2.84-2.66Z" transform="translate(-2.73 -1.08)"/><path class="cls-23" d="M535.21,339.73a3.09,3.09,0,0,1-.75.12l0,4.28,11.35-.18-.18-6.95-8,.15A3.38,3.38,0,0,1,535.21,339.73Zm9.73-2.29.12,4.76a1.09,1.09,0,0,1-1.07,1.11l-9.09.14,0-3.21.4-.09a3.9,3.9,0,0,0,2.59-2.57Z" transform="translate(-2.73 -1.08)"/><path class="cls-27" d="M534.47,328.76l-.67,0,.16,4.42a3.5,3.5,0,0,0-.63.12,3.33,3.33,0,0,0-2.38,2.93l-3.34.21.08.66,3.27-.2a3,3,0,0,0,.11.54,3.34,3.34,0,0,0,2.72,2.37l0,4.31h.67l0-4.28a3.09,3.09,0,0,0,.75-.12,3.38,3.38,0,0,0,2.34-2.58l8-.15v-.67l-8,.15a3.43,3.43,0,0,0-.13-.9,3.36,3.36,0,0,0-2.85-2.38l0-1.29,10.87,0v-.67l-10.89,0Zm1.87,7.09a2.17,2.17,0,1,1-2.7-1.47A2.18,2.18,0,0,1,536.34,335.85Z" transform="translate(-2.73 -1.08)"/><path class="cls-25" d="M533.23,343.48l0-3.31a3.83,3.83,0,0,1-2.7-2.63c0-.05,0-.1,0-.15l-2.12.13.75,6Z" transform="translate(-2.73 -1.08)"/><path class="cls-25" d="M535.34,340.15l-.4.09,0,3.21,9.09-.14a1.09,1.09,0,0,0,1.07-1.11l-.12-4.76-7,.14A3.9,3.9,0,0,1,535.34,340.15Z" transform="translate(-2.73 -1.08)"/><path class="cls-25" d="M533.17,332.78l.26-.07-.12-3.3-5.88.28.77,6.17,2.29-.14A3.82,3.82,0,0,1,533.17,332.78Z" transform="translate(-2.73 -1.08)"/><polygon class="cls-25" points="542.03 329.57 541.99 327.8 532.25 328.25 532.3 329.59 542.03 329.57"/><path class="cls-25" d="M532.18,337.07a2.17,2.17,0,0,0,4.16-1.22,2.17,2.17,0,1,0-4.16,1.22Z" transform="translate(-2.73 -1.08)"/><path class="cls-28" d="M537.94,335.38a3.12,3.12,0,0,1,.11.53l6.84-.14-.08-3.44-9.72,0v.37A3.86,3.86,0,0,1,537.94,335.38Z" transform="translate(-2.73 -1.08)"/><path class="cls-23" d="M572.37,328.06a.1.1,0,0,1,.09.07l2,6.93a.1.1,0,0,1-.09.12l-2,0a.09.09,0,0,1-.09-.09l0-7A.11.11,0,0,1,572.37,328.06Z" transform="translate(-2.73 -1.08)"/><path class="cls-24" d="M572.4,335.22l2,0a.1.1,0,0,0,.09-.12l-2-6.93a.1.1,0,0,0-.09-.07.11.11,0,0,0-.09.1l0,7A.09.09,0,0,0,572.4,335.22Z" transform="translate(-2.73 -1.08)"/><path class="cls-23" d="M571.83,341.79l.51-.15,0-4.65a.11.11,0,0,1,.09-.1l2.54-.05a.1.1,0,0,1,.09.07l1.06,3.63.65-.19-1.18-4-3.76.07Z" transform="translate(-2.73 -1.08)"/><path class="cls-24" d="M575,336.91a.1.1,0,0,0-.09-.07l-2.54.05a.11.11,0,0,0-.09.1l0,4.65,3.76-1.1Z" transform="translate(-2.73 -1.08)"/><path class="cls-24" d="M565.11,310l1.72,0a.22.22,0,0,0,.2-.28l-.57-1.94-1.66.48.08,1.58A.23.23,0,0,0,565.11,310Z" transform="translate(-2.73 -1.08)"/><polygon class="cls-23" points="543.84 348.12 545.94 347.51 543.83 347.55 543.84 348.12"/><polygon class="cls-26" points="524.19 335.35 515.62 335.82 515.81 336.48 524.28 336.02 524.19 335.35"/><path class="cls-26" d="M546.24,336.25l0,.67,9.91-.2v-.67Z" transform="translate(-2.73 -1.08)"/><path class="cls-26" d="M571.78,327.41l-.67,0,0,8.32-6.73.13,0-8.25-.67,0,0,8.25-6.9.14v.66l6.9-.13,0,7.1h.67l0-7.11,6.73-.13,0,5.57.66-.2,0-5.39,3-.13-.19-.66-2.85.13Z" transform="translate(-2.73 -1.08)"/><polygon class="cls-26" points="567.32 325.71 567.39 319.06 566.75 316.87 566.65 325.73 567.32 325.71"/><path class="cls-26" d="M556.13,310.72l-2.53.74,2.56-.07v-.67Z" transform="translate(-2.73 -1.08)"/><polygon class="cls-26" points="550.25 310.56 549.59 310.75 549.75 320.61 543.33 320.65 543.32 321.32 550.43 321.28 550.25 310.56"/><path class="cls-26" d="M564.31,308.32l-.66.19.1,2-3,.09v-1.21l-.67.2v1l-3.2.09v.67l6.93-.2V327l.67,0V311.15l3-.08-.19-.67-2.84.08Z" transform="translate(-2.73 -1.08)"/><polygon class="cls-26" points="540.14 320.67 540.21 313.51 539.53 313.7 539.47 320.67 537.29 320.68 537.47 314.31 536.79 314.51 536.62 320.69 534.21 320.7 534.28 315.25 533.61 315.44 533.53 320.81 523.33 325.24 523.47 325.9 533.52 321.55 533.45 326.86 534.12 326.83 534.2 321.37 539.47 321.34 539.42 326.58 540.09 326.55 540.13 321.33 542.65 321.32 542.66 320.65 540.14 320.67"/><polygon class="cls-26" points="543.81 346.88 543.83 347.55 545.94 347.51 548.37 346.79 543.81 346.88"/><path class="cls-26" d="M556.16,310.71h0l.67,0v-.19Z" transform="translate(-2.73 -1.08)"/><path class="cls-26" d="M565.51,343.65h-1.12V344Z" transform="translate(-2.73 -1.08)"/><path class="cls-26" d="M528.2,354.6l.66-.2-.21-9.51,17.14-.27.12,4.78.66-.19v-.58h-.51V348h.5l-.08-3.35,9.72-.15v1.93l.67-.2v-1.74l6.25-.1.63-.18h0v-.5l-6.87.11c0-2.14,0-4.53,0-7.08l-.67,0c0,2.56,0,4.95,0,7.07l-9.74.15-.18-7h-.61l0-.67h.56l-.2-8.09,10.13-.29v8.18h.67v-8.19l6.93-.2V327l-6.93.2c0-5.28,0-10.75,0-15.81l-.67,0c0,5.07,0,10.54,0,15.81l-10.14.29,0-5.09h-.67l0,5.12-2.54.12v.52h-.67v-.48l-5.3.24v.52h-.67v-.48l-9.67.45-.31-1.4-.4.17-.27-.61.53-.23L524.64,320l-.64.19.82,3.7-9.2.38v.52l-.67,0v-.47h-.31l.2.67,1.69-.08v-.51h.67v.49l7.77-.32,1.06,4.8.2,1.55.51,0,.06.67-.49,0,.61,4.91.67-.05-.89-7.18h0l0-.15,18.71-.86.08,3h.22v.67h-.21l.12,4.46h0l0,.67h0l.18,6.95-11.35.18v.1h-.67v-.08l-5.18.08-.94-7.53,0,.37-.67,0,.89,7.14-7.36.12.19.66,7.25-.12Z" transform="translate(-2.73 -1.08)"/><polygon class="cls-26" points="542.88 335.92 542.86 335.24 542.85 335.24 542.86 335.92 542.88 335.92"/><polygon class="cls-26" points="542.94 330.79 542.94 330.12 542.72 330.12 542.73 330.79 542.94 330.79"/><path class="cls-26" d="M533.75,344.22h.67v-.1h-.67Z" transform="translate(-2.73 -1.08)"/><polygon class="cls-26" points="514.47 323.26 513.8 323.26 513.8 323.78 514.47 323.75 514.47 323.26"/><polygon class="cls-26" points="524.07 330.41 524.01 329.74 523.5 329.78 523.58 330.44 524.07 330.41"/><polygon class="cls-26" points="512.21 323.65 512.88 323.67 512.89 323.14 512.23 323.17 512.21 323.65"/><polygon class="cls-26" points="567.31 326.23 566.64 326.22 566.65 325.73 561.71 325.87 561.71 326.22 561.71 326.54 568.38 326.35 568.38 325.84 569.04 325.83 569.05 326.33 569.51 326.3 569.32 325.64 567.32 325.71 567.31 326.23"/><polygon class="cls-26" points="542.69 312.78 542.66 320.65 543.33 320.65 543.36 312.58 542.69 312.78"/><polygon class="cls-26" points="542.66 320.65 542.65 321.32 543.32 321.32 543.33 320.65 542.66 320.65"/><path class="cls-26" d="M556.16,311.39l.67,0v-.67l-.67,0Z" transform="translate(-2.73 -1.08)"/><polygon class="cls-26" points="522.8 325.47 523.07 326.08 523.47 325.9 523.33 325.24 522.8 325.47"/><path class="cls-26" d="M556.17,336.72l.67,0V336h-.67Z" transform="translate(-2.73 -1.08)"/><polygon class="cls-26" points="542.95 335.17 542.92 335.84 543.53 335.83 543.51 335.16 542.95 335.17"/><polygon class="cls-26" points="539.41 327.07 540.08 327.07 540.09 326.55 539.42 326.58 539.41 327.07"/><polygon class="cls-26" points="533.44 327.34 534.11 327.35 534.12 326.83 533.45 326.86 533.44 327.34"/><path class="cls-26" d="M563.73,344.17l.66-.19v-.32h-.67v.5Z" transform="translate(-2.73 -1.08)"/><polygon class="cls-26" points="561.04 326.56 561.71 326.54 561.71 326.22 561.71 325.87 561.04 325.89 561.04 326.22 561.04 326.56"/><polygon class="cls-26" points="567.31 326.23 567.32 325.71 566.65 325.73 566.64 326.22 567.31 326.23"/><polygon class="cls-26" points="569.04 325.83 568.38 325.84 568.38 326.35 569.05 326.33 569.04 325.83"/><polygon class="cls-26" points="524.95 335.98 524.9 335.61 524.86 335.31 524.19 335.35 524.28 336.02 524.95 335.98"/><polygon class="cls-26" points="524.86 335.31 524.86 335.31 524.9 335.61 524.86 335.31"/><rect class="cls-26" x="546.05" y="347.97" width="0.5" height="0.67" transform="translate(-9.18 9.25) rotate(-1.08)"/><line class="cls-1" x1="386.47" y1="108" x2="386.47" y2="114"/><line class="cls-29" x1="386.47" y1="125.92" x2="386.47" y2="143.8"/><line class="cls-1" x1="386.47" y1="149.76" x2="386.47" y2="155.76"/><path class="cls-5" d="M394.41,155.54H384a2.1,2.1,0,0,0-1.82,3.16l5.21,9a2.1,2.1,0,0,0,3.65,0l5.21-9A2.11,2.11,0,0,0,394.41,155.54Z" transform="translate(-2.73 -1.08)"/><line class="cls-1" x1="358.47" y1="165.7" x2="358.47" y2="159.7"/><line class="cls-29" x1="358.47" y1="147.78" x2="358.47" y2="129.9"/><line class="cls-1" x1="358.47" y1="123.94" x2="358.47" y2="117.94"/><path class="cls-5" d="M356,120.33h10.42a2.11,2.11,0,0,0,1.83-3.17l-5.21-9a2.1,2.1,0,0,0-3.65,0l-5.21,9A2.11,2.11,0,0,0,356,120.33Z" transform="translate(-2.73 -1.08)"/><path class="cls-5" d="M536,206.83h10.41a2.11,2.11,0,0,0,1.83-3.16l-5.21-9a2.11,2.11,0,0,0-3.65,0l-5.21,9A2.11,2.11,0,0,0,536,206.83Z" transform="translate(-2.73 -1.08)"/><path class="cls-5" d="M190.4,120.33h10.42a2.11,2.11,0,0,0,1.82-3.17l-5.2-9a2.11,2.11,0,0,0-3.66,0l-5.21,9A2.11,2.11,0,0,0,190.4,120.33Z" transform="translate(-2.73 -1.08)"/><path class="cls-5" d="M49.13,261H59.55a2.11,2.11,0,0,0,1.82-3.16l-5.21-9a2.11,2.11,0,0,0-3.65,0l-5.21,9A2.11,2.11,0,0,0,49.13,261Z" transform="translate(-2.73 -1.08)"/></g><g id="PCs"><path class="cls-3" d="M343.23,464.2a.79.79,0,0,1,0,1.49l-46,26.72a2.84,2.84,0,0,1-2.57,0l-23.47-13.56c-.72-.41-.72-1.07,0-1.48l46-26.72a2.82,2.82,0,0,1,2.56,0Z" transform="translate(-2.73 -1.08)"/><path class="cls-4" d="M343.27,463.83c.71.41.72,1.07,0,1.48L297.3,492a2.82,2.82,0,0,1-2.56,0l-23.48-13.55a.79.79,0,0,1,0-1.49l46-26.72a2.84,2.84,0,0,1,2.57,0Z" transform="translate(-2.73 -1.08)"/><path class="cls-30" d="M333,459.52c-.55-3.48-7.77-7.16-11.63-6.08a6.51,6.51,0,0,0-1.52.79c-1.29.79-1.17,2.19.34,3.07l6.5,3.75a5.66,5.66,0,0,0,5.1.21l.36-.2A1.45,1.45,0,0,0,333,459.52Z" transform="translate(-2.73 -1.08)"/><path class="cls-31" d="M333,459a1.54,1.54,0,0,1-.88,1.23l-.35.2a5.68,5.68,0,0,1-5.11-.21l-6.5-3.75a2.16,2.16,0,0,1-1.25-1.62h0v.55A2.13,2.13,0,0,0,320.2,457l6.5,3.75a5.68,5.68,0,0,0,5.11.22l.35-.21a1.51,1.51,0,0,0,.88-1.25V459Z" transform="translate(-2.73 -1.08)"/><path class="cls-32" d="M333,458.88c0,.06.16.83-1.24,1.54h0a5.68,5.68,0,0,1-5.11-.21l-6.5-3.75A2.29,2.29,0,0,1,319,455a2.16,2.16,0,0,0,1.25,1.61l6.5,3.76a5.71,5.71,0,0,0,5.11.21l.35-.21a1.51,1.51,0,0,0,.88-1.25Z" transform="translate(-2.73 -1.08)"/><path class="cls-33" d="M333,458.69c-.56-3.48-7.78-7.17-11.64-6.08a6.15,6.15,0,0,0-1.52.78c-1.29.79-1.17,2.2.34,3.07l6.5,3.75a5.68,5.68,0,0,0,5.11.21l.35-.2A1.44,1.44,0,0,0,333,458.69Z" transform="translate(-2.73 -1.08)"/><path class="cls-30" d="M323.12,453.38a.48.48,0,0,0-.3,0c-.21,0-.32.18-.06.31s1.25.4,1.9.68.9.09.81-.08-.48-.36-.48-.36Z" transform="translate(-2.73 -1.08)"/><path class="cls-34" d="M322.91,453.47a1.63,1.63,0,0,1,1.9.21,1.92,1.92,0,0,1,.31.51A9.49,9.49,0,0,1,322.91,453.47Z" transform="translate(-2.73 -1.08)"/><path class="cls-30" d="M291.32,446.88s-2.45,6.68,0,8.09l1.18.69h0l4.64,2.68a.72.72,0,0,1,0,1.37l-6.51,3.77a2.64,2.64,0,0,1-2.37,0l-3.31-2h0l-1.05-.66-.15-.08,0,0-1.12-.71s-2.07-1.51-2.07-6.9Z" transform="translate(-2.73 -1.08)"/><path class="cls-33" d="M280.49,452.44c0,5.39,2.07,6.91,2.07,6.91l1.12.71s0,0,0,0l.14.08,1.06.66,0,0,.38.23,2.92,1.73a2.58,2.58,0,0,0,2.37,0l6.51-3.77a.72.72,0,0,0,0-1.37L294.21,456l-1.7-1h0l-1.18-.68c-2.39-1.38-.12-7.77,0-8.09h0Z" transform="translate(-2.73 -1.08)"/><path class="cls-19" d="M280.49,452.44c0,5.39,2.07,6.91,2.07,6.91l1.12.71s0,0,0,0l.14.08,1.06.66,0,0,.38.23,8.87-5.08-1.7-1h0l-1.18-.68c-2.39-1.38-.12-7.77,0-8.09h0Z" transform="translate(-2.73 -1.08)"/><path class="cls-35" d="M295.5,443.15l-.15,8a1.87,1.87,0,0,0,1,1.63l7.33,4.25a.61.61,0,0,1,0,1.05l-7.11,4.27a.68.68,0,0,0,0,1.18l2.95,2" transform="translate(-2.73 -1.08)"/><g class="cls-36"><path class="cls-37" d="M309.21,394.46l1.72,1a1.5,1.5,0,0,0-1.52.14l-1.72-1A1.53,1.53,0,0,1,309.21,394.46Z" transform="translate(-2.73 -1.08)"/><path class="cls-19" d="M261.22,465.12l-1.72-1a1.5,1.5,0,0,1-.62-1.37l1.72,1A1.5,1.5,0,0,0,261.22,465.12Z" transform="translate(-2.73 -1.08)"/><polygon class="cls-19" points="257.87 462.67 256.15 461.67 256.04 424.23 257.76 425.23 257.87 462.67"/><polygon class="cls-19" points="259.89 421.54 258.17 420.54 304.96 393.53 306.68 394.53 259.89 421.54"/><path class="cls-37" d="M260.49,426.32l-1.72-1a4.7,4.7,0,0,1,2.13-3.69l1.72,1A4.7,4.7,0,0,0,260.49,426.32Z" transform="translate(-2.73 -1.08)"/><path class="cls-37" d="M309.41,395.61c1.18-.68,2.14-.13,2.14,1.23l.11,37.43a4.7,4.7,0,0,1-2.13,3.69l-46.79,27c-1.18.68-2.14.14-2.14-1.22l-.11-37.43a4.7,4.7,0,0,1,2.13-3.69Z" transform="translate(-2.73 -1.08)"/></g><path class="cls-38" d="M309.41,395.57c1.18-.68,2.14-.13,2.14,1.22l.11,37.44a4.73,4.73,0,0,1-2.13,3.69l-46.79,27c-1.18.68-2.14.13-2.14-1.22l-.11-37.44a4.71,4.71,0,0,1,2.13-3.69Z" transform="translate(-2.73 -1.08)"/><path class="cls-33" d="M311.65,431.28v3a4.7,4.7,0,0,1-2.13,3.68l-46.79,27c-1.18.68-2.14.13-2.14-1.22v-3Z" transform="translate(-2.73 -1.08)"/><polygon class="cls-39" points="307.13 396.69 307.22 428.9 260.16 456.07 260.07 423.86 307.13 396.69"/><polygon class="cls-40" points="307.13 396.7 307.22 428.91 298.4 434 270.28 417.98 307.13 396.7"/><polygon class="cls-41" points="304.38 435.14 304.39 437.02 303.01 437.81 303.01 435.93 304.38 435.14"/><path class="cls-30" d="M327.38,464.3a.46.46,0,0,1,0,.87l-30,17.45a1.65,1.65,0,0,1-1.5,0l-12.25-7.07a.46.46,0,0,1,0-.87l30-17.45a1.65,1.65,0,0,1,1.5,0Z" transform="translate(-2.73 -1.08)"/><path class="cls-33" d="M327.38,463.8a.46.46,0,0,1,0,.87l-30,17.44a1.65,1.65,0,0,1-1.5,0L283.62,475a.46.46,0,0,1,0-.87l30-17.44a1.65,1.65,0,0,1,1.5,0Z" transform="translate(-2.73 -1.08)"/><path class="cls-21" d="M294.4,470.4c.1.06.1.15,0,.21l-1.57.91a.43.43,0,0,1-.35,0l-.82-.47c-.09-.06-.1-.15,0-.21l1.57-.91a.36.36,0,0,1,.35,0Z" transform="translate(-2.73 -1.08)"/><path class="cls-33" d="M292.65,471.66a.46.46,0,0,1-.23-.05l-.81-.47a.21.21,0,0,1,0-.39l1.56-.91a.49.49,0,0,1,.47,0l.81.47a.23.23,0,0,1,.13.19.24.24,0,0,1-.13.2l-1.56.91A.47.47,0,0,1,292.65,471.66Zm-.95-.72,0,0,.81.46a.28.28,0,0,0,.25,0l1.56-.91h0l-.81-.47a.28.28,0,0,0-.25,0l-1.56.91Z" transform="translate(-2.73 -1.08)"/><path class="cls-21" d="M292.24,471.65c.1.06.1.15,0,.21l-1.56.91a.38.38,0,0,1-.36,0l-.81-.47c-.1-.06-.1-.15,0-.21l1.56-.91a.45.45,0,0,1,.36,0Z" transform="translate(-2.73 -1.08)"/><path class="cls-33" d="M290.5,472.92a.44.44,0,0,1-.23-.06l-.82-.47a.23.23,0,0,1-.12-.19.23.23,0,0,1,.12-.2l1.57-.91a.53.53,0,0,1,.46,0l.81.47a.21.21,0,0,1,0,.39l-1.56.91A.46.46,0,0,1,290.5,472.92Zm-1-.72h0l.81.47a.31.31,0,0,0,.25,0l1.57-.91h0v0l-.81-.46a.3.3,0,0,0-.26,0l-1.56.9Z" transform="translate(-2.73 -1.08)"/><path class="cls-21" d="M290.08,472.91c.1,0,.1.14,0,.2l-1.57.91a.38.38,0,0,1-.36,0l-.81-.47a.1.1,0,0,1,0-.2l1.57-.91a.36.36,0,0,1,.35,0Z" transform="translate(-2.73 -1.08)"/><path class="cls-33" d="M288.34,474.17a.46.46,0,0,1-.23-.06l-.81-.47a.22.22,0,0,1-.13-.19.24.24,0,0,1,.13-.2l1.56-.9a.49.49,0,0,1,.47,0l.81.46a.23.23,0,0,1,.12.2.21.21,0,0,1-.12.19l-1.57.91A.44.44,0,0,1,288.34,474.17Zm-.95-.72h0l.82.47a.28.28,0,0,0,.25,0L290,473h0l-.81-.47a.28.28,0,0,0-.25,0l-1.57.91Z" transform="translate(-2.73 -1.08)"/><path class="cls-21" d="M287.93,474.16c.1.06.1.15,0,.2l-1.57.91a.36.36,0,0,1-.35,0l-.81-.46c-.1-.06-.1-.15,0-.21l1.57-.91a.38.38,0,0,1,.36,0Z" transform="translate(-2.73 -1.08)"/><path class="cls-33" d="M286.19,475.42a.6.6,0,0,1-.24-.05l-.81-.47a.23.23,0,0,1-.12-.2.22.22,0,0,1,.12-.19l1.57-.91a.47.47,0,0,1,.46,0l.81.47a.22.22,0,0,1,.13.19.24.24,0,0,1-.13.2l-1.56.91A.59.59,0,0,1,286.19,475.42Zm-1-.72h0l.81.47a.28.28,0,0,0,.25,0l1.57-.91h0l-.82-.47a.28.28,0,0,0-.25,0l-1.56.91Z" transform="translate(-2.73 -1.08)"/><path class="cls-21" d="M290,475.33c.1.06.1.15,0,.21l-1.57.91a.38.38,0,0,1-.36,0l-1.54-.89c-.1-.06-.1-.15,0-.21l1.56-.91a.45.45,0,0,1,.36,0Z" transform="translate(-2.73 -1.08)"/><path class="cls-33" d="M288.22,476.6a.46.46,0,0,1-.23-.06l-1.54-.89a.21.21,0,0,1,0-.39l1.56-.91a.5.5,0,0,1,.46,0l1.55.89a.27.27,0,0,1,.13.2.23.23,0,0,1-.13.19l-1.57.91A.41.41,0,0,1,288.22,476.6Zm-1.68-1.14h0l1.55.89a.28.28,0,0,0,.25,0l1.56-.91h0l-1.54-.9a.36.36,0,0,0-.25,0l-1.57.91Z" transform="translate(-2.73 -1.08)"/><path class="cls-21" d="M297.65,475.58c.1.06.1.15,0,.21l-1.57.91a.45.45,0,0,1-.36,0l-1.54-.9c-.1-.05-.1-.14,0-.2l1.56-.91a.38.38,0,0,1,.36,0Z" transform="translate(-2.73 -1.08)"/><path class="cls-33" d="M295.91,476.84a.46.46,0,0,1-.23,0l-1.54-.89a.24.24,0,0,1-.13-.2.22.22,0,0,1,.13-.19l1.56-.91a.47.47,0,0,1,.46,0l1.55.89a.22.22,0,0,1,.12.19.23.23,0,0,1-.12.2l-1.57.91A.41.41,0,0,1,295.91,476.84Zm-1.68-1.14h0l1.55.89a.28.28,0,0,0,.25,0l1.56-.9,0,0h0l-1.54-.89a.28.28,0,0,0-.25,0l-1.57.91Z" transform="translate(-2.73 -1.08)"/><path class="cls-21" d="M295.11,474.68c.1.06.1.15,0,.21l-1.56.91a.45.45,0,0,1-.36,0l-1.54-.9a.1.1,0,0,1,0-.2l1.56-.91a.38.38,0,0,1,.36,0Z" transform="translate(-2.73 -1.08)"/><path class="cls-33" d="M293.37,475.94a.43.43,0,0,1-.23-.05l-1.55-.89a.23.23,0,0,1-.12-.2.21.21,0,0,1,.12-.19l1.57-.91a.47.47,0,0,1,.46,0l1.54.89a.21.21,0,0,1,.13.19.23.23,0,0,1-.12.2l-1.57.91A.43.43,0,0,1,293.37,475.94Zm-1.69-1.14h0l1.54.89a.28.28,0,0,0,.25,0l1.57-.91h0l-1.54-.89a.3.3,0,0,0-.26,0l-1.56.91Z" transform="translate(-2.73 -1.08)"/><path class="cls-21" d="M292,474.13c.1.06.1.15,0,.21l-1.57.91a.43.43,0,0,1-.35,0l-1.55-.89c-.1-.06-.1-.15,0-.21l1.57-.91a.36.36,0,0,1,.35,0Z" transform="translate(-2.73 -1.08)"/><path class="cls-33" d="M290.29,475.4a.46.46,0,0,1-.23-.06l-1.54-.89a.24.24,0,0,1-.13-.2.22.22,0,0,1,.13-.19l1.56-.91a.49.49,0,0,1,.47,0l1.54.89a.21.21,0,0,1,0,.39l-1.56.91A.48.48,0,0,1,290.29,475.4Zm-1.68-1.15h0l1.54.89a.28.28,0,0,0,.25,0l1.56-.9,0,0h0l-1.54-.89a.28.28,0,0,0-.25,0l-1.57.91Z" transform="translate(-2.73 -1.08)"/><path class="cls-21" d="M304.9,473.75a.1.1,0,0,1,0,.2l-1.56.91a.38.38,0,0,1-.36,0l-1.55-.89a.11.11,0,0,1,0-.2l1.57-.91a.38.38,0,0,1,.36,0Z" transform="translate(-2.73 -1.08)"/><path class="cls-33" d="M303.16,475a.52.52,0,0,1-.23-.05l-1.55-.9a.22.22,0,0,1-.13-.19.24.24,0,0,1,.13-.2l1.57-.9a.47.47,0,0,1,.46,0l1.54.89a.22.22,0,0,1,.13.19.24.24,0,0,1-.13.2l-1.56.91A.59.59,0,0,1,303.16,475Zm-1.69-1.14h0l1.54.89a.28.28,0,0,0,.25,0l1.57-.91h0L303.3,473a.28.28,0,0,0-.25,0l-1.56.91Z" transform="translate(-2.73 -1.08)"/><path class="cls-21" d="M307,472.54a.12.12,0,0,1,0,.21l-1.57.91a.45.45,0,0,1-.36,0l-1.54-.89c-.1-.06-.1-.15,0-.21l1.57-.91a.36.36,0,0,1,.35,0Z" transform="translate(-2.73 -1.08)"/><path class="cls-33" d="M305.23,473.81a.46.46,0,0,1-.23-.06l-1.54-.89a.24.24,0,0,1-.13-.2.23.23,0,0,1,.13-.19l1.56-.91a.47.47,0,0,1,.46,0l1.55.89a.21.21,0,0,1,0,.39l-1.57.91A.41.41,0,0,1,305.23,473.81Zm-1.68-1.15h0l1.55.9a.36.36,0,0,0,.25,0l1.56-.91h0l0,0-1.54-.89a.28.28,0,0,0-.25,0l-1.57.91Z" transform="translate(-2.73 -1.08)"/><g class="cls-36"><path class="cls-21" d="M298.25,470.52c.1.06.1.15,0,.2l-1.56.91a.38.38,0,0,1-.36,0l-1.54-.89a.1.1,0,0,1,0-.2l1.56-.91a.38.38,0,0,1,.36,0Z" transform="translate(-2.73 -1.08)"/><path class="cls-33" d="M296.51,471.78a.56.56,0,0,1-.23,0l-1.55-.9a.21.21,0,0,1-.12-.19.23.23,0,0,1,.12-.2l1.57-.9a.47.47,0,0,1,.46,0l1.54.89a.2.2,0,0,1,.13.19.23.23,0,0,1-.12.2l-1.57.91A.56.56,0,0,1,296.51,471.78Zm-1.69-1.14h0l1.54.89a.3.3,0,0,0,.26,0l1.56-.91h0l-1.54-.89a.3.3,0,0,0-.26,0l-1.56.91Z" transform="translate(-2.73 -1.08)"/><path class="cls-21" d="M301.33,471.07a.1.1,0,0,1,0,.2l-1.57.91a.36.36,0,0,1-.35,0l-1.55-.89a.1.1,0,0,1,0-.2l1.57-.91a.36.36,0,0,1,.35,0Z" transform="translate(-2.73 -1.08)"/><path class="cls-33" d="M299.59,472.33a.6.6,0,0,1-.24-.05l-1.54-.9a.22.22,0,0,1-.13-.19.24.24,0,0,1,.13-.2l1.56-.91a.55.55,0,0,1,.47,0l1.54.9a.22.22,0,0,1,.13.19.24.24,0,0,1-.13.2l-1.56.91A.59.59,0,0,1,299.59,472.33Zm-1.69-1.14h0l1.54.89a.28.28,0,0,0,.25,0l1.57-.91h0l-1.54-.89a.28.28,0,0,0-.25,0l-1.57.91Z" transform="translate(-2.73 -1.08)"/><path class="cls-21" d="M296.18,471.72c.1.06.1.15,0,.21l-1.56.91a.38.38,0,0,1-.36,0l-1.54-.89c-.1-.06-.1-.15,0-.21l1.57-.91a.38.38,0,0,1,.36,0Z" transform="translate(-2.73 -1.08)"/><path class="cls-33" d="M294.44,473a.44.44,0,0,1-.23-.06l-1.55-.89a.23.23,0,0,1-.12-.2.23.23,0,0,1,.12-.19l1.57-.91a.47.47,0,0,1,.46,0l1.54.89a.21.21,0,0,1,0,.39l-1.56.91A.46.46,0,0,1,294.44,473Zm-1.69-1.15,0,0,1.54.89a.36.36,0,0,0,.25,0l1.57-.91h0v0l-1.55-.89a.28.28,0,0,0-.25,0l-1.56.91Z" transform="translate(-2.73 -1.08)"/><path class="cls-21" d="M303.89,472c.1.06.1.15,0,.2l-1.57.91a.36.36,0,0,1-.35,0l-1.55-.89a.1.1,0,0,1,0-.2l1.57-.91a.36.36,0,0,1,.35,0Z" transform="translate(-2.73 -1.08)"/><path class="cls-33" d="M302.14,473.22a.59.59,0,0,1-.23-.05l-1.54-.89a.24.24,0,0,1-.13-.2.22.22,0,0,1,.13-.19l1.56-.91a.49.49,0,0,1,.47,0l1.54.89a.22.22,0,0,1,.13.19.24.24,0,0,1-.13.2l-1.56.91A.6.6,0,0,1,302.14,473.22Zm-1.68-1.14h0L302,473a.28.28,0,0,0,.25,0l1.56-.91h0l-1.54-.89a.28.28,0,0,0-.25,0l-1.57.91Z" transform="translate(-2.73 -1.08)"/><path class="cls-21" d="M299.26,472.27a.12.12,0,0,1,0,.21l-1.57.91a.45.45,0,0,1-.36,0l-1.54-.89c-.1-.06-.1-.15,0-.21l1.56-.91a.38.38,0,0,1,.36,0Z" transform="translate(-2.73 -1.08)"/><path class="cls-33" d="M297.51,473.54a.46.46,0,0,1-.23-.06l-1.54-.89a.24.24,0,0,1-.13-.2.23.23,0,0,1,.13-.19l1.56-.91a.47.47,0,0,1,.46,0l1.55.89a.21.21,0,0,1,0,.39l-1.57.91A.41.41,0,0,1,297.51,473.54Zm-1.68-1.15v0l1.55.89a.36.36,0,0,0,.25,0l1.56-.91h0l0,0-1.54-.89a.28.28,0,0,0-.25,0l-1.57.91Z" transform="translate(-2.73 -1.08)"/><path class="cls-21" d="M294.11,472.93a.1.1,0,0,1,0,.2l-1.57.91a.36.36,0,0,1-.35,0l-1.55-.89c-.09-.06-.1-.15,0-.21l1.57-.9a.39.39,0,0,1,.35,0Z" transform="translate(-2.73 -1.08)"/><path class="cls-33" d="M292.37,474.19a.48.48,0,0,1-.24-.06l-1.54-.89a.22.22,0,0,1-.13-.19.24.24,0,0,1,.13-.2l1.56-.91a.55.55,0,0,1,.47,0l1.54.89a.24.24,0,0,1,.13.2.22.22,0,0,1-.13.19l-1.56.91A.46.46,0,0,1,292.37,474.19Zm-1.69-1.14h0l1.54.89a.28.28,0,0,0,.25,0l1.57-.91h0l-1.55-.89a.28.28,0,0,0-.25,0l-1.56.91Z" transform="translate(-2.73 -1.08)"/><path class="cls-21" d="M301.81,473.17a.1.1,0,0,1,0,.2l-1.56.91a.38.38,0,0,1-.36,0l-1.55-.89a.12.12,0,0,1,0-.21l1.57-.91a.45.45,0,0,1,.36,0Z" transform="translate(-2.73 -1.08)"/><path class="cls-33" d="M300.07,474.43a.41.41,0,0,1-.23-.06l-1.55-.89a.23.23,0,0,1-.13-.19.24.24,0,0,1,.13-.2l1.57-.91a.53.53,0,0,1,.46,0l1.54.89a.24.24,0,0,1,.13.2.22.22,0,0,1-.13.19l-1.56.91A.46.46,0,0,1,300.07,474.43Zm-1.69-1.14h0l1.54.89a.28.28,0,0,0,.25,0l1.57-.91h0l-1.55-.89a.28.28,0,0,0-.25,0l-1.56.91Z" transform="translate(-2.73 -1.08)"/><path class="cls-21" d="M297.18,473.48a.1.1,0,0,1,0,.2l-1.56.91a.38.38,0,0,1-.36,0l-1.54-.89c-.1-.06-.1-.15,0-.21l1.56-.91a.45.45,0,0,1,.36,0Z" transform="translate(-2.73 -1.08)"/><path class="cls-33" d="M295.44,474.74a.46.46,0,0,1-.23-.06l-1.54-.89a.23.23,0,0,1-.13-.19.23.23,0,0,1,.12-.2l1.57-.91a.53.53,0,0,1,.46,0l1.55.89a.23.23,0,0,1,.12.2.21.21,0,0,1-.12.19l-1.57.91A.44.44,0,0,1,295.44,474.74Zm-1.68-1.14h0l1.55.89a.28.28,0,0,0,.25,0l1.56-.91h0l-1.54-.89a.28.28,0,0,0-.25,0l-1.57.91Z" transform="translate(-2.73 -1.08)"/><path class="cls-21" d="M299.73,474.37c.1.06.1.15,0,.21l-1.56.91a.38.38,0,0,1-.36,0l-1.54-.89c-.1-.06-.1-.15,0-.21l1.56-.91a.38.38,0,0,1,.36,0Z" transform="translate(-2.73 -1.08)"/><path class="cls-33" d="M298,475.64a.44.44,0,0,1-.23-.06l-1.55-.89a.23.23,0,0,1-.12-.2.23.23,0,0,1,.12-.19l1.57-.91a.47.47,0,0,1,.46,0l1.54.89a.22.22,0,0,1,.13.2.23.23,0,0,1-.12.19l-1.57.91A.44.44,0,0,1,298,475.64Zm-1.69-1.15,0,0,1.54.89a.28.28,0,0,0,.25,0l1.57-.91h0l0,0-1.54-.89a.34.34,0,0,0-.26,0l-1.56.91Z" transform="translate(-2.73 -1.08)"/></g><path class="cls-21" d="M307.54,467.46c.1.05.1.14,0,.2l-1.56.91a.38.38,0,0,1-.36,0l-1.54-.89c-.1-.06-.1-.15,0-.21l1.56-.91a.45.45,0,0,1,.36,0Z" transform="translate(-2.73 -1.08)"/><path class="cls-33" d="M305.8,468.72a.46.46,0,0,1-.23-.06l-1.54-.89a.21.21,0,0,1-.13-.19.23.23,0,0,1,.12-.2l1.57-.91a.53.53,0,0,1,.46,0l1.55.89a.23.23,0,0,1,.12.2.21.21,0,0,1-.12.19l-1.57.91A.44.44,0,0,1,305.8,468.72Zm-1.69-1.14h0l1.55.89a.28.28,0,0,0,.25,0l1.56-.91h0l-1.54-.89a.28.28,0,0,0-.25,0l-1.57.91Z" transform="translate(-2.73 -1.08)"/><path class="cls-21" d="M315.28,467.71c.1.06.1.15,0,.21l-1.56.91a.38.38,0,0,1-.36,0l-1.54-.89c-.1-.06-.1-.15,0-.21l1.57-.91a.45.45,0,0,1,.36,0Z" transform="translate(-2.73 -1.08)"/><path class="cls-33" d="M313.54,469a.44.44,0,0,1-.23-.06l-1.55-.89a.22.22,0,0,1-.12-.19.23.23,0,0,1,.12-.2l1.57-.91a.53.53,0,0,1,.46,0l1.54.89a.24.24,0,0,1,.13.2.22.22,0,0,1-.13.19l-1.56.91A.46.46,0,0,1,313.54,469Zm-1.69-1.14h0l1.54.89a.28.28,0,0,0,.25,0l1.57-.91h0l-1.55-.89a.28.28,0,0,0-.25,0l-1.56.9Z" transform="translate(-2.73 -1.08)"/><path class="cls-21" d="M312.2,467.13a.12.12,0,0,1,0,.21l-1.57.91a.45.45,0,0,1-.36,0l-1.54-.9c-.1-.05-.1-.14,0-.2l1.57-.91a.36.36,0,0,1,.35,0Z" transform="translate(-2.73 -1.08)"/><path class="cls-33" d="M310.45,468.39a.46.46,0,0,1-.23-.05l-1.54-.89a.24.24,0,0,1-.13-.2.22.22,0,0,1,.13-.19l1.56-.91a.47.47,0,0,1,.46,0l1.55.89a.23.23,0,0,1,.13.19.24.24,0,0,1-.13.2l-1.57.91A.41.41,0,0,1,310.45,468.39Zm-1.68-1.14h0l1.55.89a.28.28,0,0,0,.25,0l1.56-.91h0l-1.54-.89a.28.28,0,0,0-.25,0l-1.57.91Z" transform="translate(-2.73 -1.08)"/><path class="cls-21" d="M308.61,464.5a.1.1,0,0,1,0,.2l-1.56.91a.38.38,0,0,1-.36,0l-1.54-.89a.1.1,0,0,1,0-.2l1.56-.91a.38.38,0,0,1,.36,0Z" transform="translate(-2.73 -1.08)"/><path class="cls-33" d="M306.87,465.76a.56.56,0,0,1-.23-.05l-1.55-.9a.21.21,0,0,1-.12-.19.23.23,0,0,1,.12-.2l1.57-.9a.47.47,0,0,1,.46,0l1.54.89a.2.2,0,0,1,.13.19.23.23,0,0,1-.12.2l-1.57.91A.59.59,0,0,1,306.87,465.76Zm-1.69-1.14h0l1.54.89a.28.28,0,0,0,.25,0l1.57-.91h0L307,463.7a.3.3,0,0,0-.26,0l-1.56.91Z" transform="translate(-2.73 -1.08)"/><path class="cls-21" d="M310.68,463.29c.1.06.1.15,0,.21l-1.56.91a.38.38,0,0,1-.36,0l-1.54-.89c-.1-.06-.1-.15,0-.21l1.56-.91a.45.45,0,0,1,.36,0Z" transform="translate(-2.73 -1.08)"/><path class="cls-33" d="M308.94,464.56a.46.46,0,0,1-.23-.06l-1.54-.89a.24.24,0,0,1-.13-.19.23.23,0,0,1,.12-.2l1.57-.91a.47.47,0,0,1,.46,0l1.55.89a.23.23,0,0,1,.12.2.22.22,0,0,1-.12.19l-1.57.91A.44.44,0,0,1,308.94,464.56Zm-1.69-1.14h0l1.55.89a.28.28,0,0,0,.25,0l1.56-.91h0l-1.54-.9a.36.36,0,0,0-.25,0l-1.57.91Z" transform="translate(-2.73 -1.08)"/><path class="cls-21" d="M311.69,465.05a.1.1,0,0,1,0,.2l-1.57.91a.36.36,0,0,1-.35,0l-1.55-.89a.1.1,0,0,1,0-.2l1.57-.91a.36.36,0,0,1,.35,0Z" transform="translate(-2.73 -1.08)"/><path class="cls-33" d="M309.94,466.31a.59.59,0,0,1-.23-.05l-1.54-.9a.22.22,0,0,1-.13-.19.24.24,0,0,1,.13-.2l1.56-.91a.55.55,0,0,1,.47,0l1.54.9a.22.22,0,0,1,.13.19.24.24,0,0,1-.13.2l-1.56.9A.48.48,0,0,1,309.94,466.31Zm-1.68-1.14h0l1.54.89a.28.28,0,0,0,.25,0l1.56-.91h0l-1.54-.89a.28.28,0,0,0-.25,0l-1.57.91Z" transform="translate(-2.73 -1.08)"/><path class="cls-21" d="M309.61,466.25c.1.06.1.15,0,.21l-1.57.91a.45.45,0,0,1-.36,0l-1.54-.89c-.1-.06-.1-.15,0-.21l1.56-.91a.38.38,0,0,1,.36,0Z" transform="translate(-2.73 -1.08)"/><path class="cls-33" d="M307.87,467.52a.46.46,0,0,1-.23-.06l-1.54-.89a.24.24,0,0,1-.13-.2.23.23,0,0,1,.13-.19l1.56-.91a.47.47,0,0,1,.46,0l1.55.89a.23.23,0,0,1,.12.19.23.23,0,0,1-.12.2l-1.57.91A.41.41,0,0,1,307.87,467.52Zm-1.68-1.15h0l1.55.9a.36.36,0,0,0,.25,0l1.56-.91h0l0,0-1.54-.89a.28.28,0,0,0-.25,0l-1.57.91Z" transform="translate(-2.73 -1.08)"/><g class="cls-36"><path class="cls-21" d="M310.12,468.34a.1.1,0,0,1,0,.2l-1.57.91a.36.36,0,0,1-.35,0l-1.55-.89c-.09-.06-.1-.15,0-.2l1.57-.91a.36.36,0,0,1,.35,0Z" transform="translate(-2.73 -1.08)"/><path class="cls-33" d="M308.38,469.6a.48.48,0,0,1-.24-.06l-1.54-.89a.22.22,0,0,1-.13-.19.24.24,0,0,1,.13-.2l1.56-.91a.55.55,0,0,1,.47,0l1.54.9a.2.2,0,0,1,0,.38l-1.56.91A.46.46,0,0,1,308.38,469.6Zm-1.69-1.14h0l1.54.89a.28.28,0,0,0,.25,0l1.57-.91h0l-1.55-.89a.28.28,0,0,0-.25,0l-1.56.91Z" transform="translate(-2.73 -1.08)"/><path class="cls-21" d="M313.2,468.92c.1.06.1.15,0,.21l-1.57.91a.45.45,0,0,1-.36,0l-1.54-.89c-.1-.06-.1-.15,0-.21l1.56-.91a.38.38,0,0,1,.36,0Z" transform="translate(-2.73 -1.08)"/><path class="cls-33" d="M311.46,470.19a.46.46,0,0,1-.23-.06l-1.54-.89a.24.24,0,0,1-.13-.2.23.23,0,0,1,.13-.19l1.56-.91a.47.47,0,0,1,.46,0l1.55.89a.23.23,0,0,1,.12.2.23.23,0,0,1-.12.19l-1.57.91A.41.41,0,0,1,311.46,470.19ZM309.78,469h0l1.55.9a.36.36,0,0,0,.25,0l1.56-.91h0l0,0-1.54-.89a.28.28,0,0,0-.25,0l-1.57.91Z" transform="translate(-2.73 -1.08)"/><path class="cls-21" d="M308,469.54c.1.06.1.15,0,.21l-1.56.91a.38.38,0,0,1-.36,0l-1.54-.89c-.1-.06-.1-.15,0-.21l1.56-.91a.45.45,0,0,1,.36,0Z" transform="translate(-2.73 -1.08)"/><path class="cls-33" d="M306.3,470.81a.44.44,0,0,1-.23-.06l-1.55-.89a.23.23,0,0,1-.12-.19.23.23,0,0,1,.12-.2l1.57-.91a.47.47,0,0,1,.46,0l1.54.89a.24.24,0,0,1,.13.2.22.22,0,0,1-.12.19l-1.57.91A.46.46,0,0,1,306.3,470.81Zm-1.69-1.14h0l1.54.89a.28.28,0,0,0,.25,0l1.57-.91h0l-1.55-.9a.36.36,0,0,0-.25,0l-1.56.91Z" transform="translate(-2.73 -1.08)"/><path class="cls-21" d="M311.13,470.13c.1.06.1.15,0,.2l-1.57.91a.36.36,0,0,1-.35,0l-1.55-.89a.1.1,0,0,1,0-.2l1.57-.91a.36.36,0,0,1,.35,0Z" transform="translate(-2.73 -1.08)"/><path class="cls-33" d="M309.39,471.39a.6.6,0,0,1-.24-.05l-1.54-.9a.22.22,0,0,1-.13-.19.24.24,0,0,1,.13-.2l1.56-.9a.49.49,0,0,1,.47,0l1.54.89a.22.22,0,0,1,.13.19.24.24,0,0,1-.13.2l-1.56.91A.59.59,0,0,1,309.39,471.39Zm-1.69-1.14h0l1.54.89a.28.28,0,0,0,.25,0l1.57-.91h0l-1.54-.89a.28.28,0,0,0-.25,0l-1.56.91Z" transform="translate(-2.73 -1.08)"/></g><g class="cls-36"><path class="cls-21" d="M298.71,467.89c.1.06.1.15,0,.21l-1.57.91a.36.36,0,0,1-.35,0l-.81-.47c-.1-.06-.1-.15,0-.21l1.57-.91a.45.45,0,0,1,.36,0Z" transform="translate(-2.73 -1.08)"/><path class="cls-33" d="M297,469.16a.48.48,0,0,1-.24-.06l-.81-.47a.22.22,0,0,1-.12-.19.23.23,0,0,1,.12-.2l1.57-.91a.53.53,0,0,1,.46,0l.81.47a.21.21,0,0,1,0,.39l-1.56.91A.46.46,0,0,1,297,469.16Zm-1-.72h0l.81.47a.28.28,0,0,0,.25,0l1.57-.91h0v0l-.82-.46a.28.28,0,0,0-.25,0l-1.56.91Z" transform="translate(-2.73 -1.08)"/><path class="cls-21" d="M302.4,468.11c.09.06.1.15,0,.21l-1.57.91a.45.45,0,0,1-.36,0l-1.54-.89c-.1-.06-.1-.15,0-.21l1.57-.91a.36.36,0,0,1,.35,0Z" transform="translate(-2.73 -1.08)"/><path class="cls-33" d="M300.65,469.38a.46.46,0,0,1-.23-.06l-1.54-.89a.24.24,0,0,1-.13-.2.22.22,0,0,1,.13-.19l1.56-.91a.49.49,0,0,1,.47,0l1.54.89a.21.21,0,0,1,0,.39l-1.56.91A.48.48,0,0,1,300.65,469.38ZM299,468.23h0l1.55.89a.28.28,0,0,0,.25,0l1.56-.9,0,0h0l-1.54-.89a.28.28,0,0,0-.25,0l-1.57.91Z" transform="translate(-2.73 -1.08)"/><path class="cls-21" d="M305.47,468.66c.1.06.1.15,0,.21l-1.56.91a.45.45,0,0,1-.36,0l-1.54-.9a.1.1,0,0,1,0-.2l1.56-.91a.38.38,0,0,1,.36,0Z" transform="translate(-2.73 -1.08)"/><path class="cls-33" d="M303.73,469.92a.43.43,0,0,1-.23-.05L302,469a.23.23,0,0,1-.12-.2.21.21,0,0,1,.12-.19l1.57-.91a.47.47,0,0,1,.46,0l1.54.89a.23.23,0,0,1,.13.19.23.23,0,0,1-.12.2l-1.57.91A.46.46,0,0,1,303.73,469.92ZM302,468.78h0l1.54.89a.28.28,0,0,0,.25,0l1.57-.91h0l-1.55-.89a.28.28,0,0,0-.25,0l-1.56.91Z" transform="translate(-2.73 -1.08)"/><path class="cls-21" d="M300.32,469.31c.1.06.1.15,0,.21l-1.57.91a.38.38,0,0,1-.36,0l-1.54-.89c-.1-.06-.1-.15,0-.21l1.56-.91a.45.45,0,0,1,.36,0Z" transform="translate(-2.73 -1.08)"/><path class="cls-33" d="M298.58,470.58a.46.46,0,0,1-.23-.06l-1.54-.89a.21.21,0,0,1,0-.39l1.56-.91a.47.47,0,0,1,.46,0l1.55.89a.23.23,0,0,1,.12.2.22.22,0,0,1-.12.19l-1.57.91A.44.44,0,0,1,298.58,470.58Zm-1.68-1.14h0l1.55.89a.28.28,0,0,0,.25,0l1.56-.91h0l-1.54-.9a.36.36,0,0,0-.25,0l-1.57.91Z" transform="translate(-2.73 -1.08)"/><path class="cls-21" d="M303.4,469.86c.1.06.1.15,0,.21l-1.56.91a.38.38,0,0,1-.36,0l-1.55-.89a.12.12,0,0,1,0-.21l1.57-.91a.45.45,0,0,1,.36,0Z" transform="translate(-2.73 -1.08)"/><path class="cls-33" d="M301.66,471.13a.41.41,0,0,1-.23-.06l-1.55-.89a.21.21,0,0,1,0-.39l1.57-.91a.47.47,0,0,1,.46,0l1.54.89a.21.21,0,0,1,0,.39l-1.56.91A.46.46,0,0,1,301.66,471.13ZM300,470l0,0,1.54.89a.28.28,0,0,0,.25,0l1.57-.91h0l-1.55-.9a.36.36,0,0,0-.25,0L300,470Z" transform="translate(-2.73 -1.08)"/><path class="cls-21" d="M306,470.75c.1.06.1.15,0,.21l-1.56.91a.45.45,0,0,1-.36,0L302.5,471c-.1-.06-.1-.15,0-.21l1.56-.91a.38.38,0,0,1,.36,0Z" transform="translate(-2.73 -1.08)"/><path class="cls-33" d="M304.22,472A.46.46,0,0,1,304,472l-1.54-.89a.24.24,0,0,1-.13-.2.21.21,0,0,1,.13-.19l1.56-.91a.47.47,0,0,1,.46,0l1.55.89a.23.23,0,0,1,.12.19.23.23,0,0,1-.12.2l-1.57.91A.44.44,0,0,1,304.22,472Zm-1.68-1.15h0l1.55.9a.36.36,0,0,0,.25,0l1.56-.91,0,0h0l-1.54-.89a.28.28,0,0,0-.25,0l-1.57.91Z" transform="translate(-2.73 -1.08)"/></g><path class="cls-21" d="M300.86,466.64c.1.06.1.15,0,.21l-1.57.91a.45.45,0,0,1-.36,0l-.81-.47c-.1-.06-.1-.15,0-.21l1.57-.91a.36.36,0,0,1,.35,0Z" transform="translate(-2.73 -1.08)"/><path class="cls-33" d="M299.12,467.91a.46.46,0,0,1-.23-.06l-.81-.47a.21.21,0,0,1,0-.39l1.56-.91a.49.49,0,0,1,.47,0l.81.47a.23.23,0,0,1,.12.19.23.23,0,0,1-.12.2l-1.57.91A.41.41,0,0,1,299.12,467.91Zm-.95-.73,0,0,.81.46a.31.31,0,0,0,.25,0l1.56-.91,0,0h0l-.81-.47a.36.36,0,0,0-.25,0l-1.57.91Z" transform="translate(-2.73 -1.08)"/><path class="cls-21" d="M314.27,465.92c.1.06.1.15,0,.21l-1.56.91a.38.38,0,0,1-.36,0l-1.54-.89c-.1-.06-.1-.15,0-.21l1.56-.91a.38.38,0,0,1,.36,0Z" transform="translate(-2.73 -1.08)"/><path class="cls-33" d="M312.53,467.19a.46.46,0,0,1-.23-.06l-1.54-.89a.22.22,0,0,1-.13-.2.23.23,0,0,1,.12-.19l1.57-.91a.47.47,0,0,1,.46,0l1.55.89a.23.23,0,0,1,.12.2.23.23,0,0,1-.12.19l-1.57.91A.44.44,0,0,1,312.53,467.19ZM310.84,466l0,0,1.54.89a.34.34,0,0,0,.26,0l1.56-.91h0l0,0-1.54-.89a.28.28,0,0,0-.25,0l-1.57.91Z" transform="translate(-2.73 -1.08)"/><path class="cls-21" d="M326.38,463.92c.1.06.1.15,0,.21l-1.56.91a.45.45,0,0,1-.36,0l-.76-.44c-.1-.06-.1-.15,0-.21l1.57-.91a.43.43,0,0,1,.35,0Z" transform="translate(-2.73 -1.08)"/><path class="cls-33" d="M324.64,465.18a.43.43,0,0,1-.23-.05l-.76-.44a.21.21,0,0,1,0-.39l1.56-.91a.49.49,0,0,1,.47,0l.75.44a.23.23,0,0,1,.13.19.24.24,0,0,1-.13.2l-1.56.91A.46.46,0,0,1,324.64,465.18Zm-.9-.68h0l.75.43a.28.28,0,0,0,.25,0l1.57-.91h0l-.76-.44a.36.36,0,0,0-.25,0l-1.56.91Z" transform="translate(-2.73 -1.08)"/><g class="cls-36"><path class="cls-21" d="M320,460.23c.1.06.1.15,0,.21l-1.56.91a.45.45,0,0,1-.36,0l-1.54-.89c-.1-.06-.1-.15,0-.21l1.56-.91a.38.38,0,0,1,.36,0Z" transform="translate(-2.73 -1.08)"/><path class="cls-33" d="M318.23,461.5a.46.46,0,0,1-.23-.06l-1.54-.89a.24.24,0,0,1-.13-.2.23.23,0,0,1,.13-.19l1.56-.91a.47.47,0,0,1,.46,0l1.55.89a.23.23,0,0,1,.12.19.23.23,0,0,1-.12.2l-1.57.91A.44.44,0,0,1,318.23,461.5Zm-1.68-1.15h0l1.55.9a.36.36,0,0,0,.25,0l1.56-.91,0,0h0l-1.54-.89a.28.28,0,0,0-.25,0l-1.57.91Z" transform="translate(-2.73 -1.08)"/><path class="cls-21" d="M311.64,460.38c.1.05.1.14,0,.2l-1.57.91a.38.38,0,0,1-.36,0l-.81-.47a.1.1,0,0,1,0-.2l1.57-.91a.36.36,0,0,1,.35,0Z" transform="translate(-2.73 -1.08)"/><path class="cls-33" d="M309.9,461.64a.46.46,0,0,1-.23-.06l-.81-.47a.22.22,0,0,1-.13-.19.24.24,0,0,1,.13-.2l1.56-.9a.49.49,0,0,1,.47,0l.81.46a.24.24,0,0,1,.13.2.22.22,0,0,1-.13.19l-1.57.91A.41.41,0,0,1,309.9,461.64Zm-.95-.72h0l.81.47a.28.28,0,0,0,.25,0l1.56-.91h0l-.81-.47a.28.28,0,0,0-.25,0l-1.57.91Z" transform="translate(-2.73 -1.08)"/><path class="cls-21" d="M314.83,460.89a.1.1,0,0,1,0,.2l-1.57.91a.36.36,0,0,1-.35,0l-1.55-.89c-.1-.06-.1-.15,0-.21l1.57-.91a.43.43,0,0,1,.35,0Z" transform="translate(-2.73 -1.08)"/><path class="cls-33" d="M313.08,462.15a.46.46,0,0,1-.23-.06l-1.54-.89a.23.23,0,0,1-.13-.19.24.24,0,0,1,.13-.2l1.56-.91a.55.55,0,0,1,.47,0l1.54.89a.24.24,0,0,1,.13.2.22.22,0,0,1-.13.19l-1.56.91A.48.48,0,0,1,313.08,462.15ZM311.4,461h0l1.54.89a.28.28,0,0,0,.25,0l1.57-.91h0l-1.54-.89a.28.28,0,0,0-.25,0l-1.57.91Z" transform="translate(-2.73 -1.08)"/><path class="cls-21" d="M317.9,461.44c.1.05.1.14,0,.2l-1.56.91a.38.38,0,0,1-.36,0l-1.54-.89c-.1-.06-.1-.15,0-.21l1.56-.91a.45.45,0,0,1,.36,0Z" transform="translate(-2.73 -1.08)"/><path class="cls-33" d="M316.16,462.7a.44.44,0,0,1-.23-.06l-1.55-.89a.22.22,0,0,1-.12-.19.23.23,0,0,1,.12-.2l1.57-.91a.53.53,0,0,1,.46,0l1.55.89a.23.23,0,0,1,.12.2.21.21,0,0,1-.12.19l-1.57.91A.44.44,0,0,1,316.16,462.7Zm-1.69-1.14h0l1.54.89a.28.28,0,0,0,.25,0l1.57-.91h0l-1.54-.89a.3.3,0,0,0-.26,0l-1.56.9Z" transform="translate(-2.73 -1.08)"/><path class="cls-21" d="M309.49,461.63c.1.06.1.15,0,.21l-1.57.9a.36.36,0,0,1-.35,0l-.81-.46c-.1-.06-.1-.15,0-.21l1.56-.91a.38.38,0,0,1,.36,0Z" transform="translate(-2.73 -1.08)"/><path class="cls-33" d="M307.75,462.89a.52.52,0,0,1-.23-.05l-.82-.47a.23.23,0,0,1-.12-.2.22.22,0,0,1,.12-.19l1.57-.91a.47.47,0,0,1,.46,0l.81.47a.22.22,0,0,1,.13.19.24.24,0,0,1-.13.2l-1.56.91A.59.59,0,0,1,307.75,462.89Zm-1-.72h0l.81.47a.28.28,0,0,0,.25,0l1.57-.91h0l-.82-.47a.28.28,0,0,0-.25,0l-1.56.91Z" transform="translate(-2.73 -1.08)"/><path class="cls-21" d="M312.75,462.09c.1.06.1.15,0,.21l-1.57.91a.45.45,0,0,1-.36,0l-1.54-.9c-.1-.05-.1-.14,0-.2l1.56-.91a.38.38,0,0,1,.36,0Z" transform="translate(-2.73 -1.08)"/><path class="cls-33" d="M311,463.35a.46.46,0,0,1-.23-.05l-1.54-.89a.24.24,0,0,1-.13-.2.22.22,0,0,1,.13-.19l1.56-.91a.47.47,0,0,1,.46,0l1.55.89a.23.23,0,0,1,.13.19.24.24,0,0,1-.13.2l-1.57.91A.41.41,0,0,1,311,463.35Zm-1.68-1.14h0l1.55.89a.28.28,0,0,0,.25,0l1.56-.9,0,0h0l-1.54-.89a.28.28,0,0,0-.25,0l-1.57.91Z" transform="translate(-2.73 -1.08)"/><path class="cls-21" d="M322,461.42c.1.06.1.15,0,.21l-3.11,1.8a.38.38,0,0,1-.36,0l-1.54-.89c-.1-.06-.1-.15,0-.2l3.11-1.81a.36.36,0,0,1,.35,0Z" transform="translate(-2.73 -1.08)"/><path class="cls-33" d="M318.7,463.58a.46.46,0,0,1-.23-.06l-1.54-.89a.22.22,0,0,1-.13-.19.24.24,0,0,1,.13-.2l3.1-1.8a.49.49,0,0,1,.47,0l1.54.89a.21.21,0,0,1,0,.39l-3.11,1.8A.41.41,0,0,1,318.7,463.58ZM317,462.44h0l1.55.89a.28.28,0,0,0,.25,0l3.1-1.8,0,0h0l-1.54-.89a.28.28,0,0,0-.25,0L317,462.43Z" transform="translate(-2.73 -1.08)"/><path class="cls-21" d="M315.83,462.64c.1.06.1.15,0,.21l-1.56.91a.45.45,0,0,1-.36,0l-1.54-.9a.11.11,0,0,1,0-.2l1.57-.91a.38.38,0,0,1,.36,0Z" transform="translate(-2.73 -1.08)"/><path class="cls-33" d="M314.09,463.9a.43.43,0,0,1-.23,0l-1.55-.89a.23.23,0,0,1-.12-.2.21.21,0,0,1,.12-.19l1.57-.91a.47.47,0,0,1,.46,0l1.54.89a.23.23,0,0,1,.13.19.24.24,0,0,1-.13.2l-1.56.91A.46.46,0,0,1,314.09,463.9Zm-1.69-1.14h0l1.54.89a.28.28,0,0,0,.25,0l1.57-.91h0l-1.55-.89a.28.28,0,0,0-.25,0l-1.56.91Z" transform="translate(-2.73 -1.08)"/><path class="cls-21" d="M307.33,462.88c.1.06.1.15,0,.21l-1.56.91a.45.45,0,0,1-.36,0l-.81-.47c-.1-.06-.1-.15,0-.21l1.56-.91a.45.45,0,0,1,.36,0Z" transform="translate(-2.73 -1.08)"/><path class="cls-33" d="M305.59,464.15a.46.46,0,0,1-.23-.06l-.81-.47a.21.21,0,0,1,0-.39l1.56-.91a.47.47,0,0,1,.46,0l.82.47a.23.23,0,0,1,.12.19.23.23,0,0,1-.12.2l-1.57.91A.44.44,0,0,1,305.59,464.15Zm-.95-.72h0l.81.47a.39.39,0,0,0,.26,0l1.56-.91h0l0,0-.81-.47a.36.36,0,0,0-.25,0l-1.57.91Z" transform="translate(-2.73 -1.08)"/><path class="cls-21" d="M318.43,463.51c.1.06.1.15,0,.2l-1.57.91a.36.36,0,0,1-.35,0l-1.55-.89a.1.1,0,0,1,0-.2l1.57-.91a.36.36,0,0,1,.35,0Z" transform="translate(-2.73 -1.08)"/><path class="cls-33" d="M316.69,464.77a.6.6,0,0,1-.24,0l-1.54-.9a.22.22,0,0,1-.13-.19.24.24,0,0,1,.13-.2l1.56-.9a.49.49,0,0,1,.47,0l1.54.89a.22.22,0,0,1,.13.19.24.24,0,0,1-.13.2l-1.56.91A.59.59,0,0,1,316.69,464.77ZM315,463.63h0l1.54.89a.28.28,0,0,0,.25,0l1.57-.91h0l-1.54-.89a.28.28,0,0,0-.25,0l-1.56.91Z" transform="translate(-2.73 -1.08)"/><path class="cls-21" d="M324,462.57c.1.06.1.15,0,.21l-4.16,2.42a.38.38,0,0,1-.36,0l-1.54-.89c-.1-.06-.1-.15,0-.21l4.16-2.42a.45.45,0,0,1,.36,0Z" transform="translate(-2.73 -1.08)"/><path class="cls-33" d="M319.69,465.35a.46.46,0,0,1-.23-.06l-1.54-.89a.21.21,0,0,1,0-.39l4.16-2.42a.47.47,0,0,1,.46,0l1.54.89a.22.22,0,0,1,.13.2.22.22,0,0,1-.12.19l-4.17,2.42A.41.41,0,0,1,319.69,465.35ZM318,464.2v0l1.55.89a.28.28,0,0,0,.25,0l4.16-2.42h0l-1.54-.9a.39.39,0,0,0-.26,0L318,464.19Z" transform="translate(-2.73 -1.08)"/><path class="cls-21" d="M316.35,464.72c.1,0,.1.14,0,.2l-1.56.91a.38.38,0,0,1-.36,0l-1.54-.89c-.1-.06-.1-.15,0-.21l1.57-.91a.45.45,0,0,1,.36,0Z" transform="translate(-2.73 -1.08)"/><path class="cls-33" d="M314.61,466a.44.44,0,0,1-.23-.06l-1.55-.89a.22.22,0,0,1-.12-.19.23.23,0,0,1,.12-.2l1.57-.91a.53.53,0,0,1,.46,0l1.54.89a.24.24,0,0,1,.13.2.22.22,0,0,1-.13.19l-1.56.91A.46.46,0,0,1,314.61,466Zm-1.69-1.14h0l1.54.89a.28.28,0,0,0,.25,0l1.57-.91h0l-1.55-.89a.28.28,0,0,0-.25,0l-1.56.9Z" transform="translate(-2.73 -1.08)"/><path class="cls-21" d="M319.43,465.3c.1.06.1.15,0,.21l-1.56.91a.38.38,0,0,1-.36,0l-1.54-.89c-.1-.06-.1-.15,0-.21l1.56-.91a.38.38,0,0,1,.36,0Z" transform="translate(-2.73 -1.08)"/><path class="cls-33" d="M317.69,466.57a.46.46,0,0,1-.23-.06l-1.54-.89a.22.22,0,0,1-.13-.2.23.23,0,0,1,.12-.19l1.57-.91a.47.47,0,0,1,.46,0l1.55.89a.23.23,0,0,1,.12.2.23.23,0,0,1-.12.19l-1.57.91A.44.44,0,0,1,317.69,466.57ZM316,465.42l0,0,1.54.89a.39.39,0,0,0,.26,0l1.56-.91h0l0,0-1.54-.89a.28.28,0,0,0-.25,0l-1.57.91Z" transform="translate(-2.73 -1.08)"/></g><g class="cls-36"><path class="cls-21" d="M305.18,464.13c.1.06.1.15,0,.21l-1.57.91a.36.36,0,0,1-.35,0l-.82-.47a.11.11,0,0,1,0-.2l1.57-.91a.38.38,0,0,1,.36,0Z" transform="translate(-2.73 -1.08)"/><path class="cls-33" d="M303.43,465.4a.46.46,0,0,1-.23-.06l-.81-.47a.22.22,0,0,1-.13-.19.24.24,0,0,1,.13-.2l1.57-.91a.53.53,0,0,1,.46,0l.81.47a.24.24,0,0,1,.13.2.22.22,0,0,1-.13.19l-1.56.91A.48.48,0,0,1,303.43,465.4Zm-.95-.72h0l.81.47a.28.28,0,0,0,.25,0l1.56-.91h0l-.81-.47a.28.28,0,0,0-.25,0l-1.56.91Z" transform="translate(-2.73 -1.08)"/><path class="cls-21" d="M303,465.39a.1.1,0,0,1,0,.2l-1.56.91a.38.38,0,0,1-.36,0l-.81-.47c-.1,0-.1-.14,0-.2l1.56-.91a.38.38,0,0,1,.36,0Z" transform="translate(-2.73 -1.08)"/><path class="cls-33" d="M301.28,466.65a.56.56,0,0,1-.23,0l-.81-.47a.22.22,0,0,1-.13-.2.21.21,0,0,1,.12-.19l1.57-.91a.47.47,0,0,1,.46,0l.81.47a.22.22,0,0,1,.13.19.22.22,0,0,1-.13.2l-1.56.9A.46.46,0,0,1,301.28,466.65Zm-1-.72h0l.81.47a.28.28,0,0,0,.25,0l1.57-.91h0l-.81-.47a.28.28,0,0,0-.25,0l-1.57.91Z" transform="translate(-2.73 -1.08)"/><path class="cls-21" d="M306.54,465.7c.1.06.1.15,0,.21l-1.56.91a.38.38,0,0,1-.36,0l-1.54-.89c-.1-.06-.1-.15,0-.21l1.57-.91a.38.38,0,0,1,.36,0Z" transform="translate(-2.73 -1.08)"/><path class="cls-33" d="M304.8,467a.41.41,0,0,1-.23-.06L303,466a.23.23,0,0,1-.12-.2.21.21,0,0,1,.12-.19l1.57-.91a.47.47,0,0,1,.46,0l1.54.89a.21.21,0,0,1,0,.39l-1.56.91A.46.46,0,0,1,304.8,467Zm-1.69-1.15,0,0,1.54.89a.36.36,0,0,0,.25,0l1.57-.91h0v0l-1.55-.89a.28.28,0,0,0-.25,0l-1.56.91Z" transform="translate(-2.73 -1.08)"/></g><path class="cls-21" d="M304.47,466.91a.1.1,0,0,1,0,.2l-1.57.91a.36.36,0,0,1-.35,0l-1.55-.89c-.1-.06-.1-.15,0-.21l1.57-.91a.43.43,0,0,1,.35,0Z" transform="translate(-2.73 -1.08)"/><path class="cls-33" d="M302.73,468.17a.48.48,0,0,1-.24-.06l-1.54-.89a.23.23,0,0,1-.13-.19.24.24,0,0,1,.13-.2l1.56-.91a.55.55,0,0,1,.47,0l1.54.89a.24.24,0,0,1,.13.2.22.22,0,0,1-.13.19l-1.56.91A.46.46,0,0,1,302.73,468.17ZM301,467h0l1.54.89a.28.28,0,0,0,.25,0l1.57-.91h0l-1.54-.89a.28.28,0,0,0-.25,0l-1.56.91Z" transform="translate(-2.73 -1.08)"/><path class="cls-21" d="M313.8,459.12c.1.06.1.15,0,.21l-1.56.91a.38.38,0,0,1-.36,0l-.81-.47c-.1-.06-.1-.15,0-.21l1.56-.91a.45.45,0,0,1,.36,0Z" transform="translate(-2.73 -1.08)"/><path class="cls-33" d="M312.06,460.39a.44.44,0,0,1-.23-.06l-.81-.47a.22.22,0,0,1-.13-.19.23.23,0,0,1,.12-.2l1.57-.91a.53.53,0,0,1,.46,0l.81.47a.24.24,0,0,1,.13.2.23.23,0,0,1-.12.19l-1.57.91A.46.46,0,0,1,312.06,460.39Zm-1-.72h0l.81.47a.36.36,0,0,0,.25,0l1.57-.91h0l0,0-.81-.46a.28.28,0,0,0-.25,0l-1.57.9Z" transform="translate(-2.73 -1.08)"/><path class="cls-21" d="M316,457.87c.1.06.1.15,0,.21l-1.57.91a.43.43,0,0,1-.35,0l-.82-.47a.12.12,0,0,1,0-.21l1.57-.91a.38.38,0,0,1,.36,0Z" transform="translate(-2.73 -1.08)"/><path class="cls-33" d="M314.21,459.13a.46.46,0,0,1-.23-.05l-.81-.47a.21.21,0,0,1,0-.39l1.57-.91a.47.47,0,0,1,.46,0l.81.47a.23.23,0,0,1,.13.19.24.24,0,0,1-.13.2l-1.56.91A.47.47,0,0,1,314.21,459.13Zm-.95-.72,0,0,.81.46a.28.28,0,0,0,.25,0l1.57-.91h0l-.81-.47a.28.28,0,0,0-.25,0l-1.56.91Z" transform="translate(-2.73 -1.08)"/><path class="cls-21" d="M318,459.07a.1.1,0,0,1,0,.2l-2.59,1.51a.43.43,0,0,1-.35,0l-1.55-.9a.1.1,0,0,1,0-.2l2.59-1.5a.36.36,0,0,1,.35,0Z" transform="translate(-2.73 -1.08)"/><path class="cls-33" d="M315.2,460.92a.47.47,0,0,1-.24-.05l-1.54-.89a.24.24,0,0,1-.13-.2.22.22,0,0,1,.13-.19l2.58-1.51a.55.55,0,0,1,.47,0l1.54.9a.22.22,0,0,1,.13.19.24.24,0,0,1-.13.2l-2.58,1.5A.46.46,0,0,1,315.2,460.92Zm-1.69-1.14h0l1.54.89a.28.28,0,0,0,.25,0l2.59-1.5h0l-1.54-.89a.28.28,0,0,0-.25,0l-2.58,1.5Z" transform="translate(-2.73 -1.08)"/><path class="cls-21" d="M313.76,463.84c.1.06.1.15,0,.21l-1.57.91a.36.36,0,0,1-.35,0l-1.55-.89c-.09-.06-.1-.15,0-.21l1.57-.91a.36.36,0,0,1,.35,0Z" transform="translate(-2.73 -1.08)"/><path class="cls-33" d="M312,465.11a.48.48,0,0,1-.24-.06l-1.54-.89a.21.21,0,0,1,0-.39l1.56-.91a.49.49,0,0,1,.47,0l1.54.89a.21.21,0,0,1,0,.39l-1.56.91A.46.46,0,0,1,312,465.11ZM310.33,464l0,0,1.54.89a.28.28,0,0,0,.25,0l1.57-.91h0v0l-1.55-.89a.36.36,0,0,0-.25,0l-1.56.91Z" transform="translate(-2.73 -1.08)"/><path class="cls-21" d="M300.75,476.16c.1.06.1.15,0,.21l-1.57.91a.43.43,0,0,1-.35,0l-1.55-.89c-.1-.06-.1-.15,0-.21l1.57-.91a.36.36,0,0,1,.35,0Z" transform="translate(-2.73 -1.08)"/><path class="cls-33" d="M299,477.43a.46.46,0,0,1-.23-.06l-1.54-.89a.24.24,0,0,1-.13-.2.23.23,0,0,1,.13-.19l1.56-.91a.49.49,0,0,1,.47,0l1.54.89a.21.21,0,0,1,0,.39l-1.56.91A.48.48,0,0,1,299,477.43Zm-1.68-1.15h0l1.54.9a.36.36,0,0,0,.25,0l1.56-.91,0,0h0l-1.54-.89a.28.28,0,0,0-.25,0l-1.57.91Z" transform="translate(-2.73 -1.08)"/><path class="cls-21" d="M298.39,480.18c.1.06.1.15,0,.21l-1.56.91a.38.38,0,0,1-.36,0l-1.83-1.06a.1.1,0,0,1,0-.2l1.56-.91a.38.38,0,0,1,.36,0Z" transform="translate(-2.73 -1.08)"/><path class="cls-33" d="M296.65,481.45a.44.44,0,0,1-.23-.06l-1.83-1.05a.24.24,0,0,1-.13-.2.2.2,0,0,1,.13-.19l1.56-.91a.47.47,0,0,1,.46,0l1.83,1a.24.24,0,0,1,.13.2.22.22,0,0,1-.13.19l-1.56.91A.46.46,0,0,1,296.65,481.45Zm-2-1.31h0l1.83,1.06a.28.28,0,0,0,.25,0l1.57-.91h0l-1.83-1.06a.28.28,0,0,0-.25,0l-1.57.91Z" transform="translate(-2.73 -1.08)"/><path class="cls-21" d="M305.1,476.28c.1.06.1.15,0,.21l-2,1.17a.38.38,0,0,1-.36,0l-1.83-1.05c-.1-.06-.1-.15,0-.21l2-1.17a.38.38,0,0,1,.36,0Z" transform="translate(-2.73 -1.08)"/><path class="cls-33" d="M302.91,477.81a.44.44,0,0,1-.23-.06l-1.83-1.05a.24.24,0,0,1-.13-.2.23.23,0,0,1,.13-.19l2-1.18a.53.53,0,0,1,.46,0l1.83,1.06a.21.21,0,0,1,0,.39l-2,1.17A.46.46,0,0,1,302.91,477.81Zm-2-1.31h0l1.83,1.06a.28.28,0,0,0,.25,0l2-1.17h0l0,0-1.83-1.05a.28.28,0,0,0-.25,0l-2,1.17Z" transform="translate(-2.73 -1.08)"/><path class="cls-21" d="M302.56,477.76c.1.06.1.15,0,.21l-1.56.91a.45.45,0,0,1-.36,0l-1.83-1.06c-.1-.06-.1-.15,0-.21l1.57-.91a.43.43,0,0,1,.35,0Z" transform="translate(-2.73 -1.08)"/><path class="cls-33" d="M300.82,479a.46.46,0,0,1-.23,0l-1.83-1.06a.21.21,0,0,1,0-.39l1.56-.91a.52.52,0,0,1,.47,0l1.83,1.06a.22.22,0,0,1,.12.19.23.23,0,0,1-.12.2l-1.57.91A.43.43,0,0,1,300.82,479Zm-2-1.3h0l1.83,1a.28.28,0,0,0,.25,0l1.56-.91h0l-1.83-1.06a.36.36,0,0,0-.25,0l-1.56.91Z" transform="translate(-2.73 -1.08)"/><path class="cls-21" d="M298.68,477.36c.1.06.1.15,0,.21L294.52,480a.43.43,0,0,1-.35,0l-1.55-.9a.1.1,0,0,1,0-.2l4.16-2.42a.38.38,0,0,1,.36,0Z" transform="translate(-2.73 -1.08)"/><path class="cls-33" d="M294.35,480.13a.6.6,0,0,1-.24-.05l-1.54-.89a.24.24,0,0,1-.13-.2.22.22,0,0,1,.13-.19l4.16-2.42a.47.47,0,0,1,.46,0l1.55.89a.22.22,0,0,1,.12.19.23.23,0,0,1-.12.2l-4.16,2.42A.59.59,0,0,1,294.35,480.13ZM292.66,479h0l1.54.89a.28.28,0,0,0,.25,0l4.16-2.41,0,0h0l-1.54-.89a.28.28,0,0,0-.25,0L292.67,479Z" transform="translate(-2.73 -1.08)"/><path class="cls-21" d="M300.48,479c.1.06.1.15,0,.21l-1.57.91a.36.36,0,0,1-.35,0L296.73,479c-.1-.06-.1-.15,0-.2l1.56-.91a.38.38,0,0,1,.36,0Z" transform="translate(-2.73 -1.08)"/><path class="cls-33" d="M298.73,480.24a.46.46,0,0,1-.23-.06l-1.83-1.06a.21.21,0,0,1-.12-.19.23.23,0,0,1,.12-.2l1.57-.91a.53.53,0,0,1,.46,0l1.83,1.06a.21.21,0,0,1,0,.39l-1.56.91A.48.48,0,0,1,298.73,480.24Zm-2-1.31h0l1.83,1.06a.36.36,0,0,0,.25,0l1.57-.91h0l0,0L298.59,478a.28.28,0,0,0-.25,0l-1.56.91Z" transform="translate(-2.73 -1.08)"/><path class="cls-21" d="M324.31,465.12c.1.06.1.15,0,.21l-1.57.91a.36.36,0,0,1-.35,0l-1.83-1.06a.1.1,0,0,1,0-.2l1.56-.91a.38.38,0,0,1,.36,0Z" transform="translate(-2.73 -1.08)"/><path class="cls-33" d="M322.57,466.39a.41.41,0,0,1-.23-.06l-1.83-1.06a.2.2,0,0,1-.13-.19.23.23,0,0,1,.12-.2l1.57-.91a.53.53,0,0,1,.46,0l1.83,1.06a.21.21,0,0,1,0,.39l-1.56.91A.46.46,0,0,1,322.57,466.39Zm-2-1.31h0l1.83,1.06a.28.28,0,0,0,.25,0l1.57-.91h0v0l-1.83-1a.28.28,0,0,0-.25,0l-1.57.91Z" transform="translate(-2.73 -1.08)"/><path class="cls-21" d="M322.25,466.32c.09.06.1.15,0,.21l-1.57.91a.43.43,0,0,1-.35,0l-.76-.44c-.1-.06-.1-.15,0-.21l1.56-.9a.38.38,0,0,1,.36,0Z" transform="translate(-2.73 -1.08)"/><path class="cls-33" d="M320.5,467.59a.46.46,0,0,1-.23-.06l-.75-.44a.22.22,0,0,1-.13-.19.23.23,0,0,1,.12-.2l1.57-.91a.53.53,0,0,1,.46,0l.76.44a.21.21,0,0,1,0,.39l-1.56.91A.48.48,0,0,1,320.5,467.59Zm-.89-.69h0l.76.44a.36.36,0,0,0,.25,0l1.56-.91h0l0,0-.75-.43a.28.28,0,0,0-.25,0l-1.57.91Z" transform="translate(-2.73 -1.08)"/><path class="cls-21" d="M317.36,466.51c.1.06.1.15,0,.21l-1.57.9a.36.36,0,0,1-.35,0l-1.55-.89a.1.1,0,0,1,0-.2l1.57-.91a.36.36,0,0,1,.35,0Z" transform="translate(-2.73 -1.08)"/><path class="cls-33" d="M315.61,467.77a.59.59,0,0,1-.23,0l-1.54-.89a.24.24,0,0,1-.13-.2.22.22,0,0,1,.13-.19l1.56-.91a.49.49,0,0,1,.47,0l1.54.89a.22.22,0,0,1,.13.19.24.24,0,0,1-.13.2l-1.56.91A.6.6,0,0,1,315.61,467.77Zm-1.68-1.14h0l1.54.89a.28.28,0,0,0,.25,0l1.56-.91h0l-1.54-.89a.28.28,0,0,0-.25,0l-1.57.91Z" transform="translate(-2.73 -1.08)"/><path class="cls-21" d="M318,468.77c.1.06.1.15,0,.21l-2,1.17a.38.38,0,0,1-.36,0l-1.83-1c-.1-.06-.1-.15,0-.21l2-1.17a.38.38,0,0,1,.36,0Z" transform="translate(-2.73 -1.08)"/><path class="cls-33" d="M315.83,470.3a.46.46,0,0,1-.23-.06l-1.83-1.05a.24.24,0,0,1-.13-.2.23.23,0,0,1,.13-.19l2-1.18a.53.53,0,0,1,.46,0l1.83,1.06a.21.21,0,0,1,0,.39l-2,1.17A.44.44,0,0,1,315.83,470.3Zm-2-1.31h0l1.83,1.06a.28.28,0,0,0,.25,0l2-1.17h0v0l-1.83-1.05a.28.28,0,0,0-.25,0l-2,1.17Z" transform="translate(-2.73 -1.08)"/><path class="cls-21" d="M320.18,467.52c.1.06.1.15,0,.21l-1.56.91a.45.45,0,0,1-.36,0l-1.83-1.06c-.1-.06-.1-.15,0-.21l1.57-.91a.43.43,0,0,1,.35,0Z" transform="translate(-2.73 -1.08)"/><path class="cls-33" d="M318.44,468.79a.46.46,0,0,1-.23-.06l-1.83-1.06a.23.23,0,0,1-.13-.19.24.24,0,0,1,.13-.2l1.56-.91a.55.55,0,0,1,.47,0l1.83,1.06a.23.23,0,0,1,.12.19.23.23,0,0,1-.12.2l-1.57.91A.44.44,0,0,1,318.44,468.79Zm-2-1.31h0l1.83,1.05a.31.31,0,0,0,.25,0l1.56-.91,0,0h0l-1.83-1.05a.28.28,0,0,0-.25,0l-1.57.9Z" transform="translate(-2.73 -1.08)"/><path class="cls-21" d="M309.05,471.33c.1.06.1.15,0,.21l-1.56.91a.38.38,0,0,1-.36,0l-1.54-.89c-.1-.06-.1-.15,0-.21l1.56-.91a.45.45,0,0,1,.36,0Z" transform="translate(-2.73 -1.08)"/><path class="cls-33" d="M307.31,472.6a.44.44,0,0,1-.23-.06l-1.55-.89a.23.23,0,0,1-.12-.19.23.23,0,0,1,.12-.2l1.57-.91a.53.53,0,0,1,.46,0l1.54.89a.22.22,0,0,1,.13.2.21.21,0,0,1-.12.19l-1.57.91A.44.44,0,0,1,307.31,472.6Zm-1.69-1.14h0l1.54.89a.28.28,0,0,0,.25,0l1.57-.91h0l-1.54-.89a.3.3,0,0,0-.26,0l-1.56.9Z" transform="translate(-2.73 -1.08)"/><path class="cls-21" d="M315.47,470.26c.1.06.1.15,0,.21l-9.81,5.7a.38.38,0,0,1-.36,0l-1.83-1.06a.1.1,0,0,1,0-.2l9.81-5.71a.45.45,0,0,1,.36,0Z" transform="translate(-2.73 -1.08)"/><path class="cls-33" d="M305.48,476.32a.41.41,0,0,1-.23-.06l-1.83-1.05a.24.24,0,0,1-.13-.2.21.21,0,0,1,.12-.19l9.82-5.71a.53.53,0,0,1,.46,0l1.83,1.06a.21.21,0,0,1,0,.39l-9.81,5.7A.46.46,0,0,1,305.48,476.32Zm-2-1.31h0l1.83,1.06a.28.28,0,0,0,.25,0l9.82-5.7v0h0l-1.82-1.05a.3.3,0,0,0-.26,0l-9.81,5.7Z" transform="translate(-2.73 -1.08)"/><path class="cls-21" d="M302.82,475c.1.06.1.15,0,.21l-1.56.91a.38.38,0,0,1-.36,0l-1.54-.89c-.1-.06-.1-.15,0-.21l1.56-.91a.45.45,0,0,1,.36,0Z" transform="translate(-2.73 -1.08)"/><path class="cls-33" d="M301.08,476.22a.46.46,0,0,1-.23-.06l-1.54-.89a.22.22,0,0,1-.13-.19.23.23,0,0,1,.12-.2l1.57-.91a.53.53,0,0,1,.46,0l1.55.89a.23.23,0,0,1,.12.2.21.21,0,0,1-.12.19l-1.57.91A.44.44,0,0,1,301.08,476.22Zm-1.69-1.14h0L301,476a.28.28,0,0,0,.25,0l1.56-.91h0l-1.54-.9a.36.36,0,0,0-.25,0l-1.57.91Z" transform="translate(-2.73 -1.08)"/><path class="cls-21" d="M295.58,476.79c.09.06.1.15,0,.2l-3.11,1.81a.38.38,0,0,1-.36,0l-1.54-.89c-.1-.06-.1-.15,0-.21l3.11-1.8a.36.36,0,0,1,.35,0Z" transform="translate(-2.73 -1.08)"/><path class="cls-33" d="M292.29,479a.46.46,0,0,1-.23-.06l-1.54-.89a.21.21,0,0,1,0-.39l3.1-1.8a.47.47,0,0,1,.46,0l1.55.89a.22.22,0,0,1,.13.19.24.24,0,0,1-.13.2l-3.11,1.8A.41.41,0,0,1,292.29,479Zm-1.68-1.15v0l1.55.89a.28.28,0,0,0,.25,0l3.1-1.81h0L294,476a.28.28,0,0,0-.25,0l-3.11,1.8Z" transform="translate(-2.73 -1.08)"/><path class="cls-21" d="M293,475.91a.1.1,0,0,1,0,.2l-2.58,1.5a.38.38,0,0,1-.36,0l-1.54-.89a.1.1,0,0,1,0-.2L291.1,475a.45.45,0,0,1,.36,0Z" transform="translate(-2.73 -1.08)"/><path class="cls-33" d="M290.24,477.76a.56.56,0,0,1-.23-.05l-1.55-.89a.23.23,0,0,1-.12-.2.21.21,0,0,1,.12-.19l2.59-1.51a.53.53,0,0,1,.46,0l1.54.89a.22.22,0,0,1,.13.2.21.21,0,0,1-.12.19l-2.59,1.51A.59.59,0,0,1,290.24,477.76Zm-1.69-1.14h0l1.54.89a.28.28,0,0,0,.25,0L293,476h0l-1.55-.89a.28.28,0,0,0-.25,0l-2.58,1.5Z" transform="translate(-2.73 -1.08)"/><path class="cls-21" d="M296.55,469.15a.1.1,0,0,1,0,.2l-1.56.91a.38.38,0,0,1-.36,0l-.81-.47a.1.1,0,0,1,0-.2l1.56-.91a.38.38,0,0,1,.36,0Z" transform="translate(-2.73 -1.08)"/><path class="cls-33" d="M294.81,470.41a.44.44,0,0,1-.23-.06l-.81-.46a.24.24,0,0,1-.13-.2.22.22,0,0,1,.13-.19l1.56-.91a.47.47,0,0,1,.46,0l.82.46a.23.23,0,0,1,.12.2.21.21,0,0,1-.12.19l-1.57.91A.44.44,0,0,1,294.81,470.41Zm-.95-.72h0l.81.47a.3.3,0,0,0,.26,0l1.56-.91h0l-.81-.47a.28.28,0,0,0-.25,0l-1.57.91Z" transform="translate(-2.73 -1.08)"/></g><g id="Criminal"><circle class="cls-42" cx="538.61" cy="135.61" r="49.61"/><path class="cls-22" d="M566.74,137.2a15.73,15.73,0,0,0-20.24-12.8,9,9,0,0,0-17.57,2.79,14.13,14.13,0,0,0-10.44,9.17,7.2,7.2,0,0,0-.81,0,9.42,9.42,0,1,0,0,18.83h47.68a9,9,0,0,0,1.38-18Z" transform="translate(-2.73 -1.08)"/><circle class="cls-42" cx="372.94" cy="51.61" r="49.61"/><path class="cls-22" d="M401.07,53.2a15.72,15.72,0,0,0-20.24-12.8,9,9,0,0,0-17.57,2.79,14.14,14.14,0,0,0-10.44,9.17,7,7,0,0,0-.8,0,9.42,9.42,0,1,0,0,18.83H399.7a9,9,0,0,0,1.37-18Z" transform="translate(-2.73 -1.08)"/><circle class="cls-42" cx="51.61" cy="191.61" r="49.61"/><path class="cls-22" d="M79.74,193.2A15.73,15.73,0,0,0,59.5,180.4a9,9,0,0,0-17.57,2.79,14.13,14.13,0,0,0-10.44,9.17,7.2,7.2,0,0,0-.81,0,9.42,9.42,0,1,0,0,18.83H78.36a9,9,0,0,0,1.38-18Z" transform="translate(-2.73 -1.08)"/><circle class="cls-42" cx="191.43" cy="51.61" r="49.61"/><path class="cls-22" d="M219.57,53.2a15.73,15.73,0,0,0-20.25-12.8,9,9,0,0,0-17.56,2.79,14.13,14.13,0,0,0-10.44,9.17,7.32,7.32,0,0,0-.81,0,9.42,9.42,0,1,0,0,18.83h47.68a9,9,0,0,0,1.38-18Z" transform="translate(-2.73 -1.08)"/><circle class="cls-42" cx="373.46" cy="221.54" r="49.61"/><path class="cls-43" d="M408.84,204.27v-2.41H380.17v2.41h0v1.93a.48.48,0,0,0,.49.48h27.69a.48.48,0,0,0,.49-.48v-1.93Z" transform="translate(-2.73 -1.08)"/><rect class="cls-30" x="378.4" y="205.61" width="26.75" height="36.22"/><rect class="cls-44" x="378.4" y="205.61" width="3.04" height="36.22"/><rect class="cls-43" x="384.16" y="241.54" width="20.68" height="6.52" transform="translate(786.28 488.52) rotate(-180)"/><rect class="cls-45" x="384.16" y="237.36" width="20.68" height="6.52" transform="translate(786.28 480.15) rotate(-180)"/><rect class="cls-44" x="402.12" y="205.61" width="3.04" height="36.22"/><path class="cls-46" d="M381.13,248.16h26.75V246.7a.39.39,0,0,0-.39-.39h-26a.39.39,0,0,0-.39.39Z" transform="translate(-2.73 -1.08)"/><rect class="cls-47" x="400.22" y="244.57" width="3.92" height="0.96" rx="0.41" ry="0.41" transform="translate(801.63 489.03) rotate(180)"/><rect class="cls-47" x="385.04" y="244.57" width="3.92" height="0.96" rx="0.41" ry="0.41" transform="translate(771.27 489.03) rotate(-180)"/><rect class="cls-47" x="386" y="237.02" width="16.53" height="2.13" transform="translate(785.8 475.07) rotate(-180)"/><rect class="cls-48" x="383.27" y="235.93" width="16.53" height="0.69"/><rect class="cls-46" x="377.45" y="200.77" width="28.66" height="1.2"/><path class="cls-45" d="M404.85,206.69l-14.07,34.88-6.62,0V206.69Z" transform="translate(-2.73 -1.08)"/><line class="cls-49" x1="381.43" y1="208.07" x2="402.12" y2="208.07"/><line class="cls-49" x1="381.43" y1="211.03" x2="402.12" y2="211.03"/><line class="cls-49" x1="381.43" y1="213.98" x2="402.12" y2="213.98"/><line class="cls-49" x1="381.43" y1="216.93" x2="402.12" y2="216.93"/><line class="cls-49" x1="381.43" y1="219.89" x2="402.12" y2="219.89"/><line class="cls-49" x1="381.43" y1="222.84" x2="402.12" y2="222.84"/><line class="cls-49" x1="381.43" y1="225.79" x2="402.12" y2="225.79"/><line class="cls-49" x1="381.43" y1="228.75" x2="402.12" y2="228.75"/><line class="cls-49" x1="381.43" y1="231.7" x2="402.12" y2="231.7"/><rect class="cls-50" x="401.87" y="203.05" width="2.61" height="0.83"/><rect class="cls-50" x="398.91" y="203.05" width="2.61" height="0.83"/><rect class="cls-50" x="395.96" y="203.05" width="2.61" height="0.83"/><rect class="cls-50" x="393.01" y="203.05" width="2.61" height="0.83"/><path class="cls-43" d="M367.26,208.72v-1.9H344.75v1.9h0v1.52a.38.38,0,0,0,.37.38h21.77a.38.38,0,0,0,.37-.38v-1.52Z" transform="translate(-2.73 -1.08)"/><rect class="cls-30" x="342.76" y="209.53" width="21.02" height="28.46"/><rect class="cls-44" x="342.76" y="209.53" width="2.39" height="28.46"/><rect class="cls-43" x="347.88" y="238" width="16.25" height="5.12" transform="translate(709.28 480.04) rotate(-180)"/><rect class="cls-45" x="347.88" y="234.71" width="16.25" height="5.12" transform="translate(709.28 473.46) rotate(-180)"/><rect class="cls-44" x="361.4" y="209.53" width="2.39" height="28.46"/><path class="cls-46" d="M345.49,243.2h21v-1.15a.3.3,0,0,0-.31-.3H345.8a.3.3,0,0,0-.31.3Z" transform="translate(-2.73 -1.08)"/><rect class="cls-47" x="360.49" y="240.38" width="3.08" height="0.76" rx="0.32" ry="0.32" transform="translate(721.34 480.44) rotate(-180)"/><rect class="cls-47" x="348.57" y="240.38" width="3.08" height="0.76" rx="0.32" ry="0.32" transform="translate(697.49 480.44) rotate(-180)"/><rect class="cls-47" x="349.32" y="234.44" width="12.99" height="1.67" transform="translate(708.9 469.47) rotate(-180)"/><rect class="cls-48" x="346.59" y="233.36" width="12.99" height="0.54"/><circle class="cls-48" cx="361.78" cy="208.05" r="0.66"/><rect class="cls-46" x="342.02" y="205.73" width="22.52" height="0.94"/><path class="cls-45" d="M364.13,210.62,353.08,238l-5.2,0V210.62Z" transform="translate(-2.73 -1.08)"/><line class="cls-49" x1="345.15" y1="211.47" x2="361.4" y2="211.47"/><line class="cls-49" x1="345.15" y1="213.79" x2="361.4" y2="213.79"/><line class="cls-49" x1="345.15" y1="216.11" x2="361.4" y2="216.11"/><line class="cls-49" x1="345.15" y1="218.43" x2="361.4" y2="218.43"/><line class="cls-49" x1="345.15" y1="220.75" x2="361.4" y2="220.75"/><line class="cls-49" x1="345.15" y1="223.07" x2="361.4" y2="223.07"/><line class="cls-49" x1="345.15" y1="225.39" x2="361.4" y2="225.39"/><line class="cls-49" x1="345.15" y1="227.71" x2="361.4" y2="227.71"/><line class="cls-49" x1="345.15" y1="230.03" x2="361.4" y2="230.03"/><path class="cls-43" d="M393.24,199.83V196.9h-34.8v2.93h0v2.34a.58.58,0,0,0,.58.59h33.63a.58.58,0,0,0,.59-.59v-2.34Z" transform="translate(-2.73 -1.08)"/><rect class="cls-30" x="356.86" y="201.68" width="32.49" height="43.98"/><rect class="cls-44" x="356.86" y="201.68" width="3.69" height="43.99"/><rect class="cls-43" x="363.28" y="245.09" width="25.12" height="7.91" transform="translate(748.95 497) rotate(-180)"/><rect class="cls-45" x="363.28" y="240" width="25.12" height="7.91" transform="translate(748.95 486.84) rotate(-180)"/><rect class="cls-44" x="385.67" y="201.68" width="3.69" height="43.98"/><path class="cls-46" d="M359.59,253.12h32.49v-1.77a.47.47,0,0,0-.47-.47H360.07a.48.48,0,0,0-.48.47Z" transform="translate(-2.73 -1.08)"/><rect class="cls-47" x="382.77" y="248.77" width="4.76" height="1.17" rx="0.48" ry="0.48" transform="translate(767.58 497.62) rotate(180)"/><rect class="cls-47" x="364.34" y="248.77" width="4.76" height="1.17" rx="0.48" ry="0.48" transform="translate(730.72 497.62) rotate(-180)"/><rect class="cls-47" x="365.51" y="239.59" width="20.08" height="2.58" transform="translate(748.36 480.68) rotate(-180)"/><rect class="cls-48" x="362.78" y="238.5" width="20.08" height="0.83"/><polygon class="cls-46" points="355.71 197.27 390.51 197.27 390.51 195.81 355.72 195.81 355.71 197.27"/><path class="cls-45" d="M388.4,202.77l-17.08,42.35-8,0V202.77Z" transform="translate(-2.73 -1.08)"/><line class="cls-49" x1="360.55" y1="204.68" x2="385.67" y2="204.68"/><line class="cls-49" x1="360.55" y1="208.26" x2="385.67" y2="208.26"/><line class="cls-49" x1="360.55" y1="211.85" x2="385.67" y2="211.85"/><line class="cls-49" x1="360.55" y1="215.43" x2="385.67" y2="215.43"/><line class="cls-49" x1="360.55" y1="219.02" x2="385.67" y2="219.02"/><line class="cls-49" x1="360.55" y1="222.61" x2="385.67" y2="222.61"/><line class="cls-49" x1="360.55" y1="226.19" x2="385.67" y2="226.19"/><line class="cls-49" x1="360.55" y1="229.78" x2="385.67" y2="229.78"/><line class="cls-49" x1="360.55" y1="233.37" x2="385.67" y2="233.37"/><rect class="cls-50" x="385.36" y="198.58" width="3.18" height="1.01"/><rect class="cls-50" x="381.78" y="198.58" width="3.18" height="1.01"/><rect class="cls-50" x="378.19" y="198.58" width="3.18" height="1.01"/><rect class="cls-50" x="374.61" y="198.58" width="3.18" height="1.01"/></g></svg>