<svg xmlns="http://www.w3.org/2000/svg" xmlns:xlink="http://www.w3.org/1999/xlink" viewBox="0 0 581.02 482.03"><defs><style>.cls-1,.cls-15,.cls-17,.cls-18,.cls-28,.cls-29,.cls-30,.cls-75{fill:none;}.cls-1,.cls-19{opacity:0.8;}.cls-2{isolation:isolate;}.cls-3,.cls-42{fill:#56bdbf;}.cls-4{fill:#f4c4a4;}.cls-14,.cls-32,.cls-5{fill:#5b5b5a;}.cls-34,.cls-43,.cls-5,.cls-71{opacity:0.2;}.cls-6{fill:#f8ac1a;}.cls-7{fill:#fff;}.cls-8{fill:#e0e0e0;}.cls-9{fill:#626261;}.cls-10{fill:#bdbcbc;}.cls-11{fill:#4e7a92;}.cls-12{fill:#9a9b9c;}.cls-13,.cls-36{fill:#fcd6b7;}.cls-15{stroke:#f5ad1f;}.cls-15,.cls-18,.cls-28,.cls-29,.cls-42,.cls-75{stroke-miterlimit:10;}.cls-15,.cls-75{stroke-width:2px;}.cls-16{fill:#3c3c3b;}.cls-16,.cls-74{opacity:0.4;}.cls-18,.cls-28,.cls-42{stroke:#eaeaea;}.cls-18,.cls-42{stroke-width:4px;}.cls-19{fill:#f5ad1f;}.cls-20{clip-path:url(#clip-path);}.cls-21{fill:#5d737b;}.cls-22{fill:#798c91;}.cls-23{fill:#87cdd3;}.cls-23,.cls-24{opacity:0.5;}.cls-24{fill:url(#linear-gradient);}.cls-25{opacity:0.7;mix-blend-mode:screen;fill:url(#linear-gradient-2);}.cls-26,.cls-47{mix-blend-mode:multiply;}.cls-26{fill:url(#linear-gradient-3);}.cls-27{fill:#be1622;}.cls-28{stroke-width:3.92px;}.cls-29{stroke:#1d1d1b;}.cls-30{stroke:#be1622;stroke-linecap:round;stroke-linejoin:round;stroke-dasharray:2.96 2.96;}.cls-31{fill:#d8d8d8;}.cls-31,.cls-32,.cls-33,.cls-35,.cls-36{fill-rule:evenodd;}.cls-33,.cls-58{fill:#36a9e1;}.cls-34{fill:url(#Sfumatura_senza_nome_3);}.cls-35,.cls-40{fill:#deb99b;}.cls-37{fill:#e30613;}.cls-38{fill:url(#Sfumatura_senza_nome_122);}.cls-39{fill:#f9b233;}.cls-41{fill:url(#Sfumatura_senza_nome_74);}.cls-43{fill:url(#Sfumatura_senza_nome_3-2);}.cls-44{fill:#2d2e83;}.cls-45{fill:#01b2b2;}.cls-46{fill:#7fc9cb;}.cls-47{fill:#d9d9d9;}.cls-48{fill:#303b45;}.cls-49{fill:#353430;}.cls-50{fill:#8d8d8e;}.cls-51{fill:#f6bbc6;}.cls-52{fill:#ef7967;}.cls-53{fill:#eaeaea;}.cls-54{fill:#ebebeb;}.cls-55{fill:#a9a9a9;}.cls-56{fill:#dfe5ee;}.cls-57{fill:#9ea6b0;}.cls-59,.cls-61{fill:#605f5f;}.cls-59,.cls-73{opacity:0.3;}.cls-60{fill:#353634;}.cls-62{fill:#7d7d7d;}.cls-63{fill:#75747a;}.cls-64{fill:#a2a0a0;}.cls-65{fill:#2e2f2f;}.cls-66{fill:#939294;}.cls-67{fill:#acaaab;}.cls-68{fill:#dcdcdc;}.cls-69{fill:#0a0b0b;}.cls-70{fill:#dce5f0;}.cls-72{fill:#a7dcf6;}.cls-75{stroke:#4e7a92;}</style><clipPath id="clip-path" transform="translate(-7.93 -9.26)"><circle class="cls-1" cx="300.34" cy="82.09" r="70.87"/></clipPath><linearGradient id="linear-gradient" x1="461.81" y1="-37.5" x2="461.81" y2="-157.06" gradientTransform="translate(-168.04 184.26)" gradientUnits="userSpaceOnUse"><stop offset="0" stop-color="#fff" stop-opacity="0.5"/><stop offset="0.17" stop-color="#f7f7f7" stop-opacity="0.48"/><stop offset="0.35" stop-color="#dedede" stop-opacity="0.44"/><stop offset="0.53" stop-color="#b5b5b5" stop-opacity="0.35"/><stop offset="0.71" stop-color="#7b7b7b" stop-opacity="0.24"/><stop offset="0.9" stop-color="#323232" stop-opacity="0.1"/><stop offset="1" stop-color="#010101" stop-opacity="0"/></linearGradient><linearGradient id="linear-gradient-2" x1="85.15" y1="664.34" x2="173.98" y2="664.34" gradientTransform="translate(422.96 759.23) rotate(180)" gradientUnits="userSpaceOnUse"><stop offset="0" stop-color="#fff" stop-opacity="0.4"/><stop offset="0.16" stop-color="#ececec" stop-opacity="0.37"/><stop offset="0.41" stop-color="#b9b9b9" stop-opacity="0.29"/><stop offset="0.71" stop-color="#656565" stop-opacity="0.16"/><stop offset="1" stop-color="#010101" stop-opacity="0"/></linearGradient><linearGradient id="linear-gradient-3" x1="648.08" y1="501.4" x2="648.08" y2="447.09" gradientTransform="translate(-198.11 735.16) rotate(-90)" gradientUnits="userSpaceOnUse"><stop offset="0" stop-color="#b4b4b4" stop-opacity="0.11"/><stop offset="0.24" stop-color="#bdbdbd" stop-opacity="0.13"/><stop offset="0.59" stop-color="#d6d6d6" stop-opacity="0.2"/><stop offset="1" stop-color="#fff" stop-opacity="0.3"/></linearGradient><linearGradient id="Sfumatura_senza_nome_3" x1="-635.14" y1="80.69" x2="-635.14" y2="176.01" gradientTransform="matrix(-1, 0, 0, 1, -187.51, 0)" gradientUnits="userSpaceOnUse"><stop offset="0" stop-color="#fff"/><stop offset="1" stop-opacity="0"/></linearGradient><radialGradient id="Sfumatura_senza_nome_122" cx="555.18" cy="347.22" r="7.83" gradientTransform="matrix(0.84, -0.54, 1.99, 3.07, -681.51, -673.15)" gradientUnits="userSpaceOnUse"><stop offset="0" stop-color="#6786a0"/><stop offset="0.24" stop-color="#6686a1" stop-opacity="0.99"/><stop offset="0.34" stop-color="#6488a4" stop-opacity="0.94"/><stop offset="0.42" stop-color="#608ba9" stop-opacity="0.86"/><stop offset="0.48" stop-color="#5b8fb0" stop-opacity="0.75"/><stop offset="0.54" stop-color="#5494b9" stop-opacity="0.61"/><stop offset="0.59" stop-color="#4b9ac5" stop-opacity="0.43"/><stop offset="0.63" stop-color="#41a1d2" stop-opacity="0.23"/><stop offset="0.67" stop-color="#36a9e1" stop-opacity="0"/></radialGradient><radialGradient id="Sfumatura_senza_nome_74" cx="276.67" cy="472.25" r="13.09" gradientTransform="matrix(0.84, -0.54, 1.37, 2.1, -409.16, -746.14)" gradientUnits="userSpaceOnUse"><stop offset="0.49" stop-color="#fff"/><stop offset="0.68" stop-color="#fdfdfd"/><stop offset="0.78" stop-color="#f5f5f5"/><stop offset="0.85" stop-color="#e8e8e8"/><stop offset="0.91" stop-color="#d6d6d6"/><stop offset="0.97" stop-color="#bebebe"/><stop offset="1" stop-color="#afafaf"/></radialGradient><linearGradient id="Sfumatura_senza_nome_3-2" x1="-614.82" y1="375.85" x2="-614.82" y2="481.77" xlink:href="#Sfumatura_senza_nome_3"/></defs><title>G09_07</title><g class="cls-2"><g id="Criminal"><circle class="cls-3" cx="72.87" cy="263.96" r="70.87"/><path class="cls-4" d="M71.48,286l-.39-2.68a1.34,1.34,0,0,0-1.51-1.13l-.56-3.9a1.37,1.37,0,0,0-1.55-1.16l-.18,0-.51-3.51a2.21,2.21,0,0,0-2.51-1.87l-11.08,1.6a1.72,1.72,0,0,0-.59.2L42.55,279l-.73,2.39L58.51,294a1.85,1.85,0,0,1,1.37-1l8.06-1.17A2.61,2.61,0,0,0,70.16,289L70,288a.46.46,0,0,1,.37-.5A1.33,1.33,0,0,0,71.48,286Z" transform="translate(-7.93 -9.26)"/><path class="cls-5" d="M127.28,306.63l-.56.74-4.68-3.5L121,305.31,117.89,303a1.4,1.4,0,0,1-.36-.41,1.66,1.66,0,0,1-.14-.37l-1.58-7.31-.49-2.3a2.76,2.76,0,0,0-1-1.59l-2.09-1.57V249a2.57,2.57,0,0,0-2.56-2.57H98.58v-.73a1,1,0,0,0-1-1H92.42v-.4a5,5,0,0,0-10.07,0,.45.45,0,0,0,0,.11v.29H77.16a1,1,0,0,0-1,1v.73H65.11A2.56,2.56,0,0,0,62.55,249v39l-.71.1a1.83,1.83,0,0,0-.53.17l-9.1,4.88-3,1.57a1.65,1.65,0,0,0-.83,1.11l-2.85,14.22a1.4,1.4,0,0,0,0,.54l1.88,10.19-.38,2.46-2.58-.46-.8,4.51-.63-.1-.89,4,4.8,3.11,7,3.83,5.94,1.42,1.18-9.2-1.26-.22.79-4.5-1.93-.35c1.24-1.71,1.76-2.26,2.41-3.29a27.3,27.3,0,0,0,3.46-7.64l.61-2.3H102l1.72,1.06a2.61,2.61,0,0,0,1.15.38l4.19.34a1.42,1.42,0,0,1,.61.2l3.15,2-.53.73,4.67,3.49-.58.77,7.9,6.55,3.74-2.31L134,319.5l3.58-5.86ZM89.11,243.44v.68H85.66v-.68a1.73,1.73,0,1,1,3.45,0Z" transform="translate(-7.93 -9.26)"/><rect class="cls-6" x="42.54" y="206.62" width="65.85" height="87.05" rx="3.4" ry="3.4"/><rect class="cls-7" x="45.49" y="210.02" width="59.95" height="80.25"/><path class="cls-8" d="M64.05,236.29a4.59,4.59,0,1,0,4.59,4.59A4.59,4.59,0,0,0,64.05,236.29Zm0,7.29a2.7,2.7,0,1,1,2.69-2.7A2.7,2.7,0,0,1,64.05,243.58Z" transform="translate(-7.93 -9.26)"/><path class="cls-8" d="M64.05,250.51a4.6,4.6,0,1,0,4.59,4.6A4.6,4.6,0,0,0,64.05,250.51Zm0,7.29a2.7,2.7,0,1,1,2.69-2.69A2.69,2.69,0,0,1,64.05,257.8Z" transform="translate(-7.93 -9.26)"/><path class="cls-8" d="M64.05,264.83a4.59,4.59,0,1,0,4.59,4.59A4.59,4.59,0,0,0,64.05,264.83Zm0,7.29a2.7,2.7,0,1,1,2.69-2.7A2.7,2.7,0,0,1,64.05,272.12Z" transform="translate(-7.93 -9.26)"/><path class="cls-9" d="M64.26,229.3v0a1.67,1.67,0,0,1-.45,1.31,1.86,1.86,0,0,1-1.32.44,1.92,1.92,0,0,1-1.4-.52,2,2,0,0,1-.51-1.48v-1.62a2,2,0,0,1,.5-1.47,1.77,1.77,0,0,1,1.35-.53,2,2,0,0,1,1.37.44,1.63,1.63,0,0,1,.47,1.31v0h-1a1.13,1.13,0,0,0-.18-.73.8.8,0,0,0-.62-.21.66.66,0,0,0-.6.29,1.55,1.55,0,0,0-.2.87v1.63a1.41,1.41,0,0,0,.22.88.86.86,0,0,0,1.21.08,1.2,1.2,0,0,0,.17-.74Z" transform="translate(-7.93 -9.26)"/><path class="cls-9" d="M66.76,227.86l-.36,0a.49.49,0,0,0-.3.1.55.55,0,0,0-.18.26V231h-1v-4.06h1l0,.58a1.24,1.24,0,0,1,.3-.48.57.57,0,0,1,.42-.17h.13l.12,0Z" transform="translate(-7.93 -9.26)"/><path class="cls-9" d="M68.36,226H67.3v-.81h1.06Zm0,5H67.3v-4.06h1.06Z" transform="translate(-7.93 -9.26)"/><path class="cls-9" d="M70.1,226.94l.05.52a1.24,1.24,0,0,1,.41-.44,1.1,1.1,0,0,1,.57-.15.92.92,0,0,1,.55.16,1,1,0,0,1,.36.51,1.36,1.36,0,0,1,.41-.5,1.07,1.07,0,0,1,.59-.17,1,1,0,0,1,.81.42,2.33,2.33,0,0,1,.3,1.31V231H73.09v-2.4a1.65,1.65,0,0,0-.11-.71.35.35,0,0,0-.33-.19.53.53,0,0,0-.3.09,1,1,0,0,0-.21.27.92.92,0,0,1,0,.16.61.61,0,0,1,0,.14V231H71.1v-2.4a1.63,1.63,0,0,0-.1-.7.38.38,0,0,0-.34-.2.46.46,0,0,0-.28.08.58.58,0,0,0-.2.21v3H69.12v-4.06Z" transform="translate(-7.93 -9.26)"/><path class="cls-9" d="M76.41,231.08a1.51,1.51,0,0,1-1.25-.56,2.24,2.24,0,0,1-.44-1.43v-.15a2.51,2.51,0,0,1,.42-1.5,1.43,1.43,0,0,1,1.2-.57,1.3,1.3,0,0,1,1.1.49,2.08,2.08,0,0,1,.38,1.33v.58h-2a1.36,1.36,0,0,0,.2.72.63.63,0,0,0,.55.26,1.62,1.62,0,0,0,.53-.07,2.4,2.4,0,0,0,.45-.23l.28.66a1.94,1.94,0,0,1-.59.33A2.3,2.3,0,0,1,76.41,231.08Zm-.07-3.38a.4.4,0,0,0-.39.23,1.69,1.69,0,0,0-.17.64h1v-.09a1.48,1.48,0,0,0-.1-.58A.36.36,0,0,0,76.34,227.7Z" transform="translate(-7.93 -9.26)"/><path class="cls-9" d="M81.62,231.08a1.51,1.51,0,0,1-1.25-.56,2.24,2.24,0,0,1-.44-1.43v-.15a2.45,2.45,0,0,1,.43-1.5,1.39,1.39,0,0,1,1.19-.57,1.3,1.3,0,0,1,1.1.49,2.08,2.08,0,0,1,.38,1.33v.58H81a1.36,1.36,0,0,0,.2.72.63.63,0,0,0,.55.26,1.62,1.62,0,0,0,.53-.07,2.4,2.4,0,0,0,.45-.23l.28.66a1.83,1.83,0,0,1-.59.33A2.3,2.3,0,0,1,81.62,231.08Zm-.07-3.38a.41.41,0,0,0-.39.23,1.69,1.69,0,0,0-.17.64h1v-.09a1.48,1.48,0,0,0-.1-.58A.36.36,0,0,0,81.55,227.7Z" transform="translate(-7.93 -9.26)"/><path class="cls-9" d="M84.84,229.5l0,.31h0l.06-.31.49-2.56h1.11L85.41,231h-1l-1.15-4.06h1.11Z" transform="translate(-7.93 -9.26)"/><path class="cls-9" d="M88.08,226H87v-.81h1Zm0,5H87v-4.06h1Z" transform="translate(-7.93 -9.26)"/><path class="cls-9" d="M88.7,229a3,3,0,0,1,.35-1.54,1.13,1.13,0,0,1,1-.58.9.9,0,0,1,.44.11,1.1,1.1,0,0,1,.35.33v-2.16h1.06V231H91l-.08-.46a1.13,1.13,0,0,1-.38.4.91.91,0,0,1-.49.14,1.16,1.16,0,0,1-1-.55,2.72,2.72,0,0,1-.35-1.46Zm1,.08a2.28,2.28,0,0,0,.13.87.47.47,0,0,0,.45.31.65.65,0,0,0,.31-.08.7.7,0,0,0,.21-.24v-1.86a.6.6,0,0,0-.22-.27.47.47,0,0,0-.74.25,2.52,2.52,0,0,0-.14.94Z" transform="translate(-7.93 -9.26)"/><path class="cls-9" d="M94.17,231.08a1.5,1.5,0,0,1-1.24-.56,2.19,2.19,0,0,1-.45-1.43v-.15a2.51,2.51,0,0,1,.43-1.5,1.4,1.4,0,0,1,1.2-.57,1.31,1.31,0,0,1,1.1.49,2.14,2.14,0,0,1,.38,1.33v.58h-2a1.46,1.46,0,0,0,.21.72.63.63,0,0,0,.55.26,1.56,1.56,0,0,0,.52-.07,2.46,2.46,0,0,0,.46-.23l.27.66a1.72,1.72,0,0,1-.59.33A2.26,2.26,0,0,1,94.17,231.08Zm-.06-3.38a.42.42,0,0,0-.4.23,1.71,1.71,0,0,0-.16.64h1v-.09a1.31,1.31,0,0,0-.1-.58A.34.34,0,0,0,94.11,227.7Z" transform="translate(-7.93 -9.26)"/><path class="cls-9" d="M97.1,226.94l.05.57a1.28,1.28,0,0,1,.42-.47.9.9,0,0,1,.55-.17,1,1,0,0,1,.82.4,2.22,2.22,0,0,1,.29,1.27V231H98.17v-2.46a1.28,1.28,0,0,0-.11-.65.35.35,0,0,0-.33-.19.66.66,0,0,0-.32.08.87.87,0,0,0-.24.23v3H96.11v-4.06Z" transform="translate(-7.93 -9.26)"/><path class="cls-9" d="M101.4,230.25a.36.36,0,0,0,.34-.17.8.8,0,0,0,.12-.47h1v0a1.37,1.37,0,0,1-.4,1,1.39,1.39,0,0,1-1,.41,1.42,1.42,0,0,1-1.22-.58,2.42,2.42,0,0,1-.42-1.47v-.11a2.47,2.47,0,0,1,.42-1.48,1.44,1.44,0,0,1,1.22-.57,1.36,1.36,0,0,1,1,.42,1.56,1.56,0,0,1,.38,1.14v0h-1a1.09,1.09,0,0,0-.12-.55.35.35,0,0,0-.34-.2.47.47,0,0,0-.46.33,2.66,2.66,0,0,0-.13.89V229a2.66,2.66,0,0,0,.13.89A.47.47,0,0,0,101.4,230.25Z" transform="translate(-7.93 -9.26)"/><path class="cls-9" d="M104.92,231.08a1.51,1.51,0,0,1-1.25-.56,2.24,2.24,0,0,1-.44-1.43v-.15a2.51,2.51,0,0,1,.42-1.5,1.43,1.43,0,0,1,1.2-.57,1.3,1.3,0,0,1,1.1.49,2.08,2.08,0,0,1,.38,1.33v.58h-2a1.36,1.36,0,0,0,.2.72.63.63,0,0,0,.55.26,1.62,1.62,0,0,0,.53-.07A2.4,2.4,0,0,0,106,230l.28.66a1.83,1.83,0,0,1-.59.33A2.3,2.3,0,0,1,104.92,231.08Zm-.07-3.38a.4.4,0,0,0-.39.23,1.69,1.69,0,0,0-.17.64h1v-.09a1.48,1.48,0,0,0-.1-.58A.36.36,0,0,0,104.85,227.7Z" transform="translate(-7.93 -9.26)"/><rect class="cls-10" x="67.28" y="227.53" width="31.7" height="1.81"/><rect class="cls-10" x="67.28" y="230.71" width="31.7" height="1.81"/><rect class="cls-10" x="67.28" y="233.9" width="31.7" height="1.81"/><rect class="cls-10" x="67.28" y="241.76" width="31.7" height="1.81"/><rect class="cls-10" x="67.28" y="244.94" width="31.7" height="1.81"/><rect class="cls-10" x="67.28" y="248.13" width="31.7" height="1.81"/><rect class="cls-10" x="67.28" y="256.07" width="31.7" height="1.81"/><rect class="cls-10" x="67.28" y="259.26" width="31.7" height="1.81"/><rect class="cls-10" x="67.28" y="262.44" width="31.7" height="1.81"/><polygon class="cls-11" points="55.78 234.64 51.76 230.62 53.22 229.17 55.73 231.68 61.4 225.6 62.9 227 55.78 234.64"/><polygon class="cls-11" points="55.78 248.09 51.76 244.07 53.22 242.62 55.73 245.13 61.4 239.05 62.9 240.45 55.78 248.09"/><polygon class="cls-11" points="55.78 262.43 51.76 258.42 53.22 256.96 55.73 259.48 61.4 253.39 62.9 254.79 55.78 262.43"/><path class="cls-10" d="M90.08,213.08a6.68,6.68,0,0,0-13.36,0v2.8H90.08v-2.8Zm-9-1.18a2.29,2.29,0,0,1,2.29-2.29,2.29,2.29,0,0,1,2.29,2.29v.91H81.11Z" transform="translate(-7.93 -9.26)"/><rect class="cls-10" x="73.18" y="203.55" width="4.58" height="0.23"/><path class="cls-8" d="M90.08,213.08a6.68,6.68,0,0,0-13.36,0v.23a6.68,6.68,0,0,1,13.36,0v-.23Z" transform="translate(-7.93 -9.26)"/><path class="cls-12" d="M90.08,213.23v2.65H76.72v-2.8H90.08Z" transform="translate(-7.93 -9.26)"/><rect class="cls-10" x="60.63" y="204.35" width="29.68" height="8.93" rx="3.72" ry="3.72"/><path class="cls-8" d="M97,213.61H69.84a1.28,1.28,0,0,0-1.28,1.29v.23a1.28,1.28,0,0,1,1.28-1.29H97a1.29,1.29,0,0,1,1.29,1.29v-.23A1.29,1.29,0,0,0,97,213.61Z" transform="translate(-7.93 -9.26)"/><path class="cls-12" d="M97,220.94H69.84a1.28,1.28,0,0,1-1.28-1.29v1.6a1.28,1.28,0,0,0,1.28,1.29H97a1.29,1.29,0,0,0,1.29-1.29v-1.6A1.29,1.29,0,0,1,97,220.94Z" transform="translate(-7.93 -9.26)"/><path class="cls-8" d="M95.38,215.88h-24a.34.34,0,0,1-.34-.33h0a.34.34,0,0,1,.34-.33h24a.33.33,0,0,1,.33.33h0A.33.33,0,0,1,95.38,215.88Z" transform="translate(-7.93 -9.26)"/><path class="cls-8" d="M95.38,217.92h-24a.34.34,0,0,1-.34-.34h0a.34.34,0,0,1,.34-.33h24a.33.33,0,0,1,.33.33h0A.34.34,0,0,1,95.38,217.92Z" transform="translate(-7.93 -9.26)"/><path class="cls-8" d="M95.38,220h-24a.34.34,0,0,1-.34-.33h0a.34.34,0,0,1,.34-.34h24a.34.34,0,0,1,.33.34h0A.33.33,0,0,1,95.38,220Z" transform="translate(-7.93 -9.26)"/><rect class="cls-12" x="63.15" y="205.68" width="24.63" height="0.67" rx="0.28" ry="0.28"/><path class="cls-12" d="M95.38,217.64h-24a.34.34,0,0,1-.34-.34h0a.34.34,0,0,1,.34-.33h24a.33.33,0,0,1,.33.33h0A.34.34,0,0,1,95.38,217.64Z" transform="translate(-7.93 -9.26)"/><path class="cls-12" d="M95.38,219.67h-24a.34.34,0,0,1-.34-.33h0a.34.34,0,0,1,.34-.34h24a.34.34,0,0,1,.33.34h0A.33.33,0,0,1,95.38,219.67Z" transform="translate(-7.93 -9.26)"/><path class="cls-8" d="M64.05,279.23a4.59,4.59,0,1,0,4.59,4.59A4.6,4.6,0,0,0,64.05,279.23Zm0,7.29a2.7,2.7,0,1,1,2.69-2.7A2.7,2.7,0,0,1,64.05,286.52Z" transform="translate(-7.93 -9.26)"/><rect class="cls-10" x="67.28" y="270.47" width="31.7" height="1.81"/><rect class="cls-10" x="67.28" y="273.66" width="31.7" height="1.81"/><rect class="cls-10" x="67.28" y="276.84" width="31.7" height="1.81"/><path class="cls-13" d="M65.53,279.36a3,3,0,0,0-4.79-3.7l-7.89,9.11a1.93,1.93,0,0,1-2.37.44l-3.9-2.08a8.3,8.3,0,0,1-2.73-2.37L42.55,279l-3.26,1.74a1.8,1.8,0,0,0-.91,1.23l-3.15,15.69a1.73,1.73,0,0,0,0,.6l2.07,11.25-1.15,7.55,12.94-1.69c1.85-2.6,2.47-3.21,3.29-4.51a30.23,30.23,0,0,0,3.81-8.43l2.14-8a1.58,1.58,0,0,1,.19-.44l.79-5.57Z" transform="translate(-7.93 -9.26)"/><rect class="cls-8" x="39.96" y="306.74" width="5.06" height="18.1" transform="translate(352.92 319.68) rotate(100.03)"/><path class="cls-14" d="M32.44,316.59l-1.54,7a71,71,0,0,0,19.28,13.6l2.18-17.05Z" transform="translate(-7.93 -9.26)"/><line class="cls-15" x1="23.94" y1="309.9" x2="44.08" y2="313.51"/><line class="cls-15" x1="23.44" y1="312.15" x2="43.79" y2="315.79"/><line class="cls-15" x1="22.95" y1="314.39" x2="43.5" y2="318.06"/><path class="cls-16" d="M45.6,319l1.49.21.94-5,3.42-2-1.75,2.3,2.14.41-.88,5,1.4.24-2.18,17.05a70.25,70.25,0,0,1-7.18-4Z" transform="translate(-7.93 -9.26)"/><path class="cls-17" d="M93,284.55l-.79,1.05a.38.38,0,0,0,.11.56l3.91,2.31.06,0,2.07.74a.42.42,0,0,0,.36-.05l1.79-1.34a.42.42,0,0,0,.14-.24l.57-3.09a.39.39,0,0,0-.39-.45l-.48,0,.17.78-.17-.78-7.06.31A.38.38,0,0,0,93,284.55Z" transform="translate(-7.93 -9.26)"/><rect class="cls-8" x="113.64" y="291.01" width="6.7" height="17.9" transform="translate(195.33 -19.49) rotate(36.85)"/><path class="cls-13" d="M93.52,268.38a.48.48,0,0,0-.45,0l-16.21,9.87a1.37,1.37,0,0,0-.08,2.29l2.26,1.6.17.17,1.61-1.52,13.31-4.68,5,2.05.78,3.67.46,2.22.48,0a.39.39,0,0,1,.39.45l-.57,3.09a.42.42,0,0,1-.14.24l-.33.24c4,2.84,9.78,3.09,14.54,1.29a1.46,1.46,0,0,1-.16-.41l-1.74-8.07-.55-2.54a3,3,0,0,0-1.12-1.75l-3.6-2.71Z" transform="translate(-7.93 -9.26)"/><path class="cls-14" d="M143.53,306.18l-18.06-12.34-12,16,16.91,14A71.23,71.23,0,0,0,143.53,306.18Z" transform="translate(-7.93 -9.26)"/><path class="cls-4" d="M87.79,286l5,.1c-.21-.12,8.64-2.22,8.64-2.22l-1.33-6.34-5.34-2.2-14.31,5L78.73,282C79,282.28,87.79,286,87.79,286Z" transform="translate(-7.93 -9.26)"/><path class="cls-11" d="M108.05,278.31l-37.92,2.45.26,4.72,38.06-2.28a1.51,1.51,0,0,0,1.4-1.67l-.2-1.88A1.51,1.51,0,0,0,108.05,278.31Z" transform="translate(-7.93 -9.26)"/><polygon class="cls-13" points="62.46 276.22 57.46 274.46 62.2 271.5 62.46 276.22"/><polygon class="cls-11" points="57.46 274.46 59.4 275.14 59.23 273.36 57.46 274.46"/><line class="cls-15" x1="107.22" y1="302.15" x2="119.48" y2="285.77"/><line class="cls-15" x1="109.01" y1="303.61" x2="121.39" y2="287.06"/><line class="cls-15" x1="110.78" y1="305.06" x2="123.29" y2="288.34"/><path class="cls-13" d="M100.16,288.09l-1.46,1.1a.42.42,0,0,1-.36.05l-2.07-.74-.06,0-2.39-1.41-5.24-3L83.83,282a3.4,3.4,0,0,0-4.09,1l-.5.67a3.26,3.26,0,0,0,1.87,4.13l1.91.74,4.55,3,6.55,6.11a2.12,2.12,0,0,0,.38.29l5,3.06a2.84,2.84,0,0,0,1.26.41l4.63.38a1.53,1.53,0,0,1,.68.23l3.47,2.25,9-11.92-3.41-2.57a1.4,1.4,0,0,1-.39-.45C109.94,291.18,104.16,290.93,100.16,288.09Z" transform="translate(-7.93 -9.26)"/><path class="cls-16" d="M116.54,305.73l-.46.61-5.09-4-.42.58-1.84-1.31-2.68.47,3.47,2.25-.58.8L114.1,309l-.64.85,16.91,14c1.62-1.58,3.16-3.25,4.62-5Z" transform="translate(-7.93 -9.26)"/><circle class="cls-18" cx="72.87" cy="263.96" r="70.87"/><circle class="cls-19" cx="292.41" cy="72.83" r="70.87"/><circle class="cls-3" cx="292.41" cy="72.83" r="70.87"/><g class="cls-20"><g id="_4" data-name="4"><polygon class="cls-21" points="279.65 62.94 278.64 51.31 265.31 51.88 266.31 63.51 279.65 62.94"/><polygon class="cls-21" points="286.5 143.35 285.5 131.72 272.16 132.28 273.16 143.91 286.5 143.35"/><path class="cls-22" d="M342.24,147.91l-.37-13.73a3.94,3.94,0,0,0-2.71-3.57l-6.57-2.31,1.72,19.64,4.54,2A2.37,2.37,0,0,0,342.24,147.91Z" transform="translate(-7.93 -9.26)"/><polygon class="cls-22" points="270 140.82 262.71 56.23 269.29 55.95 276.59 140.54 270 140.82"/><path class="cls-21" d="M306.25,139.33c-6-.81-10.74,10-10.74,10l-11,.47-7.3-84.59,8.63-.36a6.93,6.93,0,0,1,6.91,6.5l3.56,41.34,38,13.9a4.08,4.08,0,0,1,3,3.64l1.08,16a3.51,3.51,0,0,1-4.84,3.75C323.26,145.46,310,139.83,306.25,139.33Z" transform="translate(-7.93 -9.26)"/><path class="cls-22" d="M303.92,120.91l25.59,7.34a5.31,5.31,0,0,1,3.71,4.93l.19,5a4.59,4.59,0,0,1-6,4.82c-7.42-2.48-19.54-6.13-25.49-7.91a5.3,5.3,0,0,1-3.65-4.92l-.17-4.36A4.6,4.6,0,0,1,303.92,120.91Z" transform="translate(-7.93 -9.26)"/><path class="cls-21" d="M291.48,89.17c4.72-.55,10.7,2.17,15.28,3.61,11.65,3.67,11.51,20.24,12.38,30.34l-6.41-3.56c1.95-.09-.68-10.71-1.08-12.11-3.48-12.19-16.42-12.92-26.06-12.93C287.11,90.87,289.12,89.45,291.48,89.17Z" transform="translate(-7.93 -9.26)"/><path class="cls-21" d="M293.35,109.65s7.9-2.68,12.92-6.87a1.54,1.54,0,0,1,2.4,1.52c-.46,5.88-7.11,9.27-13.45,11.69C287.72,118.85,293.35,109.65,293.35,109.65Z" transform="translate(-7.93 -9.26)"/><path class="cls-22" d="M294.52,135.57,292.67,114a4.06,4.06,0,0,0-4.23-3.71h0a4.07,4.07,0,0,0-3.89,4.42l1.85,21.54a4.09,4.09,0,0,0,4.24,3.72h0A4.07,4.07,0,0,0,294.52,135.57Z" transform="translate(-7.93 -9.26)"/><polygon class="cls-22" points="282.1 90.08 279.12 55.54 275.11 55.71 278.08 90.25 282.1 90.08"/></g><rect class="cls-23" x="248.98" y="27.2" width="89.2" height="119.77"/><rect class="cls-24" x="249.35" y="27.2" width="88.83" height="119.56"/><rect class="cls-17" x="249.16" y="27.3" width="88.83" height="119.56"/><polygon class="cls-25" points="248.98 146.76 337.81 146.76 337.81 43.01 248.98 105.04 248.98 146.76"/><polygon class="cls-26" points="248.98 27.2 248.98 146.96 303.29 146.96 269.18 27.2 248.98 27.2"/><rect class="cls-27" x="248.98" y="39.06" width="89.2" height="3.78"/></g><circle class="cls-28" cx="292.41" cy="72.83" r="70.87"/><rect class="cls-27" x="263.58" y="78.29" width="65.48" height="42.8" rx="2.27" ry="2.27"/><rect class="cls-7" x="267.12" y="88.41" width="58.68" height="29.76" rx="2.27" ry="2.27"/><line class="cls-29" x1="269.67" y1="93.17" x2="322.25" y2="93.17"/><line class="cls-29" x1="269.67" y1="97.17" x2="322.25" y2="97.17"/><line class="cls-29" x1="269.67" y1="101.18" x2="322.25" y2="101.18"/><line class="cls-29" x1="269.67" y1="105.18" x2="322.25" y2="105.18"/><line class="cls-29" x1="269.67" y1="109.18" x2="322.25" y2="109.18"/><line class="cls-29" x1="269.67" y1="113.18" x2="322.25" y2="113.18"/><path class="cls-7" d="M291.87,92.93h-1.74v1.12h1.94v.88h-3V90.21H292v.87h-1.85v1h1.74Z" transform="translate(-7.93 -9.26)"/><path class="cls-7" d="M294,94.93l-1.51-4.72h1.17l.57,2a15.45,15.45,0,0,1,.42,1.69h0c.11-.57.26-1.13.42-1.67l.61-2h1.13l-1.59,4.72Z" transform="translate(-7.93 -9.26)"/><path class="cls-7" d="M298.37,90.21v4.72H297.3V90.21Z" transform="translate(-7.93 -9.26)"/><path class="cls-7" d="M299.3,90.27a9.84,9.84,0,0,1,1.44-.1,3,3,0,0,1,1.93.51,2.08,2.08,0,0,1,.8,1.78,2.42,2.42,0,0,1-.78,1.91,3.43,3.43,0,0,1-2.18.61,10.16,10.16,0,0,1-1.21-.07Zm1.07,3.85a2.06,2.06,0,0,0,.37,0,1.46,1.46,0,0,0,1.6-1.65,1.36,1.36,0,0,0-1.49-1.5,2.27,2.27,0,0,0-.48,0Z" transform="translate(-7.93 -9.26)"/><path class="cls-7" d="M307,92.93h-1.74v1.12h1.94v.88h-3V90.21h2.91v.87h-1.84v1H307Z" transform="translate(-7.93 -9.26)"/><path class="cls-7" d="M307.91,94.93V90.21h1.24l1,1.73a12.68,12.68,0,0,1,.77,1.62h0a17.73,17.73,0,0,1-.09-2V90.21h1v4.72h-1.12l-1-1.82a18.47,18.47,0,0,1-.82-1.67h0c0,.62.05,1.29.05,2.06v1.42Z" transform="translate(-7.93 -9.26)"/><path class="cls-7" d="M316.2,94.8A3.15,3.15,0,0,1,315,95a2.25,2.25,0,0,1-2.47-2.36,2.41,2.41,0,0,1,2.58-2.51,2.75,2.75,0,0,1,1.16.21l-.22.85a2.28,2.28,0,0,0-.89-.18,1.56,1.56,0,0,0,0,3.11A2.53,2.53,0,0,0,316,94Z" transform="translate(-7.93 -9.26)"/><path class="cls-7" d="M319.71,92.93H318v1.12h1.94v.88h-3V90.21h2.92v.87H318v1h1.74Z" transform="translate(-7.93 -9.26)"/><rect class="cls-30" x="242.9" y="35.71" width="101.29" height="10.17" rx="2.27" ry="2.27"/><circle class="cls-3" cx="450.16" cy="112.83" r="70.87"/><path class="cls-13" d="M461.89,153.3l-44-9.66L411,175a70.67,70.67,0,0,0,27.68,15.2l1.59-7.24Z" transform="translate(-7.93 -9.26)"/><path class="cls-31" d="M428,67.93h59.7c8.27,0,6,4.84,6,10.76v81.08c0,5.91,2.24,10.75-6,10.75H427c-8.27,0-6-4.84-6-10.75V78.69C420.94,72.77,419.71,67.93,428,67.93Z" transform="translate(-7.93 -9.26)"/><rect class="cls-14" x="440.73" y="61.21" width="17.34" height="1.56" rx="0.78" ry="0.78"/><path class="cls-32" d="M457.33,163a2.63,2.63,0,1,1-2.63,2.62A2.62,2.62,0,0,1,457.33,163Z" transform="translate(-7.93 -9.26)"/><path class="cls-33" d="M425.78,76.54h63.09c.13,0,.23.06.23.14v83.78c0,.08-.1.14-.23.14H425.78c-.12,0-.22-.06-.22-.14V76.68C425.56,76.6,425.66,76.54,425.78,76.54Z" transform="translate(-7.93 -9.26)"/><path class="cls-34" d="M426.49,160.6h17.37l25.85-84.06H426.49a.92.92,0,0,0-.93.92v82.22A.92.92,0,0,0,426.49,160.6Z" transform="translate(-7.93 -9.26)"/><path class="cls-35" d="M420.49,153.84c4.41,6.87,11,17.35,3.76,25.4C421,176.76,416.87,163.56,420.49,153.84Z" transform="translate(-7.93 -9.26)"/><path class="cls-36" d="M420.49,153.84c3,5.33,7.33,15.06,4.61,23.67S414.69,166.86,420.49,153.84Z" transform="translate(-7.93 -9.26)"/><path class="cls-37" d="M486.32,104.47a25.88,25.88,0,0,1-11.18,16.69,25.51,25.51,0,1,1-27.79-42.79A26,26,0,0,1,467.43,75C471.82,76,487.16,100.41,486.32,104.47Z" transform="translate(-7.93 -9.26)"/><path class="cls-38" d="M482.64,85.87a26.21,26.21,0,0,1,3.84,17.81L467.93,75.13A26.19,26.19,0,0,1,482.64,85.87Z" transform="translate(-7.93 -9.26)"/><path class="cls-39" d="M465.87,109.2l-13,8.47-2.08-3.2,1.51-7.28c.4-2.13.64-3.55.71-4.28a6.88,6.88,0,0,0,0-1.76,3.26,3.26,0,0,0-.48-1.23,1.7,1.7,0,0,0-1.17-.81,2.21,2.21,0,0,0-1.54.43,4.09,4.09,0,0,0-1.4,1.6,14.34,14.34,0,0,0-1,2.7l-4.69-1.39a16.61,16.61,0,0,1,1.18-3.29A10.12,10.12,0,0,1,445.38,97a12.32,12.32,0,0,1,2.32-1.91,8.89,8.89,0,0,1,3.51-1.41,5.88,5.88,0,0,1,3.27.37,5.4,5.4,0,0,1,2.41,2.06,8.31,8.31,0,0,1,1,2.12,8.52,8.52,0,0,1,.33,2.3,14.76,14.76,0,0,1-.28,2.78q-.3,1.55-1.54,6.17l.08.12,6.79-4.41Z" transform="translate(-7.93 -9.26)"/><path class="cls-39" d="M470.88,86a5.12,5.12,0,0,1,.84,3.53,6.9,6.9,0,0,1-1.82,3.65l.05.08q4.86-2.35,7.26,1.33a5.5,5.5,0,0,1,.57,5.23,11,11,0,0,1-4.57,5,19.77,19.77,0,0,1-2.82,1.53,16.26,16.26,0,0,1-3.17,1l-2.62-4a13.07,13.07,0,0,0,3-.67,11.89,11.89,0,0,0,2.45-1.18,5.43,5.43,0,0,0,2-2,1.84,1.84,0,0,0-.18-1.88,1.88,1.88,0,0,0-1.12-.89,2.88,2.88,0,0,0-1.62.2,11.67,11.67,0,0,0-2.34,1.23l-1.11.72-2.37-3.65,1.13-.74q3.71-2.4,2.47-4.29a1.39,1.39,0,0,0-1.23-.7,3.24,3.24,0,0,0-1.69.61,8,8,0,0,0-2.82,3.47l-4.12-1.94a11.83,11.83,0,0,1,2-3.29,14.9,14.9,0,0,1,3.15-2.64,9,9,0,0,1,5.09-1.74A4.21,4.21,0,0,1,470.88,86Z" transform="translate(-7.93 -9.26)"/><line class="cls-17" x1="482.88" y1="103.52" x2="479.68" y2="95.54"/><path class="cls-13" d="M496.07,174.32c-.75-.67-1.47-1.29-2.16-1.89l2.36,9.34a73.15,73.15,0,0,0,6-4.31A16,16,0,0,1,496.07,174.32Z" transform="translate(-7.93 -9.26)"/><path class="cls-13" d="M477.79,132.7c-4-2.66-8-.94-10.32.34l11.93,23.82c1,2,5,6.88,8.63,9.77a8.74,8.74,0,0,1-1.21-2.52Z" transform="translate(-7.93 -9.26)"/><path class="cls-13" d="M487,119.9l.12-.18Z" transform="translate(-7.93 -9.26)"/><path class="cls-13" d="M508.78,119.26a5.71,5.71,0,0,1,.76.93A5.71,5.71,0,0,0,508.78,119.26Z" transform="translate(-7.93 -9.26)"/><path class="cls-13" d="M497.75,120.38a6.6,6.6,0,0,1,.51,1A6.6,6.6,0,0,0,497.75,120.38Z" transform="translate(-7.93 -9.26)"/><path class="cls-13" d="M497.11,119.52a6.7,6.7,0,0,1,.45.6A6.7,6.7,0,0,0,497.11,119.52Z" transform="translate(-7.93 -9.26)"/><path class="cls-13" d="M498.26,121.37a5.65,5.65,0,0,1,.29-1A5.65,5.65,0,0,0,498.26,121.37Z" transform="translate(-7.93 -9.26)"/><path class="cls-13" d="M486.67,120.61a.31.31,0,0,0-.05.1C486.64,120.76,486.65,120.71,486.67,120.61Z" transform="translate(-7.93 -9.26)"/><path class="cls-13" d="M488,166.63c1.32,2,3.4,3.67,5.88,5.8l-.94-3.68C491.84,169.19,490,168.21,488,166.63Z" transform="translate(-7.93 -9.26)"/><path class="cls-13" d="M509.91,119.43c1.15,4.47,2.42,9.5,2.42,9.5s-2-5.33-3.62-9.74c-3-3-8.56-2.71-10.15,1.2,1.31,4.93,2.91,11,2.91,11s-2.8-7.34-4.43-12c-2.63-2.89-7.58-3-9.72,0,1.27,5,3.24,13.6,3.24,13.6s-2.88-8.61-3.94-12.31l-8-29.77c-1.91-7.33-14.47-5.76-11.91,3.1l11.11,38.66a15.4,15.4,0,0,1,4.63,5.3l9.44,16.33a29.12,29.12,0,0,1,2.26,7.29l23.37-.91a70.4,70.4,0,0,0,8.67-18.92l-5.5-20.09C519.23,116.5,512.23,115.59,509.91,119.43Z" transform="translate(-7.93 -9.26)"/><path class="cls-13" d="M517.49,160.71l-23.37.91c.58,3.27.56,6.45-1.13,7.13h0l.94,3.68c.69.6,1.41,1.22,2.16,1.89a16,16,0,0,0,6.22,3.14A71.35,71.35,0,0,0,517.49,160.71Z" transform="translate(-7.93 -9.26)"/><path class="cls-13" d="M493,168.75l-1.78-7,2.93-.11a29.12,29.12,0,0,0-2.26-7.29L482.42,138a15.4,15.4,0,0,0-4.63-5.3l9,31.41a8.74,8.74,0,0,0,1.21,2.52C490,168.21,491.84,169.19,493,168.75Z" transform="translate(-7.93 -9.26)"/><path class="cls-13" d="M493,168.75h0c1.69-.68,1.71-3.86,1.13-7.13l-2.93.11Z" transform="translate(-7.93 -9.26)"/><path class="cls-40" d="M497.56,120.12l.19.26Z" transform="translate(-7.93 -9.26)"/><path class="cls-40" d="M497,119.42v0l.07.06Z" transform="translate(-7.93 -9.26)"/><path class="cls-40" d="M486.67,120.57v0a5.1,5.1,0,0,1,.32-.71A5.94,5.94,0,0,0,486.67,120.57Z" transform="translate(-7.93 -9.26)"/><path class="cls-40" d="M487.31,119.4a3.45,3.45,0,0,0-.2.32,3.21,3.21,0,0,1,.21-.3Z" transform="translate(-7.93 -9.26)"/><path class="cls-40" d="M508.7,119.15v0a.23.23,0,0,1,.07.07A1,1,0,0,0,508.7,119.15Z" transform="translate(-7.93 -9.26)"/><path class="cls-40" d="M498.56,120.39v0Z" transform="translate(-7.93 -9.26)"/><path class="cls-40" d="M509.91,119.43a4.46,4.46,0,0,0-.37.76,4.86,4.86,0,0,1,.37-.76Z" transform="translate(-7.93 -9.26)"/><path class="cls-40" d="M487.32,119.42a3.21,3.21,0,0,0-.21.3l-.12.18a5.1,5.1,0,0,0-.32.71c0,.1,0,.15-.05.1,1.06,3.7,3.94,12.31,3.94,12.31S488.59,124.44,487.32,119.42Z" transform="translate(-7.93 -9.26)"/><path class="cls-40" d="M498.56,120.39v0a5.65,5.65,0,0,0-.29,1,6.6,6.6,0,0,0-.51-1l-.19-.26a6.7,6.7,0,0,0-.45-.6l-.07-.06c1.63,4.63,4.43,12,4.43,12S499.87,125.32,498.56,120.39Z" transform="translate(-7.93 -9.26)"/><path class="cls-40" d="M509.91,119.43a4.86,4.86,0,0,0-.37.76,5.71,5.71,0,0,0-.76-.93.23.23,0,0,0-.07-.07c1.61,4.41,3.62,9.74,3.62,9.74S511.06,123.9,509.91,119.43Z" transform="translate(-7.93 -9.26)"/><path class="cls-41" d="M478.34,87.38a76,76,0,0,1,6.76,12.13,12.58,12.58,0,0,1,1.25,4.54.15.15,0,0,0,0,.06v0h0c-.57-2.81-3-4.46-5.32-5.75-2.84-1.58-5.93-3.49-7.81-6.39a9.79,9.79,0,0,1-2-4.85c-.57-3.07-.77-10.55-3.62-12l.08,0a11.56,11.56,0,0,1,3.3,2.64A65.44,65.44,0,0,1,478.34,87.38Z" transform="translate(-7.93 -9.26)"/><path class="cls-13" d="M424.49,135c1.67-7.86-3.22-10.49-8.06-12l-8.53,40.18a27.22,27.22,0,0,0,0,8.92,73.44,73.44,0,0,0,7.65,6.66l1-6Z" transform="translate(-7.93 -9.26)"/><circle class="cls-18" cx="450.16" cy="112.83" r="70.87"/><circle class="cls-42" cx="430.16" cy="409.16" r="70.87"/><path class="cls-31" d="M407.31,361.73h61.55c9.14,0,9.44,5.35,9.44,11.89v89.61c0,6.54-.3,11.89-9.44,11.89H407.31c-9.14,0-9.44-5.35-9.44-11.89V373.62C397.87,367.08,398.17,361.73,407.31,361.73Z" transform="translate(-7.93 -9.26)"/><path class="cls-33" d="M403,371.24h70.11c.14,0,.25.07.25.16v93.09c0,.09-.11.17-.25.17H403c-.13,0-.25-.08-.25-.17V371.4C402.78,371.31,402.9,371.24,403,371.24Z" transform="translate(-7.93 -9.26)"/><rect class="cls-14" x="420.58" y="355.28" width="19.16" height="1.72" rx="0.86" ry="0.86"/><path class="cls-32" d="M438.09,466.82a2.91,2.91,0,1,1-2.91,2.9A2.9,2.9,0,0,1,438.09,466.82Z" transform="translate(-7.93 -9.26)"/><path class="cls-43" d="M403.82,464.66h19.31l28.72-93.42h-48a1,1,0,0,0-1,1v91.35A1,1,0,0,0,403.82,464.66Z" transform="translate(-7.93 -9.26)"/><path class="cls-44" d="M459.31,452.15h0Z" transform="translate(-7.93 -9.26)"/><path class="cls-44" d="M460.07,449.63h0Z" transform="translate(-7.93 -9.26)"/><path class="cls-44" d="M459.14,450.76h0S459.13,450.76,459.14,450.76Z" transform="translate(-7.93 -9.26)"/><path class="cls-44" d="M465.05,437.47a10.78,10.78,0,0,0-3-2,11.41,11.41,0,0,0-3-.84c-.22,0-2.68-.41-2.52,0,.06.16.85-.1.85.06s-1.42.26-1.36.51,1.39-.14,1.45-.38c.16-.61,1.23.14.69.29a10.27,10.27,0,0,1-1.47.26,4.34,4.34,0,0,0-1.83,1.06,5.44,5.44,0,0,0-2.12,4.2c0,.43,0,.86,0,1.29,0,.17-.12.46-.09.61,0,.32.4,1,.15,1.32s.42,1.74.6,2.06c.08.15.76,1.72.57,1.61-.55-.32-.8-1.4-1.06-1.94a7.07,7.07,0,0,1-.44-2.32c.07-1.63-.23-3.38.45-4.93a6.9,6.9,0,0,1,1.44-2c.27-.29,1.49-.68,1.57-1s-1.28.5-1.38.56a5.1,5.1,0,0,0-1.75,1.91c-.95,1.81-.8,4-.6,6,0,.49.11,1,.19,1.47.05.31.21.32.26.51s.95,2.13,1.21,2.06.08-.33.47-.14c0,0,.35.33.31.25.11.26,1.41,1.3,1.34,1.41-.23.33-1.52-1.05-1.65-1.25s-.42-.05-.11.26.71.61.81.91.68.46,1,.57.86.74,1.2.79.56.29.92.18c.07,0,.14.19.16.21s.78-.07.77.18-2-.36-2.12-.43c-.39-.19-.76-.42-1.13-.64s-1.06-.45-1.17-.74-.63-.49-.76-.87a5.79,5.79,0,0,0-.85-1.33,6.25,6.25,0,0,1-.95-2.69c-.59-3.66-.4-8.58,3.69-10.08-.06,0,1-.19.64-.34s-.72.31-1,.39a2.43,2.43,0,0,0-1,.51c-.23.21-.77.42-.87.73s-.41.44-.51.64-.47.48-.63.75a6.93,6.93,0,0,0-.94,3.22,17.48,17.48,0,0,0,.11,3.15,7.72,7.72,0,0,0,.21,2.11,7.07,7.07,0,0,0,1.57,2.57c.15.15,1.07,1.38,1.05,1.39-.56.39-1.11-1.49-1.42-1.15s1.28,1.24,1.08,1.52-1.08-.71-1.15-.83a1.94,1.94,0,0,0-.76-.77c-.24-.12-.4-.63-.54-.87a5.07,5.07,0,0,1-1.08-2.72,15.83,15.83,0,0,0,.07-2.19c-.07-1.59-.29-3.54.61-4.9.31-.45.45-1.06.9-1.4l1.22-.91c.2-.15,1.27-.73,1.29-1a7.19,7.19,0,0,0-3.72,3.24,4,4,0,0,0-.52,2.39,15,15,0,0,0,0,2.12c.06.24.07,1.32-.11,1.46s.2,2.11.29,2.48a6,6,0,0,0,1.07,1.85,11.81,11.81,0,0,1,1.15,1.32c.25.45.81.74,1.17,1.06a5.21,5.21,0,0,0,2.31.85c.74.18,1.52.36,2.24.61.14.05.09.22-.06.19-.44-.07-.88-.15-1.31-.24a15,15,0,0,1-2.59-.71c-.31-.11-.57-.34-.87-.48s0,.31,0,.33a3.64,3.64,0,0,0,1.33.75c.25.07,2,.14,2.06.42s-3.6-.35-3.54-.47c-.11.21.81.25.82.54s-.39,0-.52.1.61.44.64.07a7.47,7.47,0,0,1,1.72.08c.74.09,1.51.1,2.27.18.2,0,.8,0,.94.18s1.11-.18,1.29-.21a15,15,0,0,0,2-.57c.07,0,1.26.16,1.13-.2s-1.93.14-2.08-.08c-.34-.48,1.78-.3,1.94-.32s2.41.19,2.35-.34c0,0-2,.15-2.22.25s-.25-.19-.39-.18a4.46,4.46,0,0,1-1.45-.25c-.45-.13-.88-.29-1.32-.42s-.52-.35,0-.24.89.26,1.34.38,1,.08,1.41.21a1.83,1.83,0,0,0,.94.12c.21,0,.69-.37.24-.32a7.05,7.05,0,0,1-2.58-.33,4.38,4.38,0,0,1-1-.3s-.44-.29-.14-.23a21.07,21.07,0,0,0,2.44.4c0-.2-2-.49-1.82-.74s1.81.36,2.06.41a12.45,12.45,0,0,0,2.36.18,2.2,2.2,0,0,1,.81,0c.18.07.68-.15.41-.28s-1.45.11-1.91.08a11.28,11.28,0,0,1-6.37-2.61c-.23-.2-1.32-1.51-1.6-1.41s1,1.43,1.16,1.56a6.87,6.87,0,0,0,1.34,1.06c.06,0,1,.52.61.6-.72.17-2.16-1.43-2.59-1.89a21.26,21.26,0,0,0-2.23-2.65c.11,1.68,2.25,3.33,3.5,4.18.17.11.81.4.84.61.06.45-.73-.16-.79-.19a10.79,10.79,0,0,1-2-1.6,9.62,9.62,0,0,1-2.63-4.49c0-.17-.32-1-.22-1.1s.12-.56.26-.21.3,2.55.72,2.5-.59-1.61-.16-1.73.44,1.36.52,1.49.33.59.51.85c.07.09.3,0,.35-.06.19-.24-.12-.19-.17-.3s-.87-1.64-.63-1.74.69,1.36.8,1.55,1.12,1.42,1.18,1.22-1.1-1.67-.9-1.77.78,1,.95,1.13.14.43.39.56.73.42.74.57.51.28.48,0-.55-.62-.73-.79a4,4,0,0,1-1.35-1.85,10.69,10.69,0,0,1,1.44,1.57c.18.21.57.47.68.71s.69.36.82.77a11.36,11.36,0,0,0,1.48.89,13.72,13.72,0,0,1,1.87.84c0,.56-3.95-1.84-3.93-1.84-.19.15,1.16,1.31,1.34,1.37.82.26,1.57.71,2.4,1a12.77,12.77,0,0,1,1.8.27,5.75,5.75,0,0,0,2.37.24c-.3-.33-1.72-.39-2.15-.39a8.79,8.79,0,0,1-1.66-.36c-.38-.09.2-.29.19-.29a6.71,6.71,0,0,1,1.13.24c.43.05.85,0,1.28.07.06,0,1.13.29.83-.14a10.21,10.21,0,0,0-2.22-.16,10.66,10.66,0,0,1-2.84-1.08,8.39,8.39,0,0,1-1.71-1.24,10.24,10.24,0,0,1-2-1.79,6.79,6.79,0,0,1-1.41-2.4,1,1,0,0,0-.32-.6c-.21-.28-.09-1,0-1.33a2.28,2.28,0,0,1,1.44-1.62c.8-.23,1.62.79,2.12,1.29.73.7,6.53,6.5,7.16,5.58a11.17,11.17,0,0,0-1.29-.81,18.36,18.36,0,0,1-1.74-1.4c-.56-.49-1-1.08-1.52-1.6a13.61,13.61,0,0,1-1.87-1.76c-.8-1.13-2.57-2.07-3.73-1a2.54,2.54,0,0,0-1,1.67c0,.12.16,1.91-.18,1.87-.59-.07.17-3,.37-3.27a2.43,2.43,0,0,1,2.67-1.11c1.13.42,1.66,1.27,2.54,2a32.65,32.65,0,0,1,3.16,3.07,6.85,6.85,0,0,0,1.9,1.52c.52.28.39-.16,0-.37a7.5,7.5,0,0,1-1.46-1.11c-.49-.51-.82-1.14-1.26-1.67a15.35,15.35,0,0,0-1.53-1.49c-.56-.5-1.13-1-1.7-1.45a4,4,0,0,0-1.58-.71c-.32-.11-1.22-.11-1.42-.32s-1,.37-1.18.47c-1.17.54-1.43,1.78-1.7,2.93,0,.12-.07,1-.09,1-.5.25-.19-1.22-.15-1.36.21-.86.83-2.61,1.77-2.94a4.76,4.76,0,0,1,3.63.13,6.17,6.17,0,0,1,1.67,1.09,6.68,6.68,0,0,1,1.52,1.53c.12.26.84.58,1.05.84.39.5.69,1.07,1.13,1.54.15.18,1.86,1.68,2.09,1.4,0,0-1.25-1.08-1.39-1.21-.87-.78-1.2-1.74-2-2.52-1.68-1.6-3.26-3.26-5.7-3.43a3.79,3.79,0,0,0-3.74,2.45,10.23,10.23,0,0,0-.62,3.08c0,.21.62,1.57.32,1.73s-.43-1.17-.45-1.25a6.48,6.48,0,0,1,.33-3.32,4.15,4.15,0,0,1,5.07-3c1.89.45,3.19,1.8,4.63,3L466,441c.06.05,1.15.91,1.22.72a22.54,22.54,0,0,0-2.26-2.08c-.82-.76-1.62-1.61-2.48-2.26-1.58-1.21-4.13-2.09-6.07-1.29a5.42,5.42,0,0,0-3.13,4.91,8.47,8.47,0,0,0,.55,3.17c.05.17.9,1.92.63,1.95.09,0-.46-.74-.46-.73-.22-.49-.21-1.16-.61-1.56s-.23-.77-.34-1.13a7.12,7.12,0,0,1-.09-1.07c-.06-2.29.79-4.91,3.1-5.76a5.16,5.16,0,0,1,2.57-.43,9.14,9.14,0,0,1,3.42,1.31,24,24,0,0,1,3,2.38c.24.2,1.6,1.76,1.9,1.68a12.08,12.08,0,0,0-1.26-1.52c-.32-.32-.66-.59-1-.94s-1-.75-1.05-1.05c-.06-.58-2.32-1.37-2.81-1.54a12.19,12.19,0,0,0-1.57-.44s-1.27-.27-.89-.45,1.51.25,1.94.38a12.31,12.31,0,0,1,3.21,1.48,7.35,7.35,0,0,1,1.21,1c.19.2.78.51.81.82s1.55,1.72,1.36.85C466.25,439.08,465.64,438,465.05,437.47Zm-9.26,13.28c-.22.35-2.25-.69-1.49-.88C454.46,449.77,455.91,450.54,455.79,450.75Zm.29.15c0-.15.28-.22.32,0S456.13,451.09,456.08,450.9Zm2.74,1.23c-.21.05-.36-.18-.1-.24S459,452.09,458.82,452.13Zm2.17-2.87c-.06.11-.58,0-.59-.15C460.37,448.79,461.09,449.07,461,449.26Zm-3.83-6.16c0,.28-.33,0-.36-.13S457.15,442.91,457.16,443.1Zm-.43-.77c.26.2-.05.64-.17.17-.05-.19-.26-.41-.29-.61C456.11,440.88,456.65,442.27,456.73,442.33Zm-.85-.19c.08-.21.52.69.57.92v0a.41.41,0,0,1,0,.22C456.27,443.46,455.82,442.28,455.88,442.14Zm-.59.12c-.16-.24.19,0,.22,0S455.34,442.52,455.29,442.26Zm-.09-2.89a3.13,3.13,0,0,1,2-2.13h0a.24.24,0,0,1,.26,0c.07.13-.84.75-.91.8-.26.17-.4.18-.58.45s-.19.68-.35.91a9.75,9.75,0,0,0-.29,2.63C454.87,442.06,455.11,439.66,455.2,439.37Zm-2.3,4.39h0c0-.17.13-.46.21-.19s-.12.57-.2.19C452.91,443.77,452.91,443.78,452.9,443.76Zm6.44,8.39h0c-.09,0-.25,0-.22-.12S459.6,452,459.34,452.15Zm-.19-1.38h0c-.14,0-.57-.26-.31-.33S459.4,450.6,459.15,450.77Zm1,1.48h0c-.61.23-.47-.3-.4-.23s.72,0,.72.12A.55.55,0,0,1,460.18,452.25Zm.79,0c-.18,0-.24-.19,0-.24S461.18,452.24,461,452.28Zm.31-.7h0c-.19,0-2,.11-1.9-.28a5.18,5.18,0,0,1,2.06.2A.15.15,0,0,1,461.28,451.58Zm-1.44-2.26c.08-.15.49.24.25.31h0C459.86,449.63,459.77,449.47,459.84,449.32Zm.89,1.51.57.15c.19.06.08.25-.05.22-.32-.08-2.06-.32-1.7-.57h0C459.86,450.52,460.44,450.77,460.73,450.83Zm-1.49-.78a1.49,1.49,0,0,0,.4-.15c.38,0,.16.29,0,.34s-1.34-.15-.74-.32Zm-5-5.74h0v-.21c0-.19.41.42.43.46a10.67,10.67,0,0,0,1.23,2.22,9.45,9.45,0,0,0,1.52,1.64c.5.42,1,.54,1.56.93,0,0-.12.24-.17.25a5.08,5.08,0,0,1-.43-.27,7.69,7.69,0,0,1-1.94-1.45,8.2,8.2,0,0,1-2.19-3.56S454.25,444.42,454.23,444.31ZM454,446c.15.42.39.84.55,1.21A.24.24,0,1,0,455,447c0-.09-.65-.71-.31-.8.07,0,1.55,1.95,1.77,2.16s.74.61,1.12.91c.13.1,1.08.41,1.08.57,0,.52-1.9-.85-2-1l-1.25-1.15c-.15-.14-.66-.25-.37.05.14.14.35.23.41.46.12.46.71.45.92.79s2.18,1.38,2.14,1.47c-.15.33-2.55-1-2.57-.92s.35-.19.34-.21c-.19-.21-.39-.41-.6-.61-.4-.37-1.08-.76-1.22-1.33-.24-1-1.41-1.85-1.23-3C453.65,444.61,453.84,445.63,454,446Z" transform="translate(-7.93 -9.26)"/><polygon class="cls-44" points="444.97 434.5 444.97 434.5 444.98 434.5 444.97 434.5"/><path class="cls-44" d="M453.19,444.45c0,.12,0,0,0,0Z" transform="translate(-7.93 -9.26)"/><path class="cls-44" d="M454.23,444.31Z" transform="translate(-7.93 -9.26)"/><path class="cls-44" d="M457.16,437.24Z" transform="translate(-7.93 -9.26)"/><path class="cls-44" d="M459.57,450.62h0Z" transform="translate(-7.93 -9.26)"/><path class="cls-44" d="M456.46,443.08v0S456.46,443.11,456.46,443.08Z" transform="translate(-7.93 -9.26)"/><path class="cls-44" d="M454.12,427.88c.16-.05.67,0,.69-.25s-.73,0-.81,0-.75.15-.86.34C452.88,428.4,454,427.92,454.12,427.88Z" transform="translate(-7.93 -9.26)"/><path class="cls-44" d="M448.45,442.24c.25-.09.24-.63.13-.81-.27-.46-.2.7-.17.82Z" transform="translate(-7.93 -9.26)"/><path class="cls-44" d="M463.73,451.94l1-.19C464.7,451.44,463.82,451.78,463.73,451.94Z" transform="translate(-7.93 -9.26)"/><path class="cls-44" d="M458.66,441.61c-.18.18.31.66.41.6s0-.4,0-.52c.32.31.48.74.81,1.05s.6.49.88.71a23.45,23.45,0,0,0,2.21,1.46,12.18,12.18,0,0,0,2.18,1.13c.43.16,1.88.62,2.22.37-.09-.15-.71-.19-.86-.31s-.4-.06-.58-.06-.69-.29-.94-.42a41.19,41.19,0,0,1-3.55-2.19,7.17,7.17,0,0,1-2.52-2.78c-.3-.61-.72-2.5-1.76-1.67a1.43,1.43,0,0,0-.34,1.64,14.43,14.43,0,0,0,.73,2,10.26,10.26,0,0,0,2.86,3.05,10.49,10.49,0,0,0,1.68,1c.36.18,1.38.8,1.76.67.12,0,.45.23.58.27a2.46,2.46,0,0,0,.88.14c.49,0,1.76.34,2.11,0a14.47,14.47,0,0,0-1.62-.33c-.78-.27-1.47-.9-2.28-1.17a8.21,8.21,0,0,1-2.08-1.23c-.59-.43-2.51-1.39-2.38-2.26a15.54,15.54,0,0,0,1.95,1.69c.56.33,1.17.71,1.69,1.08a13.58,13.58,0,0,0,2.67,1.25c.1,0,2.13.68,2,.28,0-.12-1-.14-1.1-.21-.59-.28-1.2-.49-1.75-.81-.83-.49-1.67-.88-2.46-1.41-1-.64-1.79-1.42-2.77-2-.66-.38-.71-.78-.88-1.46a12.94,12.94,0,0,1-.47-1.41c0-.1-.28-.53-.38-.5-.32.09-.07.8,0,1a8.4,8.4,0,0,0,1.28,2.93A9.87,9.87,0,0,0,462,445.8a16.07,16.07,0,0,0,1.79.95c.2.09,1.66.53,1.67.74,0,.43-1.41-.31-1.54-.3s-.77-.39-1-.49a10.05,10.05,0,0,1-1.21-.66,10.42,10.42,0,0,1-3.9-3.87,5.5,5.5,0,0,1-.68-2.59c.06-.81.52-.49.86-.16s.12.68.28,1,.26.44.39.64C458.91,441.37,458.9,441.39,458.66,441.61Z" transform="translate(-7.93 -9.26)"/><path class="cls-44" d="M459.93,440.38a11.87,11.87,0,0,0,1.85,1.9c.28.21,4,3.19,4.26,2.85,0,.06-1.55-1.35-1.74-1.4a4.2,4.2,0,0,1-1.1-.79c-.48-.48-1-.89-1.48-1.38s-.71-.54-.92-.94a7.8,7.8,0,0,0-1.14-1.16,7.44,7.44,0,0,0-1.34-1c-.66-.43-.73.33-.32.2h0c.39-.12.9.66,1.2.87,0,0,.35.23.34.36-.05.35-.44-.22-.59-.19s1,1.83,1.1,2c.57.66,1.39,1.13,1.92,1.82.17.22.55.25.79.39.42.27.81.59,1.24.86a7.53,7.53,0,0,0,1,.44c.21.1.65.44.89.44s-.91-.72-1-.77c-.42-.17-1-1.15-1.5-1-.26.09-1.63-1.27-1.86-1.47a13.36,13.36,0,0,1-2-2C459.28,440.13,459.62,440,459.93,440.38Z" transform="translate(-7.93 -9.26)"/><path class="cls-44" d="M458,438.7Z" transform="translate(-7.93 -9.26)"/><path class="cls-44" d="M450.72,442.11a11.54,11.54,0,0,0,.47,4c.07.22,1.22,2.64,1.59,2.26.07-.08-1.21-2.09-1.26-2.35a18.78,18.78,0,0,1-.47-3.57c0-.62,0-1.25,0-1.87,0-.34-.08-1.36.14-1.61a2.6,2.6,0,0,1,0-.4c.14-.29.31-.58.47-.86s.67-.84.68-1.2h0c-.37,0-1.5,1.76-1.39,2a3.54,3.54,0,0,1-.12,1.44C450.8,440.68,450.74,441.39,450.72,442.11Z" transform="translate(-7.93 -9.26)"/><path class="cls-44" d="M448.81,433.22a6.81,6.81,0,0,1,.65-.53c.18-.14.87-.23.94-.34.6-.92,2.3-1.42,3.33-1.64.48-.1.94-.15,1.42-.24a2.91,2.91,0,0,0,.82-.21c.26-.15.32,0,.61-.1a6.06,6.06,0,0,1,2-.25c.2,0,1.92,0,1.82-.26a.38.38,0,0,0-.41,0,3,3,0,0,1-1.08,0c-.4-.19-1.14.15-1.6,0-1-.23-2.32,1-3.35.68-.49-.14-1.55.42-2,.67s-1.19.52-1.77.82c-.28.15-2.67,1.93-2.37,2.18S448.71,433.32,448.81,433.22Z" transform="translate(-7.93 -9.26)"/><path class="cls-44" d="M448.17,433.17c.12,0,.16-.31.26-.4.32-.29.66-.53,1-.81a9,9,0,0,1,1.63-.91,3.88,3.88,0,0,0,.87-.58c.09-.08.38,0,.57-.15s.24.07.46.07.26-.31.36-.4a4.64,4.64,0,0,1,1.91-.73c.57-.1,1.09-.5,1.71-.57s1.33.13,1.87-.22h0a2.22,2.22,0,0,0-.9-.16c-.13,0-.27.15-.42.17-.33.06-.64-.09-1,0-1.2.28-2.3,1.12-3.51,1.31a1.56,1.56,0,0,0-.68.18c-.17.14-.06.28-.38.33a3.4,3.4,0,0,0-1.29.57,26,26,0,0,0-2.84,2.14C447.57,433.21,448.17,433.18,448.17,433.17Z" transform="translate(-7.93 -9.26)"/><path class="cls-44" d="M449.8,439.33c.35-.58.41-1.29.79-1.84a10.69,10.69,0,0,1,2.25-2.54,7.48,7.48,0,0,1,2-1.15c.15-.06,1.83-.47,1.73-.65s-.78.07-.88.1a7.81,7.81,0,0,0-3.65,2.07,10,10,0,0,0-2.24,3.26,12,12,0,0,0-.71,3.54c0,.2-.43,2.34-.07,2.3.08,0,.3-3,.31-3.21A4,4,0,0,1,449.8,439.33Z" transform="translate(-7.93 -9.26)"/><path class="cls-44" d="M455.66,433.25c.3-.07-.35.05,0,0Z" transform="translate(-7.93 -9.26)"/><path class="cls-44" d="M448.2,437.57c.17,0,.52-.89.62-1a6.37,6.37,0,0,1,.81-1.1c.21-.19,1.14-.82,1.11-1.15-.38.09-.69.51-1,.74s0-.43.11-.51c.47-.38.92-.78,1.41-1.15a6.72,6.72,0,0,0,.93-.83,5.18,5.18,0,0,1,2.36-1.24c1.07-.16,2.24-1,3.4-.81.42.07.46-.3.09-.22a8.68,8.68,0,0,0-2,.37,4.62,4.62,0,0,1-1.48.33c-.41,0-1,.55-1.37.73a8.65,8.65,0,0,0-2.34,1.68c-.42.41-.88.77-1.29,1.19-.71.74,0,.42,0,.71a2,2,0,0,0-.35.24c-.27.1-.59.64-.71.85a6.71,6.71,0,0,0-.74,1.91l0,0C448,438.08,448.05,437.56,448.2,437.57Z" transform="translate(-7.93 -9.26)"/><path class="cls-44" d="M464.81,449.57h0c.85-.25-.69-.42-.87-.45a8.46,8.46,0,0,1-2.21-.74c-.39-.2-4-2.72-4-2.7-.38.46,2.72,2.54,3.09,2.71a12.3,12.3,0,0,0,2.23.79,7.57,7.57,0,0,0,1.71.4Z" transform="translate(-7.93 -9.26)"/><path class="cls-44" d="M457,434.2a4.9,4.9,0,0,1,1.79,0,4.17,4.17,0,0,1,1.36.32c.57.44,1.47.35,2.09.64a7.36,7.36,0,0,1,1.06.51,7.63,7.63,0,0,1,1.26.71c.15.16,1.45,1.76,1.71,1.53s-1.49-1.7-1.64-1.83a3.86,3.86,0,0,0-1.52-.93,7.7,7.7,0,0,1-1.43-.37c-.52-.26-1.08-.28-1.61-.49a5.8,5.8,0,0,0-2.1-.43,2.44,2.44,0,0,1-.93.09c-.52-.08-.74.41,0,.25C457.46,434.1,457.1,434.19,457,434.2Z" transform="translate(-7.93 -9.26)"/><path class="cls-44" d="M457,434.2Z" transform="translate(-7.93 -9.26)"/><path class="cls-44" d="M448,440.2c.3-.4.28-1.11.53-1.57a16.64,16.64,0,0,1,.83-1.63,10.48,10.48,0,0,1,2-2.41,8.61,8.61,0,0,1,3.15-1.89,13.37,13.37,0,0,1,2-.46c.94-.13.2,0,.13-.19-.19-.39-3.05.71-3.39,1s-.9.55-1.33.87-.66.57-1,.82a9.53,9.53,0,0,0-2.13,2.55c-.12.18-.06.37-.14.56s-.27.36-.33.59c-.11.42-.55,1.31-.32,1.76Z" transform="translate(-7.93 -9.26)"/><path class="cls-44" d="M453.86,428.82a7,7,0,0,0,1.73-.44,2.48,2.48,0,0,0,.54-.32c.07-.06.33.06.44,0,.43-.14-.15-.59-.55-.21s-1.29.27-1.74.49a6.59,6.59,0,0,1-1.22.49,12.15,12.15,0,0,0-2.75,1.36c-.54.32-2,1.1-2.13,1.78,1.63-.72,3-2.49,4.84-2.86C453.3,429.09,453.63,428.85,453.86,428.82Z" transform="translate(-7.93 -9.26)"/><path class="cls-44" d="M454.3,433.11h0Z" transform="translate(-7.93 -9.26)"/><path class="cls-44" d="M452.18,434.41a15.9,15.9,0,0,0-1.89,1.87,7.94,7.94,0,0,0-1.34,2.66c-.06.18-.64,2.18-.36,2.22.05,0,.48-1.87.54-2.05a10.22,10.22,0,0,1,1.38-2.59,9.64,9.64,0,0,1,1.91-2.07c.23-.17,2.32-1.34,2.33-1.32s-.29-.05-.41,0h0A6,6,0,0,0,452.18,434.41Z" transform="translate(-7.93 -9.26)"/><path class="cls-44" d="M447.92,436.6c.23,0,.44-.52.51-.69A5.75,5.75,0,0,1,449,435a6.37,6.37,0,0,1,1.38-1.64,10.49,10.49,0,0,1,2.66-1.95c.16-.07.85-.14.83-.4s-.42,0-.5.08a17.85,17.85,0,0,0-2.42,1.25c-.47.41-.79.89-1.22,1.33a4.83,4.83,0,0,0-.51.5c-.11.16-.39.74-.56.8C448.28,435.1,447.68,436.65,447.92,436.6Z" transform="translate(-7.93 -9.26)"/><path class="cls-44" d="M447.92,436.6c-.09,0,0,0,0,0Z" transform="translate(-7.93 -9.26)"/><path class="cls-44" d="M463.1,433.45A4.93,4.93,0,0,1,462,433a9.18,9.18,0,0,0-1.55-.45,9.63,9.63,0,0,0-5.47.49c-.12.06.28,0,.4,0,0,0-.08,0,0,0l.06,0h0a13,13,0,0,1,4.82-.39,7.8,7.8,0,0,1,1.46.42,5.43,5.43,0,0,1,2.42,1.05c.25.31.56-.12.18-.21S463.54,433.46,463.1,433.45Z" transform="translate(-7.93 -9.26)"/><path class="cls-44" d="M455.38,433.11l-.06,0C455.39,433.12,455.4,433.11,455.38,433.11Z" transform="translate(-7.93 -9.26)"/><path class="cls-44" d="M452.84,432.62c-.41.23-1.72.92-1.76,1.47.33,0,1.11-.81,1.39-1a7.59,7.59,0,0,1,2-1,10.92,10.92,0,0,1,2.11-.34c.41,0,1.87.1,2.13-.29a26.66,26.66,0,0,0-3.71.18A7.61,7.61,0,0,0,452.84,432.62Z" transform="translate(-7.93 -9.26)"/><path class="cls-44" d="M463.49,434.33a7.76,7.76,0,0,0-1.66-.69,4,4,0,0,0-1.68-.47c-.24,0,.92.41.94.41a9.7,9.7,0,0,1,1.68.64c.32.16,2.61,1.9,2.76,1.76C465.81,435.68,463.73,434.53,463.49,434.33Z" transform="translate(-7.93 -9.26)"/><path class="cls-44" d="M460.15,433.17c.11,0-.07,0,0,0Z" transform="translate(-7.93 -9.26)"/><path class="cls-44" d="M449.56,445.71c0-.11,0,.14,0,0Z" transform="translate(-7.93 -9.26)"/><path class="cls-44" d="M450.23,446.78c0-.07-.42-1.37-.45-1.58a11,11,0,0,1,0-2.07,22.14,22.14,0,0,0,.07-3.31c-.23.05-.2,2.26-.21,2.41a12.7,12.7,0,0,0-.1,3.48C449.59,445.86,450.14,446.94,450.23,446.78Z" transform="translate(-7.93 -9.26)"/><path class="cls-44" d="M454.11,430c.05.24,1.94-.51,2.19-.56s2.77-.19,2.6-.44c0-.08-.58,0-.7,0-.33-.18-1.24.12-1.63.21.05,0,.1,0,0,0C456.24,429.28,454,429.66,454.11,430Z" transform="translate(-7.93 -9.26)"/><path class="cls-44" d="M456.54,429.21h0C456.52,429.21,456.46,429.22,456.54,429.21Z" transform="translate(-7.93 -9.26)"/><path class="cls-44" d="M457,452.8c-.46,0-.89-.06-1.34,0-.16,0-.77-.33-.68.14h0l0,.06,0-.06c.09.41.28,0,.4,0s.67.18.8.22,2,.28,2.07-.12S457.08,452.79,457,452.8Z" transform="translate(-7.93 -9.26)"/><path class="cls-44" d="M455,453Z" transform="translate(-7.93 -9.26)"/><path class="cls-44" d="M458.46,433.59h0a11.36,11.36,0,0,1,2.16.45c.39.14,1.89.94,2.27.7C462.52,434.38,458.44,433.24,458.46,433.59Z" transform="translate(-7.93 -9.26)"/><path class="cls-44" d="M466.72,442.13c-.14-.1-1.65-1.53-1.74-1.32s2.19,2.15,2.36,2.07C467.79,442.67,466.9,442.25,466.72,442.13Z" transform="translate(-7.93 -9.26)"/><path class="cls-44" d="M467.34,442.88c-.09,0,0,0,0,0Z" transform="translate(-7.93 -9.26)"/><path class="cls-44" d="M452.82,450a12.76,12.76,0,0,0-1.35-1.51c-.18-.17-1-1.52-1.12-1.5-.45.11.72,1.37.87,1.53s1.21,1.55,1.59,1.48Z" transform="translate(-7.93 -9.26)"/><path class="cls-44" d="M447.8,435.46c.3,0,.75-1.07.95-1.3s1.39-1.24,1.29-1.35-1.32,1.09-1.41,1.2S447.46,435.53,447.8,435.46Z" transform="translate(-7.93 -9.26)"/><path class="cls-44" d="M447.8,435.46c-.1,0,0,0,0,0Z" transform="translate(-7.93 -9.26)"/><path class="cls-44" d="M459.59,430.94a5.06,5.06,0,0,0-1,0,3.52,3.52,0,0,0-1.25.11c-.49.11-1.31-.27-1.71.27-.19.26.72-.08.68-.08a7.37,7.37,0,0,1,1.33-.07c.34,0,1.63.05,1.89-.18l0,0Z" transform="translate(-7.93 -9.26)"/><path class="cls-44" d="M452.2,428.39a.8.8,0,0,0-.31,0c-.25.08-.47.35-.72.46s-1.27.62-1.13.84S452.36,428.57,452.2,428.39Z" transform="translate(-7.93 -9.26)"/><path class="cls-44" d="M460.52,430.27c-.2.05-1.94,0-1.88.18a5.82,5.82,0,0,0,1.91,0c.16-.05.66.34.77.07s-.67-.28-.8-.25Z" transform="translate(-7.93 -9.26)"/><path class="cls-44" d="M460.52,430.27Z" transform="translate(-7.93 -9.26)"/><path class="cls-44" d="M459.71,432.12c.07-.11-.85-.26-1.06-.26h0c-.14.05-1.57,0-1.45.28C457.19,432.2,459.73,432.1,459.71,432.12Z" transform="translate(-7.93 -9.26)"/><path class="cls-44" d="M466.24,450.39h0c-.18,0-1.68,0-1.68,0,0,.44,1.19.22,1.38.25C466.53,450.7,466.86,450.31,466.24,450.39Z" transform="translate(-7.93 -9.26)"/><path class="cls-44" d="M454.73,434.33a4.17,4.17,0,0,0,1.57-.55c.09-.19-.59,0-.62,0S454.64,434.21,454.73,434.33Z" transform="translate(-7.93 -9.26)"/><path class="cls-44" d="M455.68,433.74Z" transform="translate(-7.93 -9.26)"/><path class="cls-44" d="M460.65,432.2a.19.19,0,0,0,.22.1h.05c.18-.12,1.1.51,1.25.25S460.56,432,460.65,432.2Z" transform="translate(-7.93 -9.26)"/><path class="cls-44" d="M462.73,432.86h0c.18-.05,1.07.36,1.13.21s-.88-.37-1-.42C462.3,432.3,462.34,433,462.73,432.86Z" transform="translate(-7.93 -9.26)"/><path class="cls-44" d="M462.73,432.86h0S462.72,432.87,462.73,432.86Z" transform="translate(-7.93 -9.26)"/><path class="cls-44" d="M466.26,445.29s0,0,0,0h0c.09.23,1.24.63,1.31.47S466.22,445,466.26,445.29Z" transform="translate(-7.93 -9.26)"/><path class="cls-44" d="M458.48,433.17a9.71,9.71,0,0,1,1.25,0c.06-.2-.85-.29-1-.28s-.4.12-.57,0C458.26,433,458,433.24,458.48,433.17Z" transform="translate(-7.93 -9.26)"/><path class="cls-44" d="M459.66,431.07c.63-.05,1.23.16,1.88.12A2.35,2.35,0,0,0,459.66,431.07Z" transform="translate(-7.93 -9.26)"/><path class="cls-44" d="M457.74,433c-.14-.17-1-.12-1.05.1s.55.12.62.11S457.83,433.14,457.74,433Z" transform="translate(-7.93 -9.26)"/><path class="cls-44" d="M456.63,445.11c-.09-.26-.34-.21-.29.09,0,.14.43.58.56.51s-.26-.44-.25-.54S456.63,445.09,456.63,445.11Z" transform="translate(-7.93 -9.26)"/><path class="cls-44" d="M456.68,433.61a2.17,2.17,0,0,0,.76,0h0c.16,0,.7,0,.65-.16S456.63,433.42,456.68,433.61Z" transform="translate(-7.93 -9.26)"/><path class="cls-44" d="M457.47,433.59h0Z" transform="translate(-7.93 -9.26)"/><path class="cls-44" d="M463.47,450.2c.09.21.81.33.82.06C464.24,450.26,463.38,450,463.47,450.2Z" transform="translate(-7.93 -9.26)"/><path class="cls-44" d="M459,429.22c0-.05.44,0,.44,0,.29,0,.38-.45-.1-.3C459.32,429,458.87,429.09,459,429.22Z" transform="translate(-7.93 -9.26)"/><path class="cls-44" d="M459.31,429Z" transform="translate(-7.93 -9.26)"/><path class="cls-44" d="M460.76,431.67c.25-.1-.67-.37-.73-.12s.55.14.7.13C460.68,431.69,460.58,431.71,460.76,431.67Z" transform="translate(-7.93 -9.26)"/><path class="cls-44" d="M452.84,428.41a.19.19,0,0,0,0-.38C452.62,428,452.37,428.51,452.84,428.41Z" transform="translate(-7.93 -9.26)"/><path class="cls-44" d="M463,432.21Z" transform="translate(-7.93 -9.26)"/><path class="cls-44" d="M463,432.21s.16,0,.16-.11-.66-.25-.71-.12S462.9,432.23,463,432.21Z" transform="translate(-7.93 -9.26)"/><path class="cls-44" d="M459.55,431.68Z" transform="translate(-7.93 -9.26)"/><path class="cls-44" d="M459.73,431.5c-.15-.45-.73.36-.18.18Q459.73,431.65,459.73,431.5Z" transform="translate(-7.93 -9.26)"/><path class="cls-44" d="M455.4,435h0c.25-.12.8-.08.92-.42C456.11,434.72,455.53,434.8,455.4,435Z" transform="translate(-7.93 -9.26)"/><path class="cls-44" d="M454.92,435.23c-.07-.09-.56.3-.25.28.07,0,.05,0,0,0S455,435.33,454.92,435.23Z" transform="translate(-7.93 -9.26)"/><polygon class="cls-45" points="379.85 268.97 379.85 273.72 290.31 326.59 290.16 326.5 290.16 321.75 290.31 321.84 379.85 268.97"/><polygon class="cls-46" points="290.16 321.75 290.16 326.5 194.06 270.77 194.06 266.02 290.16 321.75"/><polygon class="cls-3" points="289.94 321.77 193.84 266.04 193.84 265.77 284.14 213.86 379.63 268.99 290.08 321.86 289.94 321.77"/><ellipse class="cls-47" cx="283.57" cy="265.97" rx="59.55" ry="30.97"/><path class="cls-48" d="M297.45,271.21a14.8,14.8,0,0,0-1.14,4.5,2.93,2.93,0,0,0,.88,2.27,36.9,36.9,0,0,0,4,.88c.93.05,4,2.48,6.2,2.63s5.06.83,5.37-.93-11-8.73-11-8.73Z" transform="translate(-7.93 -9.26)"/><path class="cls-49" d="M310.27,178.24l2.35,2.64s6.14,22.27,6,24.16-2.65,2.26-4.16,1.69-5.66-14.34-5.66-14.34Z" transform="translate(-7.93 -9.26)"/><path class="cls-48" d="M297.93,265.85l-.46,6s-.13,1.44,1.82,1.54a2.56,2.56,0,0,0,2.55-1.61l1.37-9Z" transform="translate(-7.93 -9.26)"/><path class="cls-48" d="M284.75,271.27l-1.14,5.44s.35,1.93,2.11,1.66,2.28-2.63,2.28-2.63l1.05-5.78Z" transform="translate(-7.93 -9.26)"/><path class="cls-48" d="M283.79,275.83s.17,1.58,1.58,1.49a4.57,4.57,0,0,0,2.63-1.58l-.36,5.61s-.78,8.42-3.24,9.29-2.92-2.57-3-3.77A24.69,24.69,0,0,1,283.79,275.83Z" transform="translate(-7.93 -9.26)"/><path class="cls-14" d="M288.46,213.13s.46,8.8.92,10.43-.92,23.17-.92,23.17-4.39,23.48-4.16,24.87,4.18.7,5.1-.69,6.24-20.48,7.17-26.5,3.7-19.93,3.7-19.93.24,16.92.24,18.31-2.9,25.61-2.9,25.61.12.74,2.46,1.09a2.86,2.86,0,0,0,2.66-1.06c1.38-2.26,1.71-6.18,1.71-6.18l6.26-31.74.87-23.19L307.92,206Z" transform="translate(-7.93 -9.26)"/><path class="cls-14" d="M297.28,179s7.7-2.49,10.85-1.7a5.7,5.7,0,0,1,4.47,4c.26,1-1.05,26.55-1.05,26.55s-13.67,11.3-19.45,8.41c-4.18-2.09-4.52-4.45-4.38-5.6a13.45,13.45,0,0,0,.12-2.1l2.9-26.84Z" transform="translate(-7.93 -9.26)"/><path class="cls-49" d="M310.21,198.11l-15.95,3.19-3.33-16.87-.37-.87-3.46,2.38.74,22.53a13.45,13.45,0,0,1-.12,2.1c-.12,1,.11,2.77,2.62,4.56,5.3-2.73,16-8.6,20.24-13C313,199.66,310.21,198.11,310.21,198.11Z" transform="translate(-7.93 -9.26)"/><path class="cls-50" d="M299.54,178.94s-1.66.61-1.93,1.26.92,1.34,3.32,2.71a13.51,13.51,0,0,0,2.35,1,7.11,7.11,0,0,0,1.43-3.29C304.88,176.39,299.54,178.94,299.54,178.94Z" transform="translate(-7.93 -9.26)"/><path class="cls-51" d="M312.67,173.23a7.66,7.66,0,1,1-4.75-9.75A7.67,7.67,0,0,1,312.67,173.23Z" transform="translate(-7.93 -9.26)"/><path class="cls-51" d="M307.1,172.79l-2.61,7.89h0a4.93,4.93,0,0,1-5.5.57h0a1.22,1.22,0,0,1-.6-1.37l1.94-7.65Z" transform="translate(-7.93 -9.26)"/><path class="cls-52" d="M311.9,171.07a2,2,0,0,0,1.15-.31s0,0,0,0a7.66,7.66,0,0,0-14.91-2.49,5.81,5.81,0,0,0-.26,1,2.55,2.55,0,0,0,1,.31c.79.07,3.37-1,3.13-2,.12.52.23,1,.35,1.56a1.85,1.85,0,0,0,1.12-1.36A11.4,11.4,0,0,0,311.9,171.07Z" transform="translate(-7.93 -9.26)"/><path class="cls-49" d="M312.48,205.88s-1.53-3.41-.15-5h0c1.37-1.58,2.89-2.72,5.15-.76,0,0,4.44,6.32,3.06,7.91h0C319.17,209.61,314.74,207.84,312.48,205.88Z" transform="translate(-7.93 -9.26)"/><path class="cls-51" d="M301.2,169.53a2.34,2.34,0,1,1-1.45-3A2.34,2.34,0,0,1,301.2,169.53Z" transform="translate(-7.93 -9.26)"/><path class="cls-51" d="M321.67,206.2a2.84,2.84,0,1,1-2.84-2.83A2.84,2.84,0,0,1,321.67,206.2Z" transform="translate(-7.93 -9.26)"/><polygon class="cls-14" points="293.86 171.27 292.72 174.02 289.65 174.3 288.01 171.27 290.37 168.7 290.99 168.53 290.81 169.23 293.86 171.27"/><polygon class="cls-49" points="295.31 174.77 292.8 173.77 293.86 171.27 295.31 174.77"/><circle class="cls-53" cx="292.18" cy="171.92" r="0.82"/><polygon class="cls-49" points="296.75 170.84 295.31 174.77 297.38 172.63 296.75 170.84"/><path class="cls-54" d="M311.44,210.37l-.12,3.76s-14.69,6.28-20.42,4.59c-3.33-1-3.35-3.31-3.25-4.16.06-.52,0-3.24,0-3.55,0,0,1.33,3.93,5,4.44C296.86,216,311.44,210.37,311.44,210.37Z" transform="translate(-7.93 -9.26)"/><path class="cls-54" d="M310.33,211.08l1-.18s-8.51-21.12-15.44-28.33c-.82-.85-2.75-1.94-3.05-1.82a10.17,10.17,0,0,0-2.14.88s3.15.78,6.47,4.71C301.66,191.62,310.33,211.08,310.33,211.08Z" transform="translate(-7.93 -9.26)"/><path class="cls-14" d="M292.72,191.56s-.13-9.14-2-9.93c0,0-4.17.89-5.48,3.78s-1,5.47-2.21,9.93c-.82,3-2.77,9.6-2.37,12.09s3,3.82,9.2,1.32,21.56-8.55,21.56-8.55l-.13-2.76-20.14,3Z" transform="translate(-7.93 -9.26)"/><path class="cls-51" d="M316.12,198.43a2.83,2.83,0,1,1-2.83-2.83A2.82,2.82,0,0,1,316.12,198.43Z" transform="translate(-7.93 -9.26)"/><path class="cls-51" d="M317.84,201l-2-3.12a.8.8,0,0,0-1.34.87l2,3.12a.8.8,0,0,0,1.1.23A.79.79,0,0,0,317.84,201Z" transform="translate(-7.93 -9.26)"/><path class="cls-55" d="M288,216.65a3.62,3.62,0,0,1-.37-2.09c.06-.52,0-3.24,0-3.55a7.6,7.6,0,0,0,3.16,3.84Z" transform="translate(-7.93 -9.26)"/><polygon class="cls-55" points="299.58 195.51 298.33 192.94 299.5 192.52 300.54 194.79 299.58 195.51"/><polygon class="cls-56" points="322.63 185.81 308.52 194.9 303.82 199.64 318.54 191.09 322.63 185.81"/><polygon class="cls-57" points="322.63 185.81 322.87 186.12 318.83 191.5 304.09 199.98 303.82 199.64 318.54 191.09 322.63 185.81"/><polygon class="cls-58" points="321.64 186.65 309.12 194.58 304.76 198.94 318.31 191 321.64 186.65"/><circle class="cls-3" cx="132.87" cy="112.83" r="70.87"/><path class="cls-17" d="M153,133.41l-.79,1.06a.37.37,0,0,0,.11.55l3.91,2.31.06,0,2.07.75a.39.39,0,0,0,.36-.06l1.79-1.34a.39.39,0,0,0,.14-.23l.57-3.09a.39.39,0,0,0-.39-.45l-.48,0,.17.77-.17-.77-7.06.3A.41.41,0,0,0,153,133.41Z" transform="translate(-7.93 -9.26)"/><circle class="cls-18" cx="132.87" cy="112.83" r="70.87"/><path class="cls-59" d="M187.54,133.2l-46.25-26.7a6,6,0,0,0-6,0L107,122.92a6,6,0,0,0,0,10.42l2.68,1.55-19.15,11a4.25,4.25,0,0,0,0,7.37l16.27,9.13a4.22,4.22,0,0,0,4.21,0l23.17-13.29,19,11a6,6,0,0,0,6,0l28.28-16.4A6,6,0,0,0,187.54,133.2Z" transform="translate(-7.93 -9.26)"/><polygon class="cls-60" points="121.49 86.06 143.08 73.51 143.07 75.77 121.48 88.32 121.49 86.06"/><path class="cls-61" d="M133.74,77.48c-1.4-.49-3.28.28-3.87.52-4.87,2-19.7,7.37-19.7,7.37a2,2,0,0,1,2,.2l17.27,9.75L151,82.77S138,79,133.74,77.48Z" transform="translate(-7.93 -9.26)"/><path class="cls-62" d="M160.8,118.89l-.09,32.47a1.94,1.94,0,0,1-.81,1.78l21.59-12.55a1.93,1.93,0,0,0,.81-1.78l.09-32.46Z" transform="translate(-7.93 -9.26)"/><polygon class="cls-61" points="121.48 88.32 143.07 75.77 171.69 92.3 150.1 104.85 121.48 88.32"/><path class="cls-62" d="M158,114.11l21.6-12.55a6.1,6.1,0,0,1,2.76,4.79L160.8,118.89A6.07,6.07,0,0,0,158,114.11Z" transform="translate(-7.93 -9.26)"/><path class="cls-63" d="M129.42,95.32v2.26L158,114.11a6.07,6.07,0,0,1,2.77,4.78l-.09,32.47c0,1.76-1.25,2.47-2.79,1.59L112,126.45a6.08,6.08,0,0,1-2.76-4.79l.09-34.51c0-1.76,1.26-2.47,2.79-1.58Z" transform="translate(-7.93 -9.26)"/><g class="cls-2"><path class="cls-60" d="M129.38,83.54v2.08a2.66,2.66,0,0,1-1.55,2.18,8.35,8.35,0,0,1-7.57,0,2.65,2.65,0,0,1-1.58-2.2V83.51a2.65,2.65,0,0,0,1.57,2.2,8.35,8.35,0,0,0,7.57,0A2.65,2.65,0,0,0,129.38,83.54Z" transform="translate(-7.93 -9.26)"/><path class="cls-62" d="M127.8,81.33c2.1,1.21,2.11,3.18,0,4.39a8.35,8.35,0,0,1-7.57,0c-2.09-1.21-2.1-3.17,0-4.38A8.33,8.33,0,0,1,127.8,81.33Z" transform="translate(-7.93 -9.26)"/></g><path class="cls-61" d="M112.15,107,123,101.42c2.75-1.59,6.55-1.37,10.76,1.06l-11,6.61C118.53,106.67,114.9,105.43,112.15,107Z" transform="translate(-7.93 -9.26)"/><path class="cls-63" d="M144.37,138.28,134.76,145c2.72-1.58,4.66-5.47,4.67-10.23,0-9.6-6.42-22-14.77-26.86l9.06-5.45c8.34,4.82,15.09,16.5,15.06,26.1C148.77,133.34,147.09,136.7,144.37,138.28Z" transform="translate(-7.93 -9.26)"/><g class="cls-2"><path class="cls-60" d="M124.11,107.6c8.68,5,15.69,17.15,15.66,27.12s-7.09,14-15.76,9-15.69-17.16-15.66-27.13S115.44,102.59,124.11,107.6Z" transform="translate(-7.93 -9.26)"/></g><path class="cls-60" d="M149.88,116.08l1.08-.63a2.14,2.14,0,0,1,2.16.21l-1.08.63A2.14,2.14,0,0,0,149.88,116.08Z" transform="translate(-7.93 -9.26)"/><path class="cls-61" d="M155.26,122.85l-1.08.63a2.12,2.12,0,0,0,.89-2,6.67,6.67,0,0,0-3-5.24l1.08-.63a6.69,6.69,0,0,1,3,5.24A2.11,2.11,0,0,1,155.26,122.85Z" transform="translate(-7.93 -9.26)"/><path class="cls-64" d="M152,116.29a6.67,6.67,0,0,1,3,5.24c0,1.93-1.37,2.71-3,1.74a6.68,6.68,0,0,1-3-5.25C149,116.1,150.37,115.32,152,116.29Z" transform="translate(-7.93 -9.26)"/><path class="cls-61" d="M115.16,90.57a8.69,8.69,0,0,1,3.94,6.82c0,2.51-1.78,3.52-4,2.26a8.69,8.69,0,0,1-3.93-6.82C111.21,90.33,113,89.31,115.16,90.57Z" transform="translate(-7.93 -9.26)"/><g class="cls-2"><path class="cls-65" d="M128.36,83.15v.36a2.14,2.14,0,0,1-1.26,1.76,6.74,6.74,0,0,1-6.12,0,2.14,2.14,0,0,1-1.27-1.78v-.36A2.16,2.16,0,0,0,121,84.91a6.76,6.76,0,0,0,6.13,0A2.14,2.14,0,0,0,128.36,83.15Z" transform="translate(-7.93 -9.26)"/><path class="cls-64" d="M127.08,81.37c1.7,1,1.71,2.56,0,3.54a6.76,6.76,0,0,1-6.13,0c-1.69-1-1.7-2.56,0-3.54A6.72,6.72,0,0,1,127.08,81.37Z" transform="translate(-7.93 -9.26)"/></g><path class="cls-62" d="M165,95.22l-14.66-3.08v13.38L165,97a.85.85,0,0,0,.5-.69l0-1.79A.87.87,0,0,1,165,95.22Z" transform="translate(-7.93 -9.26)"/><path class="cls-63" d="M133.19,86.3a.85.85,0,0,1-.51-.71l0,10.71a.85.85,0,0,0,.51.7l14.75,8.52,0-10.7Z" transform="translate(-7.93 -9.26)"/><path class="cls-66" d="M150.36,93.58v11.91a2.45,2.45,0,0,1-2.43,0l0-11.91A2.38,2.38,0,0,0,150.36,93.58Z" transform="translate(-7.93 -9.26)"/><path class="cls-64" d="M165,93.82a.74.74,0,0,1,0,1.4s-11.11-1.31-14.66-.4a3.47,3.47,0,0,1-2.42,0L133.19,86.3c-.68-.39-.75-1.18,0-1.41,3.52-1.09,9.68-.72,14.76-.22a6.08,6.08,0,0,1,2.32.63Z" transform="translate(-7.93 -9.26)"/><g class="cls-2"><path class="cls-61" d="M168.92,126.66l0-7.51-1.08-.63,0,7.51a.84.84,0,0,0,.36.78l1.08.63A.86.86,0,0,1,168.92,126.66Z" transform="translate(-7.93 -9.26)"/><path class="cls-62" d="M176.44,112.56a.85.85,0,0,0-.87.09L169,116.42l1.08.63,6.53-3.78a.87.87,0,0,1,.87-.08Z" transform="translate(-7.93 -9.26)"/><path class="cls-67" d="M168.9,119.15l-1.08-.63a2.67,2.67,0,0,1,1.22-2.1l1.08.63A2.67,2.67,0,0,0,168.9,119.15Z" transform="translate(-7.93 -9.26)"/><path class="cls-66" d="M176.65,113.27c.67-.39,1.22-.07,1.22.7l0,7.51a2.69,2.69,0,0,1-1.21,2.1l-6.54,3.77c-.67.39-1.22.08-1.22-.69l0-7.51a2.67,2.67,0,0,1,1.22-2.1Z" transform="translate(-7.93 -9.26)"/></g><path class="cls-61" d="M96.9,119.93l18-10.46c2.38-1.38,5.68-1.18,9.32.92l-18,10.45C102.58,118.74,99.28,118.55,96.9,119.93Z" transform="translate(-7.93 -9.26)"/><path class="cls-63" d="M133.43,141.38l-18,10.46c2.35-1.37,3.81-4.27,3.82-8.4,0-8.31-5.82-18.42-13.05-22.6l18-10.45c7.23,4.17,13.07,14.29,13,22.6C137.24,137.11,135.78,140,133.43,141.38Z" transform="translate(-7.93 -9.26)"/><ellipse class="cls-63" cx="106.17" cy="135.88" rx="10.69" ry="18.45" transform="translate(-61.83 62.49) rotate(-30.16)"/><ellipse class="cls-60" cx="105.96" cy="135.88" rx="9.2" ry="15.88" transform="translate(-61.86 62.38) rotate(-30.16)"/><path class="cls-68" d="M106,124.18c5.62,3.25,10.17,11.12,10.15,17.58s-4.59,9.07-10.22,5.83S95.76,136.46,95.78,130,100.37,120.93,106,124.18Z" transform="translate(-7.93 -9.26)"/><path class="cls-66" d="M117.23,142.39c0-7.15-5-15.86-11.23-19.45l-.4-.22c-5.62-2.5-10,.46-10,7.1,0,7.14,5,15.85,11.23,19.45l.41.22C112.84,152,117.21,149,117.23,142.39Z" transform="translate(-7.93 -9.26)"/><path class="cls-69" d="M117.23,142.39c0-7.15-5-15.86-11.23-19.45l-.4-.22c-5.62-2.5-10,.46-10,7.1,0,7.14,5,15.85,11.23,19.45l.41.22C112.84,152,117.21,149,117.23,142.39Z" transform="translate(-7.93 -9.26)"/><path class="cls-70" d="M117.21,142.45c0-7.06-4.95-15.67-11.1-19.22l-.4-.22c-5.55-2.47-9.87.45-9.89,7,0,7.06,5,15.67,11.1,19.22l.4.22C112.87,151.94,117.19,149,117.21,142.45Z" transform="translate(-7.93 -9.26)"/><g class="cls-71"><path class="cls-72" d="M108.06,124.57,99,141a26.79,26.79,0,0,0,1.83,2.75l9.41-17.13A20.89,20.89,0,0,0,108.06,124.57Z" transform="translate(-7.93 -9.26)"/></g><g class="cls-71"><path class="cls-72" d="M111.28,127.7l-9.46,17.21c.3.35.61.69.92,1l9.41-17.12C111.87,128.43,111.58,128.06,111.28,127.7Z" transform="translate(-7.93 -9.26)"/></g><g class="cls-71"><path class="cls-72" d="M116.08,136.2l-7.55,13.74a7.75,7.75,0,0,0,3.34.34l5.23-9.52A20.71,20.71,0,0,0,116.08,136.2Z" transform="translate(-7.93 -9.26)"/></g><g class="cls-73"><path class="cls-7" d="M110,137.5a12.2,12.2,0,0,0-5.53-9.57l-.2-.11c-2.76-1.23-4.91.23-4.92,3.5a12.16,12.16,0,0,0,5.53,9.57l.19.11C107.79,142.23,109.94,140.77,110,137.5Z" transform="translate(-7.93 -9.26)"/></g><g class="cls-74"><path class="cls-7" d="M111.47,142.63a6.33,6.33,0,0,0-2.86-4.95l-.1-.05c-1.43-.64-2.54.11-2.55,1.8a6.33,6.33,0,0,0,2.86,4.95l.1.05C110.35,145.07,111.46,144.32,111.47,142.63Z" transform="translate(-7.93 -9.26)"/></g><path class="cls-60" d="M174.65,131.24c.67-.39,1.22-.07,1.22.7l0,6.1a2.67,2.67,0,0,1-1.22,2.1l-2.53,1.46c-.67.39-1.22.08-1.22-.69l0-6.1a2.72,2.72,0,0,1,1.22-2.11Z" transform="translate(-7.93 -9.26)"/><path class="cls-61" d="M175.87,131.94c0-.51-.24-.81-.6-.85a1.14,1.14,0,0,1,.13.52v6.11a2.69,2.69,0,0,1-1.21,2.1l-2.53,1.46a1,1,0,0,1-.63.15c.2.37.62.46,1.1.17l2.53-1.46a2.67,2.67,0,0,0,1.22-2.1Z" transform="translate(-7.93 -9.26)"/><path class="cls-61" d="M150.5,130.82a1.75,1.75,0,0,1,.79,1.38c0,.51-.36.72-.8.46a1.76,1.76,0,0,1-.8-1.38C149.7,130.77,150.06,130.57,150.5,130.82Z" transform="translate(-7.93 -9.26)"/><path class="cls-61" d="M149.7,133.49a1.18,1.18,0,0,1,.53.92c0,.34-.24.47-.54.3a1.18,1.18,0,0,1-.53-.92C149.16,133.45,149.4,133.32,149.7,133.49Z" transform="translate(-7.93 -9.26)"/><circle class="cls-3" cx="508.16" cy="263.96" r="70.87"/><path class="cls-4" d="M506.77,286l-.39-2.68a1.34,1.34,0,0,0-1.51-1.13l-.56-3.9a1.37,1.37,0,0,0-1.55-1.16l-.18,0-.51-3.51a2.21,2.21,0,0,0-2.51-1.87l-11.08,1.6a1.72,1.72,0,0,0-.59.2L477.84,279l-.73,2.39L493.79,294a1.88,1.88,0,0,1,1.38-1l8.06-1.17a2.61,2.61,0,0,0,2.22-2.91l-.12-.92a.46.46,0,0,1,.37-.5A1.33,1.33,0,0,0,506.77,286Z" transform="translate(-7.93 -9.26)"/><path class="cls-5" d="M553.18,303a1.4,1.4,0,0,1-.36-.41,1.66,1.66,0,0,1-.14-.37l-1.58-7.31-.49-2.3a2.76,2.76,0,0,0-1-1.59l-2.09-1.57V249a2.57,2.57,0,0,0-2.56-2.57H533.87v-.73a1,1,0,0,0-1-1h-5.19v-.4a5,5,0,0,0-10.08,0v.4h-5.18a1,1,0,0,0-1,1v.73H500.4a2.56,2.56,0,0,0-2.56,2.57v39l-.71.1a1.83,1.83,0,0,0-.53.17l-9.1,4.88-2.95,1.57a1.65,1.65,0,0,0-.83,1.11l-2.85,14.22a1.4,1.4,0,0,0,0,.54l1.88,10.19-.38,2.46-2.58-.46-.8,4.51-.63-.1-.89,4,4.8,3.11,7,3.83,5.94,1.42,1.18-9.2-1.26-.22.79-4.5-1.93-.35c1.24-1.71,1.76-2.26,2.41-3.29a27.3,27.3,0,0,0,3.46-7.64l.61-2.3h36.41l.88,3.46-2.08.47,3.14,23.57,20.79-11.94ZM524.4,243.44v.68H521v-.68a1.73,1.73,0,1,1,3.45,0Z" transform="translate(-7.93 -9.26)"/><rect class="cls-6" x="477.83" y="206.62" width="65.85" height="87.05" rx="3.4" ry="3.4"/><rect class="cls-7" x="480.78" y="210.02" width="59.95" height="80.25"/><path class="cls-9" d="M510.08,229.82h-1.37L508.4,231h-1.1l1.55-5.46h1.09l1.55,5.46h-1.1Zm-1.15-.84h.93l-.46-1.73h0Z" transform="translate(-7.93 -9.26)"/><path class="cls-9" d="M513.36,230.25a.37.37,0,0,0,.34-.17.88.88,0,0,0,.11-.47h1v0a1.34,1.34,0,0,1-.4,1,1.39,1.39,0,0,1-1,.41,1.41,1.41,0,0,1-1.22-.58,2.35,2.35,0,0,1-.43-1.47v-.11a2.4,2.4,0,0,1,.43-1.48,1.42,1.42,0,0,1,1.21-.57,1.36,1.36,0,0,1,1,.42,1.56,1.56,0,0,1,.38,1.14v0h-1a1.22,1.22,0,0,0-.11-.55.38.38,0,0,0-.35-.2.47.47,0,0,0-.46.33,2.69,2.69,0,0,0-.12.89V229a2.69,2.69,0,0,0,.12.89A.47.47,0,0,0,513.36,230.25Z" transform="translate(-7.93 -9.26)"/><path class="cls-9" d="M516.55,225.93v1h.55v.76h-.55v2.06a.68.68,0,0,0,.08.37.24.24,0,0,0,.2.11H517l.12,0,.08.78a1.53,1.53,0,0,1-.29.07,1.42,1.42,0,0,1-.31,0,1,1,0,0,1-.79-.32,1.5,1.5,0,0,1-.27-1V227.7H515v-.76h.5v-1Z" transform="translate(-7.93 -9.26)"/><path class="cls-9" d="M518.8,226h-1v-.81h1Zm0,5h-1v-4.06h1Z" transform="translate(-7.93 -9.26)"/><path class="cls-9" d="M519.43,228.93a2.36,2.36,0,0,1,.44-1.49,1.6,1.6,0,0,1,2.45,0,2.36,2.36,0,0,1,.45,1.49V229a2.37,2.37,0,0,1-.44,1.48,1.6,1.6,0,0,1-2.46,0,2.4,2.4,0,0,1-.44-1.49Zm1.05.09a2.42,2.42,0,0,0,.14.9.5.5,0,0,0,.48.33.49.49,0,0,0,.47-.33,2.42,2.42,0,0,0,.14-.9v-.09a2.5,2.5,0,0,0-.14-.9.5.5,0,0,0-.48-.33.48.48,0,0,0-.47.34,2.4,2.4,0,0,0-.14.89Z" transform="translate(-7.93 -9.26)"/><path class="cls-9" d="M524.31,226.94l0,.57a1.49,1.49,0,0,1,.42-.47.93.93,0,0,1,.56-.17.94.94,0,0,1,.81.4,2.14,2.14,0,0,1,.3,1.27V231h-1.06v-2.46a1.4,1.4,0,0,0-.11-.65.37.37,0,0,0-.34-.19.62.62,0,0,0-.31.08.66.66,0,0,0-.24.23v3h-1.06v-4.06Z" transform="translate(-7.93 -9.26)"/><path class="cls-9" d="M528.92,229.94a.43.43,0,0,0-.14-.31,2.36,2.36,0,0,0-.53-.31,2.65,2.65,0,0,1-.93-.52,1,1,0,0,1-.32-.74,1.09,1.09,0,0,1,.4-.84,1.48,1.48,0,0,1,1.05-.35,1.59,1.59,0,0,1,1.09.36,1.12,1.12,0,0,1,.39.91v0h-1a.73.73,0,0,0-.11-.41.41.41,0,0,0-.34-.15.41.41,0,0,0-.31.12.37.37,0,0,0-.13.29.37.37,0,0,0,.12.29,3.27,3.27,0,0,0,.54.31,2.66,2.66,0,0,1,1,.51,1,1,0,0,1,.31.78,1.06,1.06,0,0,1-.41.85,1.72,1.72,0,0,1-1.1.33,1.54,1.54,0,0,1-1.12-.41,1.21,1.21,0,0,1-.39-.92v0h1a.66.66,0,0,0,.16.47.56.56,0,0,0,.41.15.5.5,0,0,0,.34-.11A.39.39,0,0,0,528.92,229.94Z" transform="translate(-7.93 -9.26)"/><path class="cls-10" d="M525.37,213.08a6.68,6.68,0,0,0-13.36,0v2.8h13.36v-2.8Zm-9-1.18a2.29,2.29,0,0,1,2.29-2.29A2.29,2.29,0,0,1,521,211.9v.91H516.4Z" transform="translate(-7.93 -9.26)"/><rect class="cls-10" x="508.47" y="203.55" width="4.58" height="0.23"/><path class="cls-8" d="M525.37,213.08a6.68,6.68,0,0,0-13.36,0v.23a6.68,6.68,0,0,1,13.36,0v-.23Z" transform="translate(-7.93 -9.26)"/><path class="cls-12" d="M525.37,213.23v2.65H512v-2.8h13.36Z" transform="translate(-7.93 -9.26)"/><rect class="cls-10" x="495.92" y="204.35" width="29.68" height="8.93" rx="3.72" ry="3.72"/><path class="cls-8" d="M532.24,213.61H505.13a1.28,1.28,0,0,0-1.28,1.29v.23a1.28,1.28,0,0,1,1.28-1.29h27.11a1.29,1.29,0,0,1,1.29,1.29v-.23A1.29,1.29,0,0,0,532.24,213.61Z" transform="translate(-7.93 -9.26)"/><path class="cls-12" d="M532.24,220.94H505.13a1.28,1.28,0,0,1-1.28-1.29v1.6a1.28,1.28,0,0,0,1.28,1.29h27.11a1.29,1.29,0,0,0,1.29-1.29v-1.6A1.29,1.29,0,0,1,532.24,220.94Z" transform="translate(-7.93 -9.26)"/><path class="cls-8" d="M530.67,215.88h-24a.34.34,0,0,1-.34-.33h0a.34.34,0,0,1,.34-.33h24a.33.33,0,0,1,.33.33h0A.33.33,0,0,1,530.67,215.88Z" transform="translate(-7.93 -9.26)"/><path class="cls-8" d="M530.67,217.92h-24a.34.34,0,0,1-.34-.34h0a.34.34,0,0,1,.34-.33h24a.33.33,0,0,1,.33.33h0A.34.34,0,0,1,530.67,217.92Z" transform="translate(-7.93 -9.26)"/><path class="cls-8" d="M530.67,220h-24a.34.34,0,0,1-.34-.33h0a.34.34,0,0,1,.34-.34h24a.34.34,0,0,1,.33.34h0A.33.33,0,0,1,530.67,220Z" transform="translate(-7.93 -9.26)"/><rect class="cls-12" x="498.44" y="205.68" width="24.63" height="0.67" rx="0.28" ry="0.28"/><path class="cls-12" d="M530.67,217.64h-24a.34.34,0,0,1-.34-.34h0a.34.34,0,0,1,.34-.33h24a.33.33,0,0,1,.33.33h0A.34.34,0,0,1,530.67,217.64Z" transform="translate(-7.93 -9.26)"/><path class="cls-12" d="M530.67,219.67h-24a.34.34,0,0,1-.34-.33h0a.34.34,0,0,1,.34-.34h24a.34.34,0,0,1,.33.34h0A.33.33,0,0,1,530.67,219.67Z" transform="translate(-7.93 -9.26)"/><path class="cls-9" d="M494.17,242.12h-.83v-3.55l-.78,0V238l1.61-.17Z" transform="translate(-7.93 -9.26)"/><path class="cls-9" d="M496.33,242.12h-.81v-.74h.81Z" transform="translate(-7.93 -9.26)"/><path class="cls-9" d="M498.4,242.12v-4.26h1.32a1.38,1.38,0,0,1,1.1.5,1.88,1.88,0,0,1,.44,1.28v.7a1.9,1.9,0,0,1-.44,1.29,1.4,1.4,0,0,1-1.1.49Zm.83-3.62v3h.49a.59.59,0,0,0,.51-.32,1.53,1.53,0,0,0,.2-.82v-.71a1.52,1.52,0,0,0-.2-.81.59.59,0,0,0-.51-.32Z" transform="translate(-7.93 -9.26)"/><path class="cls-9" d="M503.37,242.12a1.23,1.23,0,0,1-.08-.23,1.84,1.84,0,0,1-.05-.25,1.13,1.13,0,0,1-.27.39.64.64,0,0,1-.42.15.87.87,0,0,1-.67-.25,1,1,0,0,1-.23-.7.89.89,0,0,1,.3-.71,1.37,1.37,0,0,1,.92-.26h.36V240a.64.64,0,0,0-.09-.36.3.3,0,0,0-.26-.13.27.27,0,0,0-.23.11.46.46,0,0,0-.08.29h-.8v0a.84.84,0,0,1,.31-.7,1.23,1.23,0,0,1,.85-.29,1.17,1.17,0,0,1,.82.29,1.09,1.09,0,0,1,.31.82v1.3a2.77,2.77,0,0,0,0,.42,1.8,1.8,0,0,0,.1.4Zm-.61-.55a.43.43,0,0,0,.29-.1.51.51,0,0,0,.18-.24v-.5h-.36a.33.33,0,0,0-.3.13.55.55,0,0,0-.1.34.46.46,0,0,0,.08.27A.24.24,0,0,0,502.76,241.57Z" transform="translate(-7.93 -9.26)"/><path class="cls-9" d="M505.56,238.16V239H506v.59h-.43v1.62a.6.6,0,0,0,.05.28.2.2,0,0,0,.17.09h.09l.1,0,.06.61-.22.06a1,1,0,0,1-.25,0,.8.8,0,0,1-.62-.24,1.21,1.21,0,0,1-.21-.78v-1.62h-.38V239h.38v-.79Z" transform="translate(-7.93 -9.26)"/><path class="cls-9" d="M507.66,242.18a1.16,1.16,0,0,1-1-.43,1.74,1.74,0,0,1-.35-1.12v-.12a1.91,1.91,0,0,1,.34-1.17,1.09,1.09,0,0,1,.93-.45,1,1,0,0,1,.86.39,1.63,1.63,0,0,1,.3,1v.45h-1.6a1.09,1.09,0,0,0,.16.56.48.48,0,0,0,.43.21,1.22,1.22,0,0,0,.41-.06,2,2,0,0,0,.36-.18l.21.52a1.43,1.43,0,0,1-.46.26A1.79,1.79,0,0,1,507.66,242.18Zm-.05-2.64a.33.33,0,0,0-.31.18,1.32,1.32,0,0,0-.12.51H508v-.08a1.1,1.1,0,0,0-.08-.45A.27.27,0,0,0,507.61,239.54Z" transform="translate(-7.93 -9.26)"/><path class="cls-9" d="M494.92,253.12h-2.61v-.55l1.18-1.49a2.92,2.92,0,0,0,.36-.59,1,1,0,0,0,.11-.44.83.83,0,0,0-.1-.45.41.41,0,0,0-.33-.16.39.39,0,0,0-.36.21,1,1,0,0,0-.12.53h-.82v0a1.34,1.34,0,0,1,.34-1,1.39,1.39,0,0,1,1.89-.06,1.21,1.21,0,0,1,.34.91,1.49,1.49,0,0,1-.19.72,8.19,8.19,0,0,1-.65.88l-.58.84h1.54Z" transform="translate(-7.93 -9.26)"/><path class="cls-9" d="M496.33,253.12h-.81v-.74h.81Z" transform="translate(-7.93 -9.26)"/><path class="cls-9" d="M501,249.5h-1v3.62h-.83V249.5h-1v-.64H501Z" transform="translate(-7.93 -9.26)"/><path class="cls-9" d="M502.18,249.18h-.82v-.63h.82Zm0,3.94h-.82V250h.82Z" transform="translate(-7.93 -9.26)"/><path class="cls-9" d="M503.55,250l0,.41a1,1,0,0,1,.32-.35.84.84,0,0,1,.45-.12.78.78,0,0,1,.43.13.87.87,0,0,1,.28.4,1,1,0,0,1,.32-.39.81.81,0,0,1,.46-.14.71.71,0,0,1,.63.34,1.75,1.75,0,0,1,.23,1v1.87h-.82v-1.87a1.16,1.16,0,0,0-.09-.55.26.26,0,0,0-.26-.16.4.4,0,0,0-.23.08.58.58,0,0,0-.16.21.45.45,0,0,0,0,.12v2.17h-.82v-1.87a1.19,1.19,0,0,0-.09-.55.28.28,0,0,0-.26-.16.43.43,0,0,0-.22.06.66.66,0,0,0-.16.17v2.35h-.82V250Z" transform="translate(-7.93 -9.26)"/><path class="cls-9" d="M508.47,253.18a1.16,1.16,0,0,1-1-.43,1.74,1.74,0,0,1-.35-1.12v-.12a2,2,0,0,1,.33-1.17,1.12,1.12,0,0,1,.94-.45,1,1,0,0,1,.86.39,1.63,1.63,0,0,1,.3,1v.45H508a1,1,0,0,0,.16.56.47.47,0,0,0,.43.21,1.22,1.22,0,0,0,.41-.06,1.67,1.67,0,0,0,.35-.18l.22.52a1.43,1.43,0,0,1-.46.26A1.79,1.79,0,0,1,508.47,253.18Zm-.05-2.64a.33.33,0,0,0-.31.18,1.31,1.31,0,0,0-.13.51h.79v-.08a1.1,1.1,0,0,0-.08-.45A.28.28,0,0,0,508.42,250.54Z" transform="translate(-7.93 -9.26)"/><path class="cls-9" d="M493.55,261.63a.46.46,0,0,0,.38-.17.75.75,0,0,0,.12-.45.6.6,0,0,0-.13-.4.45.45,0,0,0-.36-.17.41.41,0,0,0-.32.15.51.51,0,0,0-.13.37h-.81v0a1,1,0,0,1,.35-.82,1.32,1.32,0,0,1,.91-.33,1.44,1.44,0,0,1,1,.32,1.12,1.12,0,0,1,.36.89.93.93,0,0,1-.16.54,1.08,1.08,0,0,1-.43.39,1.06,1.06,0,0,1,.48.38,1.28,1.28,0,0,1-.23,1.54,1.49,1.49,0,0,1-1,.33,1.42,1.42,0,0,1-.92-.31,1,1,0,0,1-.38-.9v0h.81a.59.59,0,0,0,.14.42.44.44,0,0,0,.35.17.53.53,0,0,0,.41-.17.69.69,0,0,0,.16-.45.74.74,0,0,0-.15-.51.57.57,0,0,0-.42-.16h-.43v-.62Z" transform="translate(-7.93 -9.26)"/><path class="cls-9" d="M496.33,264.12h-.81v-.74h.81Z" transform="translate(-7.93 -9.26)"/><path class="cls-9" d="M499.27,264.12h-.82v-4.26h.82Z" transform="translate(-7.93 -9.26)"/><path class="cls-9" d="M500.89,260.16V261h.43v.59h-.43v1.62a.48.48,0,0,0,.06.28.18.18,0,0,0,.16.09h.1l.09,0,.07.61-.23.06a.9.9,0,0,1-.24,0,.78.78,0,0,1-.62-.24,1.21,1.21,0,0,1-.21-.78v-1.62h-.39V261h.39v-.79Z" transform="translate(-7.93 -9.26)"/><path class="cls-9" d="M503,264.18a1.16,1.16,0,0,1-1-.43,1.69,1.69,0,0,1-.35-1.12v-.12a2,2,0,0,1,.33-1.17,1.1,1.1,0,0,1,.94-.45,1,1,0,0,1,.86.39,1.63,1.63,0,0,1,.3,1v.45h-1.6a1,1,0,0,0,.16.56.46.46,0,0,0,.42.21,1.25,1.25,0,0,0,.42-.06,1.67,1.67,0,0,0,.35-.18l.22.52a1.54,1.54,0,0,1-.46.26A1.83,1.83,0,0,1,503,264.18Zm-.05-2.64a.33.33,0,0,0-.31.18,1.31,1.31,0,0,0-.13.51h.79v-.08a1.1,1.1,0,0,0-.08-.45A.29.29,0,0,0,503,261.54Z" transform="translate(-7.93 -9.26)"/><path class="cls-9" d="M505.3,261l0,.41a1.11,1.11,0,0,1,.33-.35.83.83,0,0,1,.44-.12.72.72,0,0,1,.71.53,1.06,1.06,0,0,1,.33-.39.78.78,0,0,1,.46-.14.73.73,0,0,1,.63.34,1.83,1.83,0,0,1,.23,1v1.87h-.83v-1.87a1.34,1.34,0,0,0-.08-.55.28.28,0,0,0-.26-.16.36.36,0,0,0-.23.08.6.6,0,0,0-.17.21.53.53,0,0,1,0,.12.41.41,0,0,1,0,.11v2.06h-.83v-1.87a1.38,1.38,0,0,0-.08-.55.3.3,0,0,0-.27-.16.37.37,0,0,0-.21.06.52.52,0,0,0-.16.17v2.35h-.83V261Z" transform="translate(-7.93 -9.26)"/><path class="cls-9" d="M494.57,273.53H495v.65h-.41v.94h-.83v-.94H492.2l0-.5,1.58-2.82h.83Zm-1.67,0h.84V272h0l-.07.17Z" transform="translate(-7.93 -9.26)"/><path class="cls-9" d="M496.33,275.12h-.81v-.74h.81Z" transform="translate(-7.93 -9.26)"/><path class="cls-9" d="M501.42,275.12h-.82l-1.35-2.72h0v2.72h-.83v-4.26h.83l1.35,2.72h0v-2.72h.82Z" transform="translate(-7.93 -9.26)"/><path class="cls-9" d="M503.61,275.12a1.23,1.23,0,0,1-.08-.23,1.87,1.87,0,0,1,0-.25,1,1,0,0,1-.28.39.6.6,0,0,1-.42.15.87.87,0,0,1-.67-.25,1,1,0,0,1-.23-.7.9.9,0,0,1,.31-.72,1.39,1.39,0,0,1,.91-.25h.36V273a.64.64,0,0,0-.09-.36.29.29,0,0,0-.26-.13.28.28,0,0,0-.23.11.46.46,0,0,0-.08.29H502v0a.84.84,0,0,1,.31-.7,1.26,1.26,0,0,1,.86-.29,1.16,1.16,0,0,1,.81.29,1.06,1.06,0,0,1,.31.82v1.3a2.77,2.77,0,0,0,0,.42,2.6,2.6,0,0,0,.1.4Zm-.61-.55a.47.47,0,0,0,.3-.1.56.56,0,0,0,.17-.24v-.5h-.36a.33.33,0,0,0-.3.13.62.62,0,0,0-.1.34.46.46,0,0,0,.08.27A.26.26,0,0,0,503,274.57Z" transform="translate(-7.93 -9.26)"/><path class="cls-9" d="M505.6,272l0,.41A1.11,1.11,0,0,1,506,272a.84.84,0,0,1,.45-.12.8.8,0,0,1,.43.13.79.79,0,0,1,.27.4,1.16,1.16,0,0,1,.33-.39.78.78,0,0,1,.46-.14.72.72,0,0,1,.63.34,1.83,1.83,0,0,1,.23,1v1.87h-.83v-1.87a1.19,1.19,0,0,0-.08-.55.27.27,0,0,0-.26-.16.38.38,0,0,0-.23.08.49.49,0,0,0-.16.21V273a.41.41,0,0,1,0,.11v2.06h-.83v-1.87a1.22,1.22,0,0,0-.08-.55.29.29,0,0,0-.26-.16.4.4,0,0,0-.22.06.52.52,0,0,0-.16.17v2.35h-.83V272Z" transform="translate(-7.93 -9.26)"/><path class="cls-9" d="M510.53,275.18a1.19,1.19,0,0,1-1-.43,1.74,1.74,0,0,1-.34-1.12v-.12a2,2,0,0,1,.33-1.17,1.1,1.1,0,0,1,.94-.45,1,1,0,0,1,.86.39,1.63,1.63,0,0,1,.29,1v.45H510a1,1,0,0,0,.16.56.46.46,0,0,0,.42.21,1.29,1.29,0,0,0,.42-.06,2,2,0,0,0,.35-.18l.22.52a1.54,1.54,0,0,1-.46.26A1.83,1.83,0,0,1,510.53,275.18Zm0-2.64a.33.33,0,0,0-.31.18,1.31,1.31,0,0,0-.13.51h.79v-.08a1.1,1.1,0,0,0-.08-.45A.29.29,0,0,0,510.48,272.54Z" transform="translate(-7.93 -9.26)"/><path class="cls-9" d="M492.36,284.24l.23-2.38h2.18v.66h-1.5l-.11,1a.92.92,0,0,1,.27-.16,1,1,0,0,1,.35-.06,1,1,0,0,1,.83.36,1.64,1.64,0,0,1,.29,1.05,1.57,1.57,0,0,1-.32,1,1.17,1.17,0,0,1-1,.4,1.38,1.38,0,0,1-.92-.31,1,1,0,0,1-.38-.86h0l.8,0a.63.63,0,0,0,.14.43.44.44,0,0,0,.35.15.4.4,0,0,0,.37-.2,1.57,1.57,0,0,0,0-1.18.43.43,0,0,0-.39-.22.5.5,0,0,0-.31.09.51.51,0,0,0-.15.26Z" transform="translate(-7.93 -9.26)"/><path class="cls-9" d="M496.33,286.12h-.81v-.74h.81Z" transform="translate(-7.93 -9.26)"/><path class="cls-9" d="M501.43,284.59a1.61,1.61,0,0,1-2.69,1.17,1.58,1.58,0,0,1-.42-1.17V283.4a1.61,1.61,0,0,1,.42-1.18,1.7,1.7,0,0,1,2.26,0,1.57,1.57,0,0,1,.43,1.18Zm-.83-1.2a1.13,1.13,0,0,0-.18-.7.66.66,0,0,0-.55-.24.65.65,0,0,0-.54.23,1.18,1.18,0,0,0-.18.71v1.2a1.18,1.18,0,0,0,.18.71.63.63,0,0,0,.54.24.66.66,0,0,0,.55-.24,1.18,1.18,0,0,0,.18-.71Z" transform="translate(-7.93 -9.26)"/><path class="cls-9" d="M502.14,286.12v-2.58h-.4V283h.4v-.36a1.09,1.09,0,0,1,.28-.81,1,1,0,0,1,.78-.29l.19,0,.22,0-.06.62-.12,0h-.13a.29.29,0,0,0-.25.12.54.54,0,0,0-.08.33V283h.51v.59H503v2.58Z" transform="translate(-7.93 -9.26)"/><path class="cls-9" d="M504,286.12v-2.58h-.4V283h.4v-.36a1.09,1.09,0,0,1,.28-.81,1,1,0,0,1,.78-.29l.19,0,.22,0-.06.62-.12,0h-.13a.29.29,0,0,0-.25.12.54.54,0,0,0-.09.33V283h.51v.59h-.51v2.58Z" transform="translate(-7.93 -9.26)"/><path class="cls-9" d="M506.83,286.18a1.17,1.17,0,0,1-1-.43,1.74,1.74,0,0,1-.35-1.12v-.12a1.91,1.91,0,0,1,.34-1.17,1.09,1.09,0,0,1,.93-.45,1,1,0,0,1,.86.39,1.63,1.63,0,0,1,.3,1v.45h-1.6a1.09,1.09,0,0,0,.16.56.48.48,0,0,0,.43.21,1.22,1.22,0,0,0,.41-.06,2,2,0,0,0,.36-.18l.21.52a1.43,1.43,0,0,1-.46.26A1.79,1.79,0,0,1,506.83,286.18Zm-.05-2.64a.33.33,0,0,0-.31.18,1.32,1.32,0,0,0-.12.51h.78v-.08a1.1,1.1,0,0,0-.08-.45A.27.27,0,0,0,506.78,283.54Z" transform="translate(-7.93 -9.26)"/><path class="cls-9" d="M509.12,283l0,.44a1,1,0,0,1,.33-.36.76.76,0,0,1,1.06.18,1.64,1.64,0,0,1,.24,1v1.92H510V284.2a1.05,1.05,0,0,0-.09-.51.28.28,0,0,0-.26-.15.55.55,0,0,0-.25.07.52.52,0,0,0-.18.18v2.33h-.83V283Z" transform="translate(-7.93 -9.26)"/><path class="cls-9" d="M512.48,285.54a.3.3,0,0,0,.27-.13.65.65,0,0,0,.09-.37h.76a1.13,1.13,0,0,1-.31.82,1.23,1.23,0,0,1-1.76-.13,1.92,1.92,0,0,1-.33-1.16v-.08a1.92,1.92,0,0,1,.33-1.16,1.11,1.11,0,0,1,1-.45,1,1,0,0,1,.82.33,1.28,1.28,0,0,1,.3.89v0h-.75a.89.89,0,0,0-.09-.43.29.29,0,0,0-.27-.16.37.37,0,0,0-.36.26,2.21,2.21,0,0,0-.1.7v.08a2.12,2.12,0,0,0,.1.7A.37.37,0,0,0,512.48,285.54Z" transform="translate(-7.93 -9.26)"/><path class="cls-9" d="M515.23,286.18a1.16,1.16,0,0,1-1-.43,1.74,1.74,0,0,1-.35-1.12v-.12a2,2,0,0,1,.33-1.17,1.1,1.1,0,0,1,.94-.45,1,1,0,0,1,.86.39,1.63,1.63,0,0,1,.3,1v.45h-1.6a1,1,0,0,0,.16.56.47.47,0,0,0,.43.21,1.22,1.22,0,0,0,.41-.06,1.67,1.67,0,0,0,.35-.18l.22.52a1.54,1.54,0,0,1-.46.26A1.79,1.79,0,0,1,515.23,286.18Zm-.05-2.64a.33.33,0,0,0-.31.18,1.31,1.31,0,0,0-.13.51h.79v-.08a1.1,1.1,0,0,0-.08-.45A.29.29,0,0,0,515.18,283.54Z" transform="translate(-7.93 -9.26)"/><line class="cls-75" x1="515.83" y1="228.41" x2="511.07" y2="228.41"/><line class="cls-75" x1="530.42" y1="228.41" x2="517.92" y2="228.41"/><line class="cls-75" x1="535.26" y1="228.41" x2="531.87" y2="228.41"/><line class="cls-75" x1="513.81" y1="231.79" x2="511.07" y2="231.79"/><line class="cls-75" x1="524.13" y1="231.79" x2="515.83" y2="231.79"/><line class="cls-75" x1="535.26" y1="231.79" x2="525.99" y2="231.79"/><line class="cls-75" x1="515.5" y1="234.7" x2="511.07" y2="234.7"/><line class="cls-75" x1="527.04" y1="234.7" x2="517.44" y2="234.7"/><line class="cls-75" x1="516.83" y1="240.41" x2="511.07" y2="240.41"/><line class="cls-75" x1="531.42" y1="240.41" x2="518.92" y2="240.41"/><line class="cls-75" x1="535.26" y1="240.41" x2="532.87" y2="240.41"/><line class="cls-75" x1="518.81" y1="243.79" x2="511.07" y2="243.79"/><line class="cls-75" x1="529.13" y1="243.79" x2="520.83" y2="243.79"/><line class="cls-75" x1="535.26" y1="243.79" x2="530.99" y2="243.79"/><line class="cls-75" x1="513.83" y1="251.41" x2="511.07" y2="251.41"/><line class="cls-75" x1="528.42" y1="251.41" x2="515.92" y2="251.41"/><line class="cls-75" x1="535.26" y1="251.41" x2="529.87" y2="251.41"/><line class="cls-75" x1="515.81" y1="254.79" x2="511.07" y2="254.79"/><line class="cls-75" x1="526.13" y1="254.79" x2="517.83" y2="254.79"/><line class="cls-75" x1="535.26" y1="254.79" x2="527.99" y2="254.79"/><line class="cls-75" x1="513.5" y1="257.7" x2="511.07" y2="257.7"/><path class="cls-13" d="M500.82,279.36a3,3,0,0,0-4.79-3.7l-7.89,9.11a1.93,1.93,0,0,1-2.37.44l-3.9-2.08a8.3,8.3,0,0,1-2.73-2.37l-1.3-1.77-3.26,1.74a1.8,1.8,0,0,0-.91,1.23l-3.15,15.69a1.73,1.73,0,0,0,0,.6l2.07,11.25-1.15,7.55,12.94-1.69c1.85-2.6,2.47-3.21,3.29-4.51a30.23,30.23,0,0,0,3.81-8.43l2.14-8a1.93,1.93,0,0,1,.18-.44l.8-5.57Z" transform="translate(-7.93 -9.26)"/><rect class="cls-8" x="475.25" y="306.74" width="5.06" height="18.1" transform="matrix(-0.17, 0.98, -0.98, -0.17, 864.02, -108.95)"/><path class="cls-14" d="M467.73,316.59l-1.54,7a71,71,0,0,0,19.28,13.6l2.18-17.05Z" transform="translate(-7.93 -9.26)"/><line class="cls-15" x1="459.23" y1="309.9" x2="479.37" y2="313.51"/><line class="cls-15" x1="458.73" y1="312.15" x2="479.08" y2="315.79"/><line class="cls-15" x1="458.24" y1="314.39" x2="478.79" y2="318.06"/><path class="cls-16" d="M480.89,319l1.49.21.94-5,3.42-2-1.75,2.3,2.14.41-.88,5,1.4.24-2.18,17.05a70.25,70.25,0,0,1-7.18-4Z" transform="translate(-7.93 -9.26)"/><path class="cls-17" d="M528.27,284.55l-.79,1.05a.38.38,0,0,0,.11.56l3.91,2.31.06,0,2.07.74a.42.42,0,0,0,.36-.05l1.79-1.34a.42.42,0,0,0,.14-.24l.57-3.09a.39.39,0,0,0-.39-.45l-.48,0,.17.78-.17-.78-7.06.31A.38.38,0,0,0,528.27,284.55Z" transform="translate(-7.93 -9.26)"/><rect class="cls-8" x="545.33" y="303.28" width="6.7" height="17.9" transform="translate(730.13 -299.24) rotate(77.81)"/><path class="cls-13" d="M551.66,273a.48.48,0,0,0-.36-.26l-18.72-3.17a1.37,1.37,0,0,0-1.56,1.67l.65,2.69a1,1,0,0,1,0,.24l2.21-.1,13.11,5.2,2.41,4.8-1.83,3.29-1.1,2,.37.3a.38.38,0,0,1,0,.59l-2.45,2a.38.38,0,0,1-.27.08l-.4,0c1.16,4.77,5.36,8.74,10.13,10.51a1.34,1.34,0,0,1,.15-.41l4-7.24,1.25-2.28a3,3,0,0,0,.3-2.05l-.94-4.41Z" transform="translate(-7.93 -9.26)"/><path class="cls-14" d="M562.78,327.26l-3.69-14.09-19.55,4.19L543.12,339C550.46,338.59,555.87,330,562.78,327.26Z" transform="translate(-7.93 -9.26)"/><path class="cls-4" d="M535.79,282.52l3.72,3.37c-.08-.23,8,4,8,4l3.15-5.67-2.59-5.16L534,273.47l-2.38.1C531.57,274,535.79,282.52,535.79,282.52Z" transform="translate(-7.93 -9.26)"/><path class="cls-11" d="M556.12,290l-30.24-23-2.9,3.73L553.21,294a1.51,1.51,0,0,0,2.16-.34l1.08-1.55A1.5,1.5,0,0,0,556.12,290Z" transform="translate(-7.93 -9.26)"/><polygon class="cls-13" points="515.05 261.48 512.43 256.87 517.95 257.75 515.05 261.48"/><polygon class="cls-11" points="512.43 256.87 513.45 258.66 514.49 257.2 512.43 256.87"/><line class="cls-15" x1="531.85" y1="310.41" x2="551.85" y2="306.08"/><line class="cls-15" x1="532.24" y1="312.68" x2="552.44" y2="308.31"/><line class="cls-15" x1="532.63" y1="314.94" x2="553.04" y2="310.52"/><path class="cls-13" d="M543.75,292.23l-1.82-.13a.38.38,0,0,1-.31-.19L540.55,290l0-.06-.88-2.63-2-5.68-2.2-4.71a3.38,3.38,0,0,0-3.77-1.88l-.82.17a3.25,3.25,0,0,0-1.29,4.34l1,1.82,1.46,5.26.94,8.91a2.6,2.6,0,0,0,.09.47l1.76,5.57a2.82,2.82,0,0,0,.68,1.14l3.25,3.32a1.46,1.46,0,0,1,.36.61l1.15,4,14.59-3.11-.89-4.18a1.47,1.47,0,0,1,0-.59C549.11,301,544.91,297,543.75,292.23Z" transform="translate(-7.93 -9.26)"/><path class="cls-16" d="M544.55,316.29l-.74.16-1.22-6.36-.7.15-.52-2.19L539,306.64l1.15,4-1,.23,1.36,6.29-1,.22L543.12,339c2.26-.13,4.52-.38,6.76-.73Z" transform="translate(-7.93 -9.26)"/><circle class="cls-18" cx="508.16" cy="263.96" r="70.87"/></g></g></svg>