<svg xmlns="http://www.w3.org/2000/svg" xmlns:xlink="http://www.w3.org/1999/xlink" viewBox="0 0 145.73 145.73"><defs><style>.cls-1{fill:#56bdbf;}.cls-2,.cls-3{fill:#fcd6b7;}.cls-3,.cls-4,.cls-5,.cls-6,.cls-7,.cls-8{fill-rule:evenodd;}.cls-4{fill:#eaf6fd;}.cls-5{fill:#36a9e1;}.cls-6{fill:#5085a2;}.cls-11,.cls-7{fill:none;stroke-miterlimit:10;}.cls-7{stroke:#5085a2;}.cls-8{fill:#fef1e8;}.cls-9{opacity:0.2;fill:url(#Sfumatura_senza_nome_3);}.cls-10{fill:#fff;}.cls-11{stroke:#eaeaea;stroke-width:4px;}</style><linearGradient id="Sfumatura_senza_nome_3" x1="-265.6" y1="40.12" x2="-265.6" y2="116.84" gradientTransform="matrix(-1, 0, 0, 1, -189.75, 0)" gradientUnits="userSpaceOnUse"><stop offset="0" stop-color="#fff"/><stop offset="1" stop-opacity="0"/></linearGradient></defs><title>G09_12</title><g id="Mobile"><circle class="cls-1" cx="72.87" cy="72.87" r="70.87"/><path class="cls-2" d="M83.49,105,47.79,80.74,21,120.15a71.18,71.18,0,0,0,21.92,19.4l10.75-15.82Z" transform="translate(-5.09 -5.09)"/><path class="cls-3" d="M103.74,89.77h0a5.3,5.3,0,0,1-3,6.82l-48.87,20a5.25,5.25,0,0,1-6.82-2.95h0a5.3,5.3,0,0,1,3-6.82l48.87-20A5.25,5.25,0,0,1,103.74,89.77Z" transform="translate(-5.09 -5.09)"/><path class="cls-3" d="M96.64,105.1h0a5.3,5.3,0,0,1-3,6.82l-48.87,20A5.25,5.25,0,0,1,38,129h0a5.3,5.3,0,0,1,3-6.82l48.88-20A5.25,5.25,0,0,1,96.64,105.1Z" transform="translate(-5.09 -5.09)"/><path class="cls-3" d="M115.08,72.11h0a5.29,5.29,0,0,1-3,6.81L65.05,98.14a5.24,5.24,0,0,1-6.81-3h0a5.28,5.28,0,0,1,2.95-6.81l47.07-19.22A5.25,5.25,0,0,1,115.08,72.11Z" transform="translate(-5.09 -5.09)"/><path class="cls-4" d="M77.54,30.09l33.14,14.16c4.62,2,2.16,5.4.19,10L83.77,117.7c-2,4.62-2.76,8.77-7.38,6.79L43.25,110.33c-4.63-2-2.17-5.4-.19-10l27.1-63.42C72.14,32.26,72.91,28.11,77.54,30.09Z" transform="translate(-5.09 -5.09)"/><path class="cls-5" d="M74.58,36.78,107.89,51a.13.13,0,0,1,.07.16L81.07,114a.12.12,0,0,1-.17.07L47.59,99.85a.15.15,0,0,1-.07-.17L74.41,36.85A.12.12,0,0,1,74.58,36.78Z" transform="translate(-5.09 -5.09)"/><path class="cls-6" d="M87.09,36.52l12.34,5.27a.66.66,0,0,1,.35.87h0a.66.66,0,0,1-.87.35L86.57,37.73a.65.65,0,0,1-.35-.86h0A.65.65,0,0,1,87.09,36.52Z" transform="translate(-5.09 -5.09)"/><path class="cls-7" d="M63.31,109.16a2.72,2.72,0,1,1-3.57,1.44A2.74,2.74,0,0,1,63.31,109.16Z" transform="translate(-5.09 -5.09)"/><path class="cls-3" d="M101.2,103.29h0a5.28,5.28,0,0,1-3,6.82l-9.12,3.62a5.27,5.27,0,0,1-6.81-3h0a5.26,5.26,0,0,1,3-6.81l9.11-3.63A5.28,5.28,0,0,1,101.2,103.29Z" transform="translate(-5.09 -5.09)"/><path class="cls-3" d="M108.94,87.71h0a5.27,5.27,0,0,1-3,6.81L98.22,97.6a5.27,5.27,0,0,1-6.82-2.95h0a5.28,5.28,0,0,1,3-6.82l7.76-3.08A5.26,5.26,0,0,1,108.94,87.71Z" transform="translate(-5.09 -5.09)"/><path class="cls-3" d="M32.61,109.39l3.07,2.08,2.24-4L56,75.16c3.06-5.47,1.15-9-1.83-11.6-1.64-1.43-1.87-2.15-2.8-.48L30.68,100A7.23,7.23,0,0,0,32.61,109.39Z" transform="translate(-5.09 -5.09)"/><path class="cls-8" d="M94.76,88.43l2.29-.88c3.12,1.91,4.06,4.67,3.19,8.14l-2.17.89C92.16,99,89.84,90.26,94.76,88.43Z" transform="translate(-5.09 -5.09)"/><path class="cls-8" d="M85.5,104.92l2.29-.88c3.11,1.91,4.06,4.67,3.19,8.14l-2.17.89C82.89,115.47,80.58,106.75,85.5,104.92Z" transform="translate(-5.09 -5.09)"/><path class="cls-9" d="M58.35,104.44l45.75-55L74.58,36.78l-27,63.07C47.59,100,58.35,104.44,58.35,104.44Z" transform="translate(-5.09 -5.09)"/><path class="cls-10" d="M18.88,117.09a71.16,71.16,0,0,0,27.45,24.28L49,137.52Z" transform="translate(-5.09 -5.09)"/><circle class="cls-11" cx="72.87" cy="72.87" r="70.87"/></g></svg>