<svg xmlns="http://www.w3.org/2000/svg" xmlns:xlink="http://www.w3.org/1999/xlink" viewBox="0 0 590.47 317.23"><defs><style>.cls-1{isolation:isolate;}.cls-17,.cls-18,.cls-19,.cls-2,.cls-3,.cls-34,.cls-4,.cls-43,.cls-6,.cls-9{fill:none;}.cls-2,.cls-3,.cls-4,.cls-6,.cls-9{stroke:#7fc9cb;stroke-linecap:round;stroke-linejoin:round;stroke-width:5px;}.cls-3{stroke-dasharray:12.55 12.55;}.cls-4{stroke-dasharray:9.88 9.88;}.cls-36,.cls-5{fill:#56bdbf;}.cls-6{stroke-dasharray:12.82 12.82;}.cls-7{fill:#01b2b2;}.cls-8{fill:#7fc9cb;}.cls-9{stroke-dasharray:12.01 12.01;}.cls-10{fill:#d9d9d9;mix-blend-mode:multiply;}.cls-11{fill:#4d4a81;}.cls-12{fill:#f6bbc6;}.cls-13{fill:#303b45;}.cls-14{fill:#5b5b5a;}.cls-15{fill:#353430;}.cls-16{fill:#eaeaea;}.cls-17{stroke:#fbc01f;}.cls-17,.cls-18,.cls-19,.cls-34,.cls-36,.cls-43{stroke-miterlimit:10;}.cls-17,.cls-18,.cls-19{stroke-width:1.06px;}.cls-18{stroke:#4294ce;}.cls-19{stroke:#fff;}.cls-20{fill:#ebebeb;}.cls-21{fill:#fbc01f;}.cls-22{fill:#8d8d8e;}.cls-23{fill:#ef7967;}.cls-24{fill:#a9a9a9;}.cls-25{fill:#dfe5ee;}.cls-26{fill:#9ea6b0;}.cls-27{fill:#36a9e1;}.cls-28{fill:#a9b2bd;}.cls-28,.cls-35,.cls-46{opacity:0.3;}.cls-29{fill:#c4cfdb;}.cls-30{fill:#3aaa35;}.cls-31{fill:#878787;}.cls-32{fill:#706f6f;}.cls-33{fill:#fff;}.cls-34{stroke:#5b5b5a;stroke-width:0.99px;}.cls-35{fill:url(#Sfumatura_senza_nome_5);}.cls-36{stroke:#eaeaea;stroke-width:4px;}.cls-37{fill:#323232;}.cls-38{fill:#f5ad1f;}.cls-39{fill:#3c3c3b;}.cls-40{fill:#c5c5c4;}.cls-41{fill:#484848;}.cls-42,.cls-44{opacity:0.2;}.cls-42{fill:url(#Sfumatura_senza_nome_3);}.cls-43{stroke:#3c3c3b;stroke-width:2.83px;}.cls-44{fill:url(#Sfumatura_senza_nome_3-2);}.cls-45{fill:#e6332a;}.cls-46{fill:url(#Sfumatura_senza_nome_5-2);}</style><linearGradient id="Sfumatura_senza_nome_5" x1="-678.07" y1="228.74" x2="-678.07" y2="273.85" gradientTransform="matrix(-1, 0, 0, 1, -187.51, 0)" gradientUnits="userSpaceOnUse"><stop offset="0" stop-color="#fff"/><stop offset="0.12" stop-color="#fbfbfb" stop-opacity="0.98"/><stop offset="0.25" stop-color="#eee" stop-opacity="0.93"/><stop offset="0.37" stop-color="#dadada" stop-opacity="0.85"/><stop offset="0.5" stop-color="#bcbcbc" stop-opacity="0.74"/><stop offset="0.63" stop-color="#979797" stop-opacity="0.59"/><stop offset="0.76" stop-color="#696969" stop-opacity="0.41"/><stop offset="0.89" stop-color="#343434" stop-opacity="0.2"/><stop offset="1" stop-opacity="0"/></linearGradient><linearGradient id="Sfumatura_senza_nome_3" x1="-318.02" y1="-36.55" x2="-318.02" y2="-12.46" gradientTransform="matrix(-0.71, 0.71, 0.71, 0.71, -106.44, 353.44)" gradientUnits="userSpaceOnUse"><stop offset="0" stop-color="#fff"/><stop offset="1" stop-opacity="0"/></linearGradient><linearGradient id="Sfumatura_senza_nome_3-2" x1="-432.73" y1="-3.73" x2="-432.73" y2="36.75" xlink:href="#Sfumatura_senza_nome_3"/><linearGradient id="Sfumatura_senza_nome_5-2" x1="-416.41" y1="218.74" x2="-416.41" y2="263.85" xlink:href="#Sfumatura_senza_nome_5"/></defs><title>G09_14</title><g class="cls-1"><g id="Tiles"><line class="cls-2" x1="437.87" y1="200.54" x2="443.04" y2="203.58"/><line class="cls-3" x1="453.86" y1="209.94" x2="513.35" y2="244.91"/><line class="cls-2" x1="518.76" y1="248.09" x2="523.93" y2="251.13"/><line class="cls-2" x1="224.63" y1="130.48" x2="224.95" y2="136.47"/><line class="cls-4" x1="225.48" y1="146.33" x2="227.32" y2="180.85"/><line class="cls-2" x1="227.58" y1="185.78" x2="227.9" y2="191.77"/><path class="cls-5" d="M231.75,135.82l-10.4.56a2.11,2.11,0,0,1-2-3.06l4.72-9.29a2.11,2.11,0,0,1,3.65-.2l5.68,8.74A2.1,2.1,0,0,1,231.75,135.82Z" transform="translate(-1.66 -3.66)"/><circle class="cls-5" cx="258.06" cy="221.45" r="5.67"/><line class="cls-2" x1="115.07" y1="233.15" x2="120.79" y2="234.98"/><line class="cls-2" x1="137.49" y1="240.32" x2="143.21" y2="242.14"/><path class="cls-5" d="M120.86,232.5l-3.17,9.93a2.11,2.11,0,0,1-3.57.77l-7-7.7a2.12,2.12,0,0,1,1.11-3.49l10.19-2.21A2.1,2.1,0,0,1,120.86,232.5Z" transform="translate(-1.66 -3.66)"/><line class="cls-2" x1="147.69" y1="149.42" x2="151.21" y2="154.28"/><line class="cls-6" x1="158.72" y1="164.68" x2="185" y2="201.07"/><line class="cls-2" x1="188.75" y1="206.26" x2="192.27" y2="211.13"/><path class="cls-5" d="M154.53,151.11l-8.47,6.07a2.11,2.11,0,0,1-3.33-1.51l-1-10.37a2.11,2.11,0,0,1,3-2.13l9.5,4.3A2.11,2.11,0,0,1,154.53,151.11Z" transform="translate(-1.66 -3.66)"/><polygon class="cls-7" points="590.47 260.16 590.47 264.87 501.77 317.23 501.63 317.15 501.63 312.44 590.47 260.16"/><polygon class="cls-8" points="501.63 312.44 501.63 317.15 406.22 261.7 406.22 257 501.63 312.44"/><polygon class="cls-5" points="501.41 312.46 406.22 256.99 495.67 205.57 590.47 260.16 501.56 312.55 501.41 312.46"/><line class="cls-2" x1="367.09" y1="181.57" x2="361.93" y2="184.62"/><line class="cls-9" x1="351.59" y1="190.73" x2="274.02" y2="236.52"/><line class="cls-2" x1="268.85" y1="239.58" x2="263.68" y2="242.63"/><polygon class="cls-7" points="485.47 167.82 485.47 172.53 396.77 224.89 396.63 224.8 396.63 220.1 485.47 167.82"/><polygon class="cls-8" points="396.63 220.1 396.63 224.8 301.44 169.6 301.44 164.89 396.63 220.1"/><polygon class="cls-5" points="396.41 220.12 301.22 164.91 301.22 164.65 390.67 113.23 485.47 167.82 396.56 220.2 396.41 220.12"/><ellipse class="cls-10" cx="392.61" cy="165.4" rx="59.55" ry="30.97"/><path class="cls-11" d="M401.51,62.58c-1.41,2.49.93,4,1.07,5,.24,1.71,4.45,11.31,5.91,10.88s1.67,1.57,3.12,2c1.17.37,2.05,1.39,3.23,1.75a4,4,0,0,0,3.48-.75,3.85,3.85,0,0,0,.3.27,4.41,4.41,0,0,0,4.42.75c1.1-.53,1.82-1.67,2.93-2.21,1.36-.66,3-.25,4.48,0s3.32,0,4.11-1.25a3.78,3.78,0,0,0-.16-3.44,12.07,12.07,0,0,1-1.3-3.32c-.15-1.32.39-2.74-.14-4-.7-1.58-3-2.34-3-4.07,0-.94.72-1.76.73-2.7,0-1.2-1.15-2.06-2.23-2.58-3.12-1.5-2.72-2.92-3.57-5.93a12.56,12.56,0,0,0-2.8-4.9c-1.6-1.72-8-4-11.44,0a10.31,10.31,0,0,0-2,5.26c-.39,3.11.21,4.46-2.65,6.4C405,60.38,402.82,60.28,401.51,62.58Z" transform="translate(-1.66 -3.66)"/><path class="cls-12" d="M436.79,115.57s-.84-15.38-.47-16.1-5-16.66-6.06-20.31a9.81,9.81,0,0,0-.53-1.45l-1.11.41a9.25,9.25,0,0,0-2.3,1,6.33,6.33,0,0,0-2.26,3.32,12.1,12.1,0,0,0-.49,2.66c2.18,3.13,5.58,8.1,6,10.6,1.2,6.68,3.26,17,4.63,20.54C434.87,118,436.79,115.57,436.79,115.57Z" transform="translate(-1.66 -3.66)"/><path class="cls-12" d="M402.14,108,409,92.88c1.24-5.34,3.3-19.35,3.3-19.35l-.17-5s-5.47-2.53-6.75,1.3c-.07.22-.6,18.25-.6,18.25L399,107Z" transform="translate(-1.66 -3.66)"/><path class="cls-13" d="M418.48,157.14a14.41,14.41,0,0,1,1.11,4.39c0,1.61-.63,2.06-.63,2.06a36.44,36.44,0,0,1-4.16,1c-.91.05-2.42,1.5-4.59,1.65s-4.94.8-5.25-.91c-.18-1,2.49-2,5.64-4.15a16.88,16.88,0,0,0,3.59-3.45Z" transform="translate(-1.66 -3.66)"/><path class="cls-13" d="M431.82,161.65s-.17,1.54-1.54,1.45a4.41,4.41,0,0,1-2.57-1.54l.34,5.48s.77,8.22,3.17,9.07c1.71.61,2.46-1.54,2.75-2.81a3.66,3.66,0,0,0,0-1.58Z" transform="translate(-1.66 -3.66)"/><path class="cls-13" d="M427.26,133.23s-1.36-21-.91-22.63.91-10.18.91-10.18l-19-7s-1,28.87-1.49,31.81,7.43,32.52,7.43,32.52a2.51,2.51,0,0,0,2.49,1.57c1.9-.09,1.78-1.5,1.78-1.5s-4.62-29.26-4.62-30.61,1.88-15.69,1.88-15.69,2.71,13.57,3.62,19.46,8.37,30.59,8.37,30.59.51,2.31,2.22,2.57,2.06-1.62,2.06-1.62Z" transform="translate(-1.66 -3.66)"/><path class="cls-14" d="M406.26,125.91l5.53,25.25,6.53-1.13-3.51-20.51,1.33-14.71,3.32,19L426,157.14l5.87-1.09-4.32-24.27-1-21.07A15.83,15.83,0,0,0,427,97.89c0-1.37-1.2.22-1.2.22l-18.72-3.42-.92,5.3Z" transform="translate(-1.66 -3.66)"/><path class="cls-13" d="M417.87,157.22l-3.68.52a16.88,16.88,0,0,1-3.59,3.45c-.74.5-1.46.93-2.11,1.32a.68.68,0,0,0,0,.2c.06.48.65.66,1.13.69a17,17,0,0,0,6.82-1.48A3.56,3.56,0,0,0,418,161a2.69,2.69,0,0,0,.53-1.56A3.2,3.2,0,0,0,417.87,157.22Z" transform="translate(-1.66 -3.66)"/><path class="cls-13" d="M428.76,165.56a27.42,27.42,0,0,0,1,3.22c.16.4.4.84.82.94a1,1,0,0,0,1-.4,3.24,3.24,0,0,0,.6-1.72,17.31,17.31,0,0,0-.21-5.47c-.17-.83-.5-1.76-1.3-2a2.66,2.66,0,0,0-2.06.51,2.12,2.12,0,0,0-.84.7c-.19.39,0,.77.13,1.17C428.2,163.51,428.48,164.53,428.76,165.56Z" transform="translate(-1.66 -3.66)"/><path class="cls-14" d="M418.64,67.05s-6.37-1.55-9.45-.78-.58,5.67-.83,6.69c0,.17-4.9,6.23-4.94,7.79-.12,4.23,4,5.88,4,5.88l-2.18,12.68s14.61,6,18.44,4.08c4.07-2,4.4-4.34,4.27-5.47-.08-.68-2.93-6.11-2.9-6.8L427.4,77a7.34,7.34,0,0,0-3-5.78Z" transform="translate(-1.66 -3.66)"/><path class="cls-12" d="M432.14,117.11a2.77,2.77,0,1,0,2.77-2.77A2.77,2.77,0,0,0,432.14,117.11Z" transform="translate(-1.66 -3.66)"/><path class="cls-14" d="M430,78.44a6.67,6.67,0,0,1,.23.72A6.67,6.67,0,0,0,430,78.44Z" transform="translate(-1.66 -3.66)"/><path class="cls-14" d="M425.62,88.11A5.19,5.19,0,0,1,428,85.35a8.3,8.3,0,0,1,2.25-.82c.37-.12,1.36,0,1.73-.11.1.24-2.34-6.94-2.26-6.71a13.29,13.29,0,0,0-6.94-7.39c-2.89-1.14-9.86,2.64-9.86,2.64-.75,1.8,8.74,9.5,8.74,9.5s.82,1.08,1.9,2.65C423.64,84.21,425.62,88.11,425.62,88.11Z" transform="translate(-1.66 -3.66)"/><path class="cls-14" d="M436.6,115.78a1.32,1.32,0,0,0,.19-.21Z" transform="translate(-1.66 -3.66)"/><path class="cls-14" d="M410.78,65.93a3.67,3.67,0,0,0-4.89,2.36c-.56,1.42-4.18,12.83-4.18,12.83l3.4,1.69.25-.47C408.2,77,411,70.9,411,70.9Z" transform="translate(-1.66 -3.66)"/><path class="cls-12" d="M416.43,67s2.75.77,3,1.41-1.79-.62-4,1A19.76,19.76,0,0,0,411.43,74s-2-1.3-2-5.46S416.43,67,416.43,67Z" transform="translate(-1.66 -3.66)"/><path class="cls-12" d="M411.24,62.27,411,68.63l.62.1a4.81,4.81,0,0,0,5.37.56h0c.47-.26-.62-2.48,0-1.72l-.57-5.8Z" transform="translate(-1.66 -3.66)"/><polygon class="cls-14" points="411.23 65.21 412.43 68.11 416.34 68.64 418.44 64.69 415.82 61.83 415.13 61.64 415.23 62.53 411.23 65.21"/><polygon class="cls-15" points="410.73 69.06 412.62 68.49 411.23 65.21 410.73 69.06"/><polygon class="cls-14" points="409.87 71.52 405.84 66.08 408.67 60.9 409.48 61.19 409.87 71.52"/><circle class="cls-16" cx="413.43" cy="66.05" r="1.08"/><line class="cls-17" x1="407.8" y1="73.19" x2="404.12" y2="72.5"/><line class="cls-18" x1="407.8" y1="73.19" x2="406.59" y2="72.96"/><line class="cls-19" x1="405.33" y1="72.72" x2="404.12" y2="72.5"/><path class="cls-20" d="M405.91,95.6l-.64,3.71s10.9,6.31,18.44,4.08c4.37-1.29,4.4-4.34,4.27-5.47a7.16,7.16,0,0,0-.4-1.5s-1.4,2-6.2,2.68C415.88,99.86,405.91,95.6,405.91,95.6Z" transform="translate(-1.66 -3.66)"/><path class="cls-20" d="M408.51,98.1l-1.28-.37s6.11-18.93,13.21-25.25c.84-.75,4.16-2,5-1.23a7.7,7.7,0,0,1,1,1.14,11.77,11.77,0,0,0-7,3.8C415.09,80.92,408.51,98.1,408.51,98.1Z" transform="translate(-1.66 -3.66)"/><path class="cls-12" d="M399.3,106.2a2.77,2.77,0,1,1-1.39,3.67A2.78,2.78,0,0,1,399.3,106.2Z" transform="translate(-1.66 -3.66)"/><path class="cls-12" d="M404.74,57.45A7.49,7.49,0,1,0,412.23,50,7.49,7.49,0,0,0,404.74,57.45Z" transform="translate(-1.66 -3.66)"/><path class="cls-11" d="M406.15,55.7a1.86,1.86,0,0,1-1-.65l0,0c-1.44-3.62,3.45-5.69,8.11-5.32,4.13.32,6.45,3.63,6.45,7.77,0,1.84-2.75.31-2.6,1,.22,1,0,4-1.8,3.9,1.07-1.24-.81-3.09-1.28-3.46C410.74,56.24,409,56.78,406.15,55.7Z" transform="translate(-1.66 -3.66)"/><path class="cls-12" d="M417,57.69a1.8,1.8,0,1,0,1.73-2.28A2.07,2.07,0,0,0,417,57.69Z" transform="translate(-1.66 -3.66)"/><path class="cls-21" d="M413.27,49.68a5.33,5.33,0,0,0-1.27.17,4.1,4.1,0,0,1,2-.54A4.19,4.19,0,0,1,418.19,53,5.26,5.26,0,0,0,413.27,49.68Z" transform="translate(-1.66 -3.66)"/><path class="cls-13" d="M376.22,162a14.8,14.8,0,0,0-1.14,4.5,2.93,2.93,0,0,0,.88,2.27,36.9,36.9,0,0,0,4,.88c.93.05,4,2.48,6.2,2.63s5.06.83,5.37-.93-10.95-8.73-10.95-8.73Z" transform="translate(-1.66 -3.66)"/><path class="cls-15" d="M389,69.07l2.35,2.64s6.15,22.27,6,24.16-2.64,2.26-4.15,1.69-5.66-14.34-5.66-14.34Z" transform="translate(-1.66 -3.66)"/><path class="cls-13" d="M376.7,156.68l-.46,6.06s-.13,1.43,1.82,1.53a2.56,2.56,0,0,0,2.55-1.61l1.37-9Z" transform="translate(-1.66 -3.66)"/><path class="cls-13" d="M363.52,162.11l-1.14,5.43s.36,1.93,2.11,1.66,2.28-2.63,2.28-2.63l1.05-5.78Z" transform="translate(-1.66 -3.66)"/><path class="cls-13" d="M362.56,166.66s.18,1.58,1.58,1.49a4.57,4.57,0,0,0,2.63-1.58l-.35,5.61s-.79,8.42-3.25,9.29-2.92-2.57-3-3.77A24.69,24.69,0,0,1,362.56,166.66Z" transform="translate(-1.66 -3.66)"/><path class="cls-14" d="M367.23,104s.46,8.81.93,10.43-.93,23.17-.93,23.17-4.39,23.48-4.15,24.87,4.17.7,5.09-.69,6.24-20.48,7.17-26.5,3.71-19.93,3.71-19.93.23,16.92.23,18.31-2.89,25.61-2.89,25.61.11.74,2.45,1.09a2.86,2.86,0,0,0,2.66-1.06c1.38-2.26,1.72-6.18,1.72-6.18l6.25-31.74.87-23.19-3.65-1.37Z" transform="translate(-1.66 -3.66)"/><path class="cls-14" d="M376.05,69.79s7.7-2.48,10.85-1.7a5.7,5.7,0,0,1,4.47,4c.27,1-1.05,26.55-1.05,26.55S376.65,109.9,370.87,107c-4.18-2.09-4.52-4.45-4.38-5.6a13.45,13.45,0,0,0,.12-2.1l2.91-26.84Z" transform="translate(-1.66 -3.66)"/><path class="cls-15" d="M389,88.94l-16,3.19L369.7,75.26l-.36-.87-3.47,2.38.74,22.53a13.45,13.45,0,0,1-.12,2.1c-.12,1,.11,2.77,2.62,4.56,5.3-2.73,16-8.6,20.24-13C391.8,90.49,389,88.94,389,88.94Z" transform="translate(-1.66 -3.66)"/><path class="cls-22" d="M378.31,69.77s-1.66.61-1.92,1.26.91,1.34,3.32,2.71a13.24,13.24,0,0,0,2.34,1,7.2,7.2,0,0,0,1.44-3.29C383.65,67.22,378.31,69.77,378.31,69.77Z" transform="translate(-1.66 -3.66)"/><path class="cls-12" d="M391.44,64.06a7.66,7.66,0,1,1-4.74-9.75A7.66,7.66,0,0,1,391.44,64.06Z" transform="translate(-1.66 -3.66)"/><path class="cls-12" d="M385.87,63.62l-2.61,7.89h0a4.93,4.93,0,0,1-5.5.57h0a1.22,1.22,0,0,1-.6-1.37l1.94-7.65Z" transform="translate(-1.66 -3.66)"/><path class="cls-23" d="M390.67,61.9a2,2,0,0,0,1.15-.31l0,0A7.66,7.66,0,0,0,377,59.06a8.32,8.32,0,0,0-.26,1,2.76,2.76,0,0,0,1,.3c.78.07,3.36-1,3.12-2,.12.52.23,1,.35,1.56a1.85,1.85,0,0,0,1.12-1.36A11.37,11.37,0,0,0,390.67,61.9Z" transform="translate(-1.66 -3.66)"/><path class="cls-15" d="M391.25,96.71s-1.53-3.41-.15-5h0c1.37-1.58,2.89-2.72,5.15-.75,0,0,4.44,6.32,3.06,7.9h0C397.94,100.44,393.51,98.67,391.25,96.71Z" transform="translate(-1.66 -3.66)"/><path class="cls-12" d="M380,60.37a2.33,2.33,0,1,1-1.45-3A2.34,2.34,0,0,1,380,60.37Z" transform="translate(-1.66 -3.66)"/><path class="cls-12" d="M400.44,97a2.84,2.84,0,1,1-2.84-2.83A2.84,2.84,0,0,1,400.44,97Z" transform="translate(-1.66 -3.66)"/><polygon class="cls-14" points="378.9 67.7 377.76 70.45 374.69 70.73 373.05 67.7 375.41 65.13 376.03 64.96 375.85 65.66 378.9 67.7"/><polygon class="cls-15" points="380.36 71.2 377.84 70.2 378.9 67.7 380.36 71.2"/><circle class="cls-16" cx="377.22" cy="68.35" r="0.82"/><polygon class="cls-15" points="381.79 67.27 380.36 71.2 382.42 69.06 381.79 67.27"/><path class="cls-20" d="M390.21,101.2l-.12,3.76s-14.69,6.28-20.42,4.59c-3.32-1-3.35-3.31-3.25-4.16.06-.52,0-3.24.05-3.55,0,0,1.32,3.94,5,4.44C375.63,106.86,390.21,101.2,390.21,101.2Z" transform="translate(-1.66 -3.66)"/><path class="cls-20" d="M389.1,101.91l1-.18S381.63,80.61,374.7,73.4c-.82-.85-2.75-1.94-3.05-1.81a9.58,9.58,0,0,0-2.13.87s3.14.78,6.46,4.71C380.43,82.45,389.1,101.91,389.1,101.91Z" transform="translate(-1.66 -3.66)"/><path class="cls-14" d="M371.5,82.39s-.14-9.14-2-9.93c0,0-4.17.89-5.49,3.78s-1,5.47-2.21,9.93c-.82,3-2.76,9.6-2.37,12.09s3,3.82,9.2,1.32S390.21,91,390.21,91l-.13-2.76-20.14,3Z" transform="translate(-1.66 -3.66)"/><path class="cls-12" d="M394.9,89.26a2.84,2.84,0,1,1-2.84-2.83A2.83,2.83,0,0,1,394.9,89.26Z" transform="translate(-1.66 -3.66)"/><path class="cls-12" d="M396.62,91.8l-2-3.12a.8.8,0,0,0-1.34.87l2,3.12a.81.81,0,0,0,1.11.23A.8.8,0,0,0,396.62,91.8Z" transform="translate(-1.66 -3.66)"/><path class="cls-24" d="M366.79,107.48a3.62,3.62,0,0,1-.37-2.09c.06-.52,0-3.24.05-3.55a7.53,7.53,0,0,0,3.16,3.84Z" transform="translate(-1.66 -3.66)"/><polygon class="cls-24" points="384.62 91.94 383.37 89.37 384.54 88.95 385.58 91.22 384.62 91.94"/><polygon class="cls-25" points="407.67 82.24 393.56 91.33 388.87 96.07 403.58 87.52 407.67 82.24"/><polygon class="cls-26" points="407.67 82.24 407.91 82.55 403.87 87.93 389.13 96.41 388.87 96.07 403.58 87.52 407.67 82.24"/><polygon class="cls-27" points="406.68 83.08 394.15 91.01 389.8 95.37 403.34 87.43 406.68 83.08"/></g><g id="PCs"><g id="_Gruppo_" data-name="&lt;Gruppo&gt;"><path class="cls-28" d="M553.28,251l-.13-.12a1.21,1.21,0,0,0-.2-.19,2.32,2.32,0,0,0-1-.62l-40.22-23.32a5.87,5.87,0,0,0-5.55.17l-62.82,36.2a2.67,2.67,0,0,0-.5.44,2.17,2.17,0,0,0-.38.46c-1.77,2.88-.58,4.44.41,5.41a3.71,3.71,0,0,0,.91.7l.05,0,40.76,23.6a5.72,5.72,0,0,0,5.46-.17l62.58-36.09S557.43,255.16,553.28,251Z" transform="translate(-1.66 -3.66)"/><path id="_Tracciato_" data-name="&lt;Tracciato&gt;" class="cls-29" d="M551.2,248.31c-2.1-2.12-2.16-.22-1.75,2.09L511,228.12a5.65,5.65,0,0,0-5.37.17l-56.38,32.48c-2.28-1-4.38-1.39-5.32.15-1.71,2.78-.56,4.3.4,5.23a3.61,3.61,0,0,0,.89.69l0,0,39.46,22.85a5.53,5.53,0,0,0,5.28-.17l60.58-34.93S555.22,252.38,551.2,248.31Z" transform="translate(-1.66 -3.66)"/><path id="_Tracciato_2" data-name="&lt;Tracciato&gt;" class="cls-16" d="M444.82,260l60.81-35a5.65,5.65,0,0,1,5.37-.17l39.46,22.88a2.25,2.25,0,0,1,.12,3.95L490,286.61a5.59,5.59,0,0,1-5.28.17l-39.46-22.85C443.33,262.78,443.44,261,444.82,260Z" transform="translate(-1.66 -3.66)"/><path id="_Tracciato_3" data-name="&lt;Tracciato&gt;" class="cls-30" d="M447.56,260.72l41.84,23.82a1,1,0,0,0,1,0l57.57-33a.34.34,0,0,0,0-.59l-41.79-24a.94.94,0,0,0-.88,0l-57.72,33.27A.31.31,0,0,0,447.56,260.72Z" transform="translate(-1.66 -3.66)"/><g id="_Gruppo_2" data-name="&lt;Gruppo&gt;"><path id="_Tracciato_4" data-name="&lt;Tracciato&gt;" class="cls-31" d="M464.2,272.69l0,0c-.14-.08-.12-.21,0-.31h0a.61.61,0,0,1,.54,0h0c.14.08.12.22,0,.31h0A.56.56,0,0,1,464.2,272.69Z" transform="translate(-1.66 -3.66)"/><path id="_Tracciato_5" data-name="&lt;Tracciato&gt;" class="cls-31" d="M469.75,275.87,465,273.13c-.14-.07-.12-.21,0-.31h0a.61.61,0,0,1,.54,0l4.77,2.73c.14.08.12.22,0,.31h0A.59.59,0,0,1,469.75,275.87Z" transform="translate(-1.66 -3.66)"/></g><path id="_Tracciato_6" data-name="&lt;Tracciato&gt;" class="cls-31" d="M529.37,239.14l-2.93-1.67c-.59-.34-.51-.93.17-1.31h0a2.5,2.5,0,0,1,2.27-.08l2.94,1.66c.58.34.5.93-.17,1.31h0A2.52,2.52,0,0,1,529.37,239.14Z" transform="translate(-1.66 -3.66)"/><path id="_Tracciato_7" data-name="&lt;Tracciato&gt;" class="cls-32" d="M526.51,236.65a2.5,2.5,0,0,1,2.27-.08l2.94,1.66a.74.74,0,0,1,.37.44.61.61,0,0,0-.27-.93l-2.94-1.66a2.5,2.5,0,0,0-2.27.08h0c-.44.25-.62.58-.55.87A1.35,1.35,0,0,1,526.51,236.65Z" transform="translate(-1.66 -3.66)"/><path id="_Tracciato_8" data-name="&lt;Tracciato&gt;" class="cls-32" d="M501.28,281.13a.4.4,0,0,0-.24,0h0l-2.47,1.44h0a.63.63,0,0,0-.26.36.46.46,0,0,0,.23.6.34.34,0,0,0,.22,0h0l0,0,2.42-1.41h0a.54.54,0,0,0,.29-.37A.46.46,0,0,0,501.28,281.13Z" transform="translate(-1.66 -3.66)"/><path id="_Tracciato_9" data-name="&lt;Tracciato&gt;" class="cls-14" d="M501.44,281.23a.3.3,0,0,0-.23,0h0l-2.47,1.44h0a.56.56,0,0,0-.26.35.47.47,0,0,0,.22.61.36.36,0,0,0,.23,0h0l2.43-1.41h0a.57.57,0,0,0,.3-.37A.46.46,0,0,0,501.44,281.23Z" transform="translate(-1.66 -3.66)"/><path id="_Tracciato_10" data-name="&lt;Tracciato&gt;" class="cls-32" d="M505.09,279a.31.31,0,0,0-.23,0h0l-2.48,1.43h0a.6.6,0,0,0-.26.35.47.47,0,0,0,.23.6.31.31,0,0,0,.23,0h0l2.42-1.41h0a.63.63,0,0,0,.3-.37A.49.49,0,0,0,505.09,279Z" transform="translate(-1.66 -3.66)"/><path id="_Tracciato_11" data-name="&lt;Tracciato&gt;" class="cls-14" d="M505.25,279.06a.37.37,0,0,0-.23,0h0l-2.47,1.44h0a.59.59,0,0,0-.26.36.46.46,0,0,0,.23.6.34.34,0,0,0,.22,0h0l0,0,2.42-1.41h0a.56.56,0,0,0,.29-.37A.46.46,0,0,0,505.25,279.06Z" transform="translate(-1.66 -3.66)"/><path id="_Tracciato_12" data-name="&lt;Tracciato&gt;" class="cls-32" d="M497.46,283.36a.26.26,0,0,0-.23,0h0l-.61.34h0a.6.6,0,0,0-.26.35c-.08.27,0,.55.23.6a.25.25,0,0,0,.22,0h0l.55-.31h0a.56.56,0,0,0,.29-.37C497.76,283.68,497.66,283.41,497.46,283.36Z" transform="translate(-1.66 -3.66)"/><path id="_Tracciato_13" data-name="&lt;Tracciato&gt;" class="cls-14" d="M497.62,283.45a.31.31,0,0,0-.23,0h0l-.6.33h0a.55.55,0,0,0-.26.36.46.46,0,0,0,.22.6.36.36,0,0,0,.23,0h0l0,0,.56-.3h0a.62.62,0,0,0,.29-.37A.47.47,0,0,0,497.62,283.45Z" transform="translate(-1.66 -3.66)"/><path id="_Tracciato_14" data-name="&lt;Tracciato&gt;" class="cls-31" d="M447.5,260.62l57.72-33.27a.9.9,0,0,1,.87,0l41.79,24a.27.27,0,0,1,.1.08.33.33,0,0,0-.09-.53l-41.79-24a.92.92,0,0,0-.88,0l-57.71,33.26a.32.32,0,0,0-.06.5Z" transform="translate(-1.66 -3.66)"/><path class="cls-33" d="M493.17,259.44l-12.53-7.29c-1.29-.75-1-2.3.6-3.45l7.13-5c1.62-1.15,4-1.48,5.28-.73l12.54,7.29c1.29.75,1,2.3-.61,3.45l-7.12,5C496.83,259.86,494.46,260.19,493.17,259.44Z" transform="translate(-1.66 -3.66)"/><polygon class="cls-33" points="476.43 251.21 482.64 249.09 486.43 251.29 476.43 251.21"/><line class="cls-34" x1="498.87" y1="247.4" x2="501.35" y2="248.84"/><line class="cls-34" x1="492.27" y1="243.56" x2="498.03" y2="246.91"/><line class="cls-34" x1="488.74" y1="241.51" x2="491.26" y2="242.97"/><line class="cls-34" x1="497.7" y1="249.58" x2="499.13" y2="250.41"/><line class="cls-34" x1="491.56" y1="246.01" x2="496.65" y2="248.97"/><line class="cls-34" x1="486.52" y1="243.08" x2="490.6" y2="245.45"/><line class="cls-34" x1="494.91" y1="250.42" x2="497.23" y2="251.76"/><line class="cls-34" x1="489.66" y1="247.36" x2="493.9" y2="249.83"/><line class="cls-34" x1="484.61" y1="244.43" x2="488.57" y2="246.73"/><line class="cls-34" x1="482.71" y1="245.78" x2="487.75" y2="248.71"/><path class="cls-16" d="M491.74,266.8l-7.42-4.32c-1.68-1-1.32-3,.78-4.47l6.64-4.71c2.11-1.49,5.19-1.92,6.86-.94l12.15,7.06c1.68,1,1.33,3-.78,4.48l-6.64,4.7c-2.11,1.5-5.19,1.92-6.86.95l-1-.58-2.31,2.43Z" transform="translate(-1.66 -3.66)"/><path class="cls-27" d="M510.12,259.87c1.4.82,1.11,2.49-.66,3.73l-6.64,4.71c-1.76,1.25-4.32,1.6-5.72.79l-1.8-1.05-2,3.05-.81-4.67L485,262c-1.4-.81-1.1-2.48.66-3.73l6.64-4.71c1.76-1.24,4.32-1.6,5.72-.78l12.15,7.06m1.27-.9-12.15-7.06c-1.95-1.14-5.54-.65-8,1.1l-6.64,4.7c-2.46,1.75-2.87,4.09-.92,5.22l7.27,4.23.77,4.39,3.08-.32.86-1.33.17.1c2,1.13,5.55.64,8-1.1l6.64-4.71c2.46-1.74,2.87-4.08.92-5.22Z" transform="translate(-1.66 -3.66)"/><line class="cls-34" x1="495.66" y1="252.49" x2="493.18" y2="251.05"/><line class="cls-34" x1="503.27" y1="256.92" x2="496.76" y2="253.13"/><line class="cls-34" x1="505.79" y1="258.38" x2="504.03" y2="257.36"/><line class="cls-34" x1="492.39" y1="253.46" x2="490.96" y2="252.63"/><line class="cls-34" x1="497.77" y1="256.59" x2="493.44" y2="254.07"/><line class="cls-34" x1="503.57" y1="259.96" x2="498.74" y2="257.15"/><line class="cls-34" x1="491.37" y1="255.32" x2="489.05" y2="253.98"/><line class="cls-34" x1="497.38" y1="258.82" x2="492.38" y2="255.91"/><line class="cls-34" x1="501.67" y1="261.31" x2="498.47" y2="259.45"/><line class="cls-34" x1="492.19" y1="258.26" x2="487.15" y2="255.33"/><path class="cls-35" d="M457.91,266.56l76.35-23.08-28.58-16.71-58.82,33.58C446.86,260.63,457.91,266.56,457.91,266.56Z" transform="translate(-1.66 -3.66)"/></g><circle class="cls-36" cx="51.61" cy="214.88" r="49.61"/><path class="cls-37" d="M34.81,188.76l0,18.48a2.06,2.06,0,0,1-.51,1.35l-4.41,5.11a2,2,0,0,0-.51,1.35v7h3.43V233.1L29.42,237v10a2.06,2.06,0,0,0,2.06,2.06L75,249A2.06,2.06,0,0,0,77.05,247l0-58.23a2.06,2.06,0,0,0-2.06-2.06l-38.07,0A2.07,2.07,0,0,0,34.81,188.76Z" transform="translate(-1.66 -3.66)"/><rect class="cls-38" x="35.66" y="185.55" width="3.55" height="8.67"/><rect class="cls-38" x="69.29" y="185.52" width="3.55" height="11.17"/><rect class="cls-38" x="63.69" y="185.53" width="3.55" height="11.17"/><rect class="cls-38" x="58.08" y="185.53" width="3.55" height="11.17"/><rect class="cls-38" x="52.47" y="185.53" width="3.55" height="8.67"/><rect class="cls-38" x="46.87" y="185.54" width="3.55" height="11.17"/><rect class="cls-38" x="41.27" y="185.54" width="3.55" height="11.17"/><path class="cls-39" d="M37.73,204.34H71.46a0,0,0,0,1,0,0v34.5a2.31,2.31,0,0,1-2.31,2.31H37.73a0,0,0,0,1,0,0V204.34A0,0,0,0,1,37.73,204.34Z"/><circle class="cls-36" cx="106.58" cy="102.27" r="49.61" transform="translate(-9.6 191.9) rotate(-82.98)"/><rect class="cls-33" x="118.04" y="77.74" width="13.52" height="12.62" rx="1.36" ry="1.36" transform="translate(94.32 -67.29) rotate(45)"/><rect class="cls-40" x="123.05" y="79.4" width="2.19" height="2.15" transform="translate(91.6 -67.87) rotate(45)"/><rect class="cls-40" x="127.28" y="83.63" width="2.19" height="2.15" transform="translate(95.83 -69.62) rotate(45)"/><rect class="cls-41" x="78.36" y="94.66" width="50.42" height="21.25" rx="2.63" ry="2.63" transform="translate(-45.77 100.41) rotate(-45)"/><rect class="cls-39" x="97.48" y="86.52" width="12.18" height="37.52" transform="translate(103.12 -46.05) rotate(45)"/><path class="cls-42" d="M107.2,116.67l-1.73-28.32L80.08,113.74a2.63,2.63,0,0,0,0,3.71L91.37,128.7a2.69,2.69,0,0,0,3.8,0Z" transform="translate(-1.66 -3.66)"/><circle class="cls-36" cx="225.58" cy="55.27" r="49.61" transform="translate(141.51 268.74) rotate(-82.98)"/><path class="cls-41" d="M208.35,81.37a2.63,2.63,0,0,1-3.71,0L183,60a2.63,2.63,0,0,1,0-3.71L214.92,24.3a2.61,2.61,0,0,1,3.71,0l21.66,21.42a2.61,2.61,0,0,1,0,3.71Z" transform="translate(-1.66 -3.66)"/><rect class="cls-33" x="260.46" y="47.82" width="4.08" height="3.81" transform="translate(110.39 -174.71) rotate(45)"/><rect class="cls-40" x="261.98" y="48.32" width="0.66" height="0.65" transform="translate(109.57 -174.89) rotate(45)"/><rect class="cls-40" x="263.25" y="49.6" width="0.66" height="0.65" transform="translate(110.84 -175.42) rotate(45)"/><path class="cls-39" d="M257.63,59.13a.79.79,0,0,1-1.12,0l-3.41-3.41a.79.79,0,0,1,0-1.12l6.11-6.11L263.74,53Z" transform="translate(-1.66 -3.66)"/><path class="cls-43" d="M260.1,52.23l-31.94,32a4.75,4.75,0,0,1-6.72-6.72L256.94,42a7.32,7.32,0,0,0-10.35-10.36L236,42.19" transform="translate(-1.66 -3.66)"/><path class="cls-39" d="M237.91,38.35a.33.33,0,0,1,.47,0l1.44,1.43a.34.34,0,0,1,0,.48l-2.58,2.57-1.91-1.91Z" transform="translate(-1.66 -3.66)"/><path class="cls-44" d="M213.09,76.63,210.19,29,182.9,56.35a2.47,2.47,0,0,0,0,3.52l21.86,21.59a2.48,2.48,0,0,0,3.5,0Z" transform="translate(-1.66 -3.66)"/><polygon class="cls-7" points="328.81 250.16 328.81 254.87 240.12 307.23 239.97 307.15 239.97 302.44 328.81 250.16"/><polygon class="cls-8" points="239.97 302.44 239.97 307.15 144.56 251.7 144.56 247 239.97 302.44"/><polygon class="cls-5" points="239.75 302.46 144.56 246.99 234.01 195.57 328.81 250.16 239.9 302.55 239.75 302.46"/><g id="_Gruppo_3" data-name="&lt;Gruppo&gt;"><path class="cls-28" d="M291.62,241l-.12-.12-.2-.19a2.34,2.34,0,0,0-1-.62l-40.22-23.32a5.87,5.87,0,0,0-5.55.17l-62.82,36.2a2.67,2.67,0,0,0-.5.44,2.17,2.17,0,0,0-.38.46c-1.76,2.88-.58,4.44.42,5.41a3.37,3.37,0,0,0,.91.7l.05,0L223,283.72a5.72,5.72,0,0,0,5.46-.17L291,247.46S295.77,245.16,291.62,241Z" transform="translate(-1.66 -3.66)"/><path id="_Tracciato_15" data-name="&lt;Tracciato&gt;" class="cls-29" d="M289.54,238.31c-2.09-2.12-2.16-.22-1.75,2.09l-38.42-22.28a5.65,5.65,0,0,0-5.37.17l-56.38,32.48c-2.28-1.05-4.38-1.39-5.32.15-1.7,2.78-.56,4.3.41,5.23a3.37,3.37,0,0,0,.88.69l0,0,39.45,22.85a5.53,5.53,0,0,0,5.28-.17L289,244.61S293.56,242.38,289.54,238.31Z" transform="translate(-1.66 -3.66)"/><path id="_Tracciato_16" data-name="&lt;Tracciato&gt;" class="cls-16" d="M183.16,250,244,215a5.65,5.65,0,0,1,5.37-.17l39.46,22.88a2.24,2.24,0,0,1,.12,3.95l-60.58,34.94a5.58,5.58,0,0,1-5.28.17l-39.45-22.85C181.67,252.78,181.78,251,183.16,250Z" transform="translate(-1.66 -3.66)"/><path id="_Tracciato_17" data-name="&lt;Tracciato&gt;" class="cls-45" d="M185.9,250.72l41.85,23.82a1,1,0,0,0,1,0l57.58-33a.34.34,0,0,0,0-.59l-41.79-24a.94.94,0,0,0-.88,0l-57.72,33.27A.31.31,0,0,0,185.9,250.72Z" transform="translate(-1.66 -3.66)"/><g id="_Gruppo_4" data-name="&lt;Gruppo&gt;"><path id="_Tracciato_18" data-name="&lt;Tracciato&gt;" class="cls-31" d="M202.54,262.69l0,0c-.13-.08-.12-.21,0-.31h0a.61.61,0,0,1,.54,0h0c.14.08.13.22,0,.31h0A.58.58,0,0,1,202.54,262.69Z" transform="translate(-1.66 -3.66)"/><path id="_Tracciato_19" data-name="&lt;Tracciato&gt;" class="cls-31" d="M208.09,265.87l-4.77-2.74c-.14-.07-.12-.21,0-.31h0a.59.59,0,0,1,.53,0l4.77,2.73c.14.08.12.22,0,.31h0A.61.61,0,0,1,208.09,265.87Z" transform="translate(-1.66 -3.66)"/></g><path id="_Tracciato_20" data-name="&lt;Tracciato&gt;" class="cls-31" d="M267.71,229.14l-2.93-1.67c-.58-.34-.51-.93.17-1.31h0a2.52,2.52,0,0,1,2.28-.08l2.93,1.66c.58.34.51.93-.17,1.31h0A2.52,2.52,0,0,1,267.71,229.14Z" transform="translate(-1.66 -3.66)"/><path id="_Tracciato_21" data-name="&lt;Tracciato&gt;" class="cls-32" d="M264.85,226.65a2.5,2.5,0,0,1,2.27-.08l2.94,1.66a.7.7,0,0,1,.37.44.61.61,0,0,0-.27-.93l-2.94-1.66a2.5,2.5,0,0,0-2.27.08h0c-.44.25-.62.58-.54.87A1.3,1.3,0,0,1,264.85,226.65Z" transform="translate(-1.66 -3.66)"/><path id="_Tracciato_22" data-name="&lt;Tracciato&gt;" class="cls-32" d="M239.62,271.13a.36.36,0,0,0-.23,0h0l-2.47,1.44h0a.6.6,0,0,0-.27.36.47.47,0,0,0,.23.6.37.37,0,0,0,.23,0h0l0,0,2.42-1.41h0a.58.58,0,0,0,.3-.37A.48.48,0,0,0,239.62,271.13Z" transform="translate(-1.66 -3.66)"/><path id="_Tracciato_23" data-name="&lt;Tracciato&gt;" class="cls-14" d="M239.78,271.23a.31.31,0,0,0-.23,0h0l-2.47,1.44h0a.64.64,0,0,0-.26.35.47.47,0,0,0,.23.61.34.34,0,0,0,.22,0h0l2.42-1.41h0a.56.56,0,0,0,.29-.37A.46.46,0,0,0,239.78,271.23Z" transform="translate(-1.66 -3.66)"/><path id="_Tracciato_24" data-name="&lt;Tracciato&gt;" class="cls-32" d="M243.43,269a.31.31,0,0,0-.23,0h0l-2.47,1.43h0a.53.53,0,0,0-.26.35.46.46,0,0,0,.22.6.3.3,0,0,0,.23,0h0l2.43-1.41h0a.62.62,0,0,0,.29-.37A.47.47,0,0,0,243.43,269Z" transform="translate(-1.66 -3.66)"/><path id="_Tracciato_25" data-name="&lt;Tracciato&gt;" class="cls-14" d="M243.6,269.06a.4.4,0,0,0-.24,0h0l-2.47,1.44h0a.63.63,0,0,0-.26.36.46.46,0,0,0,.23.6.34.34,0,0,0,.22,0h0l0,0,2.42-1.41h0a.56.56,0,0,0,.29-.37A.46.46,0,0,0,243.6,269.06Z" transform="translate(-1.66 -3.66)"/><path id="_Tracciato_26" data-name="&lt;Tracciato&gt;" class="cls-32" d="M235.8,273.36a.26.26,0,0,0-.23,0h0l-.61.34h0a.58.58,0,0,0-.27.35.46.46,0,0,0,.23.6.27.27,0,0,0,.23,0h0l.55-.31h0a.57.57,0,0,0,.3-.37A.46.46,0,0,0,235.8,273.36Z" transform="translate(-1.66 -3.66)"/><path id="_Tracciato_27" data-name="&lt;Tracciato&gt;" class="cls-14" d="M236,273.45a.32.32,0,0,0-.23,0h0l-.6.33h0a.59.59,0,0,0-.26.36.46.46,0,0,0,.23.6.34.34,0,0,0,.22,0h0l0,0,.55-.3h0a.59.59,0,0,0,.29-.37A.47.47,0,0,0,236,273.45Z" transform="translate(-1.66 -3.66)"/><path id="_Tracciato_28" data-name="&lt;Tracciato&gt;" class="cls-31" d="M185.84,250.62l57.72-33.27a.92.92,0,0,1,.88,0l41.79,24a.39.39,0,0,1,.1.08.33.33,0,0,0-.1-.53l-41.79-24a.9.9,0,0,0-.87,0l-57.72,33.26a.32.32,0,0,0-.06.5Z" transform="translate(-1.66 -3.66)"/><path class="cls-33" d="M231.51,249.44,219,242.15c-1.29-.75-1-2.3.61-3.45l7.12-5c1.63-1.15,4-1.48,5.29-.73l12.53,7.29c1.29.75,1,2.3-.6,3.45l-7.13,5.05C235.18,249.86,232.81,250.19,231.51,249.44Z" transform="translate(-1.66 -3.66)"/><polygon class="cls-33" points="214.77 241.21 220.98 239.09 224.78 241.29 214.77 241.21"/><line class="cls-34" x1="237.22" y1="237.4" x2="239.7" y2="238.84"/><line class="cls-34" x1="230.62" y1="233.56" x2="236.38" y2="236.91"/><line class="cls-34" x1="227.08" y1="231.51" x2="229.61" y2="232.97"/><line class="cls-34" x1="236.04" y1="239.58" x2="237.47" y2="240.41"/><line class="cls-34" x1="229.91" y1="236.01" x2="234.99" y2="238.97"/><line class="cls-34" x1="224.86" y1="233.08" x2="228.94" y2="235.45"/><line class="cls-34" x1="233.26" y1="240.42" x2="235.57" y2="241.76"/><line class="cls-34" x1="228" y1="237.36" x2="232.25" y2="239.83"/><line class="cls-34" x1="222.96" y1="234.43" x2="226.91" y2="236.73"/><line class="cls-34" x1="221.05" y1="235.78" x2="226.1" y2="238.71"/><path class="cls-16" d="M230.08,256.8l-7.42-4.32c-1.67-1-1.32-3,.79-4.47l6.64-4.71c2.11-1.49,5.18-1.92,6.86-.94l12.15,7.06c1.67,1,1.32,3-.79,4.48l-6.64,4.7c-2.11,1.5-5.18,1.92-6.86.95l-1-.58-2.31,2.43Z" transform="translate(-1.66 -3.66)"/><path class="cls-45" d="M248.46,249.87c1.4.82,1.11,2.49-.65,3.73l-6.64,4.71c-1.76,1.25-4.32,1.6-5.72.79l-1.81-1.05-2,3.05-.82-4.67L223.3,252c-1.4-.81-1.11-2.48.65-3.73l6.64-4.71c1.76-1.24,4.32-1.6,5.72-.78l12.15,7.06m1.27-.9-12.15-7.06c-2-1.14-5.54-.65-8,1.1l-6.64,4.7c-2.46,1.75-2.87,4.09-.91,5.22l7.27,4.23.76,4.39,3.09-.32.85-1.33.18.1c1.95,1.13,5.54.64,8-1.1l6.64-4.71c2.45-1.74,2.87-4.08.91-5.22Z" transform="translate(-1.66 -3.66)"/><line class="cls-34" x1="234.01" y1="242.49" x2="231.52" y2="241.05"/><line class="cls-34" x1="241.61" y1="246.92" x2="235.1" y2="243.13"/><line class="cls-34" x1="244.14" y1="248.38" x2="242.37" y2="247.36"/><line class="cls-34" x1="230.73" y1="243.46" x2="229.3" y2="242.63"/><line class="cls-34" x1="236.11" y1="246.59" x2="231.78" y2="244.07"/><line class="cls-34" x1="241.91" y1="249.96" x2="237.08" y2="247.15"/><line class="cls-34" x1="229.71" y1="245.32" x2="227.4" y2="243.98"/><line class="cls-34" x1="235.72" y1="248.82" x2="230.72" y2="245.91"/><line class="cls-34" x1="240.01" y1="251.31" x2="236.81" y2="249.45"/><line class="cls-34" x1="230.54" y1="248.26" x2="225.49" y2="245.33"/><polygon class="cls-38" points="231.9 250.58 219.03 243.09 232.74 233.38 245.61 240.86 231.9 250.58"/><path class="cls-29" d="M246.2,243.89l-2.69-1.56,5.59-4c1.4-1,1.86-2,1.84-2.59,0-.13,0-.56-.7-.95-1.72-1-5.24-.45-7.53,1.18l-4.54,3.22-2.69-1.57,5.59-4c3.25-2.3,7.91-2.88,10.6-1.32a4,4,0,0,1,2.1,3.28c.08,1.77-1,3.6-3,5Z" transform="translate(-1.66 -3.66)"/><ellipse class="cls-14" cx="235.22" cy="244.76" rx="2.05" ry="1.21" transform="translate(-66.81 82.95) rotate(-18.37)"/><polygon class="cls-14" points="230.21 245.07 233.91 241.71 232.57 240.93 227.74 243.63 230.21 245.07"/><path class="cls-46" d="M196.25,256.56l76.35-23.08L244,216.77,185.2,250.35C185.2,250.63,196.25,256.56,196.25,256.56Z" transform="translate(-1.66 -3.66)"/></g></g></g></svg>