<svg xmlns="http://www.w3.org/2000/svg" xmlns:xlink="http://www.w3.org/1999/xlink" viewBox="0 0 145.73 145.73"><defs><style>.cls-1{isolation:isolate;}.cls-2{fill:#56bdbf;stroke:#eaeaea;stroke-miterlimit:10;stroke-width:4px;}.cls-3{fill:#454544;}.cls-4,.cls-5,.cls-7{opacity:0.5;}.cls-4{fill:url(#Sfumatura_senza_nome_14);}.cls-5,.cls-7,.cls-8,.cls-9{mix-blend-mode:screen;}.cls-5{fill:url(#linear-gradient);}.cls-6{mix-blend-mode:multiply;fill:url(#linear-gradient-2);}.cls-7{fill:url(#Sfumatura_senza_nome_3);}.cls-8{fill:url(#Sfumatura_senza_nome_5);}.cls-9{fill:url(#Sfumatura_senza_nome_7);}.cls-10{fill:#323232;}.cls-11{fill:#fff;}.cls-12{fill:#e30613;}</style><linearGradient id="Sfumatura_senza_nome_14" x1="277.76" y1="-61.99" x2="277.76" y2="-155.01" gradientTransform="translate(182.47 355.61) rotate(-90)" gradientUnits="userSpaceOnUse"><stop offset="0" stop-color="#fff"/><stop offset="0.12" stop-color="#fbfbfb" stop-opacity="0.98"/><stop offset="0.25" stop-color="#eee" stop-opacity="0.93"/><stop offset="0.37" stop-color="#dadada" stop-opacity="0.85"/><stop offset="0.5" stop-color="#bdbdbd" stop-opacity="0.74"/><stop offset="0.63" stop-color="#989898" stop-opacity="0.59"/><stop offset="0.76" stop-color="#6a6a6a" stop-opacity="0.41"/><stop offset="0.89" stop-color="#353535" stop-opacity="0.2"/><stop offset="1" stop-color="#010101" stop-opacity="0"/></linearGradient><linearGradient id="linear-gradient" x1="286.76" y1="101.25" x2="335.63" y2="101.25" gradientTransform="translate(186.61 -233.14) rotate(90)" gradientUnits="userSpaceOnUse"><stop offset="0" stop-color="#fff" stop-opacity="0.4"/><stop offset="0.16" stop-color="#ececec" stop-opacity="0.37"/><stop offset="0.41" stop-color="#b9b9b9" stop-opacity="0.29"/><stop offset="0.71" stop-color="#656565" stop-opacity="0.16"/><stop offset="1" stop-color="#010101" stop-opacity="0"/></linearGradient><linearGradient id="linear-gradient-2" x1="372.79" y1="31.92" x2="372.79" y2="-1.1" gradientTransform="translate(446.84 101.39) rotate(180)" gradientUnits="userSpaceOnUse"><stop offset="0" stop-color="#b4b4b4" stop-opacity="0.11"/><stop offset="0.24" stop-color="#bdbdbd" stop-opacity="0.13"/><stop offset="0.59" stop-color="#d6d6d6" stop-opacity="0.2"/><stop offset="1" stop-color="#fff" stop-opacity="0.3"/></linearGradient><radialGradient id="Sfumatura_senza_nome_3" cx="110.65" cy="301.4" r="8.46" gradientTransform="translate(-50.57 -189.57) scale(1.44 0.81)" gradientUnits="userSpaceOnUse"><stop offset="0" stop-color="#fff"/><stop offset="0.04" stop-color="#dfdfdf" stop-opacity="0.87"/><stop offset="0.1" stop-color="#b1b1b1" stop-opacity="0.69"/><stop offset="0.17" stop-color="#878787" stop-opacity="0.53"/><stop offset="0.24" stop-color="#636363" stop-opacity="0.38"/><stop offset="0.31" stop-color="#444" stop-opacity="0.26"/><stop offset="0.4" stop-color="#2c2c2c" stop-opacity="0.17"/><stop offset="0.49" stop-color="#181818" stop-opacity="0.09"/><stop offset="0.6" stop-color="#0b0b0b" stop-opacity="0.04"/><stop offset="0.74" stop-color="#030303" stop-opacity="0.01"/><stop offset="1" stop-color="#010101" stop-opacity="0"/></radialGradient><radialGradient id="Sfumatura_senza_nome_5" cx="137.35" cy="2060.9" r="10.96" gradientTransform="translate(-221.9 -377.44) scale(2.44 0.21)" gradientUnits="userSpaceOnUse"><stop offset="0" stop-color="#fff"/><stop offset="0.01" stop-color="#f6f6f6" stop-opacity="0.96"/><stop offset="0.05" stop-color="#c8c8c8" stop-opacity="0.78"/><stop offset="0.09" stop-color="#9d9d9d" stop-opacity="0.61"/><stop offset="0.14" stop-color="#787878" stop-opacity="0.47"/><stop offset="0.2" stop-color="#575757" stop-opacity="0.34"/><stop offset="0.25" stop-color="#3c3c3c" stop-opacity="0.23"/><stop offset="0.32" stop-color="#262626" stop-opacity="0.15"/><stop offset="0.4" stop-color="#151515" stop-opacity="0.08"/><stop offset="0.49" stop-color="#0a0a0a" stop-opacity="0.03"/><stop offset="0.63" stop-color="#030303" stop-opacity="0.01"/><stop offset="1" stop-color="#010101" stop-opacity="0"/></radialGradient><radialGradient id="Sfumatura_senza_nome_7" cx="132.21" cy="2264.28" r="18" gradientTransform="translate(-180.84 -425.06) scale(2.14 0.24)" xlink:href="#Sfumatura_senza_nome_5"/></defs><title>G09_05_05</title><g class="cls-1"><g id="road"><circle class="cls-2" cx="72.87" cy="72.87" r="70.87"/><path class="cls-3" d="M128.59,41.86,29.13,42V114.7A3.29,3.29,0,0,0,32.42,118h92.92a3.3,3.3,0,0,0,3.29-3.29Z" transform="translate(-5.09 -5.09)"/><rect class="cls-4" x="27.46" y="53.41" width="93.03" height="48.87"/><polygon class="cls-5" points="120.48 102.48 120.48 53.61 50.25 53.61 88.03 102.48 120.48 102.48"/><polygon class="cls-6" points="27.46 102.48 120.64 102.48 120.64 69.47 27.46 88.23 27.46 102.48"/><ellipse class="cls-7" cx="108.29" cy="53.82" rx="12.15" ry="6.83"/><path class="cls-8" d="M139.71,58.87c0,1.28-12,2.32-26.72,2.32s-26.71-1-26.71-2.32,12-2.32,26.71-2.32S139.71,57.59,139.71,58.87Z" transform="translate(-5.09 -5.09)"/><path class="cls-9" d="M141.21,107.45c0,2.34-17.28,4.24-38.59,4.24S64,109.79,64,107.45s17.28-4.23,38.59-4.23S141.21,105.12,141.21,107.45Z" transform="translate(-5.09 -5.09)"/><rect class="cls-10" x="27.46" y="36.9" width="93.03" height="5.59"/><rect class="cls-10" x="24.04" y="43.9" width="99.5" height="1.71"/><path class="cls-11" d="M50.25,54.52H49.12V56h-.69V52.45h2V53H49.12v1h1.13Z" transform="translate(-5.09 -5.09)"/><path class="cls-11" d="M53.38,54.72a1.33,1.33,0,0,1-.35,1,1.45,1.45,0,0,1-1.89,0,1.33,1.33,0,0,1-.35-1v-1a1.37,1.37,0,0,1,.35-1,1.3,1.3,0,0,1,.94-.35,1.32,1.32,0,0,1,1,.35,1.37,1.37,0,0,1,.35,1Zm-.69-1a1,1,0,0,0-.15-.59.57.57,0,0,0-.46-.2.54.54,0,0,0-.45.2,1,1,0,0,0-.15.59v1a1,1,0,0,0,.15.6.54.54,0,0,0,.45.2.56.56,0,0,0,.46-.2,1,1,0,0,0,.15-.6Z" transform="translate(-5.09 -5.09)"/><path class="cls-11" d="M54.55,55.47h1.33V56h-2V52.45h.69Z" transform="translate(-5.09 -5.09)"/><path class="cls-11" d="M56.29,56V52.45h1.09a1.15,1.15,0,0,1,.92.42,1.51,1.51,0,0,1,.37,1.06v.59a1.53,1.53,0,0,1-.37,1.07,1.14,1.14,0,0,1-.92.41ZM57,53v2.48h.4a.48.48,0,0,0,.43-.27,1.24,1.24,0,0,0,.17-.68v-.59a1.27,1.27,0,0,0-.17-.68.49.49,0,0,0-.43-.26Z" transform="translate(-5.09 -5.09)"/><path class="cls-11" d="M62.4,53h-.84v3h-.69V53h-.81v-.54H62.4Z" transform="translate(-5.09 -5.09)"/><path class="cls-11" d="M65.19,54.72a1.3,1.3,0,0,1-.36,1,1.24,1.24,0,0,1-.94.35A1.26,1.26,0,0,1,63,55.7a1.33,1.33,0,0,1-.35-1v-1a1.37,1.37,0,0,1,.35-1,1.28,1.28,0,0,1,.94-.35,1.3,1.3,0,0,1,.94.35,1.33,1.33,0,0,1,.36,1Zm-.69-1a.9.9,0,0,0-.16-.59.61.61,0,0,0-.9,0,1,1,0,0,0-.15.59v1a1,1,0,0,0,.15.6.54.54,0,0,0,.45.2.57.57,0,0,0,.46-.2,1,1,0,0,0,.15-.6Z" transform="translate(-5.09 -5.09)"/><path class="cls-11" d="M66.36,54.72V56h-.69V52.45h1.19A1.08,1.08,0,0,1,68,53.58a1.13,1.13,0,0,1-.32.83,1.16,1.16,0,0,1-.84.31Zm0-.54h.5a.41.41,0,0,0,.35-.17.7.7,0,0,0,.12-.42.71.71,0,0,0-.12-.43.39.39,0,0,0-.35-.17h-.5Z" transform="translate(-5.09 -5.09)"/><path class="cls-11" d="M72.08,54.72a1.29,1.29,0,0,1-.35,1,1.26,1.26,0,0,1-.94.35,1.24,1.24,0,0,1-.94-.35,1.29,1.29,0,0,1-.35-1v-1a1.32,1.32,0,0,1,.35-1,1.27,1.27,0,0,1,.94-.35,1.3,1.3,0,0,1,.94.35,1.32,1.32,0,0,1,.35,1Zm-.68-1a.9.9,0,0,0-.16-.59.55.55,0,0,0-.45-.2.56.56,0,0,0-.46.2,1,1,0,0,0-.15.59v1a1,1,0,0,0,.15.6.57.57,0,0,0,.46.2.54.54,0,0,0,.45-.2.92.92,0,0,0,.16-.6Z" transform="translate(-5.09 -5.09)"/><path class="cls-11" d="M74.38,54.52H73.25V56h-.68V52.45h2V53H73.25v1h1.13Z" transform="translate(-5.09 -5.09)"/><path class="cls-11" d="M76.1,56V52.45h1a1.35,1.35,0,0,1,.86.24.86.86,0,0,1,.31.73.84.84,0,0,1-.11.45.75.75,0,0,1-.34.29.67.67,0,0,1,.45.28,1,1,0,0,1,.14.53,1,1,0,0,1-.3.77,1.18,1.18,0,0,1-.84.26Zm.69-2h.36a.45.45,0,0,0,.34-.12.48.48,0,0,0,.11-.35.5.5,0,0,0-.12-.37.49.49,0,0,0-.36-.12h-.33Zm0,.48v1h.5a.46.46,0,0,0,.34-.13.51.51,0,0,0,.11-.37.63.63,0,0,0-.1-.39.37.37,0,0,0-.33-.15h-.52Z" transform="translate(-5.09 -5.09)"/><path class="cls-11" d="M80.46,55.23h-.89l-.2.77h-.71l1-3.55h.72l1,3.55h-.72Zm-.74-.54h.6L80,53.56h0Z" transform="translate(-5.09 -5.09)"/><path class="cls-11" d="M84,55.54a1.33,1.33,0,0,1-.44.36,1.6,1.6,0,0,1-.74.15,1.29,1.29,0,0,1-.93-.33,1.26,1.26,0,0,1-.35-.95V53.69a1.34,1.34,0,0,1,.34-1,1.46,1.46,0,0,1,1.77-.06,1,1,0,0,1,.29.79h-.65a.59.59,0,0,0-.12-.41.53.53,0,0,0-.37-.12.52.52,0,0,0-.42.18.89.89,0,0,0-.15.56v1.09a.87.87,0,0,0,.15.56.52.52,0,0,0,.44.19.87.87,0,0,0,.31-.05.35.35,0,0,0,.18-.13v-.71h-.55v-.48H84Z" transform="translate(-5.09 -5.09)"/><path class="cls-11" d="M88.15,54.72a1.3,1.3,0,0,1-.36,1,1.24,1.24,0,0,1-.94.35,1.26,1.26,0,0,1-.94-.35,1.33,1.33,0,0,1-.35-1v-1a1.37,1.37,0,0,1,.35-1,1.44,1.44,0,0,1,1.88,0,1.33,1.33,0,0,1,.36,1Zm-.69-1a1,1,0,0,0-.15-.59.57.57,0,0,0-.46-.2.54.54,0,0,0-.45.2,1,1,0,0,0-.15.59v1a1,1,0,0,0,.15.6.54.54,0,0,0,.45.2.57.57,0,0,0,.46-.2,1,1,0,0,0,.15-.6Z" transform="translate(-5.09 -5.09)"/><path class="cls-11" d="M89.65,55.1l0,.14h0l0-.14.61-2.65h.73l-1,3.55h-.71l-1-3.55h.73Z" transform="translate(-5.09 -5.09)"/><path class="cls-11" d="M93.14,54.43H92.05v1h1.3V56h-2V52.45h2V53h-1.3v.91h1.09Z" transform="translate(-5.09 -5.09)"/><path class="cls-11" d="M94.48,54.58V56h-.69V52.45h1.06a1.19,1.19,0,0,1,.84.28,1,1,0,0,1,.3.77.81.81,0,0,1-.13.47.85.85,0,0,1-.37.33.64.64,0,0,1,.4.31,1.07,1.07,0,0,1,.12.53v.26a1.76,1.76,0,0,0,0,.31.39.39,0,0,0,.12.24v0h-.71a.35.35,0,0,1-.11-.25,2.11,2.11,0,0,1,0-.35v-.25a.66.66,0,0,0-.12-.42.37.37,0,0,0-.32-.15Zm0-.54h.37a.42.42,0,0,0,.34-.13.61.61,0,0,0,.11-.38.7.7,0,0,0-.11-.4.43.43,0,0,0-.34-.14h-.37Z" transform="translate(-5.09 -5.09)"/><path class="cls-11" d="M99.79,53H99v3h-.69V53h-.82v-.54h2.34Z" transform="translate(-5.09 -5.09)"/><path class="cls-11" d="M102.58,54.7h0l.36-2.25h.7L103,56h-.64l-.52-2.2h0l-.51,2.2h-.64l-.7-3.55h.7l.37,2.26h0l.51-2.26h.54Z" transform="translate(-5.09 -5.09)"/><path class="cls-11" d="M104.71,56H104V52.45h.68Z" transform="translate(-5.09 -5.09)"/><path class="cls-11" d="M107.63,54.9h0a1.09,1.09,0,0,1-.3.86,1.19,1.19,0,0,1-.86.28,1.26,1.26,0,0,1-.91-.33,1.33,1.33,0,0,1-.33-1V53.7a1.33,1.33,0,0,1,.32-1,1.15,1.15,0,0,1,.88-.34,1.29,1.29,0,0,1,.9.28,1.07,1.07,0,0,1,.3.86H107a.75.75,0,0,0-.12-.48.53.53,0,0,0-.41-.13.46.46,0,0,0-.39.18,1.11,1.11,0,0,0-.13.58v1.06a1,1,0,0,0,.14.57.5.5,0,0,0,.42.19.45.45,0,0,0,.37-.14.74.74,0,0,0,.11-.48Z" transform="translate(-5.09 -5.09)"/><path class="cls-11" d="M109.84,54.43h-1.08v1h1.3V56h-2V52.45h2V53h-1.29v.91h1.08Z" transform="translate(-5.09 -5.09)"/><path class="cls-11" d="M92.09,112.93a.28.28,0,0,0-.07-.2.65.65,0,0,0-.23-.15,1.54,1.54,0,0,1-.5-.26.59.59,0,0,1,0-.84.68.68,0,0,1,.48-.16.69.69,0,0,1,.5.17.6.6,0,0,1,.18.47h-.4a.37.37,0,0,0-.08-.25.25.25,0,0,0-.21-.08.21.21,0,0,0-.18.07.29.29,0,0,0-.07.2.25.25,0,0,0,.08.18.78.78,0,0,0,.25.15,1.29,1.29,0,0,1,.47.26.57.57,0,0,1,.16.42.5.5,0,0,1-.19.43.69.69,0,0,1-.49.16.79.79,0,0,1-.52-.17.61.61,0,0,1-.21-.51h.41a.46.46,0,0,0,.08.29.3.3,0,0,0,.24.09.25.25,0,0,0,.2-.08A.29.29,0,0,0,92.09,112.93Z" transform="translate(-5.09 -5.09)"/><path class="cls-11" d="M93.35,113.51a.59.59,0,0,1-.49-.22.88.88,0,0,1-.17-.55v-.06a1,1,0,0,1,.16-.59.56.56,0,0,1,.47-.22.5.5,0,0,1,.43.19.82.82,0,0,1,.15.52v.22h-.8a.52.52,0,0,0,.08.28.25.25,0,0,0,.22.11.56.56,0,0,0,.2,0,.76.76,0,0,0,.18-.09l.11.26a1,1,0,0,1-.23.13A1.06,1.06,0,0,1,93.35,113.51Zm0-1.32a.16.16,0,0,0-.15.09.57.57,0,0,0-.07.25h.4v0a.63.63,0,0,0,0-.23A.15.15,0,0,0,93.32,112.19Z" transform="translate(-5.09 -5.09)"/><path class="cls-11" d="M94.85,112.25h-.14a.15.15,0,0,0-.11,0,.15.15,0,0,0-.07.1v1.09h-.42V111.9h.39l0,.22a.5.5,0,0,1,.11-.19.25.25,0,0,1,.17-.06h.09Z" transform="translate(-5.09 -5.09)"/><path class="cls-11" d="M95.48,111.51h-.41v-.31h.41Zm0,2h-.41V111.9h.41Z" transform="translate(-5.09 -5.09)"/><path class="cls-11" d="M96.57,113.48a.36.36,0,0,1,0-.11l0-.13a.69.69,0,0,1-.13.2.31.31,0,0,1-.21.07.42.42,0,0,1-.34-.13.47.47,0,0,1-.11-.34.43.43,0,0,1,.15-.36.67.67,0,0,1,.46-.13h.18v-.13a.36.36,0,0,0,0-.19.15.15,0,0,0-.13-.06.13.13,0,0,0-.11,0,.24.24,0,0,0,0,.15h-.4a.41.41,0,0,1,.15-.35.6.6,0,0,1,.43-.14.57.57,0,0,1,.41.14.54.54,0,0,1,.15.41v.65a1.49,1.49,0,0,0,0,.21.73.73,0,0,0,0,.2Zm-.31-.27a.2.2,0,0,0,.15-.06.27.27,0,0,0,.09-.12v-.25h-.18a.18.18,0,0,0-.15.07.25.25,0,0,0,0,.17.17.17,0,0,0,0,.13A.11.11,0,0,0,96.26,113.21Z" transform="translate(-5.09 -5.09)"/><path class="cls-11" d="M97.61,113.48H97.2V111.2h.41Z" transform="translate(-5.09 -5.09)"/><path class="cls-11" d="M99,111.9v.22a.63.63,0,0,1,.17-.19.4.4,0,0,1,.22-.06.36.36,0,0,1,.31.15.84.84,0,0,1,.12.5v1h-.41v-1a.47.47,0,0,0-.05-.25.14.14,0,0,0-.13-.08.24.24,0,0,0-.12,0l-.1.09v1.17h-.41V111.9Z" transform="translate(-5.09 -5.09)"/><path class="cls-11" d="M100.87,113.25a.38.38,0,0,1-.16.19.32.32,0,0,1-.22.07.39.39,0,0,1-.33-.17.91.91,0,0,1-.13-.53v-.91h.42v.91a.74.74,0,0,0,0,.3.14.14,0,0,0,.13.08.28.28,0,0,0,.13,0,.32.32,0,0,0,.09-.08V111.9h.41v1.58h-.33Z" transform="translate(-5.09 -5.09)"/><path class="cls-11" d="M101.91,111.9v.2a.55.55,0,0,1,.17-.17.38.38,0,0,1,.22-.06.37.37,0,0,1,.21.06.38.38,0,0,1,.14.2.51.51,0,0,1,.16-.19.4.4,0,0,1,.24-.07.36.36,0,0,1,.31.16.89.89,0,0,1,.12.51v.94h-.42v-.94a.58.58,0,0,0,0-.27.14.14,0,0,0-.13-.08.15.15,0,0,0-.11,0s-.06.06-.09.1a.35.35,0,0,0,0,.06v1.09h-.41v-.94a.76.76,0,0,0,0-.27.16.16,0,0,0-.14-.08.17.17,0,0,0-.1,0,.26.26,0,0,0-.09.09v1.17h-.41V111.9Z" transform="translate(-5.09 -5.09)"/><path class="cls-11" d="M105,112.73a1,1,0,0,1-.14.57.44.44,0,0,1-.39.21.42.42,0,0,1-.2-.05.46.46,0,0,1-.15-.16l0,.18h-.36V111.2h.41V112a.43.43,0,0,1,.14-.13.34.34,0,0,1,.18,0,.43.43,0,0,1,.39.22,1.17,1.17,0,0,1,.14.61Zm-.41,0a1.25,1.25,0,0,0,0-.38.18.18,0,0,0-.18-.13.16.16,0,0,0-.12,0s-.06.06-.09.1v.74a.26.26,0,0,0,.09.09.21.21,0,0,0,.12,0,.17.17,0,0,0,.18-.12,1,1,0,0,0,0-.34Z" transform="translate(-5.09 -5.09)"/><path class="cls-11" d="M105.85,113.51a.57.57,0,0,1-.49-.22.82.82,0,0,1-.17-.55v-.06a1,1,0,0,1,.16-.59.55.55,0,0,1,.47-.22.5.5,0,0,1,.43.19.82.82,0,0,1,.15.52v.22h-.8a.52.52,0,0,0,.08.28.25.25,0,0,0,.21.11.62.62,0,0,0,.21,0l.18-.09.1.26a.75.75,0,0,1-.22.13A1.06,1.06,0,0,1,105.85,113.51Zm0-1.32a.16.16,0,0,0-.15.09.57.57,0,0,0-.07.25h.4v0a.63.63,0,0,0,0-.23A.16.16,0,0,0,105.82,112.19Z" transform="translate(-5.09 -5.09)"/><path class="cls-11" d="M107.35,112.25h-.14a.17.17,0,0,0-.12,0,.2.2,0,0,0-.07.1v1.09h-.41V111.9H107v.22a.52.52,0,0,1,.12-.19.25.25,0,0,1,.16-.06h.1Z" transform="translate(-5.09 -5.09)"/><path class="cls-11" d="M109,112.73h-.74v-.33H109Z" transform="translate(-5.09 -5.09)"/><path class="cls-12" d="M111.32,112.71a.89.89,0,0,1-.18.59.58.58,0,0,1-.47.21.6.6,0,0,1-.48-.21.89.89,0,0,1-.18-.59v-.59a.9.9,0,0,1,.18-.59.6.6,0,0,1,.48-.21.59.59,0,0,1,.47.21.9.9,0,0,1,.18.59Zm-.41-.62a.62.62,0,0,0-.07-.33.19.19,0,0,0-.17-.12.19.19,0,0,0-.18.12.62.62,0,0,0-.07.33v.65a.7.7,0,0,0,.07.33.19.19,0,0,0,.18.12.21.21,0,0,0,.18-.12.72.72,0,0,0,.06-.33Z" transform="translate(-5.09 -5.09)"/><path class="cls-12" d="M112.54,113.48h-.42v-1.77h-.39v-.32l.81-.08Z" transform="translate(-5.09 -5.09)"/><path class="cls-12" d="M114.49,113.48h-1.31v-.27l.6-.75a2.12,2.12,0,0,0,.18-.29.74.74,0,0,0,.05-.23.48.48,0,0,0-.05-.22.2.2,0,0,0-.17-.08.21.21,0,0,0-.18.1.54.54,0,0,0-.06.27h-.41a.68.68,0,0,1,.18-.48.56.56,0,0,1,.47-.2.64.64,0,0,1,.47.16.7.7,0,0,1,.07.82,3.06,3.06,0,0,1-.32.44l-.29.42h.77Z" transform="translate(-5.09 -5.09)"/><path class="cls-12" d="M115.38,112.23a.21.21,0,0,0,.19-.08.36.36,0,0,0,.06-.22.37.37,0,0,0-.06-.21.26.26,0,0,0-.19-.08.21.21,0,0,0-.16.07.29.29,0,0,0-.06.19h-.41a.52.52,0,0,1,.18-.41.64.64,0,0,1,.45-.16.74.74,0,0,1,.49.15.58.58,0,0,1,.18.45.5.5,0,0,1-.08.27.51.51,0,0,1-.22.19.48.48,0,0,1,.24.2.52.52,0,0,1,.09.31.56.56,0,0,1-.2.45.71.71,0,0,1-.5.17.68.68,0,0,1-.46-.16.5.5,0,0,1-.19-.45h.4a.32.32,0,0,0,.07.2.23.23,0,0,0,.18.09.25.25,0,0,0,.2-.09.29.29,0,0,0,.08-.22.36.36,0,0,0-.07-.25.25.25,0,0,0-.21-.08h-.22v-.32Z" transform="translate(-5.09 -5.09)"/><path class="cls-12" d="M117.47,112.69h.2V113h-.2v.47h-.42V113h-.77l0-.25.79-1.41h.42Zm-.84,0h.42v-.77h0l0,.09Z" transform="translate(-5.09 -5.09)"/><path class="cls-12" d="M117.94,112.54l.11-1.19h1.09v.33h-.75l0,.52a.41.41,0,0,1,.13-.08.51.51,0,0,1,.17,0,.49.49,0,0,1,.42.18.84.84,0,0,1,.15.53.77.77,0,0,1-.17.51.59.59,0,0,1-.49.2.68.68,0,0,1-.46-.16.5.5,0,0,1-.19-.42h0l.4,0a.33.33,0,0,0,.07.21.25.25,0,0,0,.18.08.18.18,0,0,0,.18-.1.57.57,0,0,0,.06-.29.61.61,0,0,0-.06-.3.21.21,0,0,0-.19-.11.25.25,0,0,0-.16,0,.24.24,0,0,0-.07.13Z" transform="translate(-5.09 -5.09)"/><path class="cls-12" d="M120.23,111.32a.65.65,0,0,1,.2,0,.62.62,0,0,1,.19.07l-.07.3-.15,0h-.17a.28.28,0,0,0-.26.14.66.66,0,0,0-.11.4v.07a.46.46,0,0,1,.18-.13.61.61,0,0,1,.24,0,.44.44,0,0,1,.38.19.88.88,0,0,1,.14.51.73.73,0,0,1-.18.52.64.64,0,0,1-.48.2.61.61,0,0,1-.5-.23,1,1,0,0,1-.19-.62v-.46a.89.89,0,0,1,.22-.64A.73.73,0,0,1,120.23,111.32Zm-.09,1.09a.43.43,0,0,0-.17,0,.35.35,0,0,0-.11.1v.13a.8.8,0,0,0,.08.38.23.23,0,0,0,.2.14.22.22,0,0,0,.18-.11.62.62,0,0,0,.06-.29.55.55,0,0,0-.06-.28A.21.21,0,0,0,120.14,112.41Z" transform="translate(-5.09 -5.09)"/><path class="cls-12" d="M122.36,111.67a2.51,2.51,0,0,0-.43.74,2.78,2.78,0,0,0-.11.81v.26h-.42v-.26a2.18,2.18,0,0,1,.15-.82,2.59,2.59,0,0,1,.42-.73h-1v-.32h1.36Z" transform="translate(-5.09 -5.09)"/><path class="cls-12" d="M123.89,111.9a.51.51,0,0,1-.07.28.48.48,0,0,1-.21.19.58.58,0,0,1,.25.21.48.48,0,0,1,.1.31.61.61,0,0,1-.19.46.71.71,0,0,1-.48.16.73.73,0,0,1-.5-.16.58.58,0,0,1-.2-.46.48.48,0,0,1,.1-.31.61.61,0,0,1,.26-.21.57.57,0,0,1-.22-.19.51.51,0,0,1-.07-.28.52.52,0,0,1,.17-.43.69.69,0,0,1,.46-.15.61.61,0,0,1,.43.15A.52.52,0,0,1,123.89,111.9Zm-.35,1a.36.36,0,0,0-.07-.24.23.23,0,0,0-.18-.09.25.25,0,0,0-.2.09.32.32,0,0,0-.08.24.3.3,0,0,0,.08.23.25.25,0,0,0,.2.09.23.23,0,0,0,.18-.09A.33.33,0,0,0,123.54,112.87Zm-.06-1a.3.3,0,0,0-.06-.2.16.16,0,0,0-.13-.08.19.19,0,0,0-.16.07.4.4,0,0,0,0,.42.17.17,0,0,0,.16.08.15.15,0,0,0,.14-.08A.41.41,0,0,0,123.48,111.92Z" transform="translate(-5.09 -5.09)"/><path class="cls-12" d="M124.77,113.19a.26.26,0,0,0,.22-.12.62.62,0,0,0,.08-.33v-.15a.4.4,0,0,1-.15.14.39.39,0,0,1-.18,0,.5.5,0,0,1-.42-.19.82.82,0,0,1-.15-.52.79.79,0,0,1,.18-.53.61.61,0,0,1,.47-.21.6.6,0,0,1,.48.21,1,1,0,0,1,.19.61v.57a.78.78,0,0,1-.21.58.64.64,0,0,1-.51.22l-.21,0-.2-.07.07-.3.16,0Zm0-.72a.23.23,0,0,0,.14,0,.29.29,0,0,0,.11-.11v-.26a.55.55,0,0,0-.07-.31.2.2,0,0,0-.18-.11.19.19,0,0,0-.17.12.73.73,0,0,0,0,.6A.2.2,0,0,0,124.82,112.47Z" transform="translate(-5.09 -5.09)"/></g></g></svg>