<svg xmlns="http://www.w3.org/2000/svg" xmlns:xlink="http://www.w3.org/1999/xlink" viewBox="0 0 588.14 223.23"><defs><style>.cls-1,.cls-13,.cls-2,.cls-3,.cls-67,.cls-82,.cls-83,.cls-84{fill:none;}.cls-2,.cls-3,.cls-82,.cls-83,.cls-84{stroke:#7fc9cb;}.cls-13,.cls-2,.cls-3,.cls-67,.cls-82,.cls-83,.cls-84{stroke-linecap:round;stroke-linejoin:round;}.cls-2,.cls-3,.cls-67,.cls-82,.cls-83,.cls-84{stroke-width:5px;}.cls-3{stroke-dasharray:12.31 12.31;}.cls-21,.cls-4{fill:#01b2b2;}.cls-5{fill:#7fc9cb;}.cls-6{fill:#56bdbf;}.cls-7{fill:#9ea6b0;}.cls-8{fill:#333;}.cls-9{fill:#a1b0d6;}.cls-10{fill:#e5effb;}.cls-11{fill:#706f6f;}.cls-12{fill:#c4cfdb;}.cls-13{stroke:#fff;stroke-width:0.97px;}.cls-14{isolation:isolate;}.cls-15{fill:#dce7f5;}.cls-16{fill:#261c35;}.cls-17{fill:#009fe3;}.cls-18{fill:#36a9e1;}.cls-19{fill:#6f559c;}.cls-20{fill:#a9b2bd;}.cls-21{stroke:#eaeaea;stroke-miterlimit:10;stroke-width:4px;opacity:0.8;}.cls-22{fill:#4b4b4a;}.cls-23{fill:#fff;}.cls-24,.cls-69{fill:#605f5f;}.cls-24,.cls-80{opacity:0.3;}.cls-25{clip-path:url(#clip-path);}.cls-26{fill:#464545;}.cls-27{fill:#444443;}.cls-28{fill:#414142;}.cls-29{fill:#40403f;}.cls-30{fill:#3e3e3d;}.cls-31{fill:#3d3d3b;}.cls-32{fill:#3b3a3a;}.cls-33{fill:#393938;}.cls-34{fill:#383736;}.cls-35{fill:#353535;}.cls-36{fill:#343433;}.cls-37{fill:#333332;}.cls-38{fill:#313131;}.cls-39{fill:#2e2f2f;}.cls-40{fill:#2d2e2d;}.cls-41{fill:#2f2f2e;}.cls-42{clip-path:url(#clip-path-2);}.cls-43{clip-path:url(#clip-path-3);}.cls-44{fill:#a2bfbf;}.cls-45{fill:#9ebab9;}.cls-46{fill:#9bb6b4;}.cls-47{fill:#95b1af;}.cls-48{fill:#91acab;}.cls-49{fill:#8da7a7;}.cls-50{fill:#89a3a1;}.cls-51{fill:#879f9d;}.cls-52{fill:#819998;}.cls-53{fill:#7d9494;}.cls-54{clip-path:url(#clip-path-4);}.cls-55{clip-path:url(#clip-path-5);}.cls-56{fill:#6a7d7b;}.cls-57{fill:#6d8180;}.cls-58{fill:#b0cecc;}.cls-59{clip-path:url(#clip-path-6);}.cls-60{fill:#6d8280;}.cls-61{fill:#728686;}.cls-62{fill:#758b89;}.cls-63{fill:#7a8f8f;}.cls-64{fill:#b3b7b7;}.cls-65{fill:#434342;}.cls-66{fill:#dce0e0;}.cls-67{stroke:#f5ad1f;}.cls-68{fill:#353634;}.cls-70{fill:#7d7d7d;}.cls-71{fill:#75747a;}.cls-72{fill:#a2a0a0;}.cls-73{fill:#939294;}.cls-74{fill:#acaaab;}.cls-75{fill:#dcdcdc;}.cls-76{fill:#0a0b0b;}.cls-77{fill:#dce5f0;}.cls-78{opacity:0.2;}.cls-79{fill:#a7dcf6;}.cls-81{opacity:0.4;}.cls-82{stroke-dasharray:12.89 12.89;}.cls-83{stroke-dasharray:12.35 12.35;}.cls-84{stroke-dasharray:11.78 11.78;}.cls-85{fill:#03798c;}.cls-86{fill:#acddf3;}.cls-87{fill:#68c8f0;}.cls-88{fill:#2ab2d1;}.cls-89{fill:#025b59;}.cls-90{fill:#343434;}.cls-91{fill:#c1292e;}.cls-92{fill:#f8f7f7;}</style><clipPath id="clip-path" transform="translate(-2.41 -42.02)"><path class="cls-1" d="M71.88,170.34l1.83-1.06a.49.49,0,0,1-.23-.4l-1.83,1.06A.52.52,0,0,0,71.88,170.34Z"/></clipPath><clipPath id="clip-path-2" transform="translate(-2.41 -42.02)"><path class="cls-1" d="M73.65,134.17l-1.83,1.06a.16.16,0,0,0-.07.15l1.83-1.06C73.58,134.24,73.6,134.19,73.65,134.17Z"/></clipPath><clipPath id="clip-path-3" transform="translate(-2.41 -42.02)"><path class="cls-1" d="M73.65,134.17l-1.83,1.06a.16.16,0,0,1,.16,0l1.83-1.06A.14.14,0,0,0,73.65,134.17Z"/></clipPath><clipPath id="clip-path-4" transform="translate(-2.41 -42.02)"><path class="cls-1" d="M122.13,199.27l1.83-1.06s-.1,0-.17,0L122,199.26A.15.15,0,0,0,122.13,199.27Z"/></clipPath><clipPath id="clip-path-5" transform="translate(-2.41 -42.02)"><path class="cls-1" d="M122.13,199.27l1.83-1.06a.15.15,0,0,0,.07-.14l-1.83,1.06A.15.15,0,0,1,122.13,199.27Z"/></clipPath><clipPath id="clip-path-6" transform="translate(-2.41 -42.02)"><path class="cls-1" d="M122.3,164.56l1.83-1.06a.54.54,0,0,0-.24-.41l-1.83,1.07A.5.5,0,0,1,122.3,164.56Z"/></clipPath></defs><title>G09_01</title><g id="Tiles"><line class="cls-2" x1="405.3" y1="165.09" x2="399.3" y2="165.09"/><line class="cls-3" x1="386.99" y1="165.09" x2="196.19" y2="165.09"/><line class="cls-2" x1="190.04" y1="165.09" x2="184.04" y2="165.09"/><polygon class="cls-4" points="588.14 165.61 588.14 170.36 498.6 223.23 498.45 223.14 498.45 218.39 498.6 218.48 588.14 165.61"/><polygon class="cls-5" points="498.45 218.39 498.45 223.14 402.35 167.41 402.35 162.66 498.45 218.39"/><polygon class="cls-6" points="498.23 218.41 402.13 162.68 402.13 162.41 492.44 110.5 587.92 165.63 498.38 218.5 498.23 218.41"/></g><g id="Livello_1" data-name="Livello 1"><path class="cls-4" d="M556.55,207.84a1,1,0,0,1,0,1.92l-59.33,34.48a3.64,3.64,0,0,1-3.31,0l-30.29-17.49a1,1,0,0,1,0-1.92L523,190.35a3.64,3.64,0,0,1,3.31,0Z" transform="translate(-2.41 -42.02)"/><path class="cls-5" d="M556.6,207.36a1,1,0,0,1,0,1.91l-59.32,34.48a3.64,3.64,0,0,1-3.31,0l-30.3-17.49a1,1,0,0,1,0-1.92L523,189.87a3.64,3.64,0,0,1,3.31,0Z" transform="translate(-2.41 -42.02)"/><path class="cls-7" d="M543.35,201.8c-.72-4.48-10-9.24-15-7.84a8.06,8.06,0,0,0-2,1c-1.66,1-1.51,2.83.44,4l8.38,4.84a7.3,7.3,0,0,0,6.59.27l.46-.26A1.86,1.86,0,0,0,543.35,201.8Z" transform="translate(-2.41 -42.02)"/><path class="cls-8" d="M543.4,201.12a2,2,0,0,1-1.14,1.58l-.46.26a7.28,7.28,0,0,1-6.58-.27l-8.39-4.84a2.75,2.75,0,0,1-1.61-2.09h0v.71a2.75,2.75,0,0,0,1.61,2.12l8.39,4.84a7.28,7.28,0,0,0,6.58.27l.46-.26a2,2,0,0,0,1.14-1.61v-.71Z" transform="translate(-2.41 -42.02)"/><path class="cls-9" d="M543.4,201c0,.08.2,1.07-1.6,2h0a7.3,7.3,0,0,1-6.59-.27l-8.39-4.84a2.93,2.93,0,0,1-1.6-1.93,2.78,2.78,0,0,0,1.61,2.09l8.39,4.84a7.28,7.28,0,0,0,6.58.27l.46-.26a2,2,0,0,0,1.14-1.61Z" transform="translate(-2.41 -42.02)"/><path class="cls-10" d="M543.37,200.72c-.72-4.48-10-9.24-15-7.84a8.06,8.06,0,0,0-2,1c-1.67,1-1.52,2.83.43,4l8.39,4.84a7.28,7.28,0,0,0,6.58.27l.46-.26A1.85,1.85,0,0,0,543.37,200.72Z" transform="translate(-2.41 -42.02)"/><path class="cls-7" d="M530.6,193.88a.61.61,0,0,0-.39,0c-.27,0-.41.23-.08.4s1.61.51,2.45.88,1.16.12,1.06-.11-.63-.46-.63-.46Z" transform="translate(-2.41 -42.02)"/><path class="cls-11" d="M530.33,194a2.11,2.11,0,0,1,2.45.28,2.47,2.47,0,0,1,.4.65A12.27,12.27,0,0,1,530.33,194Z" transform="translate(-2.41 -42.02)"/><path class="cls-7" d="M489.57,185.49s-3.16,8.62,0,10.45l1.52.88h0l6,3.46a.93.93,0,0,1,0,1.77l-8.41,4.85a3.32,3.32,0,0,1-3.05,0l-4.26-2.53-.05,0-1.36-.85-.19-.11,0,0-1.45-.91s-2.68-2-2.68-8.91Z" transform="translate(-2.41 -42.02)"/><path class="cls-10" d="M475.59,192.67c0,7,2.67,8.9,2.67,8.9l1.46.92s0,0,0,0l.19.11,1.36.85.05,0,.49.29,3.77,2.23a3.34,3.34,0,0,0,3.06,0l8.4-4.86a.93.93,0,0,0,0-1.77l-3.78-2.19-2.2-1.27h0l-1.52-.88c-3.09-1.78-.15-10,0-10.43h0Z" transform="translate(-2.41 -42.02)"/><path class="cls-12" d="M475.59,192.67c0,7,2.67,8.9,2.67,8.9l1.46.92s0,0,0,0l.19.11,1.36.85.05,0,.49.29,11.45-6.56-2.2-1.27h0l-1.52-.88c-3.09-1.78-.15-10,0-10.43h0Z" transform="translate(-2.41 -42.02)"/><path class="cls-13" d="M495,180.68l-.19,10.26a2.39,2.39,0,0,0,1.24,2.11l9.45,5.48a.79.79,0,0,1,0,1.36l-9.17,5.51a.88.88,0,0,0,0,1.52l3.81,2.63" transform="translate(-2.41 -42.02)"/><g class="cls-14"><path class="cls-15" d="M512.65,117.86l2.22,1.29a1.93,1.93,0,0,0-2,.2l-2.22-1.3A2,2,0,0,1,512.65,117.86Z" transform="translate(-2.41 -42.02)"/><path class="cls-12" d="M450.73,209l-2.22-1.29a1.92,1.92,0,0,1-.8-1.76l2.22,1.29A1.91,1.91,0,0,0,450.73,209Z" transform="translate(-2.41 -42.02)"/><polygon class="cls-12" points="447.52 165.23 445.3 163.94 445.16 115.64 447.38 116.94 447.52 165.23"/><polygon class="cls-12" points="450.13 112.17 447.91 110.89 508.28 76.03 510.5 77.32 450.13 112.17"/><path class="cls-15" d="M449.79,159l-2.22-1.29a6.08,6.08,0,0,1,2.75-4.76l2.22,1.29A6.08,6.08,0,0,0,449.79,159Z" transform="translate(-2.41 -42.02)"/><path class="cls-15" d="M512.91,119.35c1.52-.88,2.76-.18,2.76,1.57l.14,48.3a6.05,6.05,0,0,1-2.75,4.76L452.7,208.83c-1.53.88-2.76.18-2.77-1.57l-.14-48.3a6.08,6.08,0,0,1,2.75-4.76Z" transform="translate(-2.41 -42.02)"/></g><path class="cls-16" d="M512.91,119.29c1.52-.88,2.76-.18,2.77,1.57l.13,48.3a6,6,0,0,1-2.75,4.76L452.7,208.78c-1.52.88-2.76.17-2.77-1.58l-.13-48.3a6,6,0,0,1,2.74-4.76Z" transform="translate(-2.41 -42.02)"/><path class="cls-10" d="M515.8,165.36v3.86a6.1,6.1,0,0,1-2.75,4.76l-60.37,34.85c-1.52.88-2.76.17-2.76-1.58V203.4Z" transform="translate(-2.41 -42.02)"/><polygon class="cls-17" points="511.08 80.11 511.19 121.67 450.48 156.73 450.36 115.17 511.08 80.11"/><polygon class="cls-18" points="511.08 80.12 511.2 121.68 499.82 128.25 463.53 107.57 511.08 80.12"/><polygon class="cls-19" points="507.53 129.72 507.54 132.15 505.77 133.17 505.76 130.74 507.53 129.72"/><path class="cls-7" d="M536.1,208a.59.59,0,0,1,0,1.12L497.37,231.6a2.12,2.12,0,0,1-1.93,0l-15.8-9.12a.59.59,0,0,1,0-1.12l38.74-22.51a2.12,2.12,0,0,1,1.93,0Z" transform="translate(-2.41 -42.02)"/><path class="cls-10" d="M536.1,207.32a.59.59,0,0,1,0,1.12L497.37,231a2.12,2.12,0,0,1-1.93,0l-15.8-9.12a.59.59,0,0,1,0-1.12l38.74-22.51a2.12,2.12,0,0,1,1.93,0Z" transform="translate(-2.41 -42.02)"/><path class="cls-20" d="M493.54,215.84c.13.07.13.19,0,.26l-2,1.18a.53.53,0,0,1-.46,0l-1.05-.61c-.12-.07-.13-.19,0-.26l2-1.18a.53.53,0,0,1,.46,0Z" transform="translate(-2.41 -42.02)"/><path class="cls-10" d="M491.29,217.47a.61.61,0,0,1-.3-.08l-1.05-.6a.28.28,0,0,1,0-.5l2-1.18a.7.7,0,0,1,.6,0l1.05.61a.28.28,0,0,1,0,.5l-2,1.17A.61.61,0,0,1,491.29,217.47Zm-1.23-.93h0l1.05.61a.36.36,0,0,0,.32,0l2-1.17,0,0,0,0-1.05-.6a.36.36,0,0,0-.32,0l-2,1.17Z" transform="translate(-2.41 -42.02)"/><path class="cls-20" d="M490.76,217.45c.12.08.12.2,0,.27l-2,1.17a.47.47,0,0,1-.46,0l-1-.6c-.13-.07-.13-.19,0-.27l2-1.17a.47.47,0,0,1,.46,0Z" transform="translate(-2.41 -42.02)"/><path class="cls-10" d="M488.51,219.09a.61.61,0,0,1-.3-.08l-1-.6a.28.28,0,0,1,0-.51l2-1.17a.64.64,0,0,1,.6,0l1,.6a.31.31,0,0,1,.17.26.3.3,0,0,1-.16.25l-2,1.17A.61.61,0,0,1,488.51,219.09Zm-1.23-.94,0,0,1.05.61a.44.44,0,0,0,.32,0l2-1.18h0l0,0-1.05-.6a.36.36,0,0,0-.32,0l-2,1.17Z" transform="translate(-2.41 -42.02)"/><path class="cls-20" d="M488,219.07a.14.14,0,0,1,0,.27l-2,1.17a.53.53,0,0,1-.46,0l-1.05-.6c-.13-.08-.13-.2,0-.27l2-1.17a.47.47,0,0,1,.46,0Z" transform="translate(-2.41 -42.02)"/><path class="cls-10" d="M485.73,220.7a.58.58,0,0,1-.3-.07l-1.05-.61a.28.28,0,0,1,0-.5l2-1.17a.64.64,0,0,1,.6,0l1,.6a.27.27,0,0,1,0,.5l-2,1.18A.63.63,0,0,1,485.73,220.7Zm-1.23-.93,0,0,1,.6a.38.38,0,0,0,.33,0l2-1.17,0,0h0l-1.05-.61a.36.36,0,0,0-.32,0l-2,1.18Z" transform="translate(-2.41 -42.02)"/><path class="cls-20" d="M485.19,220.69c.13.07.13.19,0,.26l-2,1.18a.53.53,0,0,1-.46,0l-1-.61c-.13-.07-.13-.19,0-.26l2-1.18a.53.53,0,0,1,.46,0Z" transform="translate(-2.41 -42.02)"/><path class="cls-10" d="M482.94,222.32a.57.57,0,0,1-.29-.08l-1-.6a.27.27,0,0,1,0-.5l2-1.18a.65.65,0,0,1,.59,0l1.05.61a.27.27,0,0,1,0,.5l-2,1.17A.58.58,0,0,1,482.94,222.32Zm-1.23-.93h0l1,.61a.38.38,0,0,0,.33,0l2-1.17,0,0,0,0-1-.6a.38.38,0,0,0-.33,0l-2,1.17Z" transform="translate(-2.41 -42.02)"/><path class="cls-20" d="M487.82,222.2c.13.08.13.2,0,.27l-2,1.17a.47.47,0,0,1-.46,0l-2-1.15c-.13-.07-.13-.19,0-.26l2-1.18a.53.53,0,0,1,.46,0Z" transform="translate(-2.41 -42.02)"/><path class="cls-10" d="M485.57,223.84a.64.64,0,0,1-.3-.08l-2-1.15a.28.28,0,0,1,0-.5l2-1.17a.64.64,0,0,1,.6,0l2,1.15a.28.28,0,0,1,0,.5l-2,1.17A.58.58,0,0,1,485.57,223.84Zm-2.17-1.48,0,0,2,1.15a.44.44,0,0,0,.32,0l2-1.18h0l0,0-2-1.15a.36.36,0,0,0-.32,0l-2,1.18Z" transform="translate(-2.41 -42.02)"/><path class="cls-20" d="M497.74,222.52c.13.07.13.19,0,.27l-2,1.17a.53.53,0,0,1-.46,0l-2-1.15c-.13-.07-.13-.19,0-.27l2-1.17a.53.53,0,0,1,.46,0Z" transform="translate(-2.41 -42.02)"/><path class="cls-10" d="M495.49,224.15a.57.57,0,0,1-.29-.07l-2-1.15a.28.28,0,0,1,0-.5l2-1.18a.64.64,0,0,1,.6,0l2,1.15a.3.3,0,0,1,.16.25.27.27,0,0,1-.16.26l-2,1.17A.58.58,0,0,1,495.49,224.15Zm-2.17-1.47h0l2,1.15a.38.38,0,0,0,.33,0l2-1.17,0,0h0l-2-1.15a.36.36,0,0,0-.32,0l-2,1.17S493.32,222.67,493.32,222.68Z" transform="translate(-2.41 -42.02)"/><path class="cls-20" d="M494.46,221.36c.13.07.13.19,0,.27l-2,1.17a.53.53,0,0,1-.46,0l-2-1.15c-.13-.07-.13-.19,0-.27l2-1.17a.53.53,0,0,1,.46,0Z" transform="translate(-2.41 -42.02)"/><path class="cls-10" d="M492.21,223a.57.57,0,0,1-.29-.07l-2-1.15a.3.3,0,0,1-.16-.25.31.31,0,0,1,.16-.26l2-1.17a.64.64,0,0,1,.6,0l2,1.15a.28.28,0,0,1,0,.5l-2,1.18A.58.58,0,0,1,492.21,223ZM490,221.52h0l2,1.15a.36.36,0,0,0,.32,0l2-1.17,0,0h0l-2-1.15a.36.36,0,0,0-.32,0l-2,1.17S490,221.51,490,221.52Z" transform="translate(-2.41 -42.02)"/><path class="cls-20" d="M490.49,220.65a.14.14,0,0,1,0,.27l-2,1.17a.53.53,0,0,1-.46,0l-2-1.15c-.12-.07-.12-.19,0-.27l2-1.17a.53.53,0,0,1,.46,0Z" transform="translate(-2.41 -42.02)"/><path class="cls-10" d="M488.25,222.28a.58.58,0,0,1-.3-.07l-2-1.15a.29.29,0,0,1-.17-.25.3.3,0,0,1,.16-.25l2-1.18a.64.64,0,0,1,.6,0l2,1.15a.27.27,0,0,1,0,.5l-2,1.18A.57.57,0,0,1,488.25,222.28Zm-2.18-1.47h0l2,1.15a.38.38,0,0,0,.33,0l2-1.17,0,0h0l-2-1.15a.36.36,0,0,0-.32,0l-2,1.17Z" transform="translate(-2.41 -42.02)"/><path class="cls-20" d="M507.09,220.16c.13.07.13.19,0,.26l-2,1.18a.53.53,0,0,1-.46,0l-2-1.15c-.13-.08-.13-.2,0-.27l2-1.17a.47.47,0,0,1,.46,0Z" transform="translate(-2.41 -42.02)"/><path class="cls-10" d="M504.84,221.79a.78.78,0,0,1-.3-.07l-2-1.15a.31.31,0,0,1-.16-.26.3.3,0,0,1,.16-.25l2-1.17a.64.64,0,0,1,.6,0l2,1.15a.28.28,0,0,1,0,.5l-2,1.18A.7.7,0,0,1,504.84,221.79Zm-2.17-1.48,0,0,2,1.15a.36.36,0,0,0,.32,0l2-1.17,0,0h0l-2-1.15a.36.36,0,0,0-.32,0l-2,1.17Z" transform="translate(-2.41 -42.02)"/><path class="cls-20" d="M509.77,218.6c.13.07.13.19,0,.27l-2,1.17a.53.53,0,0,1-.46,0l-2-1.15c-.13-.07-.13-.19,0-.27l2-1.17a.53.53,0,0,1,.46,0Z" transform="translate(-2.41 -42.02)"/><path class="cls-10" d="M507.52,220.23a.6.6,0,0,1-.3-.07l-2-1.15a.28.28,0,0,1,0-.5l2-1.18a.62.62,0,0,1,.59,0l2,1.15a.28.28,0,0,1,0,.5l-2,1.18A.6.6,0,0,1,507.52,220.23Zm-2.18-1.47h0l2,1.15a.36.36,0,0,0,.32,0l2-1.17s0,0,0,0h0l-2-1.15a.36.36,0,0,0-.32,0l-2,1.17Z" transform="translate(-2.41 -42.02)"/><g class="cls-14"><path class="cls-20" d="M498.51,216c.13.07.13.19,0,.27l-2,1.17a.55.55,0,0,1-.47,0l-2-1.15c-.12-.07-.12-.19,0-.27l2-1.17a.53.53,0,0,1,.46,0Z" transform="translate(-2.41 -42.02)"/><path class="cls-10" d="M496.27,217.62a.58.58,0,0,1-.3-.07l-2-1.15a.29.29,0,0,1-.17-.25.3.3,0,0,1,.16-.25l2-1.18a.64.64,0,0,1,.6,0l2,1.15a.27.27,0,0,1,0,.5l-2,1.18A.57.57,0,0,1,496.27,217.62Zm-2.18-1.47h0l2,1.15a.38.38,0,0,0,.33,0l2-1.17,0,0h0l-2-1.15a.36.36,0,0,0-.32,0l-2,1.17S494.09,216.14,494.09,216.15Z" transform="translate(-2.41 -42.02)"/><path class="cls-20" d="M502.48,216.7c.13.07.13.19,0,.27l-2,1.17a.53.53,0,0,1-.46,0L498,217c-.13-.07-.13-.19,0-.27l2-1.17a.47.47,0,0,1,.46,0Z" transform="translate(-2.41 -42.02)"/><path class="cls-10" d="M500.23,218.33a.63.63,0,0,1-.3-.07l-2-1.15a.3.3,0,0,1-.16-.25.31.31,0,0,1,.16-.26l2-1.17a.64.64,0,0,1,.6,0l2,1.15a.28.28,0,0,1,0,.5l-2,1.18A.58.58,0,0,1,500.23,218.33Zm-2.17-1.48s0,0,0,0l2,1.15a.36.36,0,0,0,.32,0l2-1.17,0,0h0l-2-1.15a.36.36,0,0,0-.32,0l-2,1.17Z" transform="translate(-2.41 -42.02)"/><path class="cls-20" d="M495.84,217.54c.13.08.13.2,0,.27l-2,1.17a.47.47,0,0,1-.46,0l-2-1.15c-.13-.07-.13-.19,0-.26l2-1.18a.53.53,0,0,1,.46,0Z" transform="translate(-2.41 -42.02)"/><path class="cls-10" d="M493.59,219.18a.64.64,0,0,1-.3-.08l-2-1.15a.28.28,0,0,1,0-.5l2-1.17a.64.64,0,0,1,.6,0l2,1.14a.33.33,0,0,1,.16.26.3.3,0,0,1-.16.25l-2,1.17A.58.58,0,0,1,493.59,219.18Zm-2.17-1.48,0,0,2,1.15a.44.44,0,0,0,.32,0l2-1.18h0s0,0,0,0l-2-1.15a.36.36,0,0,0-.32,0l-2,1.17Z" transform="translate(-2.41 -42.02)"/><path class="cls-20" d="M505.78,217.85c.13.07.13.19,0,.26l-2,1.18a.53.53,0,0,1-.46,0l-2-1.15c-.12-.08-.13-.19,0-.27l2-1.17a.47.47,0,0,1,.46,0Z" transform="translate(-2.41 -42.02)"/><path class="cls-10" d="M503.54,219.48a.58.58,0,0,1-.3-.07l-2-1.15a.28.28,0,0,1,0-.51l2-1.17a.64.64,0,0,1,.6,0l2,1.15a.27.27,0,0,1,0,.5l-2,1.18A.57.57,0,0,1,503.54,219.48ZM501.36,218l0,0,2,1.15a.38.38,0,0,0,.33,0l2-1.17,0,0h0l-2-1.15a.36.36,0,0,0-.32,0l-2,1.17Z" transform="translate(-2.41 -42.02)"/><path class="cls-20" d="M499.81,218.25c.13.08.13.2,0,.27l-2,1.17a.47.47,0,0,1-.46,0l-2-1.15c-.13-.07-.13-.19,0-.26l2-1.18a.53.53,0,0,1,.46,0Z" transform="translate(-2.41 -42.02)"/><path class="cls-10" d="M497.56,219.88a.6.6,0,0,1-.3-.07l-2-1.15a.3.3,0,0,1-.16-.25.28.28,0,0,1,.16-.25l2-1.18a.68.68,0,0,1,.59,0l2,1.15a.31.31,0,0,1,.16.26.3.3,0,0,1-.16.25l-2,1.17A.6.6,0,0,1,497.56,219.88Zm-2.18-1.47h0l2,1.15a.36.36,0,0,0,.32,0l2-1.17h0l0,0-2-1.15a.38.38,0,0,0-.33,0l-2,1.17Z" transform="translate(-2.41 -42.02)"/><path class="cls-20" d="M493.17,219.1c.12.07.13.19,0,.26l-2,1.18a.53.53,0,0,1-.46,0l-2-1.15c-.13-.08-.13-.2,0-.27l2-1.17a.49.49,0,0,1,.47,0Z" transform="translate(-2.41 -42.02)"/><path class="cls-10" d="M490.92,220.73a.73.73,0,0,1-.3-.07l-2-1.15a.31.31,0,0,1-.17-.26.29.29,0,0,1,.17-.25l2-1.17a.62.62,0,0,1,.59,0l2,1.15a.28.28,0,0,1,0,.5l-2,1.17A.61.61,0,0,1,490.92,220.73Zm-2.18-1.48,0,0,2,1.15a.36.36,0,0,0,.32,0l2-1.17,0,0,0,0-2-1.15a.47.47,0,0,0-.33,0l-2,1.18Z" transform="translate(-2.41 -42.02)"/><path class="cls-20" d="M503.1,219.41c.13.07.13.19,0,.26l-2,1.18a.53.53,0,0,1-.46,0l-2-1.15c-.12-.08-.13-.2,0-.27l2-1.17a.47.47,0,0,1,.46,0Z" transform="translate(-2.41 -42.02)"/><path class="cls-10" d="M500.86,221a.58.58,0,0,1-.3-.08l-2-1.15a.28.28,0,0,1,0-.5l2-1.17a.64.64,0,0,1,.6,0l2,1.15a.27.27,0,0,1,0,.5l-2,1.17A.57.57,0,0,1,500.86,221Zm-2.18-1.48,0,0,2,1.15a.38.38,0,0,0,.33,0l2-1.18h0l0,0-2-1.15a.36.36,0,0,0-.32,0l-2,1.18Z" transform="translate(-2.41 -42.02)"/><path class="cls-20" d="M497.13,219.81c.13.07.13.19,0,.26l-2,1.18a.53.53,0,0,1-.46,0l-2-1.15c-.12-.08-.12-.2,0-.27l2-1.17a.47.47,0,0,1,.46,0Z" transform="translate(-2.41 -42.02)"/><path class="cls-10" d="M494.89,221.44a.58.58,0,0,1-.3-.08l-2-1.15a.29.29,0,0,1-.17-.25.3.3,0,0,1,.16-.25l2-1.17a.64.64,0,0,1,.6,0l2,1.15a.27.27,0,0,1,0,.5l-2,1.17A.64.64,0,0,1,494.89,221.44ZM492.71,220l0,0,2,1.15a.38.38,0,0,0,.33,0l2-1.18h0l0,0-2-1.15a.36.36,0,0,0-.32,0l-2,1.18Z" transform="translate(-2.41 -42.02)"/><path class="cls-20" d="M500.42,221c.13.08.13.2,0,.27l-2,1.17a.47.47,0,0,1-.46,0l-2-1.15c-.12-.07-.13-.19,0-.26l2-1.18a.53.53,0,0,1,.46,0Z" transform="translate(-2.41 -42.02)"/><path class="cls-10" d="M498.17,222.6a.57.57,0,0,1-.29-.08l-2-1.15a.28.28,0,0,1,0-.5l2-1.17a.67.67,0,0,1,.6,0l2,1.15a.35.35,0,0,1,.17.26.29.29,0,0,1-.17.25l-2,1.17A.58.58,0,0,1,498.17,222.6ZM496,221.12l0,0,2,1.14a.42.42,0,0,0,.33,0l2-1.18h0l0,0-2-1.15a.36.36,0,0,0-.32,0l-2,1.17Z" transform="translate(-2.41 -42.02)"/></g><path class="cls-20" d="M510.5,212c.13.07.13.19,0,.26l-2,1.18a.53.53,0,0,1-.46,0l-2-1.15c-.13-.08-.13-.19,0-.27l2-1.17a.47.47,0,0,1,.46,0Z" transform="translate(-2.41 -42.02)"/><path class="cls-10" d="M508.25,213.67a.63.63,0,0,1-.3-.07l-2-1.15a.28.28,0,0,1,0-.51l2-1.17a.64.64,0,0,1,.6,0l2,1.15a.28.28,0,0,1,0,.5l-2,1.18A.58.58,0,0,1,508.25,213.67Zm-2.17-1.48,0,0,2,1.15a.36.36,0,0,0,.32,0l2-1.17s0,0,0,0h0l-2-1.15a.36.36,0,0,0-.32,0l-2,1.17Z" transform="translate(-2.41 -42.02)"/><path class="cls-20" d="M520.48,212.37c.13.08.13.2,0,.27l-2,1.17a.47.47,0,0,1-.46,0l-2-1.15a.14.14,0,0,1,0-.26l2-1.18a.53.53,0,0,1,.46,0Z" transform="translate(-2.41 -42.02)"/><path class="cls-10" d="M518.24,214a.58.58,0,0,1-.3-.08l-2-1.15a.29.29,0,0,1-.17-.25.3.3,0,0,1,.16-.25l2-1.17a.64.64,0,0,1,.6,0l2,1.14a.3.3,0,0,1,.17.26.29.29,0,0,1-.17.25l-2,1.17A.57.57,0,0,1,518.24,214Zm-2.18-1.48,0,0,2,1.14a.42.42,0,0,0,.33,0l2-1.18h0l0,0-2-1.15a.36.36,0,0,0-.32,0l-2,1.17Z" transform="translate(-2.41 -42.02)"/><path class="cls-20" d="M516.5,211.62c.13.07.13.19,0,.26l-2,1.18a.53.53,0,0,1-.46,0l-2-1.15a.15.15,0,0,1,0-.27l2-1.17a.47.47,0,0,1,.46,0Z" transform="translate(-2.41 -42.02)"/><path class="cls-10" d="M514.26,213.25a.58.58,0,0,1-.3-.07L512,212a.3.3,0,0,1-.17-.26.3.3,0,0,1,.16-.25l2-1.17a.64.64,0,0,1,.6,0l2,1.15a.27.27,0,0,1,0,.5l-2,1.18A.57.57,0,0,1,514.26,213.25Zm-2.18-1.48,0,0,2,1.15a.38.38,0,0,0,.33,0l2-1.17,0,0h0l-2-1.15a.36.36,0,0,0-.32,0l-2,1.17Z" transform="translate(-2.41 -42.02)"/><path class="cls-20" d="M511.88,208.22c.13.08.13.2,0,.27l-2,1.17a.47.47,0,0,1-.46,0l-2-1.15c-.13-.07-.13-.19,0-.26l2-1.18a.53.53,0,0,1,.46,0Z" transform="translate(-2.41 -42.02)"/><path class="cls-10" d="M509.63,209.85a.6.6,0,0,1-.3-.07l-2-1.15a.28.28,0,0,1,0-.5l2-1.18a.7.7,0,0,1,.6,0l2,1.15a.31.31,0,0,1,.16.26.3.3,0,0,1-.16.25l-2,1.17A.58.58,0,0,1,509.63,209.85Zm-2.17-1.47h0l2,1.15a.36.36,0,0,0,.32,0l2-1.17h0s0,0,0,0l-2-1.15a.36.36,0,0,0-.32,0l-2,1.17Z" transform="translate(-2.41 -42.02)"/><path class="cls-20" d="M514.55,206.67c.13.07.13.19,0,.27l-2,1.17a.53.53,0,0,1-.46,0l-2-1.15a.14.14,0,0,1,0-.27l2-1.17a.53.53,0,0,1,.46,0Z" transform="translate(-2.41 -42.02)"/><path class="cls-10" d="M512.3,208.3a.57.57,0,0,1-.29-.07l-2-1.15a.3.3,0,0,1-.16-.25.31.31,0,0,1,.16-.26l2-1.17a.64.64,0,0,1,.6,0l2,1.15a.33.33,0,0,1,.17.25.29.29,0,0,1-.17.25l-2,1.18A.58.58,0,0,1,512.3,208.3Zm-2.17-1.47h0l2,1.15a.38.38,0,0,0,.33,0l2-1.17,0,0h0l-2-1.15a.36.36,0,0,0-.32,0l-2,1.17S510.13,206.82,510.13,206.83Z" transform="translate(-2.41 -42.02)"/><path class="cls-20" d="M515.85,208.93c.12.07.12.19,0,.27l-2,1.17a.53.53,0,0,1-.46,0l-2-1.15c-.13-.07-.13-.19,0-.27l2-1.17a.55.55,0,0,1,.47,0Z" transform="translate(-2.41 -42.02)"/><path class="cls-10" d="M513.6,210.56a.6.6,0,0,1-.3-.07l-2-1.15a.27.27,0,0,1,0-.5l2-1.18a.62.62,0,0,1,.59,0l2,1.15a.3.3,0,0,1,.16.25.31.31,0,0,1-.16.26l-2,1.17A.6.6,0,0,1,513.6,210.56Zm-2.18-1.47h0l2,1.15a.36.36,0,0,0,.32,0l2-1.17,0,0h0l-2-1.15a.38.38,0,0,0-.33,0l-2,1.17Z" transform="translate(-2.41 -42.02)"/><path class="cls-20" d="M513.17,210.48c.13.08.13.2,0,.27l-2,1.17a.47.47,0,0,1-.46,0l-2-1.14c-.12-.08-.12-.2,0-.27l2-1.18a.53.53,0,0,1,.46,0Z" transform="translate(-2.41 -42.02)"/><path class="cls-10" d="M510.93,212.12a.58.58,0,0,1-.3-.08l-2-1.15a.29.29,0,0,1-.17-.25.3.3,0,0,1,.16-.25l2-1.17a.64.64,0,0,1,.6,0l2,1.15a.27.27,0,0,1,0,.5l-2,1.17A.57.57,0,0,1,510.93,212.12Zm-2.18-1.48s0,0,0,0l2,1.15a.38.38,0,0,0,.33,0l2-1.18h0l0,0-2-1.15a.36.36,0,0,0-.32,0l-2,1.18Z" transform="translate(-2.41 -42.02)"/><g class="cls-14"><path class="cls-20" d="M513.82,213.18c.13.07.13.19,0,.26l-2,1.18a.53.53,0,0,1-.46,0l-2-1.15c-.12-.08-.12-.2,0-.27l2-1.17a.47.47,0,0,1,.46,0Z" transform="translate(-2.41 -42.02)"/><path class="cls-10" d="M511.58,214.81a.58.58,0,0,1-.3-.08l-2-1.15a.29.29,0,0,1-.17-.25.3.3,0,0,1,.16-.25l2-1.17a.64.64,0,0,1,.6,0l2,1.15a.27.27,0,0,1,0,.5l-2,1.17A.57.57,0,0,1,511.58,214.81Zm-2.18-1.48,0,0,2,1.15a.38.38,0,0,0,.33,0l2-1.18h0l0,0-2-1.15a.36.36,0,0,0-.32,0l-2,1.18Z" transform="translate(-2.41 -42.02)"/><path class="cls-20" d="M517.8,213.93a.14.14,0,0,1,0,.27l-2,1.17a.53.53,0,0,1-.46,0l-2-1.15a.14.14,0,0,1,0-.27l2-1.17a.53.53,0,0,1,.46,0Z" transform="translate(-2.41 -42.02)"/><path class="cls-10" d="M515.56,215.56a.58.58,0,0,1-.3-.07l-2-1.15a.27.27,0,0,1,0-.5l2-1.18a.64.64,0,0,1,.6,0l2,1.15a.27.27,0,0,1,0,.5l-2,1.18A.63.63,0,0,1,515.56,215.56Zm-2.18-1.47h0l2,1.15a.38.38,0,0,0,.33,0l2-1.17,0,0h0l-2-1.15a.38.38,0,0,0-.33,0l-2,1.17Z" transform="translate(-2.41 -42.02)"/><path class="cls-20" d="M511.14,214.73c.13.08.13.2,0,.27l-2,1.17a.49.49,0,0,1-.47,0l-2-1.15a.14.14,0,0,1,0-.26l2-1.18a.53.53,0,0,1,.46,0Z" transform="translate(-2.41 -42.02)"/><path class="cls-10" d="M508.9,216.37a.58.58,0,0,1-.3-.08l-2-1.15a.28.28,0,0,1,0-.5l2-1.18a.7.7,0,0,1,.6,0l2,1.15a.3.3,0,0,1,.17.26.29.29,0,0,1-.17.25l-2,1.17A.57.57,0,0,1,508.9,216.37Zm-2.18-1.48h0l2,1.15a.42.42,0,0,0,.33,0l2-1.18h0l0,0-2-1.15a.36.36,0,0,0-.32,0l-2,1.17Z" transform="translate(-2.41 -42.02)"/><path class="cls-20" d="M515.13,215.49a.14.14,0,0,1,0,.26l-2,1.18a.53.53,0,0,1-.46,0l-2-1.15c-.13-.08-.13-.2,0-.27l2-1.17a.47.47,0,0,1,.46,0Z" transform="translate(-2.41 -42.02)"/><path class="cls-10" d="M512.88,217.12a.58.58,0,0,1-.3-.08l-2-1.14a.31.31,0,0,1-.17-.26.29.29,0,0,1,.17-.25l2-1.17a.62.62,0,0,1,.59,0l2,1.15a.29.29,0,0,1,.17.25.3.3,0,0,1-.16.25l-2,1.17A.61.61,0,0,1,512.88,217.12Zm-2.18-1.48,0,0,2,1.15a.36.36,0,0,0,.32,0l2-1.17,0,0,0,0-2-1.15a.47.47,0,0,0-.33,0l-2,1.18Z" transform="translate(-2.41 -42.02)"/></g><g class="cls-14"><path class="cls-20" d="M499.1,212.6c.13.08.13.2,0,.27l-2,1.17a.47.47,0,0,1-.46,0l-1-.6c-.13-.07-.13-.19,0-.27l2-1.17a.47.47,0,0,1,.46,0Z" transform="translate(-2.41 -42.02)"/><path class="cls-10" d="M496.85,214.24a.57.57,0,0,1-.29-.08l-1.05-.6a.28.28,0,0,1,0-.51l2-1.17a.62.62,0,0,1,.59,0l1.05.6a.33.33,0,0,1,.16.26.28.28,0,0,1-.16.25l-2,1.17A.58.58,0,0,1,496.85,214.24Zm-1.23-.94,0,0,1.05.61a.47.47,0,0,0,.33,0l2-1.18h0l0,0-1-.6a.38.38,0,0,0-.33,0l-2,1.17Z" transform="translate(-2.41 -42.02)"/><path class="cls-20" d="M503.86,212.88c.13.08.13.2,0,.27l-2,1.17a.47.47,0,0,1-.46,0l-2-1.15c-.13-.07-.13-.19,0-.26l2-1.18a.53.53,0,0,1,.46,0Z" transform="translate(-2.41 -42.02)"/><path class="cls-10" d="M501.61,214.52a.64.64,0,0,1-.3-.08l-2-1.15a.28.28,0,0,1,0-.5l2-1.18a.7.7,0,0,1,.6,0l2,1.15a.31.31,0,0,1,.16.26.3.3,0,0,1-.16.25l-2,1.17A.58.58,0,0,1,501.61,214.52ZM499.44,213h0l2,1.15a.36.36,0,0,0,.32,0l2-1.17h0s0,0,0,0l-2-1.15a.36.36,0,0,0-.32,0l-2,1.17Z" transform="translate(-2.41 -42.02)"/><path class="cls-20" d="M507.83,213.59c.12.08.13.19,0,.27l-2,1.17a.47.47,0,0,1-.46,0l-2-1.15c-.13-.07-.13-.19,0-.26l2-1.18a.53.53,0,0,1,.46,0Z" transform="translate(-2.41 -42.02)"/><path class="cls-10" d="M505.58,215.22a.6.6,0,0,1-.3-.07l-2-1.15a.27.27,0,0,1,0-.5l2-1.18a.65.65,0,0,1,.59,0l2,1.15a.28.28,0,0,1,0,.51l-2,1.17A.6.6,0,0,1,505.58,215.22Zm-2.18-1.47h0l2,1.15a.36.36,0,0,0,.32,0l2-1.17h0l0,0-2-1.15a.38.38,0,0,0-.33,0l-2,1.17Z" transform="translate(-2.41 -42.02)"/><path class="cls-20" d="M501.19,214.44a.14.14,0,0,1,0,.26l-2,1.18a.53.53,0,0,1-.46,0l-2-1.15c-.13-.08-.13-.2,0-.27l2-1.17a.47.47,0,0,1,.46,0Z" transform="translate(-2.41 -42.02)"/><path class="cls-10" d="M498.94,216.07a.61.61,0,0,1-.3-.08l-2-1.15a.27.27,0,0,1,0-.5l2-1.17a.62.62,0,0,1,.59,0l2,1.15a.29.29,0,0,1,.17.25.3.3,0,0,1-.16.25l-2,1.17A.61.61,0,0,1,498.94,216.07Zm-2.18-1.48,0,0,2,1.15a.36.36,0,0,0,.32,0l2-1.18h0l0,0-2-1.15a.47.47,0,0,0-.33,0l-2,1.18Z" transform="translate(-2.41 -42.02)"/><path class="cls-20" d="M505.15,215.14c.13.08.13.2,0,.27l-2,1.18a.53.53,0,0,1-.46,0l-2-1.15c-.12-.08-.12-.2,0-.27l2-1.17a.47.47,0,0,1,.46,0Z" transform="translate(-2.41 -42.02)"/><path class="cls-10" d="M502.91,216.78a.58.58,0,0,1-.3-.08l-2-1.15a.29.29,0,0,1-.17-.25.3.3,0,0,1,.16-.25l2-1.17a.64.64,0,0,1,.6,0l2,1.15a.27.27,0,0,1,0,.5l-2,1.17A.57.57,0,0,1,502.91,216.78Zm-2.18-1.48,0,0,2,1.15a.38.38,0,0,0,.33,0l2-1.18h0l0,0-2-1.15a.36.36,0,0,0-.32,0l-2,1.18Z" transform="translate(-2.41 -42.02)"/><path class="cls-20" d="M508.46,216.29c.13.07.13.19,0,.27l-2,1.17a.55.55,0,0,1-.47,0l-2-1.15a.14.14,0,0,1,0-.27l2-1.17a.53.53,0,0,1,.46,0Z" transform="translate(-2.41 -42.02)"/><path class="cls-10" d="M506.22,217.92a.58.58,0,0,1-.3-.07l-2-1.15a.28.28,0,0,1,0-.5l2-1.18a.64.64,0,0,1,.6,0l2,1.15a.29.29,0,0,1,.17.25.31.31,0,0,1-.17.26l-2,1.17A.57.57,0,0,1,506.22,217.92ZM504,216.45h0l2,1.15a.38.38,0,0,0,.33,0l2-1.17,0,0h0l-2-1.15a.36.36,0,0,0-.32,0l-2,1.17Z" transform="translate(-2.41 -42.02)"/></g><path class="cls-20" d="M501.88,211c.13.07.13.19,0,.26l-2,1.18a.53.53,0,0,1-.46,0l-1.05-.61c-.13-.07-.13-.19,0-.26l2-1.18a.53.53,0,0,1,.46,0Z" transform="translate(-2.41 -42.02)"/><path class="cls-10" d="M499.64,212.62a.58.58,0,0,1-.3-.08l-1-.6a.28.28,0,0,1,0-.5l2-1.18a.68.68,0,0,1,.59,0l1.05.61a.27.27,0,0,1,0,.5l-2,1.17A.57.57,0,0,1,499.64,212.62Zm-1.24-.93h0l1,.61a.38.38,0,0,0,.33,0l2-1.17,0,0,0,0-1.05-.6a.38.38,0,0,0-.33,0l-2,1.17Z" transform="translate(-2.41 -42.02)"/><path class="cls-20" d="M519.18,210.06a.14.14,0,0,1,0,.27l-2,1.17a.53.53,0,0,1-.46,0l-2-1.15c-.12-.07-.12-.19,0-.27l2-1.17a.53.53,0,0,1,.46,0Z" transform="translate(-2.41 -42.02)"/><path class="cls-10" d="M516.94,211.69a.58.58,0,0,1-.3-.07l-2-1.15a.29.29,0,0,1-.17-.25.3.3,0,0,1,.16-.25l2-1.18a.64.64,0,0,1,.6,0l2,1.15a.27.27,0,0,1,0,.5l-2,1.18A.57.57,0,0,1,516.94,211.69Zm-2.18-1.47h0l2,1.15a.38.38,0,0,0,.33,0l2-1.17,0,0h0l-2-1.15a.36.36,0,0,0-.32,0l-2,1.17Z" transform="translate(-2.41 -42.02)"/><path class="cls-20" d="M534.81,207.48a.14.14,0,0,1,0,.26l-2,1.18a.53.53,0,0,1-.46,0l-1-.57c-.13-.07-.13-.19,0-.26l2-1.18a.53.53,0,0,1,.46,0Z" transform="translate(-2.41 -42.02)"/><path class="cls-10" d="M532.56,209.11a.58.58,0,0,1-.3-.08l-1-.56a.28.28,0,0,1,0-.5l2-1.18a.7.7,0,0,1,.6,0l1,.57a.27.27,0,0,1,0,.5l-2,1.17A.64.64,0,0,1,532.56,209.11Zm-1.16-.89h0l1,.57a.38.38,0,0,0,.33,0l2-1.18h0l0,0-1-.56a.36.36,0,0,0-.32,0l-2,1.17Z" transform="translate(-2.41 -42.02)"/><g class="cls-14"><path class="cls-20" d="M526.54,202.72c.13.07.13.19,0,.26l-2,1.18a.53.53,0,0,1-.46,0l-2-1.15c-.13-.08-.13-.2,0-.27l2-1.17a.47.47,0,0,1,.46,0Z" transform="translate(-2.41 -42.02)"/><path class="cls-10" d="M524.29,204.35a.78.78,0,0,1-.3-.07l-2-1.15a.31.31,0,0,1-.16-.26.3.3,0,0,1,.16-.25l2-1.17a.64.64,0,0,1,.6,0l2,1.15a.28.28,0,0,1,0,.5l-2,1.18A.7.7,0,0,1,524.29,204.35Zm-2.17-1.48,0,0,2,1.15a.36.36,0,0,0,.32,0l2-1.17,0,0h0l-2-1.15a.36.36,0,0,0-.32,0l-2,1.17Z" transform="translate(-2.41 -42.02)"/><path class="cls-20" d="M515.79,202.9c.13.08.13.2,0,.27l-2,1.17a.47.47,0,0,1-.46,0l-1.05-.6c-.13-.07-.13-.19,0-.27l2-1.17a.53.53,0,0,1,.46,0Z" transform="translate(-2.41 -42.02)"/><path class="cls-10" d="M513.55,204.54a.58.58,0,0,1-.3-.08l-1-.6a.3.3,0,0,1-.16-.25.29.29,0,0,1,.16-.26l2-1.17a.62.62,0,0,1,.59,0l1.05.6a.31.31,0,0,1,.17.26.29.29,0,0,1-.17.25l-2,1.17A.57.57,0,0,1,513.55,204.54Zm-1.24-.93h0l1,.61a.47.47,0,0,0,.33,0l2-1.18h0l0,0-1-.6a.38.38,0,0,0-.33,0l-2,1.17Z" transform="translate(-2.41 -42.02)"/><path class="cls-20" d="M519.9,203.56c.13.08.13.19,0,.27l-2,1.17a.47.47,0,0,1-.46,0l-2-1.15c-.13-.07-.13-.19,0-.26l2-1.18a.53.53,0,0,1,.46,0Z" transform="translate(-2.41 -42.02)"/><path class="cls-10" d="M517.65,205.19a.6.6,0,0,1-.3-.07l-2-1.15a.28.28,0,0,1,0-.5l2-1.18a.7.7,0,0,1,.6,0l2,1.15a.28.28,0,0,1,0,.51l-2,1.17A.6.6,0,0,1,517.65,205.19Zm-2.17-1.47h0l2,1.15a.36.36,0,0,0,.32,0l2-1.17h0l0,0-2-1.15a.36.36,0,0,0-.32,0l-2,1.17Z" transform="translate(-2.41 -42.02)"/><path class="cls-20" d="M523.87,204.27c.12.07.12.19,0,.27l-2,1.17a.53.53,0,0,1-.46,0l-2-1.15c-.13-.07-.13-.19,0-.27l2-1.17a.55.55,0,0,1,.47,0Z" transform="translate(-2.41 -42.02)"/><path class="cls-10" d="M521.62,205.9a.6.6,0,0,1-.3-.07l-2-1.15a.27.27,0,0,1,0-.5l2-1.18a.62.62,0,0,1,.59,0l2,1.15a.29.29,0,0,1,.17.25.31.31,0,0,1-.16.26l-2,1.17A.6.6,0,0,1,521.62,205.9Zm-2.18-1.47h0l2,1.15a.36.36,0,0,0,.32,0l2-1.17,0,0h0l-2-1.15a.38.38,0,0,0-.33,0l-2,1.17Z" transform="translate(-2.41 -42.02)"/><path class="cls-20" d="M513,204.52c.13.07.13.19,0,.27L511,206a.53.53,0,0,1-.46,0l-1-.6c-.13-.08-.13-.2,0-.27l2-1.17a.47.47,0,0,1,.46,0Z" transform="translate(-2.41 -42.02)"/><path class="cls-10" d="M510.76,206.15a.57.57,0,0,1-.29-.07l-1.05-.61a.27.27,0,0,1,0-.5l2-1.17a.62.62,0,0,1,.59,0l1.05.6a.28.28,0,0,1,0,.5l-2,1.18A.58.58,0,0,1,510.76,206.15Zm-1.23-.93,0,0,1.05.6a.36.36,0,0,0,.32,0l2-1.17,0,0h0l-1-.61a.38.38,0,0,0-.33,0l-2,1.18Z" transform="translate(-2.41 -42.02)"/><path class="cls-20" d="M517.23,205.12a.14.14,0,0,1,0,.26l-2,1.18a.53.53,0,0,1-.46,0l-2-1.15c-.13-.08-.13-.2,0-.27l2-1.17a.47.47,0,0,1,.46,0Z" transform="translate(-2.41 -42.02)"/><path class="cls-10" d="M515,206.75a.58.58,0,0,1-.3-.08l-2-1.15a.27.27,0,0,1,0-.5l2-1.17a.62.62,0,0,1,.59,0l2,1.15a.29.29,0,0,1,.17.25.3.3,0,0,1-.16.25l-2,1.17A.64.64,0,0,1,515,206.75Zm-2.18-1.48,0,0,2,1.15a.36.36,0,0,0,.32,0l2-1.18h0l0,0-2-1.15a.38.38,0,0,0-.33,0l-2,1.18Z" transform="translate(-2.41 -42.02)"/><path class="cls-20" d="M529.14,204.25c.12.08.13.2,0,.27l-4,2.33a.53.53,0,0,1-.46,0l-2-1.15c-.13-.08-.13-.19,0-.27l4-2.33a.53.53,0,0,1,.46,0Z" transform="translate(-2.41 -42.02)"/><path class="cls-10" d="M524.9,207a.6.6,0,0,1-.3-.07l-2-1.15a.31.31,0,0,1-.16-.26.29.29,0,0,1,.16-.25l4-2.33a.68.68,0,0,1,.59,0l2,1.15a.31.31,0,0,1,.16.26.3.3,0,0,1-.16.25l-4,2.33A.6.6,0,0,1,524.9,207Zm-2.18-1.48,0,0,2,1.15a.36.36,0,0,0,.32,0l4-2.33h0l0,0-2-1.15a.38.38,0,0,0-.33,0l-4,2.33Z" transform="translate(-2.41 -42.02)"/><path class="cls-20" d="M521.19,205.82c.13.08.13.2,0,.27l-2,1.17a.47.47,0,0,1-.46,0l-2-1.15a.14.14,0,0,1,0-.26l2-1.18a.53.53,0,0,1,.46,0Z" transform="translate(-2.41 -42.02)"/><path class="cls-10" d="M519,207.46a.58.58,0,0,1-.3-.08l-2-1.15a.29.29,0,0,1-.17-.25.3.3,0,0,1,.16-.25l2-1.17a.64.64,0,0,1,.6,0l2,1.15a.27.27,0,0,1,0,.5l-2,1.17A.57.57,0,0,1,519,207.46ZM516.77,206l0,0,2,1.15a.38.38,0,0,0,.33,0l2-1.18h0l0,0-2-1.15a.36.36,0,0,0-.32,0l-2,1.18Z" transform="translate(-2.41 -42.02)"/><path class="cls-20" d="M510.23,206.14c.13.07.13.19,0,.26l-2,1.18a.53.53,0,0,1-.46,0L506.7,207a.14.14,0,0,1,0-.26l2-1.18a.53.53,0,0,1,.46,0Z" transform="translate(-2.41 -42.02)"/><path class="cls-10" d="M508,207.77a.64.64,0,0,1-.3-.08l-1-.6a.29.29,0,0,1-.17-.25.3.3,0,0,1,.16-.25l2-1.18a.7.7,0,0,1,.6,0l1.05.61a.28.28,0,0,1,0,.5l-2,1.17A.58.58,0,0,1,508,207.77Zm-1.23-.93h0l1.05.61a.36.36,0,0,0,.32,0l2-1.17,0,0,0,0-1.05-.6a.36.36,0,0,0-.32,0l-2,1.17Z" transform="translate(-2.41 -42.02)"/><path class="cls-20" d="M524.54,206.94c.13.08.13.2,0,.27l-2,1.18a.53.53,0,0,1-.46,0l-2-1.15c-.12-.08-.12-.2,0-.27l2-1.17a.47.47,0,0,1,.46,0Z" transform="translate(-2.41 -42.02)"/><path class="cls-10" d="M522.3,208.58a.58.58,0,0,1-.3-.08l-2-1.15a.29.29,0,0,1-.17-.25.3.3,0,0,1,.16-.25l2-1.17a.64.64,0,0,1,.6,0l2,1.15a.27.27,0,0,1,0,.5l-2,1.17A.57.57,0,0,1,522.3,208.58Zm-2.18-1.48,0,0,2,1.15a.38.38,0,0,0,.33,0l2-1.18h0l0,0-2-1.15a.36.36,0,0,0-.32,0l-2,1.18Z" transform="translate(-2.41 -42.02)"/><path class="cls-20" d="M531.78,205.74c.12.07.12.19,0,.27l-5.37,3.12a.53.53,0,0,1-.46,0L524,208c-.13-.08-.13-.2,0-.27l5.37-3.12a.53.53,0,0,1,.46,0Z" transform="translate(-2.41 -42.02)"/><path class="cls-10" d="M526.18,209.32a.7.7,0,0,1-.3-.07l-2-1.15a.3.3,0,0,1-.17-.26.3.3,0,0,1,.16-.25l5.37-3.12a.64.64,0,0,1,.6,0l2,1.15a.27.27,0,0,1,0,.5l-5.36,3.12A.64.64,0,0,1,526.18,209.32ZM524,207.84l0,0,2,1.15a.38.38,0,0,0,.33,0l5.37-3.12,0,0h0l-2-1.15a.38.38,0,0,0-.33,0L524,207.83Z" transform="translate(-2.41 -42.02)"/><path class="cls-20" d="M521.86,208.5c.13.08.13.2,0,.27l-2,1.17a.47.47,0,0,1-.46,0l-2-1.15a.14.14,0,0,1,0-.26l2-1.18a.53.53,0,0,1,.46,0Z" transform="translate(-2.41 -42.02)"/><path class="cls-10" d="M519.62,210.13a.58.58,0,0,1-.3-.07l-2-1.15a.29.29,0,0,1-.17-.25.3.3,0,0,1,.16-.25l2-1.18a.7.7,0,0,1,.6,0l2,1.15a.3.3,0,0,1,.17.26.29.29,0,0,1-.17.25l-2,1.17A.57.57,0,0,1,519.62,210.13Zm-2.18-1.47h0l2,1.15a.38.38,0,0,0,.33,0l2-1.17h0l0,0-2-1.15a.36.36,0,0,0-.32,0l-2,1.17Z" transform="translate(-2.41 -42.02)"/><path class="cls-20" d="M525.84,209.26c.13.07.13.19,0,.27l-2,1.17a.53.53,0,0,1-.46,0l-2-1.15c-.13-.07-.13-.19,0-.27l2-1.17a.53.53,0,0,1,.46,0Z" transform="translate(-2.41 -42.02)"/><path class="cls-10" d="M523.59,210.89a.63.63,0,0,1-.3-.07l-2-1.15a.28.28,0,0,1,0-.5l2-1.18a.64.64,0,0,1,.6,0l2,1.15a.3.3,0,0,1,.16.25.28.28,0,0,1-.16.25l-2,1.18A.58.58,0,0,1,523.59,210.89Zm-2.17-1.47h0l2,1.15a.38.38,0,0,0,.33,0l2-1.17,0,0h0l-2-1.15a.36.36,0,0,0-.32,0l-2,1.17Z" transform="translate(-2.41 -42.02)"/></g><g class="cls-14"><path class="cls-20" d="M507.45,207.75c.13.08.13.2,0,.27l-2,1.17a.47.47,0,0,1-.46,0l-1.05-.6c-.13-.07-.13-.19,0-.27l2-1.17a.53.53,0,0,1,.46,0Z" transform="translate(-2.41 -42.02)"/><path class="cls-10" d="M505.2,209.39a.61.61,0,0,1-.3-.08l-1-.6a.3.3,0,0,1-.16-.25.31.31,0,0,1,.16-.26l2-1.17a.64.64,0,0,1,.6,0l1,.6a.33.33,0,0,1,.16.26.3.3,0,0,1-.16.25l-2,1.17A.61.61,0,0,1,505.2,209.39Zm-1.23-.93h0l1.05.61a.44.44,0,0,0,.32,0l2-1.18h0l0,0-1.05-.6a.36.36,0,0,0-.32,0l-2,1.17S504,208.45,504,208.46Z" transform="translate(-2.41 -42.02)"/><path class="cls-20" d="M504.67,209.37c.12.07.12.19,0,.27l-2,1.17a.53.53,0,0,1-.46,0l-1.05-.6c-.13-.08-.13-.2,0-.27l2-1.17a.47.47,0,0,1,.46,0Z" transform="translate(-2.41 -42.02)"/><path class="cls-10" d="M502.42,211a.58.58,0,0,1-.3-.07l-1.05-.61a.28.28,0,0,1,0-.5l2-1.17a.64.64,0,0,1,.6,0l1,.6a.29.29,0,0,1,.17.25.3.3,0,0,1-.16.25l-2,1.18A.63.63,0,0,1,502.42,211Zm-1.23-.93s0,0,0,0l1.05.6a.36.36,0,0,0,.32,0l2-1.17,0,0h0l-1.05-.61a.36.36,0,0,0-.32,0l-2,1.18Z" transform="translate(-2.41 -42.02)"/><path class="cls-20" d="M509.21,209.78a.14.14,0,0,1,0,.26l-2,1.18a.53.53,0,0,1-.46,0l-2-1.15c-.13-.08-.13-.2,0-.27l2-1.17a.47.47,0,0,1,.46,0Z" transform="translate(-2.41 -42.02)"/><path class="cls-10" d="M507,211.41a.58.58,0,0,1-.3-.08l-2-1.15a.27.27,0,0,1,0-.5l2-1.17a.62.62,0,0,1,.59,0l2,1.15a.29.29,0,0,1,.17.25.3.3,0,0,1-.16.25l-2,1.17A.61.61,0,0,1,507,211.41Zm-2.18-1.48,0,0,2,1.15a.36.36,0,0,0,.32,0l2-1.18h0l0,0-2-1.15a.38.38,0,0,0-.33,0l-2,1.18Z" transform="translate(-2.41 -42.02)"/></g><path class="cls-20" d="M506.53,211.33c.13.07.13.19,0,.27l-2,1.17a.55.55,0,0,1-.47,0l-2-1.15a.14.14,0,0,1,0-.27l2-1.17a.53.53,0,0,1,.46,0Z" transform="translate(-2.41 -42.02)"/><path class="cls-10" d="M504.29,213a.58.58,0,0,1-.3-.07l-2-1.15a.28.28,0,0,1,0-.5l2-1.18a.64.64,0,0,1,.6,0l2,1.15a.27.27,0,0,1,0,.5l-2,1.18A.57.57,0,0,1,504.29,213Zm-2.18-1.47h0l2,1.15a.38.38,0,0,0,.33,0l2-1.17,0,0h0l-2-1.15a.36.36,0,0,0-.32,0l-2,1.17S502.11,211.48,502.11,211.49Z" transform="translate(-2.41 -42.02)"/><path class="cls-20" d="M518.58,201.29a.14.14,0,0,1,0,.26l-2,1.18a.53.53,0,0,1-.46,0l-1.05-.61c-.13-.07-.13-.19,0-.26l2-1.18a.53.53,0,0,1,.46,0Z" transform="translate(-2.41 -42.02)"/><path class="cls-10" d="M516.33,202.92a.58.58,0,0,1-.3-.08l-1-.6a.28.28,0,0,1,0-.5l2-1.18a.7.7,0,0,1,.6,0l1,.61a.27.27,0,0,1,0,.5l-2,1.17A.64.64,0,0,1,516.33,202.92ZM515.1,202h0l1,.61a.36.36,0,0,0,.32,0l2-1.17s0,0,0,0l0,0-1-.6a.36.36,0,0,0-.32,0l-2,1.17S515.1,202,515.1,202Z" transform="translate(-2.41 -42.02)"/><path class="cls-20" d="M521.36,199.67a.14.14,0,0,1,0,.27l-2,1.17a.53.53,0,0,1-.46,0l-1-.6c-.13-.08-.13-.2,0-.27l2-1.17a.47.47,0,0,1,.46,0Z" transform="translate(-2.41 -42.02)"/><path class="cls-10" d="M519.11,201.3a.6.6,0,0,1-.3-.07l-1-.61a.28.28,0,0,1,0-.5l2-1.17a.64.64,0,0,1,.6,0l1,.6a.28.28,0,0,1,0,.5l-2,1.18A.6.6,0,0,1,519.11,201.3Zm-1.23-.93,0,0,1.05.6a.36.36,0,0,0,.32,0l2-1.17,0,0h0l-1-.61a.36.36,0,0,0-.32,0l-2,1.18Z" transform="translate(-2.41 -42.02)"/><path class="cls-20" d="M523.94,201.21c.13.08.13.2,0,.27l-3.34,1.94a.53.53,0,0,1-.46,0l-2-1.15c-.13-.07-.13-.19,0-.27l3.34-1.93a.5.5,0,0,1,.46,0Z" transform="translate(-2.41 -42.02)"/><path class="cls-10" d="M520.37,203.61a.57.57,0,0,1-.29-.07l-2-1.15a.28.28,0,0,1,0-.5l3.34-1.94a.62.62,0,0,1,.59,0l2,1.15a.28.28,0,0,1,0,.5l-3.34,1.94A.58.58,0,0,1,520.37,203.61Zm-2.17-1.47h0l2,1.15a.38.38,0,0,0,.33,0l3.33-1.94h0l0,0-2-1.15a.38.38,0,0,0-.33,0l-3.33,1.94Z" transform="translate(-2.41 -42.02)"/><path class="cls-20" d="M518.52,207.38c.13.07.13.19,0,.26l-2,1.18a.53.53,0,0,1-.46,0l-2-1.15c-.13-.08-.13-.2,0-.27l2-1.17a.47.47,0,0,1,.46,0Z" transform="translate(-2.41 -42.02)"/><path class="cls-10" d="M516.27,209a.63.63,0,0,1-.3-.07l-2-1.15a.31.31,0,0,1-.16-.26.3.3,0,0,1,.16-.25l2-1.17a.64.64,0,0,1,.6,0l2,1.15a.28.28,0,0,1,0,.5l-2,1.18A.58.58,0,0,1,516.27,209Zm-2.17-1.48,0,0,2,1.15a.36.36,0,0,0,.32,0l2-1.17s0,0,0,0h0l-2-1.15a.36.36,0,0,0-.32,0l-2,1.17Z" transform="translate(-2.41 -42.02)"/><path class="cls-20" d="M501.73,223.27c.13.07.13.19,0,.27l-2,1.17a.53.53,0,0,1-.46,0l-2-1.15c-.13-.07-.13-.19,0-.27l2-1.17a.53.53,0,0,1,.46,0Z" transform="translate(-2.41 -42.02)"/><path class="cls-10" d="M499.48,224.9a.57.57,0,0,1-.29-.07l-2-1.15a.28.28,0,0,1,0-.5l2-1.18a.64.64,0,0,1,.6,0l2,1.15a.3.3,0,0,1,.16.25.29.29,0,0,1-.16.26l-2,1.17A.58.58,0,0,1,499.48,224.9Zm-2.17-1.47h0l2,1.15a.38.38,0,0,0,.33,0l2-1.17,0,0h0l-2-1.15a.36.36,0,0,0-.32,0l-2,1.17S497.31,223.42,497.31,223.43Z" transform="translate(-2.41 -42.02)"/><path class="cls-20" d="M498.69,228.46c.13.08.13.2,0,.27l-2,1.17a.47.47,0,0,1-.46,0l-2.36-1.36c-.13-.07-.13-.19,0-.27l2-1.17a.53.53,0,0,1,.46,0Z" transform="translate(-2.41 -42.02)"/><path class="cls-10" d="M496.44,230.09a.63.63,0,0,1-.3-.07l-2.36-1.36a.3.3,0,0,1-.16-.25.31.31,0,0,1,.16-.26l2-1.17a.64.64,0,0,1,.6,0l2.36,1.36a.31.31,0,0,1,.16.26.3.3,0,0,1-.16.25l-2,1.17A.58.58,0,0,1,496.44,230.09Zm-2.54-1.68h0l2.36,1.36a.38.38,0,0,0,.33,0l2-1.17h0l0,0-2.36-1.36a.36.36,0,0,0-.32,0l-2,1.17Z" transform="translate(-2.41 -42.02)"/><path class="cls-20" d="M507.36,223.43a.14.14,0,0,1,0,.26l-2.61,1.52a.53.53,0,0,1-.46,0l-2.36-1.36c-.13-.08-.13-.2,0-.27l2.6-1.52a.53.53,0,0,1,.46,0Z" transform="translate(-2.41 -42.02)"/><path class="cls-10" d="M504.52,225.4a.6.6,0,0,1-.3-.07L501.86,224a.28.28,0,0,1,0-.5l2.61-1.51a.62.62,0,0,1,.59,0l2.36,1.36a.29.29,0,0,1,.17.25.3.3,0,0,1-.16.25l-2.61,1.52A.6.6,0,0,1,504.52,225.4ZM502,223.71l0,0,2.36,1.36a.36.36,0,0,0,.32,0l2.61-1.51,0,0h0l-2.36-1.37a.38.38,0,0,0-.33,0L502,223.7Z" transform="translate(-2.41 -42.02)"/><path class="cls-20" d="M504.08,225.33c.12.08.12.2,0,.27l-2,1.17a.47.47,0,0,1-.46,0l-2.36-1.36c-.13-.07-.13-.19,0-.27l2-1.17a.55.55,0,0,1,.47,0Z" transform="translate(-2.41 -42.02)"/><path class="cls-10" d="M501.83,227a.61.61,0,0,1-.3-.08l-2.36-1.36a.27.27,0,0,1,0-.5l2-1.18a.62.62,0,0,1,.59,0l2.36,1.36a.3.3,0,0,1,.17.26.3.3,0,0,1-.16.25l-2,1.17A.61.61,0,0,1,501.83,227Zm-2.55-1.69h0l2.36,1.36a.4.4,0,0,0,.32,0l2-1.18h0l0,0-2.36-1.36a.38.38,0,0,0-.33,0l-2,1.17Z" transform="translate(-2.41 -42.02)"/><path class="cls-20" d="M499.07,224.82c.13.07.13.19,0,.26l-5.37,3.12a.47.47,0,0,1-.46,0l-2-1.15c-.13-.07-.13-.19,0-.26l5.37-3.12a.47.47,0,0,1,.46,0Z" transform="translate(-2.41 -42.02)"/><path class="cls-10" d="M493.47,228.4a.64.64,0,0,1-.3-.08l-2-1.15a.28.28,0,0,1,0-.5l5.37-3.12a.64.64,0,0,1,.6,0l2,1.15a.28.28,0,0,1,0,.5l-5.37,3.12A.58.58,0,0,1,493.47,228.4Zm-2.17-1.48s0,0,0,0l2,1.15a.36.36,0,0,0,.32,0L499,225s0,0,0,0h0l-2-1.15a.36.36,0,0,0-.32,0l-5.37,3.12Z" transform="translate(-2.41 -42.02)"/><path class="cls-20" d="M501.38,226.9c.13.07.13.19,0,.26l-2,1.18a.53.53,0,0,1-.46,0L496.54,227a.14.14,0,0,1,0-.26l2-1.18a.53.53,0,0,1,.46,0Z" transform="translate(-2.41 -42.02)"/><path class="cls-10" d="M499.14,228.53a.58.58,0,0,1-.3-.07l-2.36-1.37a.29.29,0,0,1-.17-.25.3.3,0,0,1,.16-.25l2-1.17a.64.64,0,0,1,.6,0l2.36,1.36a.27.27,0,0,1,0,.5l-2,1.18A.57.57,0,0,1,499.14,228.53Zm-2.55-1.69,0,0,2.36,1.36a.38.38,0,0,0,.33,0l2-1.17,0,0h0L499,225.65a.36.36,0,0,0-.32,0l-2,1.18Z" transform="translate(-2.41 -42.02)"/><path class="cls-20" d="M532.13,209c.13.07.13.19,0,.26l-2,1.18a.53.53,0,0,1-.46,0l-2.36-1.36c-.12-.08-.12-.2,0-.27l2-1.18a.5.5,0,0,1,.46,0Z" transform="translate(-2.41 -42.02)"/><path class="cls-10" d="M529.88,210.66a.57.57,0,0,1-.29-.07l-2.36-1.37a.29.29,0,0,1-.17-.25.3.3,0,0,1,.16-.25l2-1.17a.64.64,0,0,1,.6,0l2.36,1.36a.27.27,0,0,1,0,.5l-2,1.18A.58.58,0,0,1,529.88,210.66ZM527.34,209l0,0,2.36,1.36a.38.38,0,0,0,.33,0l2-1.17,0,0h0l-2.36-1.37a.36.36,0,0,0-.32,0l-2,1.18Z" transform="translate(-2.41 -42.02)"/><path class="cls-20" d="M529.47,210.58c.13.07.13.19,0,.26l-2,1.18a.53.53,0,0,1-.46,0l-1-.57c-.13-.07-.13-.19,0-.26l2-1.18a.53.53,0,0,1,.46,0Z" transform="translate(-2.41 -42.02)"/><path class="cls-10" d="M527.22,212.21a.64.64,0,0,1-.3-.08l-1-.56a.31.31,0,0,1-.17-.25.29.29,0,0,1,.17-.25l2-1.18a.68.68,0,0,1,.59,0l1,.57a.28.28,0,0,1,0,.5l-2,1.17A.58.58,0,0,1,527.22,212.21Zm-1.16-.89h0l1,.57a.36.36,0,0,0,.32,0l2-1.18h0s0,0,0,0l-1-.56a.38.38,0,0,0-.33,0l-2,1.17Z" transform="translate(-2.41 -42.02)"/><path class="cls-20" d="M523.16,210.82c.13.07.13.19,0,.26l-2,1.18a.53.53,0,0,1-.46,0l-2-1.15c-.12-.08-.13-.2,0-.27l2-1.17a.47.47,0,0,1,.46,0Z" transform="translate(-2.41 -42.02)"/><path class="cls-10" d="M520.91,212.45a.57.57,0,0,1-.29-.08l-2-1.15a.28.28,0,0,1,0-.5l2-1.17a.64.64,0,0,1,.6,0l2,1.15a.27.27,0,0,1,0,.5l-2,1.17A.58.58,0,0,1,520.91,212.45ZM518.74,211l0,0,2,1.15a.38.38,0,0,0,.33,0l2-1.18h0l0,0-2-1.15a.44.44,0,0,0-.32,0l-2,1.18Z" transform="translate(-2.41 -42.02)"/><path class="cls-20" d="M524,213.74c.13.07.13.19,0,.26l-2.6,1.52a.53.53,0,0,1-.46,0l-2.37-1.36c-.12-.08-.12-.2,0-.27l2.61-1.52a.53.53,0,0,1,.46,0Z" transform="translate(-2.41 -42.02)"/><path class="cls-10" d="M521.2,215.71a.58.58,0,0,1-.3-.07l-2.36-1.37a.29.29,0,0,1-.17-.25.3.3,0,0,1,.16-.25l2.61-1.51a.64.64,0,0,1,.6,0l2.36,1.36a.28.28,0,0,1,0,.5l-2.61,1.52A.57.57,0,0,1,521.2,215.71ZM518.65,214l0,0L521,215.4a.38.38,0,0,0,.33,0l2.6-1.51,0,0h0l-2.36-1.37a.36.36,0,0,0-.32,0L518.67,214Z" transform="translate(-2.41 -42.02)"/><path class="cls-20" d="M526.81,212.12c.13.08.13.2,0,.27l-2,1.17a.47.47,0,0,1-.46,0L522,212.2c-.13-.07-.13-.19,0-.27l2-1.17a.53.53,0,0,1,.46,0Z" transform="translate(-2.41 -42.02)"/><path class="cls-10" d="M524.56,213.75a.6.6,0,0,1-.3-.07l-2.36-1.36a.3.3,0,0,1-.16-.25.31.31,0,0,1,.16-.26l2-1.17a.64.64,0,0,1,.6,0l2.36,1.36a.28.28,0,0,1,0,.51l-2,1.17A.6.6,0,0,1,524.56,213.75ZM522,212.07h0l2.36,1.36a.36.36,0,0,0,.32,0l2-1.17h0l0,0-2.36-1.36a.36.36,0,0,0-.32,0l-2,1.17Z" transform="translate(-2.41 -42.02)"/><path class="cls-20" d="M512.45,217c.12.08.13.2,0,.27l-2,1.17a.47.47,0,0,1-.46,0l-2-1.15c-.13-.07-.13-.19,0-.26l2-1.18a.53.53,0,0,1,.46,0Z" transform="translate(-2.41 -42.02)"/><path class="cls-10" d="M510.2,218.68a.61.61,0,0,1-.3-.08l-2-1.15a.31.31,0,0,1-.17-.25.29.29,0,0,1,.17-.25l2-1.17a.62.62,0,0,1,.59,0l2,1.14a.33.33,0,0,1,.16.26.3.3,0,0,1-.16.25l-2,1.17A.61.61,0,0,1,510.2,218.68ZM508,217.2l0,0,2,1.15a.44.44,0,0,0,.32,0l2-1.18h0s0,0,0,0l-2-1.15a.38.38,0,0,0-.33,0l-2,1.18Z" transform="translate(-2.41 -42.02)"/><path class="cls-20" d="M520.73,215.66a.14.14,0,0,1,0,.26l-12.66,7.36a.47.47,0,0,1-.46,0l-2.37-1.36c-.12-.07-.12-.19,0-.27l12.66-7.36a.53.53,0,0,1,.46,0Z" transform="translate(-2.41 -42.02)"/><path class="cls-10" d="M507.84,223.47a.58.58,0,0,1-.3-.07L505.18,222a.29.29,0,0,1-.17-.25.31.31,0,0,1,.16-.26l12.67-7.35a.62.62,0,0,1,.59,0l2.36,1.36a.29.29,0,0,1,.17.25.3.3,0,0,1-.16.25l-12.67,7.36A.57.57,0,0,1,507.84,223.47Zm-2.55-1.68h0l2.36,1.36a.38.38,0,0,0,.33,0l12.66-7.35,0,0h0l-2.36-1.37a.38.38,0,0,0-.33,0l-12.66,7.36Z" transform="translate(-2.41 -42.02)"/><path class="cls-20" d="M504.41,221.71c.13.08.13.2,0,.27l-2,1.17a.47.47,0,0,1-.46,0l-2-1.15c-.13-.07-.13-.19,0-.26l2-1.18a.53.53,0,0,1,.46,0Z" transform="translate(-2.41 -42.02)"/><path class="cls-10" d="M502.16,223.35a.64.64,0,0,1-.3-.08l-2-1.15a.28.28,0,0,1,0-.5l2-1.17a.64.64,0,0,1,.6,0l2,1.15a.28.28,0,0,1,0,.5l-2,1.17A.58.58,0,0,1,502.16,223.35ZM500,221.87l0,0,2,1.15a.44.44,0,0,0,.32,0l2-1.18h0l0,0-2-1.15a.36.36,0,0,0-.32,0l-2,1.18Z" transform="translate(-2.41 -42.02)"/><path class="cls-20" d="M495.06,224.08c.13.07.13.19,0,.27l-4,2.33a.53.53,0,0,1-.46,0l-2-1.15c-.13-.08-.13-.2,0-.27l4-2.33a.53.53,0,0,1,.46,0Z" transform="translate(-2.41 -42.02)"/><path class="cls-10" d="M490.82,226.87a.64.64,0,0,1-.3-.08l-2-1.15a.28.28,0,0,1,0-.5l4-2.33a.64.64,0,0,1,.6,0l2,1.15a.28.28,0,0,1,0,.5l-4,2.33A.58.58,0,0,1,490.82,226.87Zm-2.17-1.48s0,0,0,0l2,1.15a.36.36,0,0,0,.32,0l4-2.33,0,0h0l-2-1.15a.36.36,0,0,0-.32,0l-4,2.33Z" transform="translate(-2.41 -42.02)"/><path class="cls-20" d="M491.74,222.94c.13.07.13.19,0,.27l-3.34,1.94a.53.53,0,0,1-.46,0L486,224c-.12-.08-.13-.2,0-.27l3.34-1.94a.53.53,0,0,1,.46,0Z" transform="translate(-2.41 -42.02)"/><path class="cls-10" d="M488.17,225.34a.57.57,0,0,1-.29-.08l-2-1.15a.28.28,0,0,1,0-.5l3.34-1.94a.64.64,0,0,1,.6,0l2,1.15a.28.28,0,0,1,0,.51l-3.34,1.93A.58.58,0,0,1,488.17,225.34ZM486,223.86l0,0,2,1.15a.38.38,0,0,0,.33,0l3.33-1.94h0s0,0,0,0l-2-1.15a.38.38,0,0,0-.33,0L486,223.85Z" transform="translate(-2.41 -42.02)"/><path class="cls-20" d="M496.32,214.22c.13.07.13.19,0,.27l-2,1.17a.53.53,0,0,1-.46,0l-1-.6c-.12-.08-.12-.2,0-.27l2-1.17a.47.47,0,0,1,.46,0Z" transform="translate(-2.41 -42.02)"/><path class="cls-10" d="M494.07,215.85a.63.63,0,0,1-.3-.07l-1-.61a.29.29,0,0,1-.17-.25.3.3,0,0,1,.16-.25l2-1.17a.64.64,0,0,1,.6,0l1.05.6a.28.28,0,0,1,0,.5l-2,1.18A.58.58,0,0,1,494.07,215.85Zm-1.23-.93,0,0,1.05.6a.36.36,0,0,0,.32,0l2-1.17s0,0,0,0h0l-1.05-.61a.36.36,0,0,0-.32,0l-2,1.18Z" transform="translate(-2.41 -42.02)"/></g><g id="Criminal"><circle class="cls-21" cx="160.39" cy="79.06" r="42.52"/><polygon class="cls-4" points="187.56 162.24 187.56 166.99 98.02 219.85 97.87 219.76 97.87 215.01 98.02 215.1 187.56 162.24"/><polygon class="cls-5" points="97.87 215.01 97.87 219.76 1.77 164.03 1.77 159.28 97.87 215.01"/><polygon class="cls-6" points="97.65 215.03 1.55 159.3 1.55 159.03 91.86 107.13 187.34 162.25 97.8 215.12 97.65 215.03"/><rect class="cls-22" x="129.24" y="59.49" width="61.71" height="42.07"/><rect class="cls-23" x="132.38" y="69.55" width="55.43" height="21.95"/><rect class="cls-4" x="132.38" y="61.75" width="5.81" height="5.81"/><rect class="cls-4" x="132.38" y="93.5" width="5.81" height="5.81"/><rect class="cls-4" x="182" y="61.75" width="5.81" height="5.81"/><rect class="cls-4" x="182" y="93.5" width="5.81" height="5.81"/><rect class="cls-4" x="169.6" y="61.75" width="5.81" height="5.81"/><rect class="cls-4" x="169.6" y="93.5" width="5.81" height="5.81"/><rect class="cls-4" x="157.19" y="61.75" width="5.81" height="5.81"/><rect class="cls-4" x="157.19" y="93.5" width="5.81" height="5.81"/><rect class="cls-4" x="144.79" y="61.75" width="5.81" height="5.81"/><rect class="cls-4" x="144.79" y="93.5" width="5.81" height="5.81"/><path class="cls-4" d="M157.64,120.74v3.62a3.8,3.8,0,0,0,5.7,3.29l3.13-1.81a3.8,3.8,0,0,0,0-6.58l-3.13-1.8A3.8,3.8,0,0,0,157.64,120.74Z" transform="translate(-2.41 -42.02)"/><path class="cls-24" d="M123,204.75,70,174.19a7.11,7.11,0,0,0-6.43,0L32.06,192.52c-1.76,1-1.75,2.69,0,3.72L85,226.79a7.09,7.09,0,0,0,6.42,0L123,208.47C124.74,207.44,124.73,205.77,123,204.75Z" transform="translate(-2.41 -42.02)"/><g class="cls-14"><g class="cls-25"><g class="cls-14"><path class="cls-26" d="M71.88,170.34l1.83-1.06a.21.21,0,0,1-.08-.06l-1.82,1.06a.19.19,0,0,0,.07.06" transform="translate(-2.41 -42.02)"/><path class="cls-27" d="M71.81,170.28l1.82-1.06,0,0-1.83,1.06,0,0" transform="translate(-2.41 -42.02)"/><path class="cls-28" d="M71.78,170.26l1.83-1.06,0,0-1.83,1.06,0,0" transform="translate(-2.41 -42.02)"/><path class="cls-29" d="M71.76,170.23l1.83-1.06,0,0-1.82,1.06v0" transform="translate(-2.41 -42.02)"/><path class="cls-30" d="M71.75,170.21l1.82-1.06v0l-1.83,1.06,0,0" transform="translate(-2.41 -42.02)"/><path class="cls-31" d="M71.73,170.19l1.83-1.06v0l-1.83,1.06v0" transform="translate(-2.41 -42.02)"/><path class="cls-32" d="M71.72,170.17l1.83-1.06v0l-1.83,1.06v0" transform="translate(-2.41 -42.02)"/><path class="cls-33" d="M71.71,170.15l1.83-1.06v0l-1.83,1.06v0" transform="translate(-2.41 -42.02)"/><path class="cls-34" d="M71.7,170.13l1.83-1.06v0l-1.83,1.06v0" transform="translate(-2.41 -42.02)"/><path class="cls-35" d="M71.69,170.11l1.83-1.06v0l-1.83,1.06v0" transform="translate(-2.41 -42.02)"/><path class="cls-36" d="M71.68,170.09,73.51,169v0l-1.82,1.06v0" transform="translate(-2.41 -42.02)"/><path class="cls-37" d="M71.68,170.07,73.5,169v0l-1.82,1.07v0" transform="translate(-2.41 -42.02)"/><path class="cls-38" d="M71.67,170.05,73.49,169v0L71.66,170v0" transform="translate(-2.41 -42.02)"/><path class="cls-39" d="M71.66,170,73.49,169v0L71.66,170v0" transform="translate(-2.41 -42.02)"/><path class="cls-40" d="M71.66,170l1.82-1.06v-.05l-1.83,1.06a.09.09,0,0,0,0,.05" transform="translate(-2.41 -42.02)"/></g></g></g><polygon class="cls-41" points="69.24 127.92 71.07 126.86 71.17 92.29 69.34 93.36 69.24 127.92"/><g class="cls-14"><g class="cls-42"><g class="cls-14"><path class="cls-40" d="M71.75,135.38l1.83-1.06c0-.08,0-.13.07-.15l-1.83,1.06a.16.16,0,0,0-.07.15" transform="translate(-2.41 -42.02)"/></g></g></g><g class="cls-14"><g class="cls-43"><g class="cls-14"><path class="cls-44" d="M72,135.24l1.83-1.06,0,0L72,135.23h0" transform="translate(-2.41 -42.02)"/><path class="cls-45" d="M72,135.23l1.83-1.07h0l-1.83,1.06h0" transform="translate(-2.41 -42.02)"/><path class="cls-46" d="M71.92,135.22l1.83-1.06h0l-1.83,1.06h0" transform="translate(-2.41 -42.02)"/><path class="cls-47" d="M71.9,135.21l1.83-1.06h0l-1.82,1.06h0" transform="translate(-2.41 -42.02)"/><path class="cls-48" d="M71.89,135.21l1.82-1.06h0l-1.83,1.06h0" transform="translate(-2.41 -42.02)"/><path class="cls-49" d="M71.87,135.21l1.83-1.06h0l-1.83,1.06h0" transform="translate(-2.41 -42.02)"/><path class="cls-50" d="M71.86,135.21l1.83-1.06h0l-1.83,1.07h0" transform="translate(-2.41 -42.02)"/><path class="cls-51" d="M71.84,135.22l1.83-1.07h0l-1.83,1.06h0" transform="translate(-2.41 -42.02)"/><path class="cls-52" d="M71.83,135.22l1.83-1.06h0l-1.83,1.07h0" transform="translate(-2.41 -42.02)"/><polyline class="cls-53" points="69.41 93.2 71.24 92.14 71.24 92.14 69.41 93.2 69.41 93.2"/></g></g></g><polygon class="cls-22" points="119.56 157.24 121.38 156.17 71.3 127.26 69.47 128.32 119.56 157.24"/><g class="cls-14"><g class="cls-54"><g class="cls-14"><polyline class="cls-35" points="119.72 157.25 121.55 156.19 121.55 156.19 119.72 157.25 119.72 157.25"/><path class="cls-34" d="M122.13,199.28l1.83-1.07h0l-1.83,1.06h0" transform="translate(-2.41 -42.02)"/><path class="cls-33" d="M122.12,199.28l1.83-1.06h0l-1.82,1.07h0" transform="translate(-2.41 -42.02)"/><path class="cls-32" d="M122.11,199.29l1.82-1.07h0l-1.83,1.06h0" transform="translate(-2.41 -42.02)"/><path class="cls-31" d="M122.09,199.29l1.83-1.06h0l-1.83,1.06h0" transform="translate(-2.41 -42.02)"/><path class="cls-30" d="M122.08,199.29l1.83-1.06h0l-1.83,1.06h0" transform="translate(-2.41 -42.02)"/><path class="cls-29" d="M122.06,199.29l1.83-1.06h0l-1.82,1.06h0" transform="translate(-2.41 -42.02)"/><path class="cls-28" d="M122.05,199.29l1.82-1.06h0L122,199.28h0" transform="translate(-2.41 -42.02)"/><path class="cls-27" d="M122,199.28l1.82-1.06h0L122,199.27h0" transform="translate(-2.41 -42.02)"/><path class="cls-26" d="M122,199.27l1.82-1.06h0L122,199.26h0" transform="translate(-2.41 -42.02)"/></g></g></g><g class="cls-14"><g class="cls-55"><g class="cls-14"><path class="cls-56" d="M122.13,199.27l1.83-1.06a.15.15,0,0,0,.07-.14l-1.83,1.06a.15.15,0,0,1-.07.14" transform="translate(-2.41 -42.02)"/></g></g></g><polygon class="cls-57" points="119.79 157.1 121.62 156.04 121.72 121.48 119.89 122.54 119.79 157.1"/><polygon class="cls-58" points="119.66 122.13 121.48 121.07 71.4 92.16 69.57 93.22 119.66 122.13"/><path class="cls-17" d="M72,135.24c-.12-.07-.23,0-.23.14l-.1,34.56a.52.52,0,0,0,.23.4L122,199.26c.13.07.24,0,.24-.13l.1-34.57a.5.5,0,0,0-.24-.4Z" transform="translate(-2.41 -42.02)"/><g class="cls-14"><g class="cls-59"><g class="cls-14"><path class="cls-56" d="M122.3,164.56l1.83-1.06s0,0,0-.05l-1.83,1.07a.06.06,0,0,1,0,0" transform="translate(-2.41 -42.02)"/><path class="cls-60" d="M122.29,164.52l1.83-1.07v0l-1.83,1.06v0" transform="translate(-2.41 -42.02)"/><path class="cls-61" d="M122.29,164.48l1.83-1.06v0l-1.83,1.07v0" transform="translate(-2.41 -42.02)"/><path class="cls-62" d="M122.28,164.46l1.83-1.07v0l-1.82,1.06v0" transform="translate(-2.41 -42.02)"/><path class="cls-63" d="M122.28,164.43l1.82-1.06v0l-1.82,1.06v0" transform="translate(-2.41 -42.02)"/><path class="cls-53" d="M122.27,164.41l1.82-1.06v0l-1.83,1.06v0" transform="translate(-2.41 -42.02)"/><path class="cls-52" d="M122.26,164.39l1.83-1.06v0l-1.83,1.06v0" transform="translate(-2.41 -42.02)"/><path class="cls-51" d="M122.25,164.37l1.83-1.06v0l-1.83,1.06v0" transform="translate(-2.41 -42.02)"/><path class="cls-50" d="M122.24,164.35l1.83-1.06v0l-1.83,1.06v0" transform="translate(-2.41 -42.02)"/><path class="cls-49" d="M122.23,164.33l1.83-1.06,0,0-1.82,1.06v0" transform="translate(-2.41 -42.02)"/><path class="cls-48" d="M122.22,164.31l1.82-1.06v0l-1.83,1.06,0,0" transform="translate(-2.41 -42.02)"/><path class="cls-47" d="M122.2,164.29l1.83-1.06,0,0-1.82,1.06v0" transform="translate(-2.41 -42.02)"/><path class="cls-46" d="M122.19,164.27l1.82-1.06v0l-1.83,1.06,0,0" transform="translate(-2.41 -42.02)"/><path class="cls-45" d="M122.17,164.24l1.83-1.06,0,0-1.83,1.06,0,0" transform="translate(-2.41 -42.02)"/><path class="cls-44" d="M122.14,164.22l1.83-1.06a.27.27,0,0,0-.08-.07l-1.83,1.07a.16.16,0,0,1,.08.06" transform="translate(-2.41 -42.02)"/></g></g></g><path class="cls-64" d="M126.85,164.57v-.06s0,0,0-.07a2,2,0,0,0,0-.24.52.52,0,0,0,0-.11s0,0,0-.05a.83.83,0,0,0,0-.15l0-.14a.24.24,0,0,1,0-.08.56.56,0,0,1,0-.12l0-.11a.69.69,0,0,1,0-.13.42.42,0,0,0,0-.1s0,0,0-.05-.08-.18-.11-.27h0l0,0-.09-.21a.2.2,0,0,1,0-.08l0-.09,0-.08a1.14,1.14,0,0,1-.1-.19l0-.05h0l-.16-.26,0,0-.06-.09-.09-.14-.06-.07-.08-.12-.06-.08-.08-.09-.11-.14,0-.06-.07-.07-.2-.21-.06-.07,0,0a3.7,3.7,0,0,0-.42-.37l-.07-.06c-.16-.12-.31-.22-.47-.32L73.82,131l-.38-.19,0,0-.07,0-.21-.08-.07,0H73l-.12,0h-.49l-.18,0H72.1l-.08,0-.08,0,0,0h0l-.15.07h0l-1.82,1.06h0l.19-.09,0,0,.17,0,0,0,.22,0h.33l.15,0,.13,0,.13,0,.21.07.12,0,.37.18L122.07,161a4.76,4.76,0,0,1,.47.31l.08.06c.14.11.28.24.42.37a.94.94,0,0,0,.1.1l.2.21.11.13.12.14.13.17.08.12c.06.07.1.14.15.21l.06.09c.07.1.13.2.19.3l0,.06c.05.09.1.18.14.27l.05.09c0,.09.09.19.14.28v0l.14.33,0,.1a2.25,2.25,0,0,1,.08.24l0,.12.06.22,0,.15a1.24,1.24,0,0,1,0,.16c0,.08,0,.16,0,.24s0,.09,0,.13a4.73,4.73,0,0,1,0,.52l-.1,34.57a2.12,2.12,0,0,1-.87,1.92l1.82-1.07a2.09,2.09,0,0,0,.88-1.91l.09-34.57A4.53,4.53,0,0,0,126.85,164.57Z" transform="translate(-2.41 -42.02)"/><path class="cls-16" d="M122.07,161a6.57,6.57,0,0,1,3,5.16l-.1,34.57c0,1.9-1.35,2.66-3,1.71L71.87,173.51a6.57,6.57,0,0,1-3-5.16l.1-34.56c0-1.9,1.35-2.67,3-1.72Zm-50.42,8.95a.52.52,0,0,0,.23.4L122,199.26c.13.07.24,0,.24-.13l.1-34.57a.5.5,0,0,0-.24-.4L72,135.24c-.12-.07-.23,0-.23.14l-.1,34.56" transform="translate(-2.41 -42.02)"/><polygon class="cls-39" points="114.37 158.87 114.36 160.99 70.13 135.45 70.13 133.33 114.37 158.87"/><polygon class="cls-65" points="115.66 158.13 115.65 160.24 114.36 160.99 114.37 158.87 115.66 158.13"/><polygon class="cls-22" points="115.66 158.13 114.37 158.87 70.13 133.33 71.42 132.59 115.66 158.13"/><path class="cls-66" d="M120.42,201.51l-2.36-1.36-1.28.75L72.54,175.36l1.29-.75-3.39-2a6.7,6.7,0,0,0-6.06,0L34.59,190c-1.67,1-1.66,2.55,0,3.52l50,28.85a6.69,6.69,0,0,0,6.07,0L120.44,205C122.11,204.05,122.1,202.48,120.42,201.51Z" transform="translate(-2.41 -42.02)"/><path class="cls-64" d="M51.33,184.59,67.88,175a2.13,2.13,0,0,1,.82-.25l.31,0a2.4,2.4,0,0,1,.6.07l.14,0a1.69,1.69,0,0,1,.27.1l.12.06,45.93,26.52c.54.31.62.8.21,1.16l-.2.15-16.55,9.61a2.19,2.19,0,0,1-.83.26h-.15a3.12,3.12,0,0,1-.75-.06l-.15,0a1.71,1.71,0,0,1-.39-.17L51.34,185.9a.81.81,0,0,1-.47-.66.65.65,0,0,1,.11-.34l.07-.09A1.3,1.3,0,0,1,51.33,184.59Z" transform="translate(-2.41 -42.02)"/><path class="cls-22" d="M59.27,189.3l.06,0L62,187.73c.14-.08.15-.22,0-.29L59.5,186a.58.58,0,0,0-.5,0l-2.66,1.55c-.14.08-.15.21,0,.29l2.5,1.44.11.05h.13a.45.45,0,0,0,.2,0" transform="translate(-2.41 -42.02)"/><path class="cls-22" d="M63.14,191.59l.12,0L65.93,190a.26.26,0,0,0,.1-.11.11.11,0,0,0,0-.08l0,0a.16.16,0,0,0-.07-.07l-2.5-1.44a.55.55,0,0,0-.5,0l-2.67,1.55c-.12.07-.14.18-.05.26l0,0,2.5,1.45.12,0a.66.66,0,0,0,.2,0l.06,0" transform="translate(-2.41 -42.02)"/><path class="cls-22" d="M66.7,193.83a.55.55,0,0,0,.5,0l2.66-1.55c.14-.08.15-.21,0-.29l-2.5-1.44a.52.52,0,0,0-.5,0l-2.66,1.54c-.14.09-.15.22,0,.29l2.5,1.45" transform="translate(-2.41 -42.02)"/><path class="cls-22" d="M104.51,199.5c.14-.08.15-.21,0-.29l-2.5-1.44a.55.55,0,0,0-.5,0L99.37,199c-.15.08-.15.21,0,.29l2.49,1.44a.52.52,0,0,0,.5,0l2.16-1.25" transform="translate(-2.41 -42.02)"/><path class="cls-22" d="M105.46,200.05l-2.16,1.25c-.14.08-.14.21,0,.29l2.5,1.44a.55.55,0,0,0,.5,0l2.16-1.26c.14-.08.15-.21,0-.29L106,200a.55.55,0,0,0-.5,0" transform="translate(-2.41 -42.02)"/><path class="cls-22" d="M89,194.83c.14-.08.15-.22,0-.29l-2.5-1.44a.55.55,0,0,0-.5,0l-2.16,1.26c-.14.08-.14.21,0,.29l2.5,1.44a.55.55,0,0,0,.5,0L89,194.83" transform="translate(-2.41 -42.02)"/><path class="cls-22" d="M90,195.37l-2.16,1.26c-.14.08-.14.21,0,.29l2.5,1.44a.52.52,0,0,0,.5,0L93,197.1c.14-.08.14-.21,0-.29l-2.5-1.44a.55.55,0,0,0-.5,0" transform="translate(-2.41 -42.02)"/><path class="cls-22" d="M85.07,192.55c.14-.08.15-.21,0-.29l-2.49-1.44a.57.57,0,0,0-.51,0l-2.16,1.25a.15.15,0,0,0,0,.29l2.49,1.44a.55.55,0,0,0,.5,0l2.16-1.26" transform="translate(-2.41 -42.02)"/><path class="cls-22" d="M81.14,190.28c.14-.08.14-.21,0-.29l-2.5-1.44a.55.55,0,0,0-.5,0L76,189.81c-.14.08-.15.21,0,.29l2.5,1.44a.55.55,0,0,0,.5,0l2.16-1.26" transform="translate(-2.41 -42.02)"/><path class="cls-22" d="M77.2,188c.14-.08.15-.21,0-.29l-2.5-1.44a.55.55,0,0,0-.5,0l-2.16,1.26c-.14.08-.14.21,0,.29l2.5,1.44a.55.55,0,0,0,.5,0L77.2,188" transform="translate(-2.41 -42.02)"/><path class="cls-22" d="M72.49,189.53l-2.15,1.26c-.14.08-.15.21,0,.29l2.49,1.44a.54.54,0,0,0,.51,0l2.15-1.25c.14-.08.15-.21,0-.29L73,189.53a.55.55,0,0,0-.5,0" transform="translate(-2.41 -42.02)"/><path class="cls-22" d="M74.27,193.06c-.14.08-.14.21,0,.29l2.5,1.44a.52.52,0,0,0,.5,0l2.16-1.25c.14-.08.15-.21,0-.29l-2.5-1.44a.55.55,0,0,0-.5,0l-2.16,1.26" transform="translate(-2.41 -42.02)"/><path class="cls-22" d="M78.21,195.33c-.14.08-.15.21,0,.29l2.5,1.45a.58.58,0,0,0,.5,0l2.16-1.26c.14-.08.14-.21,0-.29l-2.5-1.44a.55.55,0,0,0-.38,0,.33.33,0,0,0-.12.05l-2.16,1.25" transform="translate(-2.41 -42.02)"/><path class="cls-22" d="M82.15,197.6c-.15.09-.15.22,0,.3l2.5,1.44a.57.57,0,0,0,.51,0l2.15-1.25c.14-.08.15-.21,0-.29l-2.5-1.45a.58.58,0,0,0-.5,0l-2.15,1.25" transform="translate(-2.41 -42.02)"/><path class="cls-22" d="M86.08,199.88c-.14.08-.14.21,0,.29l2.5,1.44a.52.52,0,0,0,.5,0l2.16-1.25c.14-.08.14-.21,0-.29l-2.5-1.44a.55.55,0,0,0-.5,0l-2.16,1.26" transform="translate(-2.41 -42.02)"/><path class="cls-22" d="M90,202.23c-.06.07,0,.16.07.22l2.5,1.44,0,0a.45.45,0,0,0,.2,0,.65.65,0,0,0,.19,0l.06,0,2.16-1.25a.15.15,0,0,0,0-.29l-2.49-1.44a.55.55,0,0,0-.5,0L90,202.16a.27.27,0,0,0-.08.07" transform="translate(-2.41 -42.02)"/><path class="cls-22" d="M94.72,200.63l2.16-1.26c.14-.08.15-.21,0-.29l-2.49-1.44a.55.55,0,0,0-.5,0l-2.16,1.25c-.14.08-.15.21,0,.29l2.49,1.44a.55.55,0,0,0,.5,0" transform="translate(-2.41 -42.02)"/><path class="cls-22" d="M95.67,201.17c-.14.09-.14.22,0,.29l2.5,1.45a.58.58,0,0,0,.5,0l2.16-1.26c.14-.08.14-.21,0-.29l-2.5-1.44a.58.58,0,0,0-.5,0l-2.16,1.25" transform="translate(-2.41 -42.02)"/><path class="cls-22" d="M100.57,197.23c.09,0,.13-.12.11-.19s0-.07-.1-.1l-2.49-1.44a.5.5,0,0,0-.38,0,.34.34,0,0,0-.12,0l-2.16,1.25c-.11.07-.13.16-.08.23a.14.14,0,0,0,.07.06l2.5,1.45a.58.58,0,0,0,.5,0l2.15-1.25" transform="translate(-2.41 -42.02)"/><path class="cls-22" d="M96.64,195c.14-.08.14-.21,0-.29l-2.5-1.44a.55.55,0,0,0-.5,0l-2.16,1.25c-.14.09-.14.21,0,.29l2.5,1.44a.55.55,0,0,0,.5,0L96.64,195" transform="translate(-2.41 -42.02)"/><path class="cls-22" d="M92.7,192.68c.14-.08.15-.21,0-.29L90.22,191a.54.54,0,0,0-.51,0l-2.15,1.25c-.14.08-.15.21,0,.29L90,193.94a.54.54,0,0,0,.51,0l2.15-1.25" transform="translate(-2.41 -42.02)"/><path class="cls-22" d="M88.85,190.34c.05-.08,0-.16-.07-.22l-2.5-1.44-.06,0a.53.53,0,0,0-.33,0l-.11,0-2.16,1.26-.08.06c-.06.08,0,.17.07.23l2.5,1.44a.52.52,0,0,0,.31.05.53.53,0,0,0,.19-.06l2.16-1.25.08-.07" transform="translate(-2.41 -42.02)"/><path class="cls-22" d="M84.83,188.14c.14-.09.14-.22,0-.29l-2.5-1.45a.55.55,0,0,0-.5,0l-2.16,1.25c-.14.09-.14.21,0,.29l2.49,1.45a.58.58,0,0,0,.5,0l2.16-1.25" transform="translate(-2.41 -42.02)"/><path class="cls-22" d="M80.89,185.86c.14-.08.15-.21,0-.29l-2.5-1.44a.55.55,0,0,0-.5,0l-2.15,1.25c-.15.08-.15.21,0,.29l2.5,1.44a.55.55,0,0,0,.5,0l2.15-1.26" transform="translate(-2.41 -42.02)"/><path class="cls-22" d="M77,183.56a.14.14,0,0,0,0-.19.23.23,0,0,0-.07-.07l-2.5-1.44a.55.55,0,0,0-.5,0l-2.16,1.26c-.14.08-.15.21,0,.29l2.5,1.44a.52.52,0,0,0,.5,0L77,183.59l0,0" transform="translate(-2.41 -42.02)"/><path class="cls-22" d="M73,181.32c.14-.08.14-.21,0-.29l-2.5-1.45a.58.58,0,0,0-.5,0l-2.16,1.25c-.14.09-.14.22,0,.29l2.5,1.45.06,0a.56.56,0,0,0,.44,0L73,181.32" transform="translate(-2.41 -42.02)"/><path class="cls-22" d="M70.78,184a.57.57,0,0,0-.51,0l-2.15,1.25c-.14.09-.15.22,0,.29l2.5,1.45a.58.58,0,0,0,.5,0l2.15-1.25c.14-.09.15-.22,0-.29L70.78,184" transform="translate(-2.41 -42.02)"/><path class="cls-22" d="M68.56,187.26l-2.16,1.25c-.14.09-.15.22,0,.29l2.5,1.45a.55.55,0,0,0,.5,0L71.55,189c.14-.09.14-.22,0-.3l-2.49-1.44a.58.58,0,0,0-.5,0" transform="translate(-2.41 -42.02)"/><path class="cls-22" d="M82.44,202.92a.57.57,0,0,0,.51,0l2.66-1.55c.14-.08.15-.21,0-.29l-1-.56-1.52-.88-1.44-.83-2.49-1.44-1.44-.83-2.5-1.44-3.94-2.28a.55.55,0,0,0-.5,0l-2.66,1.55c-.15.08-.15.21,0,.29l3.93,2.27,2.5,1.44,1.44.83,2.5,1.45,1.44.83,1.51.87,1,.57" transform="translate(-2.41 -42.02)"/><path class="cls-22" d="M86.38,205.19a.52.52,0,0,0,.5,0l2.67-1.54c.14-.09.14-.22,0-.29l-2.5-1.45a.58.58,0,0,0-.5,0l-2.66,1.55c-.15.08-.15.21,0,.29l2.5,1.44" transform="translate(-2.41 -42.02)"/><path class="cls-22" d="M90.32,207.46a.55.55,0,0,0,.5,0l2.66-1.55c.14-.08.15-.21,0-.29L91,204.18a.55.55,0,0,0-.5,0l-2.67,1.55c-.14.08-.15.21,0,.29l2.5,1.44" transform="translate(-2.41 -42.02)"/><path class="cls-22" d="M94.25,209.74a.57.57,0,0,0,.51,0l2.66-1.55c.14-.08.15-.21,0-.29l-2.5-1.44a.52.52,0,0,0-.5,0L91.77,208c-.14.09-.15.22,0,.3l2.49,1.44" transform="translate(-2.41 -42.02)"/><path class="cls-22" d="M101.36,210.45c.14-.08.14-.21,0-.29l-2.5-1.44a.55.55,0,0,0-.5,0l-2.67,1.55c-.14.08-.14.21,0,.29l2.5,1.44a.52.52,0,0,0,.5,0l2.67-1.55" transform="translate(-2.41 -42.02)"/><path class="cls-22" d="M105,208.32c.14-.08.15-.21,0-.29l-8.25-4.76a.43.43,0,0,0-.41,0l-2.25,1.3c-.11.07-.12.18,0,.25l8.25,4.76a.54.54,0,0,0,.51,0l2.15-1.25" transform="translate(-2.41 -42.02)"/><path class="cls-22" d="M108.7,206.19c.12-.07.14-.18,0-.26l0,0-3.93-2.27-.69-.4-1.81-1a.55.55,0,0,0-.5,0l-2.16,1.26a.24.24,0,0,0-.1.1.17.17,0,0,0,.09.19l1.32.76.49.28.69.4,3.93,2.27a.5.5,0,0,0,.32.05.41.41,0,0,0,.19-.05l2.16-1.26" transform="translate(-2.41 -42.02)"/><path class="cls-22" d="M112.39,204a.15.15,0,0,0,0-.29l-2.49-1.43a.55.55,0,0,0-.5,0l-2.17,1.26c-.14.08-.13.21,0,.29l2.48,1.43a.55.55,0,0,0,.5,0l2.17-1.26" transform="translate(-2.41 -42.02)"/><path class="cls-22" d="M112.73,200.67a.55.55,0,0,0-.5,0l-1.33.78a.15.15,0,0,0,0,.28l2.49,1.44a.55.55,0,0,0,.5,0l1.33-.77c.13-.08.13-.21,0-.29l-2.48-1.44" transform="translate(-2.41 -42.02)"/><path class="cls-22" d="M108.79,198.4a.55.55,0,0,0-.5,0l-1.32.77c-.14.08-.14.21,0,.29l2.5,1.44a.52.52,0,0,0,.5,0l1.31-.76c.14-.08.15-.21,0-.29l-2.49-1.44" transform="translate(-2.41 -42.02)"/><path class="cls-22" d="M104.85,196.13a.55.55,0,0,0-.5,0l-1.32.77c-.14.08-.14.21,0,.29l2.5,1.44a.55.55,0,0,0,.5,0l1.32-.76c.14-.08.14-.21,0-.29l-2.5-1.44" transform="translate(-2.41 -42.02)"/><path class="cls-22" d="M100.91,193.85a.58.58,0,0,0-.5,0l-1.31.76c-.14.09-.15.22,0,.29l2.49,1.45a.61.61,0,0,0,.51,0l1.31-.77c.14-.08.15-.21,0-.29l-2.5-1.44" transform="translate(-2.41 -42.02)"/><path class="cls-22" d="M97,191.58a.55.55,0,0,0-.5,0l-1.32.76c-.14.08-.14.21,0,.29l2.5,1.44a.55.55,0,0,0,.5,0l1.31-.77c.14-.08.15-.21,0-.29L97,191.58" transform="translate(-2.41 -42.02)"/><path class="cls-22" d="M92.72,189.26a.37.37,0,0,0-.18.05l-1.32.77,0,0a.15.15,0,0,0,0,.26l2.49,1.44.06,0a.58.58,0,0,0,.39,0l0,0,1.32-.76a.27.27,0,0,0,.08-.07s0-.05,0-.08a.19.19,0,0,0-.1-.14L93,189.31a.33.33,0,0,0-.12-.05h-.2" transform="translate(-2.41 -42.02)"/><path class="cls-22" d="M89.1,187a.55.55,0,0,0-.5,0l-1.31.76c-.14.09-.15.22,0,.3l2.5,1.44.11,0a.62.62,0,0,0,.27,0l.12-.05,1.31-.76a.16.16,0,0,0,.1-.19.17.17,0,0,0-.09-.1L89.1,187" transform="translate(-2.41 -42.02)"/><path class="cls-22" d="M84.92,184.7a.71.71,0,0,0-.26.07l-1.31.76c-.14.08-.15.21,0,.29l2.5,1.44.11.05a.49.49,0,0,0,.27,0l.12,0,1.31-.77c.14-.08.15-.21,0-.29l-2.49-1.44a.51.51,0,0,0-.25-.06" transform="translate(-2.41 -42.02)"/><path class="cls-22" d="M81.23,182.49a.55.55,0,0,0-.5,0l-1.32.77c-.14.08-.14.21,0,.29L81.9,185a.55.55,0,0,0,.5,0l1.32-.77c.14-.08.14-.21,0-.29l-2.5-1.44" transform="translate(-2.41 -42.02)"/><path class="cls-22" d="M77.29,180.22a.55.55,0,0,0-.5,0l-1.31.77c-.14.08-.15.21,0,.29l2.5,1.44a.55.55,0,0,0,.5,0l1.31-.76c.14-.08.15-.21,0-.29l-2.5-1.44" transform="translate(-2.41 -42.02)"/><path class="cls-22" d="M73.36,177.94a.55.55,0,0,0-.5,0l-1.32.76c-.14.08-.14.22,0,.29l2.5,1.45a.58.58,0,0,0,.5,0l1.32-.76c.14-.09.14-.22,0-.29l-2.5-1.45" transform="translate(-2.41 -42.02)"/><path class="cls-22" d="M67.6,176.44a.15.15,0,0,0,0,.29l2.49,1.44a.55.55,0,0,0,.5,0l1.32-.77a.15.15,0,0,0,0-.29l-2.49-1.44a.55.55,0,0,0-.5,0l-1.32.77" transform="translate(-2.41 -42.02)"/><path class="cls-22" d="M63.93,178.57c-.14.09-.14.22,0,.29l2.49,1.44a.55.55,0,0,0,.5,0L69.09,179a.15.15,0,0,0,0-.29l-2.49-1.43a.55.55,0,0,0-.5,0l-2.17,1.25" transform="translate(-2.41 -42.02)"/><path class="cls-22" d="M60.24,180.72c-.14.08-.14.21,0,.29l2.16,1.24.34.2,3.94,2.27a.55.55,0,0,0,.5,0l2.16-1.26c.14-.08.14-.21,0-.29L65.4,180.9l-.34-.2-2.16-1.24a.55.55,0,0,0-.5,0l-2.16,1.26" transform="translate(-2.41 -42.02)"/><path class="cls-22" d="M56.54,182.87a.15.15,0,0,0-.09.12.12.12,0,0,0,.08.12l8.25,4.76a.55.55,0,0,0,.5,0l2.16-1.26c.11-.06.13-.14.08-.22l-.07-.07-8.25-4.76a.37.37,0,0,0-.15,0,.53.53,0,0,0-.22,0l0,0-2.24,1.3" transform="translate(-2.41 -42.02)"/><path class="cls-22" d="M52.4,185.28c-.12.07-.14.18,0,.26l0,0,2.5,1.44a.51.51,0,0,0,.25.06l.19,0,.06,0,2.67-1.55.08-.06c0-.08,0-.17-.08-.23l-2.49-1.44-.12,0a.54.54,0,0,0-.38,0l-2.67,1.55" transform="translate(-2.41 -42.02)"/><path class="cls-64" d="M121.68,203.4s0,.09,0,.14a.43.43,0,0,1,0,.11.65.65,0,0,0,0,.13.47.47,0,0,1,0,.1.42.42,0,0,1-.06.14l-.06.09a1.3,1.3,0,0,1-.1.15l-.07.09a1.57,1.57,0,0,1-.18.19l-.07.07a.69.69,0,0,1-.13.11l-.12.1-.15.1-.17.1L90.66,222.33a3.17,3.17,0,0,1-.41.21l-.12.05-.33.13-.13,0-.22.06-.17.05-.23,0-.17,0-.48.07h-.16l-.29,0h-.83l-.2,0-.21,0-.2,0-.22,0-.18,0-.27-.07-.14,0a3.1,3.1,0,0,1-.46-.15l-.07,0a3.88,3.88,0,0,1-.58-.28l-50-28.85a2.52,2.52,0,0,1-1.19-1.3,1.49,1.49,0,0,1-.07-.47v2.11a2.15,2.15,0,0,0,1.27,1.77l50,28.86a4.43,4.43,0,0,0,.58.27l0,0h0l.46.16h0l.11,0,.26.06.07,0,.11,0,.23,0h.19l.21,0h.2l.22,0h1.06a4.13,4.13,0,0,0,.49-.07h0l.14,0,.24-.05.16,0,.22-.07h0l.08,0a3.24,3.24,0,0,0,.33-.13l.13,0,.4-.2,29.79-17.31,0,0,.11-.08.15-.1a.58.58,0,0,0,.12-.1l.14-.1,0,0,0,0,.18-.2,0,0,0,0,.1-.15,0-.06,0,0,.06-.13,0-.08v0a.5.5,0,0,0,0-.13.24.24,0,0,0,0-.08v0a.57.57,0,0,0,0-.13.28.28,0,0,0,0-.09v-2.15S121.68,203.36,121.68,203.4Z" transform="translate(-2.41 -42.02)"/><path class="cls-22" d="M116,208.25c.27-.16.48,0,.48.28a1,1,0,0,1-.47.82l-2.47,1.43c-.26.15-.48,0-.48-.28a1.08,1.08,0,0,1,.48-.83Z" transform="translate(-2.41 -42.02)"/><path class="cls-22" d="M111.13,211c.27-.15.48,0,.48.28a1,1,0,0,1-.48.83l-2.46,1.42c-.26.15-.48,0-.48-.27a1.07,1.07,0,0,1,.48-.84Z" transform="translate(-2.41 -42.02)"/><path class="cls-33" d="M119.08,206.36c.3-.18.54,0,.54.31a1.17,1.17,0,0,1-.54.94c-.3.18-.55,0-.55-.31A1.17,1.17,0,0,1,119.08,206.36Z" transform="translate(-2.41 -42.02)"/><path class="cls-18" d="M72,135.24c-.12-.07-.23,0-.23.14l-.1,34.56a.52.52,0,0,0,.23.4l11,6.33c.13.07,30.19-17.73,30.19-17.73Z" transform="translate(-2.41 -42.02)"/><path class="cls-64" d="M80.68,205c.52.3.53.79,0,1.09L72.19,211a2.06,2.06,0,0,1-1.9,0L52.7,200.85c-.52-.31-.53-.8,0-1.1l8.51-4.94a2.1,2.1,0,0,1,1.89,0Z" transform="translate(-2.41 -42.02)"/><circle class="cls-21" cx="44.52" cy="44.52" r="42.52"/><path class="cls-66" d="M33.75,92.09h1.9a0,0,0,0,1,0,0v22.13a0,0,0,0,1,0,0h-1.9a9.69,9.69,0,0,1-9.69-9.69v-2.75a9.69,9.69,0,0,1,9.69-9.69Z" transform="translate(-66.61 9.3) rotate(-45)"/><polygon class="cls-66" points="55.65 63.82 40 64.22 24.35 48.58 24.76 32.92 55.65 63.82"/><path class="cls-64" d="M41.77,106.88l-4.5,4.5a5.21,5.21,0,0,1-7.38,0L27.46,109l8.19-8.19Z" transform="translate(-2.41 -42.02)"/><polygon class="cls-64" points="55.65 63.82 40 64.22 33.87 58.1 41.9 50.07 55.65 63.82"/><path class="cls-67" d="M41.46,76.79A14.75,14.75,0,0,1,56.21,91.54" transform="translate(-2.41 -42.02)"/><path class="cls-67" d="M41.46,67.84a23.7,23.7,0,0,1,23.71,23.7" transform="translate(-2.41 -42.02)"/><path class="cls-67" d="M41.46,58.35A33.19,33.19,0,0,1,74.65,91.54" transform="translate(-2.41 -42.02)"/><path class="cls-24" d="M162.43,212.42,143.18,201.3a2.48,2.48,0,0,0-2.51,0l-11.77,6.82a2.51,2.51,0,0,0,0,4.34l1.12.65-8,4.57a1.77,1.77,0,0,0,0,3.07l6.77,3.8a1.76,1.76,0,0,0,1.75,0l9.64-5.53,7.92,4.57a2.48,2.48,0,0,0,2.51,0l11.78-6.82A2.51,2.51,0,0,0,162.43,212.42Z" transform="translate(-2.41 -42.02)"/><polygon class="cls-68" points="135.83 154.63 144.82 149.4 144.81 150.34 135.83 155.57 135.83 154.63"/><path class="cls-69" d="M140,189.22a2.58,2.58,0,0,0-1.61.22c-2,.82-8.2,3.07-8.2,3.07a.8.8,0,0,1,.82.08l7.19,4.06,9-5.22S141.81,189.84,140,189.22Z" transform="translate(-2.41 -42.02)"/><path class="cls-70" d="M151.3,206.46l0,13.51a.83.83,0,0,1-.33.75l9-5.23a.79.79,0,0,0,.34-.74l0-13.51Z" transform="translate(-2.41 -42.02)"/><polygon class="cls-69" points="135.83 155.57 144.81 150.34 156.73 157.22 147.74 162.45 135.83 155.57"/><path class="cls-70" d="M150.15,204.47l9-5.22a2.52,2.52,0,0,1,1.15,2l-9,5.22A2.54,2.54,0,0,0,150.15,204.47Z" transform="translate(-2.41 -42.02)"/><path class="cls-71" d="M138.24,196.65v.94l11.91,6.88a2.54,2.54,0,0,1,1.15,2l0,13.51c0,.74-.52,1-1.15.67l-19.1-11a2.55,2.55,0,0,1-1.16-2l0-14.36c0-.73.52-1,1.16-.66Z" transform="translate(-2.41 -42.02)"/><g class="cls-14"><path class="cls-68" d="M138.23,191.75v.86a1.1,1.1,0,0,1-.64.91,3.49,3.49,0,0,1-3.15,0,1.13,1.13,0,0,1-.66-.92v-.87a1.12,1.12,0,0,0,.66.92,3.5,3.5,0,0,0,3.15,0A1.11,1.11,0,0,0,138.23,191.75Z" transform="translate(-2.41 -42.02)"/><path class="cls-70" d="M137.57,190.83a1,1,0,0,1,0,1.82,3.49,3.49,0,0,1-3.15,0,1,1,0,0,1,0-1.82A3.43,3.43,0,0,1,137.57,190.83Z" transform="translate(-2.41 -42.02)"/></g><path class="cls-69" d="M131.05,201.52l4.5-2.33c1.15-.67,2.73-.57,4.48.44l-4.57,2.75C133.71,201.37,132.2,200.86,131.05,201.52Z" transform="translate(-2.41 -42.02)"/><path class="cls-71" d="M144.47,214.53l-4,2.81a4.9,4.9,0,0,0,1.94-4.26c0-4-2.67-9.18-6.15-11.18l3.77-2.27a13.83,13.83,0,0,1,6.27,10.86C146.3,212.48,145.6,213.87,144.47,214.53Z" transform="translate(-2.41 -42.02)"/><g class="cls-14"><path class="cls-68" d="M136,201.76a14.37,14.37,0,0,1,6.52,11.29c0,4.15-3,5.82-6.56,3.74a14.38,14.38,0,0,1-6.52-11.29C129.48,201.35,132.42,199.67,136,201.76Z" transform="translate(-2.41 -42.02)"/></g><path class="cls-68" d="M146.76,205.29l.45-.26a.86.86,0,0,1,.9.09l-.45.26A.89.89,0,0,0,146.76,205.29Z" transform="translate(-2.41 -42.02)"/><path class="cls-69" d="M149,208.11l-.45.26a.87.87,0,0,0,.37-.81,2.77,2.77,0,0,0-1.26-2.18l.45-.26a2.8,2.8,0,0,1,1.26,2.18A.89.89,0,0,1,149,208.11Z" transform="translate(-2.41 -42.02)"/><path class="cls-72" d="M147.66,205.38a2.77,2.77,0,0,1,1.26,2.18c0,.8-.57,1.12-1.27.72a2.77,2.77,0,0,1-1.26-2.18C146.39,205.3,147,205,147.66,205.38Z" transform="translate(-2.41 -42.02)"/><path class="cls-69" d="M132.31,194.67a3.66,3.66,0,0,1,1.64,2.84c0,1-.75,1.47-1.65.94a3.6,3.6,0,0,1-1.64-2.84C130.66,194.57,131.4,194.15,132.31,194.67Z" transform="translate(-2.41 -42.02)"/><g class="cls-14"><path class="cls-39" d="M137.8,191.59v.14a.92.92,0,0,1-.52.74,2.86,2.86,0,0,1-2.55,0,.9.9,0,0,1-.53-.75v-.15a.93.93,0,0,0,.53.75,2.86,2.86,0,0,0,2.55,0A.9.9,0,0,0,137.8,191.59Z" transform="translate(-2.41 -42.02)"/><path class="cls-72" d="M137.27,190.84a.78.78,0,0,1,0,1.48,2.86,2.86,0,0,1-2.55,0,.78.78,0,0,1,0-1.48A2.8,2.8,0,0,1,137.27,190.84Z" transform="translate(-2.41 -42.02)"/></g><path class="cls-70" d="M153.06,196.61l-6.1-1.28v5.56l6.1-3.54a.36.36,0,0,0,.21-.29v-.74A.36.36,0,0,1,153.06,196.61Z" transform="translate(-2.41 -42.02)"/><path class="cls-71" d="M139.81,192.9a.37.37,0,0,1-.21-.3v4.46a.36.36,0,0,0,.21.29l6.14,3.54v-4.45Z" transform="translate(-2.41 -42.02)"/><path class="cls-73" d="M147,195.93v4.95a1,1,0,0,1-1,0v-4.95A1,1,0,0,0,147,195.93Z" transform="translate(-2.41 -42.02)"/><path class="cls-72" d="M153.05,196c.28.16.29.43,0,.59,0,0-4.62-.55-6.1-.17a1.46,1.46,0,0,1-1,0l-6.14-3.54c-.28-.17-.31-.5,0-.59,1.46-.46,4-.3,6.14-.09a2.55,2.55,0,0,1,1,.26Z" transform="translate(-2.41 -42.02)"/><g class="cls-14"><path class="cls-69" d="M154.68,209.69v-3.12l-.44-.26v3.12a.37.37,0,0,0,.15.33l.45.26A.36.36,0,0,1,154.68,209.69Z" transform="translate(-2.41 -42.02)"/><path class="cls-70" d="M157.81,203.82a.37.37,0,0,0-.36,0l-2.72,1.57.45.26,2.72-1.57a.34.34,0,0,1,.36,0Z" transform="translate(-2.41 -42.02)"/><path class="cls-74" d="M154.67,206.57l-.44-.26a1.08,1.08,0,0,1,.5-.88l.45.26A1.13,1.13,0,0,0,154.67,206.57Z" transform="translate(-2.41 -42.02)"/><path class="cls-73" d="M157.9,204.12c.28-.16.51,0,.51.29v3.13a1.11,1.11,0,0,1-.51.87L155.19,210c-.28.16-.51,0-.51-.29v-3.12a1.13,1.13,0,0,1,.51-.88Z" transform="translate(-2.41 -42.02)"/></g><path class="cls-69" d="M124.71,206.89l7.48-4.35a3.85,3.85,0,0,1,3.88.38l-7.49,4.35A3.85,3.85,0,0,0,124.71,206.89Z" transform="translate(-2.41 -42.02)"/><path class="cls-71" d="M139.91,215.82l-7.49,4.35a3.79,3.79,0,0,0,1.59-3.49,12,12,0,0,0-5.43-9.41l7.49-4.35a12,12,0,0,1,5.43,9.41A3.8,3.8,0,0,1,139.91,215.82Z" transform="translate(-2.41 -42.02)"/><ellipse class="cls-71" cx="128.56" cy="213.53" rx="4.45" ry="7.68" transform="translate(-92.29 51.49) rotate(-30.16)"/><ellipse class="cls-68" cx="128.48" cy="213.53" rx="3.83" ry="6.61" transform="translate(-92.3 51.44) rotate(-30.16)"/><path class="cls-75" d="M128.49,208.66a9.31,9.31,0,0,1,4.23,7.32c0,2.69-1.91,3.77-4.26,2.42a9.3,9.3,0,0,1-4.22-7.31C124.25,208.4,126.15,207.31,128.49,208.66Z" transform="translate(-2.41 -42.02)"/><path class="cls-73" d="M133.17,216.24a10.28,10.28,0,0,0-4.68-8.09l-.16-.1c-2.34-1-4.16.19-4.17,3a10.29,10.29,0,0,0,4.68,8.09,1.29,1.29,0,0,0,.16.09C131.34,220.23,133.16,219,133.17,216.24Z" transform="translate(-2.41 -42.02)"/><path class="cls-76" d="M133.17,216.24a10.28,10.28,0,0,0-4.68-8.09l-.16-.1c-2.34-1-4.16.19-4.17,3a10.29,10.29,0,0,0,4.68,8.09,1.29,1.29,0,0,0,.16.09C131.34,220.23,133.16,219,133.17,216.24Z" transform="translate(-2.41 -42.02)"/><path class="cls-77" d="M133.16,216.27a10.16,10.16,0,0,0-4.62-8l-.17-.1c-2.31-1-4.11.19-4.11,2.93a10.18,10.18,0,0,0,4.62,8l.16.09C131.35,220.22,133.15,219,133.16,216.27Z" transform="translate(-2.41 -42.02)"/><g class="cls-78"><path class="cls-79" d="M129.35,208.82l-3.75,6.83a9.82,9.82,0,0,0,.76,1.14l3.92-7.13A10.37,10.37,0,0,0,129.35,208.82Z" transform="translate(-2.41 -42.02)"/></g><g class="cls-78"><path class="cls-79" d="M130.69,210.13l-3.94,7.16.39.42,3.91-7.12A5.19,5.19,0,0,0,130.69,210.13Z" transform="translate(-2.41 -42.02)"/></g><g class="cls-78"><path class="cls-79" d="M132.69,213.67l-3.14,5.71a3.27,3.27,0,0,0,1.39.15l2.17-4A8.14,8.14,0,0,0,132.69,213.67Z" transform="translate(-2.41 -42.02)"/></g><g class="cls-80"><path class="cls-23" d="M130.14,214.21a5.1,5.1,0,0,0-2.3-4l-.09,0c-1.15-.51-2,.09-2,1.45a5.1,5.1,0,0,0,2.3,4l.09,0C129.24,216.17,130.13,215.57,130.14,214.21Z" transform="translate(-2.41 -42.02)"/></g><g class="cls-81"><path class="cls-23" d="M130.77,216.34a2.62,2.62,0,0,0-1.19-2.06l0,0c-.6-.27-1.06.05-1.06.75a2.62,2.62,0,0,0,1.19,2.06l0,0C130.3,217.36,130.77,217,130.77,216.34Z" transform="translate(-2.41 -42.02)"/></g><path class="cls-68" d="M157.07,211.6c.28-.16.51,0,.51.29v2.54a1.13,1.13,0,0,1-.5.88l-1.06.6c-.27.17-.5,0-.5-.28v-2.54a1.1,1.1,0,0,1,.5-.88Z" transform="translate(-2.41 -42.02)"/><path class="cls-69" d="M157.58,211.89c0-.21-.1-.34-.25-.35a.45.45,0,0,1,0,.22v2.53a1.08,1.08,0,0,1-.5.88l-1,.61a.46.46,0,0,1-.26.06c.08.15.25.19.45.07l1.06-.6a1.13,1.13,0,0,0,.5-.88Z" transform="translate(-2.41 -42.02)"/><path class="cls-69" d="M147,211.43a.71.71,0,0,1,.34.57c0,.21-.15.3-.34.19a.73.73,0,0,1-.33-.57C146.68,211.41,146.83,211.32,147,211.43Z" transform="translate(-2.41 -42.02)"/><path class="cls-69" d="M146.68,212.53a.52.52,0,0,1,.22.39c0,.14-.1.2-.22.13a.52.52,0,0,1-.22-.39C146.46,212.52,146.56,212.46,146.68,212.53Z" transform="translate(-2.41 -42.02)"/><line class="cls-2" x1="473.3" y1="82.54" x2="473.3" y2="76.54"/><line class="cls-82" x1="473.3" y1="63.65" x2="473.3" y2="18.53"/><polyline class="cls-2" points="473.3 12.09 473.3 6.08 467.3 6.08"/><line class="cls-83" x1="454.94" y1="6.09" x2="115.22" y2="6.09"/><polyline class="cls-2" points="109.04 6.08 103.04 6.08 103.04 12.09"/><line class="cls-84" x1="103.04" y1="23.86" x2="103.04" y2="88.65"/><line class="cls-2" x1="103.04" y1="94.54" x2="103.04" y2="100.54"/><circle class="cls-6" cx="201.82" cy="6.09" r="5.67"/><circle class="cls-6" cx="103.04" cy="29.9" r="5.67"/><circle class="cls-6" cx="325.45" cy="6.09" r="5.67"/><circle class="cls-6" cx="448.62" cy="6.09" r="5.67"/><circle class="cls-21" cx="404.02" cy="79.06" r="42.52"/><ellipse class="cls-85" cx="395.02" cy="89.06" rx="20.52" ry="10.67"/><ellipse class="cls-85" cx="395.02" cy="83.06" rx="20.52" ry="10.67"/><ellipse class="cls-85" cx="395.02" cy="77.06" rx="20.52" ry="10.67"/><ellipse class="cls-85" cx="395.02" cy="70.06" rx="20.52" ry="10.67"/><ellipse class="cls-86" cx="395.02" cy="67.06" rx="20.52" ry="10.67"/><path class="cls-87" d="M418,130.29h0c-2.17,4.85-10.52,8.47-20.51,8.47s-18.34-3.62-20.52-8.47c0,0,0,0,0,0v4.93c2.16,4.86,10.52,8.5,20.53,8.5s18.34-3.62,20.51-8.47Z" transform="translate(-2.41 -42.02)"/><path class="cls-87" d="M418,124.29h0c-2.17,4.85-10.52,8.47-20.51,8.47s-18.34-3.62-20.52-8.47c0,0,0,0,0,0v4.93c2.16,4.86,10.52,8.5,20.53,8.5s18.34-3.62,20.51-8.47Z" transform="translate(-2.41 -42.02)"/><path class="cls-87" d="M418,118.29h0c-2.17,4.85-10.52,8.47-20.51,8.47s-18.34-3.62-20.52-8.47c0,0,0,0,0,0v4.93c2.16,4.86,10.52,8.5,20.53,8.5s18.34-3.62,20.51-8.47Z" transform="translate(-2.41 -42.02)"/><path class="cls-87" d="M418,112.29h0c-2.17,4.85-10.52,8.47-20.51,8.47s-18.34-3.62-20.52-8.47c0,0,0,0,0,0v4.93c2.16,4.86,10.52,8.5,20.53,8.5s18.34-3.62,20.51-8.47Z" transform="translate(-2.41 -42.02)"/><path class="cls-88" d="M397.44,143.76c10,0,18.34-3.62,20.51-8.47v-5h0c-2.17,4.85-10.52,8.47-20.51,8.47Z" transform="translate(-2.41 -42.02)"/><path class="cls-88" d="M397.44,137.76c10,0,18.34-3.62,20.51-8.47v-5h0c-2.17,4.85-10.52,8.47-20.51,8.47Z" transform="translate(-2.41 -42.02)"/><path class="cls-88" d="M397.44,131.76c10,0,18.34-3.62,20.51-8.47v-5h0c-2.17,4.85-10.52,8.47-20.51,8.47Z" transform="translate(-2.41 -42.02)"/><path class="cls-88" d="M397.44,125.76c10,0,18.34-3.62,20.51-8.47v-5h0c-2.17,4.85-10.52,8.47-20.51,8.47Z" transform="translate(-2.41 -42.02)"/><circle class="cls-23" cx="421.54" cy="77.8" r="14.76"/><path class="cls-4" d="M413.29,107.28a1,1,0,0,0-.07-1.26.91.91,0,0,0-1.34,0l-1.66,1.66a.92.92,0,0,0,0,1.33,1,1,0,0,0,1.26.07Z" transform="translate(-2.41 -42.02)"/><rect class="cls-89" x="411.63" y="107.97" width="2.51" height="1.36" transform="translate(41.71 281.77) rotate(-45)"/><rect class="cls-90" x="421.13" y="65.21" width="1.25" height="2.08"/><rect class="cls-90" x="415.21" y="110.57" width="1.2" height="2.1" transform="translate(40.45 284.69) rotate(-45)"/><rect class="cls-90" x="409.04" y="77.29" width="2.29" height="1.25"/><rect class="cls-90" x="414.76" y="127.35" width="2.1" height="1.2" transform="translate(28.9 289.48) rotate(-45)"/><rect class="cls-90" x="421.13" y="88.34" width="1.25" height="2.08"/><rect class="cls-90" x="431.54" y="126.9" width="1.2" height="2.1" transform="translate(33.71 301.07) rotate(-45.01)"/><rect class="cls-90" x="432.17" y="77.29" width="2.08" height="1.25"/><rect class="cls-90" x="431.09" y="111.02" width="2.1" height="1.2" transform="translate(45.2 296.19) rotate(-44.99)"/><polyline class="cls-1" points="421.75 87.71 421.75 87.11 421.75 77.92"/><line class="cls-1" x1="421.75" y1="68.54" x2="421.75" y2="67.92"/><polyline class="cls-1" points="421.75 87.71 421.75 87.11 421.75 77.92"/><line class="cls-1" x1="421.75" y1="68.54" x2="421.75" y2="67.92"/><polyline class="cls-1" points="428.54 84.79 428.14 84.39 421.54 77.8"/><line class="cls-1" x1="414.91" y1="71.16" x2="414.55" y2="70.8"/><line class="cls-1" x1="411.75" y1="77.92" x2="431.54" y2="77.92"/><line class="cls-1" x1="414.55" y1="84.79" x2="428.54" y2="70.8"/><path class="cls-1" d="M424.16,110.43v9.39l-6.63-6.63A9.45,9.45,0,0,1,424.16,110.43Z" transform="translate(-2.41 -42.02)"/><path class="cls-91" d="M433.54,119.78v0a9.35,9.35,0,0,1-2.88,6.59,9.46,9.46,0,0,1-6.65,2.72,9.24,9.24,0,0,1-9.22-9.31v0a9.31,9.31,0,0,1,2.73-6.59l6.64,6.63v-9.39a9.11,9.11,0,0,1,6.64,2.76A9.28,9.28,0,0,1,433.54,119.78Z" transform="translate(-2.41 -42.02)"/><path class="cls-90" d="M425.07,118.67a1.68,1.68,0,0,1,.2,2.57l-.07.07a1.68,1.68,0,0,1-2.57-.2c-1.56-1.85-4.29-5.79-5.55-7.51a.34.34,0,0,1,.48-.48C419.56,114.6,423.22,117.11,425.07,118.67Z" transform="translate(-2.41 -42.02)"/><path class="cls-92" d="M431.84,103.82H416.61V94.27a1.65,1.65,0,0,1,1.65-1.65h12a1.65,1.65,0,0,1,1.65,1.65ZM418.44,102H430l0-7.54H418.45Z" transform="translate(-2.41 -42.02)"/><rect class="cls-89" x="419.88" y="58.75" width="3.96" height="5"/><rect class="cls-4" x="418.42" y="55.63" width="6.88" height="3.96" rx="0.3" ry="0.3"/><path class="cls-4" d="M424,135.41a15.59,15.59,0,1,1,15.59-15.59A15.62,15.62,0,0,1,424,135.41ZM424,106a13.79,13.79,0,1,0,13.79,13.79A13.8,13.8,0,0,0,424,106Z" transform="translate(-2.41 -42.02)"/><path class="cls-6" d="M480.69,121.84H470.27a2.11,2.11,0,0,0-1.83,3.16l5.21,9a2.11,2.11,0,0,0,3.66,0l5.21-9A2.11,2.11,0,0,0,480.69,121.84Z" transform="translate(-2.41 -42.02)"/></g></svg>